<?xml version="1.0" standalone="no"?>
<!DOCTYPE svg PUBLIC "-//W3C//DTD SVG 1.1//EN" "http://www.w3.org/Graphics/SVG/1.1/DTD/svg11.dtd" >
<svg>
<metadata>
Created by FontForge 20090622 at Thu Jul 14 01:34:12 2016
 By deploy user
Copyright &#194;&#169; 2015 by Letters from Sweden &#38; Stockholm Design Lab. All rights reserved.
</metadata>
<defs>
<font id="LabGrotesque-Regular" horiz-adv-x="590" >
  <font-face 
    font-family="Lab Grotesque"
    font-weight="400"
    font-stretch="normal"
    units-per-em="1000"
    panose-1="0 0 5 0 0 0 0 0 0 0"
    ascent="750"
    descent="-250"
    x-height="492"
    cap-height="710"
    bbox="-215 -253 1742 939"
    underline-thickness="59"
    underline-position="-102"
    unicode-range="U+0020-U+FB02"
  />
<missing-glyph horiz-adv-x="579" 
d="M479 810v-910h-379v910h379z" />
    <glyph glyph-name="fi" unicode="fi" horiz-adv-x="554" 
d="M109 570q0 73 37.5 112.5t108.5 39.5q34 0 79 -12l-13 -66q-34 6 -52 6q-41 0 -57.5 -20.5t-16.5 -69.5v-68h123v-65h-123v-427h-86v427h-91v65h91v78zM400 692h86v-103h-86v103zM400 0v492h86v-492h-86z" />
    <glyph glyph-name="fl" unicode="fl" horiz-adv-x="556" 
d="M109 570q0 73 37.5 112.5t108.5 39.5q34 0 79 -12l-13 -66q-34 6 -52 6q-41 0 -57.5 -20.5t-16.5 -69.5v-68h123v-65h-123v-427h-86v427h-91v65h91v78zM400 710h86v-710h-86v710z" />
    <glyph glyph-name="f_f.liga" unicode="ff" horiz-adv-x="658" 
d="M271 654q-41 0 -58.5 -20.5t-17.5 -69.5v-72h102v-65h-102v-427h-86v427h-91v65h91v82q0 73 38 112.5t110 39.5q48 0 99 -17l-17 -66q-43 11 -68 11zM590 654q-41 0 -58.5 -20.5t-17.5 -69.5v-72h123v-65h-123v-427h-86v427h-82v65h82v82q0 73 38 112.5t110 39.5
q48 0 99 -17l-17 -66q-43 11 -68 11z" />
    <glyph glyph-name="f_f_i.liga" unicode="ffi" horiz-adv-x="872" 
d="M271 650q-41 0 -58.5 -20.5t-17.5 -68.5v-69h102v-65h-102v-427h-86v427h-91v65h91v78q0 73 38 112.5t110 39.5q48 0 99 -17l-17 -66q-38 11 -68 11zM428 570q0 73 37.5 112.5t107.5 39.5q35 0 80 -12l-13 -66q-35 6 -52 6q-41 0 -57.5 -20.5t-16.5 -69.5v-68h123v-65
h-123v-427h-86v427h-82v65h82v78zM719 692h86v-103h-86v103zM719 0v492h86v-492h-86z" />
    <glyph glyph-name="f_f_j.liga" unicode="ffj" horiz-adv-x="872" 
d="M271 650q-41 0 -58.5 -20.5t-17.5 -68.5v-69h102v-65h-102v-427h-86v427h-91v65h91v78q0 73 38 112.5t110 39.5q48 0 99 -17l-17 -66q-38 11 -68 11zM637 427h-123v-427h-86v427h-82v65h82v78q0 73 37.5 112.5t107.5 39.5q35 0 80 -12l-13 -66q-35 6 -52 6
q-41 0 -57.5 -20.5t-16.5 -69.5v-68h123v-65zM719 692h86v-103h-86v103zM719 -37v529h86v-529q0 -154 -139 -154q-46 0 -96 15l18 65q43 -10 68 -10q35 0 49 20.5t14 63.5z" />
    <glyph glyph-name="f_j.liga" unicode="fj" horiz-adv-x="554" 
d="M318 427h-123v-427h-86v427h-91v65h91v78q0 73 37.5 112.5t108.5 39.5q34 0 79 -12l-13 -66q-34 6 -52 6q-41 0 -57.5 -20.5t-16.5 -69.5v-68h123v-65zM400 692h86v-103h-86v103zM400 -37v529h86v-530q0 -153 -139 -153q-51 0 -95 15l17 65q43 -10 68 -10q35 0 49 20
t14 64z" />
    <glyph glyph-name=".notdef" horiz-adv-x="579" 
d="M479 810v-910h-379v910h379z" />
    <glyph glyph-name=".null" horiz-adv-x="0" 
 />
    <glyph glyph-name="nonmarkingreturn" horiz-adv-x="333" 
 />
    <glyph glyph-name="space" unicode=" " horiz-adv-x="227" 
 />
    <glyph glyph-name="exclam" unicode="!" horiz-adv-x="273" 
d="M188 710v-213l-20 -296h-53l-20 296v213h93zM193 108v-108h-103v108h103z" />
    <glyph glyph-name="quotedbl" unicode="&#x22;" horiz-adv-x="375" 
d="M139 710l-9 -234h-64l-9 234h82zM318 710l-9 -234h-64l-10 234h83z" />
    <glyph glyph-name="numbersign" unicode="#" 
d="M568 436h-98l-40 -190h97l-13 -61h-97l-40 -185h-70l39 185h-155l-39 -185h-70l39 185h-100l13 61h100l40 190h-99l13 61h99l39 183h70l-39 -183h156l38 183h70l-38 -183h98zM359 246l41 190h-156l-40 -190h155z" />
    <glyph glyph-name="dollar" unicode="$" horiz-adv-x="610" 
d="M553 189q0 -85 -58 -140t-154 -63v-86h-66v86q-67 5 -123 32t-118 83l54 59q99 -88 187 -97v260q-118 32 -163 71t-45 114q0 76 59 127.5t149 59.5v85h66v-86q113 -10 209 -97l-54 -60q-79 72 -155 81v-230q116 -31 164 -75t48 -124zM151 510q0 -42 28.5 -64t95.5 -41
v214q-57 -7 -90.5 -37t-33.5 -72zM341 62q57 7 92 40t35 84q0 48 -31 74t-96 45v-243z" />
    <glyph glyph-name="percent" unicode="%" horiz-adv-x="858" 
d="M642 695l54 -33l-477 -677l-52 34zM212 691q66 0 110.5 -44.5t44.5 -114.5t-44.5 -115t-110.5 -45t-110.5 45t-44.5 115t44.5 114.5t110.5 44.5zM212 633q-40 0 -64.5 -28.5t-24.5 -72.5q0 -45 24 -73.5t65 -28.5t65 28.5t24 73.5q0 44 -24.5 72.5t-64.5 28.5zM646 308
q66 0 111 -44.5t45 -113.5q0 -71 -45 -115.5t-111 -44.5t-110.5 44.5t-44.5 115.5q0 69 44.5 113.5t110.5 44.5zM646 251q-40 0 -64 -28.5t-24 -72.5q0 -45 23.5 -73.5t64.5 -28.5t65 28.5t24 73.5q0 44 -24.5 72.5t-64.5 28.5z" />
    <glyph glyph-name="ampersand" unicode="&#x26;" horiz-adv-x="699" 
d="M692 0h-106l-86 100q-50 -57 -103.5 -86t-127.5 -29q-98 0 -160 53.5t-62 136.5q0 73 43 124t145 110q-78 93 -78 159q-1 67 49 110.5t125 43.5q74 0 122 -42t48 -104q0 -56 -30.5 -96t-113.5 -90l144 -167l101 127l62 -45l-112 -142zM330 657q-39 0 -65.5 -24.5
t-25.5 -63.5q0 -20 11 -42t23.5 -38.5t36.5 -43.5q64 37 87.5 65t23.5 66q0 36 -26 58.5t-65 22.5zM273 57q52 0 92 25.5t85 76.5l-168 196q-83 -50 -115.5 -87t-32.5 -87q0 -55 39 -89.5t100 -34.5z" />
    <glyph glyph-name="quotesingle" unicode="'" horiz-adv-x="196" 
d="M139 710l-9 -234h-64l-9 234h82z" />
    <glyph glyph-name="parenleft" unicode="(" horiz-adv-x="337" 
d="M275 783l55 -46q-87 -107 -129 -207t-42 -223t42.5 -223.5t128.5 -206.5l-55 -46q-96 106 -148.5 219t-52.5 257t52.5 257t148.5 219z" />
    <glyph glyph-name="parenright" unicode=")" horiz-adv-x="337" 
d="M62 -168l-55 46q87 108 129 207.5t42 222.5t-42.5 223.5t-128.5 206.5l55 46q97 -106 149.5 -219t52.5 -257q0 -143 -52.5 -256.5t-149.5 -219.5z" />
    <glyph glyph-name="asterisk" unicode="*" horiz-adv-x="436" 
d="M247 710v-134l124 42l18 -51l-128 -41l84 -108l-45 -34l-84 111l-80 -109l-46 35l85 105l-128 42l17 51l124 -43v134h59z" />
    <glyph glyph-name="plus" unicode="+" horiz-adv-x="600" 
d="M338 570v-223h222v-74h-222v-223h-76v223h-222v74h222v223h76z" />
    <glyph glyph-name="comma" unicode="," horiz-adv-x="216" 
d="M165 108v-108l-61 -125h-52l55 125h-50v108h108z" />
    <glyph glyph-name="hyphen" unicode="-" horiz-adv-x="405" 
d="M348 326v-77h-291v77h291z" />
    <glyph glyph-name="period" unicode="." horiz-adv-x="216" 
d="M159 108v-108h-102v108h102z" />
    <glyph glyph-name="slash" unicode="/" horiz-adv-x="438" 
d="M416 710l-310 -710h-84l310 710h84z" />
    <glyph glyph-name="zero" unicode="0" 
d="M295 696q142 0 207 -126q48 -93 48 -230t-48 -230q-65 -126 -207 -126t-207 126q-48 93 -48 230t48 230q65 126 207 126zM295 620q-87 0 -129 -88q-36 -73 -36 -192q0 -118 36 -192q42 -88 129 -88t129 88q36 74 36 192q0 119 -36 192q-42 88 -129 88z" />
    <glyph glyph-name="one" unicode="1" horiz-adv-x="460" 
d="M243 680h67v-680h-88v568l-144 -102l-44 61z" />
    <glyph glyph-name="two" unicode="2" horiz-adv-x="572" 
d="M131 75h396v-75h-486v33q0 54 14.5 95t48.5 75.5t60.5 53.5t80.5 52q16 10 54.5 31.5t55 33t39.5 32t32.5 43.5t9.5 52q0 57 -38 88t-94 31q-58 0 -101 -28t-96 -94l-65 46q52 75 114.5 113.5t145.5 38.5q101 0 162 -54.5t61 -137.5q0 -35 -10.5 -65t-22.5 -49.5
t-40.5 -43t-44.5 -33.5l-56 -33.5t-54 -32.5q-90 -55 -114 -76q-45 -41 -52 -96z" />
    <glyph glyph-name="three" unicode="3" horiz-adv-x="575" 
d="M295 407q99 0 163 -53.5t64 -147.5q0 -87 -63.5 -154.5t-176.5 -67.5q-126 0 -252 84l45 65q63 -40 108.5 -56.5t95.5 -16.5q70 0 112 41t42 104q0 62 -42.5 98t-120.5 36q-49 0 -81 -13l-41 56l245 223h-329v75h438v-73l-220 -201q2 0 6.5 0.5t6.5 0.5z" />
    <glyph glyph-name="four" unicode="4" horiz-adv-x="580" 
d="M460 232h102v-73h-102v-159h-86v159h-345v80l282 441h98l-286 -448h251v155h86v-155z" />
    <glyph glyph-name="five" unicode="5" horiz-adv-x="587" 
d="M310 439q101 0 163 -61t62 -156q0 -97 -67.5 -167.5t-174.5 -70.5q-74 0 -129 20t-128 70l44 65q67 -45 110 -62t95 -17q72 0 116.5 45.5t44.5 112.5t-40 107t-112 40q-83 0 -139 -54l-77 8l30 361h395v-75h-319l-18 -211q57 45 144 45z" />
    <glyph glyph-name="six" unicode="6" horiz-adv-x="589" 
d="M322 445q102 0 164.5 -66.5t62.5 -161.5t-66.5 -163.5t-179.5 -68.5q-117 0 -184 74t-67 191q0 108 54.5 199.5t154.5 184.5l49 46h118v-1l-108 -99q-114 -102 -158 -197q59 62 160 62zM303 60q72 0 114.5 44t42.5 112q0 67 -41 111t-112 44q-75 0 -119.5 -44t-44.5 -111
t44 -111.5t116 -44.5z" />
    <glyph glyph-name="seven" unicode="7" horiz-adv-x="535" 
d="M24 680h488v-64q-99 -123 -176.5 -287.5t-100.5 -328.5h-96q21 152 97.5 314t173.5 292h-386v74z" />
    <glyph glyph-name="eight" unicode="8" horiz-adv-x="589" 
d="M419 369q63 -24 97 -71.5t34 -110.5q0 -88 -69 -145.5t-187 -57.5t-186.5 57.5t-68.5 145.5q0 63 34 110.5t97 71.5q-96 46 -96 148q0 80 60.5 129.5t159.5 49.5t160 -49.5t61 -129.5q0 -102 -96 -148zM294 625q-61 0 -98 -30.5t-37 -79.5q0 -51 37.5 -82.5t97.5 -31.5
q61 0 98.5 32t37.5 82q0 49 -37 79.5t-99 30.5zM294 58q77 0 121.5 38t44.5 96q0 62 -44.5 100.5t-121.5 38.5q-76 0 -120.5 -38.5t-44.5 -100.5q0 -58 44.5 -96t120.5 -38z" />
    <glyph glyph-name="nine" unicode="9" horiz-adv-x="589" 
d="M286 695q118 0 184.5 -74t66.5 -191q0 -108 -54.5 -199.5t-154.5 -184.5l-49 -46h-117v1l108 99q115 105 158 197q-59 -62 -161 -62t-164.5 66.5t-62.5 161.5t67 163.5t179 68.5zM283 309q74 0 118.5 44t44.5 111t-44 111.5t-116 44.5t-114.5 -44t-42.5 -112
q0 -67 41.5 -111t112.5 -44z" />
    <glyph glyph-name="colon" unicode=":" horiz-adv-x="256" 
d="M179 492v-108h-102v108h102zM179 108v-108h-102v108h102z" />
    <glyph glyph-name="semicolon" unicode=";" horiz-adv-x="256" 
d="M186 492v-108h-103v108h103zM190 108v-108l-62 -125h-51l54 125h-50v108h109z" />
    <glyph glyph-name="less" unicode="&#x3c;" horiz-adv-x="600" 
d="M540 529v-80l-384 -139l384 -139v-80l-480 180v78z" />
    <glyph glyph-name="equal" unicode="=" horiz-adv-x="600" 
d="M560 447v-74h-520v74h520zM560 247v-74h-520v74h520z" />
    <glyph glyph-name="greater" unicode="&#x3e;" horiz-adv-x="600" 
d="M60 529l480 -180v-78l-480 -180v80l384 139l-384 139v80z" />
    <glyph glyph-name="question" unicode="?" horiz-adv-x="491" 
d="M260 726q91 0 152.5 -48t61.5 -132q0 -23 -6.5 -45t-13.5 -36.5t-24.5 -35t-26 -28.5l-32 -29t-29.5 -26q-43 -38 -60 -61t-20 -60l-3 -29h-71v36q0 56 17 87.5t75 82.5l21.5 18t22 19.5l18 17.5t17.5 19.5t12 19.5t9.5 23.5t2.5 24.5q0 47 -34.5 74.5t-90.5 27.5
q-45 0 -84.5 -18.5t-94.5 -63.5l-52 59q114 103 233 103zM276 108v-108h-102v108h102z" />
    <glyph glyph-name="at" unicode="@" horiz-adv-x="947" 
d="M695 460l-56 -262q-28 -125 66 -125q55 0 90.5 56.5t35.5 150.5q0 163 -98 251t-247 88q-166 0 -266.5 -108t-100.5 -276q0 -164 99.5 -264.5t283.5 -100.5h218v-60h-235q-204 0 -321 117.5t-117 309.5q0 194 119 319t316 125q185 0 301.5 -109t116.5 -289
q0 -121 -55.5 -194t-144.5 -73q-64 0 -94.5 28.5t-36.5 67.5q-62 -96 -168 -96q-71 0 -110 41.5t-39 114.5q0 70 28 137t83.5 113t124.5 46q50 0 82 -21.5t41 -57.5l12 71h72zM411 79q42 0 76 25.5t53 63.5t28.5 75.5t9.5 67.5q0 95 -84 95q-71 0 -118 -72t-47 -156
q0 -99 82 -99z" />
    <glyph glyph-name="A" unicode="A" horiz-adv-x="669" 
d="M558 0l-65 181h-318l-65 -181h-93l257 710h121l258 -710h-95zM202 259h264l-33 93q-73 203 -100 289q-19 -62 -98 -290z" />
    <glyph glyph-name="B" unicode="B" horiz-adv-x="667" 
d="M492 375q63 -19 99 -63.5t36 -112.5q0 -92 -59.5 -145.5t-158.5 -53.5h-328v710h314q93 0 150 -46.5t57 -133.5q0 -58 -29.5 -98t-80.5 -57zM174 636v-227h202q64 0 100 30.5t36 85.5q0 54 -35.5 82.5t-100.5 28.5h-202zM380 74q76 0 115.5 34.5t39.5 95.5
q0 60 -40.5 95.5t-113.5 35.5h-207v-261h206z" />
    <glyph glyph-name="C" unicode="C" horiz-adv-x="666" 
d="M383 726q69 0 127 -23.5t122 -78.5l-53 -63q-57 48 -102.5 66t-94.5 18q-114 0 -180.5 -80.5t-66.5 -209.5t66 -209.5t175 -80.5q60 0 106.5 24.5t106.5 79.5l56 -62q-68 -67 -129 -95t-138 -28q-156 0 -246.5 104t-90.5 268t90.5 267t251.5 103z" />
    <glyph glyph-name="D" unicode="D" horiz-adv-x="702" 
d="M347 710q149 0 231.5 -97.5t82.5 -257.5t-82.5 -257.5t-231.5 -97.5h-266v710h266zM332 633h-158v-556h158q112 0 173.5 73.5t61.5 204.5q0 130 -61.5 204t-173.5 74z" />
    <glyph glyph-name="E" unicode="E" horiz-adv-x="609" 
d="M554 710v-77h-380v-229h354v-77h-354v-250h389v-77h-482v710h473z" />
    <glyph glyph-name="F" unicode="F" horiz-adv-x="594" 
d="M554 710v-77h-380v-244h351v-77h-351v-312h-93v710h473z" />
    <glyph glyph-name="G" unicode="G" horiz-adv-x="741" 
d="M362 294v78h313v-372h-72l-7 91q-66 -106 -222 -106t-244.5 102.5t-88.5 267.5q0 163 92.5 266.5t251.5 103.5q87 0 155.5 -32.5t135.5 -102.5l-59 -60q-62 61 -114 87.5t-119 26.5q-112 0 -180.5 -79t-68.5 -210q0 -133 65.5 -211.5t178.5 -78.5q94 0 152 54t58 147v28
h-227z" />
    <glyph glyph-name="H" unicode="H" horiz-adv-x="729" 
d="M648 710v-710h-93v330h-381v-330h-93v710h93v-303h381v303h93z" />
    <glyph glyph-name="I" unicode="I" horiz-adv-x="270" 
d="M181 710v-710h-93v710h93z" />
    <glyph glyph-name="J" unicode="J" horiz-adv-x="462" 
d="M385 710v-527q0 -195 -192 -195q-92 0 -181 47l32 72q89 -38 146 -38q103 0 103 122v519h92z" />
    <glyph glyph-name="K" unicode="K" horiz-adv-x="656" 
d="M544 0l-243 366l-127 -130v-236h-93v710h93v-363l346 363h114l-271 -279l286 -431h-105z" />
    <glyph glyph-name="L" unicode="L" horiz-adv-x="533" 
d="M174 710v-632h332v-78h-425v710h93z" />
    <glyph glyph-name="M" unicode="M" horiz-adv-x="869" 
d="M640 710h148v-710h-90v355q0 100 2 288l-100 -288l-124 -355h-82l-127 355q-95 271 -100 287q2 -94 2 -288v-354h-88v710h148l111 -313q65 -178 96 -286q29 101 94 286z" />
    <glyph glyph-name="N" unicode="N" horiz-adv-x="731" 
d="M560 710h90v-710h-102l-211 323q-142 223 -171 272q5 -110 5 -276v-319h-90v710h104l213 -328q125 -194 166 -265q-4 113 -4 269v324z" />
    <glyph glyph-name="O" unicode="O" horiz-adv-x="757" 
d="M379 726q154 0 245.5 -104.5t91.5 -266.5t-91.5 -266.5t-245.5 -104.5q-155 0 -246.5 104.5t-91.5 266.5t91.5 266.5t246.5 104.5zM379 645q-110 0 -177 -81t-67 -209q0 -129 67 -209.5t177 -80.5t176.5 80.5t66.5 209.5q0 128 -67 209t-176 81z" />
    <glyph glyph-name="P" unicode="P" horiz-adv-x="651" 
d="M387 710q105 0 168 -56t63 -156t-63.5 -156.5t-167.5 -56.5h-213v-285h-93v710h306zM373 633h-199v-271h199q71 0 112 35t41 101t-41 100.5t-112 34.5z" />
    <glyph glyph-name="Q" unicode="Q" horiz-adv-x="757" 
d="M716 355q0 -92 -30.5 -168t-87.5 -125l61 -81l-67 -47l-62 83q-69 -33 -151 -33q-155 0 -246.5 104.5t-91.5 266.5t91.5 266.5t246.5 104.5q154 0 245.5 -104.5t91.5 -266.5zM379 65q54 0 99 21l-94 124l66 47l94 -124q78 80 78 222q0 128 -67 209t-176 81
q-110 0 -177 -81t-67 -209q0 -129 67 -209.5t177 -80.5z" />
    <glyph glyph-name="R" unicode="R" horiz-adv-x="667" 
d="M634 0h-104l-190 285h-166v-285h-93v710h299q101 0 165.5 -57t64.5 -155q0 -83 -46.5 -137.5t-124.5 -69.5zM174 633v-271h191q71 0 112 35t41 101q0 65 -41.5 100t-112.5 35h-190z" />
    <glyph glyph-name="S" unicode="S" horiz-adv-x="629" 
d="M308 725q80 0 142 -24.5t126 -79.5l-54 -64q-57 50 -105.5 69.5t-108.5 19.5q-73 0 -118 -32.5t-45 -83.5q0 -52 42 -74.5t153 -47.5q135 -32 190.5 -76t55.5 -128q0 -99 -73 -159.5t-189 -60.5q-86 0 -154 28.5t-145 94.5l55 65q75 -63 129.5 -85.5t115.5 -22.5
q74 0 121.5 36.5t47.5 98.5q0 25 -10 44t-23.5 31t-44 23.5t-52.5 17l-68 16.5q-136 31 -188.5 73t-52.5 124q0 87 73 142t180 55z" />
    <glyph glyph-name="T" unicode="T" horiz-adv-x="598" 
d="M568 710v-78h-223v-632h-92v632h-223v78h538z" />
    <glyph glyph-name="U" unicode="U" horiz-adv-x="688" 
d="M612 710v-484q0 -117 -67.5 -179t-200.5 -62q-132 0 -199.5 62t-67.5 179v484h92v-479q0 -81 44.5 -123t130.5 -42t130.5 42t44.5 123v479h93z" />
    <glyph glyph-name="V" unicode="V" horiz-adv-x="633" 
d="M521 710h95l-241 -710h-117l-241 710h96l117 -352q57 -168 88 -277q25 91 86 276z" />
    <glyph glyph-name="W" unicode="W" horiz-adv-x="939" 
d="M816 710h91l-171 -710h-113l-87 326q-43 163 -66 265q-28 -126 -65 -266l-88 -325h-114l-172 710h94l81 -342q28 -125 58 -274q35 155 69 274l93 342h93l91 -342q27 -98 67 -273q43 207 59 273z" />
    <glyph glyph-name="X" unicode="X" horiz-adv-x="643" 
d="M631 0h-104l-206 307l-206 -307h-104l254 374l-229 336h103l183 -272l183 272h103l-230 -337z" />
    <glyph glyph-name="Y" unicode="Y" horiz-adv-x="631" 
d="M516 710h100l-252 -407v-303h-92v304l-250 406h102l196 -325z" />
    <glyph glyph-name="Z" unicode="Z" horiz-adv-x="623" 
d="M581 710v-74l-430 -559h429v-77h-539v74l430 559h-411v77h521z" />
    <glyph glyph-name="bracketleft" unicode="[" horiz-adv-x="328" 
d="M291 759v-64h-112v-774h112v-63h-194v901h194z" />
    <glyph glyph-name="backslash" unicode="\" horiz-adv-x="438" 
d="M22 710h84l310 -710h-84z" />
    <glyph glyph-name="bracketright" unicode="]" horiz-adv-x="328" 
d="M37 759h194v-901h-194v63h111v774h-111v64z" />
    <glyph glyph-name="asciicircum" unicode="^" 
d="M335 710l199 -430h-76l-163 353l-162 -353h-77l200 430h79z" />
    <glyph glyph-name="underscore" unicode="_" horiz-adv-x="600" 
d="M605 -130v-60h-610v60h610z" />
    <glyph glyph-name="grave" unicode="`" horiz-adv-x="341" 
d="M77 716h96l72 -144h-76z" />
    <glyph glyph-name="a" unicode="a" horiz-adv-x="532" 
d="M266 506q95 0 147.5 -45t52.5 -119v-342h-78v60q-51 -76 -167 -76q-78 0 -127 34t-49 104q0 41 17.5 71.5t52 49.5t71 30t88.5 20l110 20v25q0 46 -31.5 71.5t-83.5 25.5q-46 0 -81.5 -19t-80.5 -64l-55 49q89 105 214 105zM230 55q66 0 110 35t44 94v65l-90 -18
q-43 -9 -67.5 -16t-50 -19t-36.5 -29t-11 -42q0 -34 26.5 -52t74.5 -18z" />
    <glyph glyph-name="b" unicode="b" horiz-adv-x="572" 
d="M316 505q96 0 156.5 -71.5t60.5 -187.5t-61 -187.5t-156 -71.5q-116 0 -168 88v-75h-81v710h86v-287q55 82 163 82zM303 61q64 0 103 51t39 134q0 84 -39 135t-103 51q-68 0 -110.5 -50t-42.5 -136t42.5 -135.5t110.5 -49.5z" />
    <glyph glyph-name="c" unicode="c" horiz-adv-x="500" 
d="M417 360q-39 42 -72 58t-71 16q-72 0 -110.5 -55t-38.5 -133t39 -132.5t112 -54.5q40 0 72 17.5t75 64.5l56 -48q-48 -59 -94.5 -83t-108.5 -24q-109 0 -174 71t-65 189q0 117 66 188.5t173 71.5q61 0 107 -21.5t90 -72.5z" />
    <glyph glyph-name="d" unicode="d" horiz-adv-x="572" 
d="M419 710h86v-710h-81v77q-54 -90 -168 -90q-95 0 -156 71.5t-61 187.5t61.5 187.5t157.5 71.5q107 0 161 -79v284zM269 60q68 0 110.5 50t42.5 136t-42.5 135.5t-110.5 49.5q-64 0 -103 -51t-39 -134q0 -84 38.5 -135t103.5 -51z" />
    <glyph glyph-name="e" unicode="e" horiz-adv-x="534" 
d="M444 140l51 -52q-53 -56 -102.5 -79t-112.5 -23q-112 0 -177.5 70.5t-65.5 186.5q0 117 64 190t171 73q105 0 163.5 -63.5t58.5 -173.5q0 -20 -2 -38h-370q4 -75 44 -124t115 -49q46 0 80 18t83 64zM271 437q-60 0 -98 -37t-48 -105h284q-3 65 -39 103.5t-99 38.5z" />
    <glyph glyph-name="f" unicode="f" horiz-adv-x="339" 
d="M271 654q-41 0 -58.5 -20.5t-17.5 -69.5v-72h124v-65h-124v-427h-86v427h-91v65h91v82q0 73 38 112.5t110 39.5q48 0 99 -17l-17 -66q-43 11 -68 11z" />
    <glyph glyph-name="g" unicode="g" horiz-adv-x="565" 
d="M418 492h80v-481q0 -96 -60.5 -150t-162.5 -54q-120 0 -223 73l43 63q100 -63 179 -63q62 0 100.5 33.5t38.5 104.5v68q-51 -80 -157 -80q-96 0 -156 70t-60 180t60 180t156 70q111 0 162 -86v72zM270 79q65 0 105 49.5t40 127.5t-40 127.5t-105 49.5q-66 0 -104 -49
t-38 -128t38 -128t104 -49z" />
    <glyph glyph-name="h" unicode="h" horiz-adv-x="545" 
d="M303 506q85 0 130.5 -48t45.5 -121v-337h-86v310q0 123 -113 123q-54 0 -90.5 -36.5t-36.5 -91.5v-305h-86v710h86v-274q49 70 150 70z" />
    <glyph glyph-name="i" unicode="i" horiz-adv-x="220" 
d="M153 692v-103h-86v103h86zM153 492v-492h-86v492h86z" />
    <glyph glyph-name="j" unicode="j" horiz-adv-x="224" 
d="M156 692v-103h-86v103h86zM-61 -111q37 -10 68 -10q35 0 49 20t14 63v530h86v-530q0 -154 -139 -154q-47 0 -95 15z" />
    <glyph glyph-name="k" unicode="k" horiz-adv-x="508" 
d="M407 0l-165 247l-89 -90v-157h-86v710h86v-456l228 238h101l-181 -189l201 -303h-95z" />
    <glyph glyph-name="l" unicode="l" horiz-adv-x="226" 
d="M156 710v-710h-86v710h86z" />
    <glyph glyph-name="m" unicode="m" horiz-adv-x="812" 
d="M582 506q80 0 122 -45t42 -118v-343h-86v319q0 114 -98 114q-51 0 -82 -34.5t-31 -89.5v-309h-86v319q0 114 -98 114q-48 0 -78 -30.5t-34 -79.5v-323h-86v492h81v-59q45 73 141 73q101 0 142 -79q50 79 151 79z" />
    <glyph glyph-name="n" unicode="n" horiz-adv-x="545" 
d="M303 506q86 0 131 -48t45 -121v-337h-86v310q0 123 -113 123q-54 0 -90.5 -36.5t-36.5 -91.5v-305h-86v492h81v-64q48 78 155 78z" />
    <glyph glyph-name="o" unicode="o" horiz-adv-x="561" 
d="M280 506q108 0 176 -72.5t68 -187.5t-68 -187.5t-176 -72.5q-107 0 -175 72.5t-68 187.5t68 187.5t175 72.5zM280 434q-71 0 -113 -52t-42 -136t42 -136t113 -52t113.5 52t42.5 136t-42.5 136t-113.5 52z" />
    <glyph glyph-name="p" unicode="p" horiz-adv-x="572" 
d="M316 505q95 0 156 -71.5t61 -186.5q0 -117 -61 -188.5t-156 -71.5q-110 0 -163 78v-245h-86v672h81v-77q54 90 168 90zM303 61q64 0 103 51t39 135q0 83 -38.5 134t-103.5 51q-68 0 -110.5 -49.5t-42.5 -135.5q0 -87 42.5 -136.5t110.5 -49.5z" />
    <glyph glyph-name="q" unicode="q" horiz-adv-x="572" 
d="M424 492h81v-672h-86v247q-53 -80 -162 -80q-95 0 -156.5 71.5t-61.5 187.5t61.5 187.5t156.5 71.5q115 0 167 -88v75zM269 60q68 0 110.5 50t42.5 136q0 87 -42.5 136t-110.5 49q-64 0 -103 -51t-39 -134q0 -84 39 -135t103 -51z" />
    <glyph glyph-name="r" unicode="r" horiz-adv-x="358" 
d="M270 497q36 0 78 -14l-16 -72q-36 10 -64 10q-51 0 -83 -42t-32 -115v-264h-86v492h81v-75q37 80 122 80z" />
    <glyph glyph-name="s" unicode="s" horiz-adv-x="479" 
d="M235 506q61 0 107 -16.5t95 -55.5l-47 -58q-46 35 -79.5 47.5t-75.5 12.5q-49 0 -78.5 -20.5t-29.5 -52.5q0 -30 27.5 -43t104.5 -30q100 -23 143 -55.5t43 -95.5q0 -69 -54 -111t-143 -42q-66 0 -117.5 20.5t-109.5 71.5l51 56q53 -44 92 -60.5t85 -16.5q49 0 80.5 21
t31.5 57q0 37 -33 53.5t-105 32.5q-101 22 -140 50.5t-39 88.5q0 65 53 105.5t138 40.5z" />
    <glyph glyph-name="t" unicode="t" horiz-adv-x="356" 
d="M325 76l13 -68q-47 -17 -101 -17q-68 0 -97.5 31t-29.5 92v313h-92v65h92v165h86v-165h133v-65h-133v-303q0 -33 13.5 -46.5t44.5 -13.5q27 0 71 12z" />
    <glyph glyph-name="u" unicode="u" horiz-adv-x="537" 
d="M384 492h86v-492h-80v61q-45 -75 -149 -75q-89 0 -132 44.5t-43 116.5v345h86v-324q0 -53 26.5 -80.5t76.5 -27.5q57 0 93 34t36 98v300z" />
    <glyph glyph-name="v" unicode="v" horiz-adv-x="480" 
d="M377 492h88l-171 -492h-109l-170 492h90l61 -181q51 -157 75 -244q33 117 75 244z" />
    <glyph glyph-name="w" unicode="w" horiz-adv-x="735" 
d="M626 493h88l-138 -493h-104l-46 158q-35 121 -60 230q-28 -117 -60 -231l-43 -157h-104l-138 493h89l49 -184q23 -84 56 -234q31 128 60 234l52 184h81l52 -184q30 -104 61 -235q23 109 56 235z" />
    <glyph glyph-name="x" unicode="x" horiz-adv-x="480" 
d="M468 0h-95l-133 198l-134 -198h-94l179 257l-164 235h95l119 -175l117 175h94l-161 -232z" />
    <glyph glyph-name="y" unicode="y" horiz-adv-x="484" 
d="M379 492h87l-197 -560q-24 -68 -55 -96.5t-93 -28.5q-41 0 -76 10l15 66q27 -6 53 -6q30 0 49 16.5t34 61.5l6 18l-185 519h91l55 -163l81 -241l80 243z" />
    <glyph glyph-name="z" unicode="z" horiz-adv-x="478" 
d="M434 492v-63l-290 -358h290v-71h-396v64l290 358h-272v70h378z" />
    <glyph glyph-name="braceleft" unicode="{" horiz-adv-x="366" 
d="M329 759v-64h-34q-20 0 -33.5 -4t-20.5 -9t-10 -19t-3.5 -23.5t-0.5 -34.5v-15v-153q0 -54 -19.5 -85t-74.5 -40v-2q55 -9 74.5 -40t19.5 -85v-159v-15q0 -29 1 -41.5t7 -26t20.5 -18t39.5 -4.5h34v-63h-53q-74 0 -103 31t-29 121v162q0 55 -21 76.5t-73 21.5v82
q52 0 73 21.5t21 76.5v157q0 90 29 121t103 31h53z" />
    <glyph glyph-name="bar" unicode="|" horiz-adv-x="383" 
d="M230 800v-940h-76v940h76z" />
    <glyph glyph-name="braceright" unicode="}" horiz-adv-x="366" 
d="M37 759h53q74 0 103 -31t29 -121v-157q0 -55 21 -76.5t73 -21.5v-82q-52 0 -73 -21.5t-21 -76.5v-162q0 -90 -29 -121t-103 -31h-53v63h35q20 0 33.5 4t20.5 9t10 19t3.5 23.5t0.5 34.5v15v159q0 54 19.5 85t74.5 40v2q-55 9 -74.5 40t-19.5 85v153v15q0 29 -1 41.5
t-7 26t-20.5 18t-39.5 4.5h-35v64z" />
    <glyph glyph-name="asciitilde" unicode="~" horiz-adv-x="600" 
d="M195 403q46 0 116 -28.5t102 -28.5q29 0 42.5 13.5t15.5 39.5h72q-2 -56 -33.5 -90t-88.5 -34q-43 0 -116 29.5t-107 29.5q-30 0 -48 -15t-21 -39h-72q2 55 39 89t99 34z" />
    <glyph glyph-name="exclamdown" unicode="&#xa1;" horiz-adv-x="225" 
d="M62 385v108h102v-108h-102zM66 -217v213l21 296h53l20 -296v-213h-94z" />
    <glyph glyph-name="cent" unicode="&#xa2;" 
d="M515 93q-77 -95 -168 -105v-88h-67v88q-95 10 -151.5 79.5t-56.5 178.5t57 178.5t151 80.5v90h67v-91q92 -10 161 -92l-56 -52q-57 60 -105 70v-367q50 11 111 78zM160 246q0 -69 31 -121t89 -63v369q-57 -11 -88.5 -64t-31.5 -121z" />
    <glyph glyph-name="sterling" unicode="&#xa3;" 
d="M528 100l31 -68q-71 -45 -145 -45q-48 0 -123 18.5t-112 18.5q-11 0 -21 -1t-17 -1.5t-16 -3l-14 -4t-13.5 -5l-11 -4.5t-11.5 -5t-10 -5l-27 70q27 11 44.5 20t40.5 26.5t35.5 43.5t12.5 60q0 28 -6 68h-98v67h80q-27 79 -27 152q0 89 62 140t151 51q114 0 212 -79
l-49 -63q-87 66 -162 66q-55 0 -89.5 -31.5t-34.5 -85.5q0 -61 27 -150h216v-67h-200q4 -36 4 -58q-1 -84 -70 -130q44 -3 112 -18t109 -15q54 0 120 38z" />
    <glyph glyph-name="currency" unicode="&#xa4;" 
d="M486 575l44 -43l-66 -66q41 -54 41 -126t-41 -126l65 -65l-44 -43l-66 66q-53 -34 -122 -34q-71 0 -124 36l-69 -69l-43 43l68 68q-40 52 -40 124q0 70 39 123l-68 68l44 43l68 -69q52 37 125 37q68 0 121 -34zM297 477q-61 0 -100 -37.5t-39 -99.5t39 -99.5t100 -37.5
t100 37.5t39 99.5t-39 99.5t-100 37.5z" />
    <glyph glyph-name="yen" unicode="&#xa5;" 
d="M557 680l-155 -268h120v-64h-157l-27 -45v-47h184v-64h-184v-192h-88v192h-182v64h182v48l-26 44h-156v64h120l-155 268h98l166 -297l165 297h95z" />
    <glyph glyph-name="brokenbar" unicode="&#xa6;" horiz-adv-x="383" 
d="M230 800v-400h-76v400h76zM230 260v-400h-76v400h76z" />
    <glyph glyph-name="section" unicode="&#xa7;" 
d="M441 194q67 -34 67 -110q0 -70 -59 -114.5t-152 -44.5q-68 0 -119.5 18t-106.5 61l46 59q53 -40 91.5 -53.5t88.5 -13.5q58 0 93.5 24t35.5 61q0 34 -32.5 49.5t-122.5 35.5q-115 25 -167 61t-52 103q0 86 97 125q-67 34 -67 110q0 70 59 114.5t152 44.5q68 0 119.5 -18
t106.5 -61l-46 -59q-53 39 -92 53t-88 14q-58 0 -93.5 -24.5t-35.5 -61.5q0 -34 33 -49.5t122 -35.5q115 -25 167 -60.5t52 -102.5q0 -88 -97 -125zM136 334q0 -15 5.5 -27.5t19 -22t25.5 -16.5t36.5 -13.5t39 -10l45.5 -10.5q7 -1 18.5 -3.5t14.5 -3.5q114 20 114 88
q0 22 -12 38t-40.5 27.5t-51.5 17.5t-67 15l-36 9q-111 -21 -111 -88z" />
    <glyph glyph-name="dieresis" unicode="&#xa8;" horiz-adv-x="461" 
d="M184 692v-103h-84v103h84zM361 692v-103h-84v103h84z" />
    <glyph glyph-name="copyright" unicode="&#xa9;" horiz-adv-x="856" 
d="M428 723q156 0 262 -105.5t106 -262.5t-106 -262.5t-262 -105.5t-262 105.5t-106 262.5t106 262.5t262 105.5zM428 670q-133 0 -219.5 -90.5t-86.5 -224.5t86.5 -224.5t219.5 -90.5t219.5 90.5t86.5 224.5t-86.5 224.5t-219.5 90.5zM432 576q122 0 176 -107l-60 -28
q-23 40 -50 57t-65 17q-62 0 -99.5 -45t-37.5 -115q0 -69 37.5 -114t99.5 -45q42 0 67.5 18t50.5 65l60 -30q-31 -60 -72 -87.5t-107 -27.5q-93 0 -150.5 63t-57.5 158t57.5 158t150.5 63z" />
    <glyph glyph-name="ordfeminine" unicode="&#xaa;" horiz-adv-x="416" 
d="M209 715q75 0 115 -34.5t40 -92.5v-260h-63v49q-38 -61 -132 -61q-58 0 -95 27t-37 78q0 59 46 87t132 44l82 15v14q0 37 -24 57t-66 20q-63 0 -122 -62l-44 40q68 79 168 79zM179 373q52 0 85 26.5t33 75.5v39l-68 -13q-33 -7 -50.5 -12t-37 -13.5t-28 -20.5t-8.5 -29
q0 -53 74 -53z" />
    <glyph glyph-name="guillemotleft" unicode="&#xab;" horiz-adv-x="571" 
d="M287 471l-141 -218l141 -218h-86l-139 218l139 218h86zM505 471l-141 -218l141 -218h-86l-139 218l139 218h86z" />
    <glyph glyph-name="logicalnot" unicode="&#xac;" horiz-adv-x="600" 
d="M40 347h520v-273h-75v199h-445v74z" />
    <glyph glyph-name="registered" unicode="&#xae;" horiz-adv-x="556" 
d="M278 722q94 0 157.5 -63.5t63.5 -157.5t-63.5 -157.5t-157.5 -63.5t-157.5 63.5t-63.5 157.5t63.5 157.5t157.5 63.5zM278 684q-78 0 -128 -52t-50 -131t50 -131t128 -52q77 0 127.5 52.5t50.5 130.5t-50.5 130.5t-127.5 52.5zM295 629q35 0 57.5 -22.5t22.5 -55.5
q0 -51 -49 -71l61 -100h-50l-56 95h-43v-95h-46v249h103zM286 588h-48v-75h48q44 0 44 38q0 37 -44 37z" />
    <glyph glyph-name="macron" unicode="&#xaf;" horiz-adv-x="468" 
d="M374 660v-66h-279v66h279z" />
    <glyph glyph-name="degree" unicode="&#xb0;" horiz-adv-x="409" 
d="M204 722q61 0 103 -40.5t42 -100.5q0 -61 -42 -101.5t-103 -40.5t-102.5 40.5t-41.5 101.5q0 60 42 100.5t102 40.5zM204 664q-37 0 -60 -23.5t-23 -59.5q0 -37 23 -60.5t60 -23.5t60 23.5t23 60.5q0 36 -23 59.5t-60 23.5z" />
    <glyph glyph-name="plusminus" unicode="&#xb1;" horiz-adv-x="600" 
d="M338 662v-223h222v-74h-222v-223h-76v223h-222v74h222v223h76zM560 74v-74h-520v74h520z" />
    <glyph glyph-name="uni00B2" unicode="&#xb2;" horiz-adv-x="397" 
d="M209 449q-35 -19 -48 -27.5t-29 -25t-20 -35.5h242v-59h-314v28q0 61 33 97.5t97 70.5q7 4 33 17t33.5 18t22.5 16.5t20 23t5 26.5q0 29 -21.5 44.5t-58.5 15.5q-54 0 -118 -55l-40 46q75 70 159 70q69 0 109.5 -34t40.5 -84q0 -21 -7 -39t-13 -29t-26 -26t-27 -19.5
t-37 -20.5t-36 -19z" />
    <glyph glyph-name="uni00B3" unicode="&#xb3;" horiz-adv-x="393" 
d="M203 547q60 0 100 -32.5t40 -88.5q0 -54 -41 -94t-114 -40q-82 0 -164 52l35 50q71 -41 128 -41q39 0 62 20.5t23 52.5t-24.5 51t-67.5 19q-36 0 -52 -7l-31 43l145 119h-199v59h285v-58l-129 -105h4z" />
    <glyph glyph-name="acute" unicode="&#xb4;" horiz-adv-x="341" 
d="M264 716l-92 -144h-76l72 144h96z" />
    <glyph glyph-name="paragraph" unicode="&#xb6;" horiz-adv-x="648" 
d="M412 710v-810h-71v372h-77q-102 0 -164.5 59.5t-62.5 159.5t62.5 159.5t164.5 59.5h148zM567 710v-810h-72v810h72z" />
    <glyph glyph-name="periodcentered" unicode="&#xb7;" horiz-adv-x="216" 
d="M159 367v-108h-102v108h102z" />
    <glyph glyph-name="cedilla" unicode="&#xb8;" horiz-adv-x="413" 
d="M213 -67q47 2 77 -19.5t30 -58.5q0 -40 -29.5 -65t-75.5 -25q-52 0 -108 36l25 41q49 -27 81 -27q23 0 38 10t15 29q0 17 -16 27t-41 10q-17 0 -29 -3l-28 27l49 104l43 -19z" />
    <glyph glyph-name="uni00B9" unicode="&#xb9;" horiz-adv-x="318" 
d="M161 710h53v-408h-69v323l-75 -55l-35 48z" />
    <glyph glyph-name="ordmasculine" unicode="&#xba;" horiz-adv-x="452" 
d="M226 717q82 0 133.5 -56t51.5 -144t-51.5 -143.5t-133.5 -55.5q-81 0 -132.5 55.5t-51.5 143.5t51.5 144t132.5 56zM226 659q-52 0 -82.5 -39t-30.5 -103q0 -63 30.5 -101.5t82.5 -38.5t83 38.5t31 101.5q0 64 -31 103t-83 39z" />
    <glyph glyph-name="guillemotright" unicode="&#xbb;" horiz-adv-x="571" 
d="M67 471h85l140 -218l-140 -218h-85l139 218zM285 471h85l140 -218l-140 -218h-85l139 218z" />
    <glyph glyph-name="onequarter" unicode="&#xbc;" horiz-adv-x="879" 
d="M626 695l54 -33l-476 -677l-53 34zM218 272h-69v323l-75 -55l-35 48l126 92h53v-408zM792 149h57v-57h-57v-92h-69v92h-207v65l168 251h76l-173 -259h136v86h69v-86z" />
    <glyph glyph-name="onehalf" unicode="&#xbd;" horiz-adv-x="910" 
d="M626 695l54 -33l-476 -677l-53 34zM218 272h-69v323l-75 -55l-35 48l126 92h53v-408zM724 147q-35 -19 -48 -27.5t-29 -25t-20 -35.5h242v-59h-314v28q0 61 33 97.5t97 70.5q7 4 33 17t33.5 18t22.5 16.5t20 23t5 26.5q0 29 -21.5 44.5t-58.5 15.5q-54 0 -118 -55l-40 46
q75 70 159 70q69 0 109.5 -34t40.5 -84q0 -21 -7 -39t-13 -29t-26 -26t-27 -19.5t-37 -20.5t-36 -19z" />
    <glyph glyph-name="threequarters" unicode="&#xbe;" horiz-adv-x="954" 
d="M701 695l54 -33l-476 -677l-53 34zM349 396q0 -54 -41 -94t-114 -40q-82 0 -164 52l35 50q71 -41 128 -41q39 0 62 20.5t23 52.5t-24.5 51t-67.5 19q-36 0 -52 -7l-31 43l145 119h-199v59h285v-58l-129 -105h4q60 0 100 -32.5t40 -88.5zM867 149h57v-57h-57v-92h-69v92
h-207v65l168 251h76l-173 -259h136v86h69v-86z" />
    <glyph glyph-name="questiondown" unicode="&#xbf;" horiz-adv-x="464" 
d="M205 385v108h102v-108h-102zM221 -233q-91 0 -153 48t-62 133q0 23 6.5 45t13.5 36t25 34.5t25.5 28t32.5 29.5t30 26q43 38 59.5 61t20.5 60l3 29h71v-35q0 -57 -17 -88.5t-76 -82.5q-5 -5 -24.5 -21.5t-25.5 -22.5l-19.5 -20t-18.5 -24t-10 -24.5t-5 -29.5
q0 -47 34.5 -74.5t91.5 -27.5q45 0 84.5 19t93.5 64l53 -60q-114 -103 -233 -103z" />
    <glyph glyph-name="Agrave" unicode="&#xc0;" horiz-adv-x="669" 
d="M374 776h-76l-92 144h96zM558 0l-65 181h-318l-65 -181h-93l257 710h121l258 -710h-95zM202 259h264l-33 93q-73 203 -100 289q-19 -62 -98 -290z" />
    <glyph glyph-name="Aacute" unicode="&#xc1;" horiz-adv-x="669" 
d="M462 920l-92 -144h-76l72 144h96zM558 0l-65 181h-318l-65 -181h-93l257 710h121l258 -710h-95zM202 259h264l-33 93q-73 203 -100 289q-19 -62 -98 -290z" />
    <glyph glyph-name="Acircumflex" unicode="&#xc2;" horiz-adv-x="669" 
d="M334 877l-80 -101h-74l100 144h108l100 -144h-74zM558 0l-65 181h-318l-65 -181h-93l257 710h121l258 -710h-95zM202 259h264l-33 93q-73 203 -100 289q-19 -62 -98 -290z" />
    <glyph glyph-name="Atilde" unicode="&#xc3;" horiz-adv-x="669" 
d="M266 841q-34 0 -34 -51h-55q0 51 24.5 80.5t64.5 29.5q31 0 75 -26.5t62 -26.5q32 0 32 53h54q0 -51 -22 -81t-59 -30q-27 0 -74 26t-68 26zM558 0l-65 181h-318l-65 -181h-93l257 710h121l258 -710h-95zM202 259h264l-33 93q-73 203 -100 289q-19 -62 -98 -290z" />
    <glyph glyph-name="Adieresis" unicode="&#xc4;" horiz-adv-x="669" 
d="M288 896v-103h-84v103h84zM465 896v-103h-84v103h84zM558 0l-65 181h-318l-65 -181h-93l257 710h121l258 -710h-95zM202 259h264l-33 93q-73 203 -100 289q-19 -62 -98 -290z" />
    <glyph glyph-name="Aring" unicode="&#xc5;" horiz-adv-x="674" 
d="M563 0l-65 182h-323l-65 -182h-93l253 699q-54 34 -54 98q0 49 35.5 83.5t85.5 34.5t86 -34.5t36 -83.5q0 -63 -54 -98l253 -699h-95zM337 867q-30 0 -49 -19.5t-19 -50.5t19.5 -50t48.5 -19q30 0 49 19t19 50t-19 50.5t-49 19.5zM202 259h269l-33 92q-86 244 -102 297
q-23 -75 -101 -297z" />
    <glyph glyph-name="AE" unicode="&#xc6;" horiz-adv-x="962" 
d="M527 77h389v-77h-482v181h-239l-94 -181h-94l369 710h531v-77h-380v-229h353v-77h-353v-250zM235 259h199v385z" />
    <glyph glyph-name="Ccedilla" unicode="&#xc7;" horiz-adv-x="666" 
d="M365 -67q47 2 77 -19.5t30 -58.5q0 -40 -29 -65t-76 -25q-54 0 -108 35l25 42q48 -27 82 -27q23 0 38 10t15 29q0 17 -16.5 27t-41.5 10q-16 0 -28 -3l-28 27l33 71q-139 14 -218 115.5t-79 254.5q0 164 90.5 267t251.5 103q69 0 127 -23.5t122 -78.5l-53 -63
q-57 48 -102.5 66t-94.5 18q-114 0 -180.5 -80.5t-66.5 -209.5t66 -209.5t175 -80.5q60 0 106.5 24.5t106.5 79.5l56 -62q-66 -64 -124 -92.5t-132 -29.5z" />
    <glyph glyph-name="Egrave" unicode="&#xc8;" horiz-adv-x="609" 
d="M191 920h96l72 -144h-76zM554 710v-77h-380v-229h354v-77h-354v-250h389v-77h-482v710h473z" />
    <glyph glyph-name="Eacute" unicode="&#xc9;" horiz-adv-x="609" 
d="M448 920l-92 -144h-76l72 144h96zM554 710v-77h-380v-229h354v-77h-354v-250h389v-77h-482v710h473z" />
    <glyph glyph-name="Ecircumflex" unicode="&#xca;" horiz-adv-x="609" 
d="M399 776l-80 101l-80 -101h-74l100 144h108l100 -144h-74zM554 710v-77h-380v-229h354v-77h-354v-250h389v-77h-482v710h473z" />
    <glyph glyph-name="Edieresis" unicode="&#xcb;" horiz-adv-x="609" 
d="M273 896v-103h-84v103h84zM450 896v-103h-84v103h84zM554 710v-77h-380v-229h354v-77h-354v-250h389v-77h-482v710h473z" />
    <glyph glyph-name="Igrave" unicode="&#xcc;" horiz-adv-x="270" 
d="M7 920h96l72 -144h-76zM181 710v-710h-93v710h93z" />
    <glyph glyph-name="Iacute" unicode="&#xcd;" horiz-adv-x="270" 
d="M263 920l-92 -144h-76l72 144h96zM181 710v-710h-93v710h93z" />
    <glyph glyph-name="Icircumflex" unicode="&#xce;" horiz-adv-x="270" 
d="M214 776l-80 101l-80 -101h-74l100 144h108l100 -144h-74zM181 710v-710h-93v710h93z" />
    <glyph glyph-name="Idieresis" unicode="&#xcf;" horiz-adv-x="270" 
d="M89 896v-103h-84v103h84zM266 896v-103h-84v103h84zM181 710v-710h-93v710h93z" />
    <glyph glyph-name="Eth" unicode="&#xd0;" horiz-adv-x="730" 
d="M375 710q149 0 231.5 -97.5t82.5 -257.5t-82.5 -257.5t-231.5 -97.5h-266v328h-83v77h83v305h266zM360 77q112 0 173.5 73.5t61.5 204.5q0 130 -61.5 204t-173.5 74h-158v-228h187v-77h-187v-251h158z" />
    <glyph glyph-name="Ntilde" unicode="&#xd1;" horiz-adv-x="731" 
d="M306 841q-34 0 -34 -51h-55q0 51 24.5 80.5t64.5 29.5q31 0 75 -26.5t62 -26.5q32 0 32 53h54q0 -51 -22 -81t-59 -30q-27 0 -74 26t-68 26zM560 710h90v-710h-102l-211 323q-142 223 -171 272q5 -110 5 -276v-319h-90v710h104l213 -328q125 -194 166 -265q-4 113 -4 269
v324z" />
    <glyph glyph-name="Ograve" unicode="&#xd2;" horiz-adv-x="757" 
d="M251 920h96l72 -144h-76zM379 726q154 0 245.5 -104.5t91.5 -266.5t-91.5 -266.5t-245.5 -104.5q-155 0 -246.5 104.5t-91.5 266.5t91.5 266.5t246.5 104.5zM379 645q-110 0 -177 -81t-67 -209q0 -129 67 -209.5t177 -80.5t176.5 80.5t66.5 209.5q0 128 -67 209t-176 81z
" />
    <glyph glyph-name="Oacute" unicode="&#xd3;" horiz-adv-x="757" 
d="M507 920l-92 -144h-76l72 144h96zM379 726q154 0 245.5 -104.5t91.5 -266.5t-91.5 -266.5t-245.5 -104.5q-155 0 -246.5 104.5t-91.5 266.5t91.5 266.5t246.5 104.5zM379 645q-110 0 -177 -81t-67 -209q0 -129 67 -209.5t177 -80.5t176.5 80.5t66.5 209.5q0 128 -67 209
t-176 81z" />
    <glyph glyph-name="Ocircumflex" unicode="&#xd4;" horiz-adv-x="757" 
d="M459 776l-80 101l-80 -101h-74l100 144h108l100 -144h-74zM379 726q154 0 245.5 -104.5t91.5 -266.5t-91.5 -266.5t-245.5 -104.5q-155 0 -246.5 104.5t-91.5 266.5t91.5 266.5t246.5 104.5zM379 645q-110 0 -177 -81t-67 -209q0 -129 67 -209.5t177 -80.5t176.5 80.5
t66.5 209.5q0 128 -67 209t-176 81z" />
    <glyph glyph-name="Otilde" unicode="&#xd5;" horiz-adv-x="757" 
d="M311 900q31 0 75 -26.5t62 -26.5q32 0 32 53h54q0 -51 -22 -81t-59 -30q-27 0 -74 26t-68 26q-34 0 -34 -51h-55q0 51 24.5 80.5t64.5 29.5zM379 726q154 0 245.5 -104.5t91.5 -266.5t-91.5 -266.5t-245.5 -104.5q-155 0 -246.5 104.5t-91.5 266.5t91.5 266.5
t246.5 104.5zM379 645q-110 0 -177 -81t-67 -209q0 -129 67 -209.5t177 -80.5t176.5 80.5t66.5 209.5q0 128 -67 209t-176 81z" />
    <glyph glyph-name="Odieresis" unicode="&#xd6;" horiz-adv-x="757" 
d="M333 896v-103h-84v103h84zM510 896v-103h-84v103h84zM379 726q154 0 245.5 -104.5t91.5 -266.5t-91.5 -266.5t-245.5 -104.5q-155 0 -246.5 104.5t-91.5 266.5t91.5 266.5t246.5 104.5zM379 645q-110 0 -177 -81t-67 -209q0 -129 67 -209.5t177 -80.5t176.5 80.5
t66.5 209.5q0 128 -67 209t-176 81z" />
    <glyph glyph-name="multiply" unicode="&#xd7;" horiz-adv-x="600" 
d="M529 488l-177 -178l177 -178l-51 -51l-178 177l-178 -177l-52 51l178 178l-178 178l52 52l178 -178l178 178z" />
    <glyph glyph-name="Oslash" unicode="&#xd8;" horiz-adv-x="757" 
d="M635 610q81 -103 81 -255q0 -162 -91.5 -266.5t-245.5 -104.5q-121 0 -209 69l-47 -56l-51 43l51 61q-82 101 -82 254q0 162 91.5 266.5t246.5 104.5q123 0 208 -69l47 56l51 -43zM135 355q0 -108 48 -182l348 416q-62 56 -152 56q-110 0 -177 -81t-67 -209zM379 65
q110 0 176.5 80.5t66.5 209.5q0 107 -47 182l-348 -416q62 -56 152 -56z" />
    <glyph glyph-name="Ugrave" unicode="&#xd9;" horiz-adv-x="688" 
d="M216 920h96l72 -144h-76zM612 710v-484q0 -117 -67.5 -179t-200.5 -62q-132 0 -199.5 62t-67.5 179v484h92v-479q0 -81 44.5 -123t130.5 -42t130.5 42t44.5 123v479h93z" />
    <glyph glyph-name="Uacute" unicode="&#xda;" horiz-adv-x="688" 
d="M472 920l-92 -144h-76l72 144h96zM612 710v-484q0 -117 -67.5 -179t-200.5 -62q-132 0 -199.5 62t-67.5 179v484h92v-479q0 -81 44.5 -123t130.5 -42t130.5 42t44.5 123v479h93z" />
    <glyph glyph-name="Ucircumflex" unicode="&#xdb;" horiz-adv-x="688" 
d="M424 776l-80 101l-80 -101h-74l100 144h108l100 -144h-74zM612 710v-484q0 -117 -67.5 -179t-200.5 -62q-132 0 -199.5 62t-67.5 179v484h92v-479q0 -81 44.5 -123t130.5 -42t130.5 42t44.5 123v479h93z" />
    <glyph glyph-name="Udieresis" unicode="&#xdc;" horiz-adv-x="688" 
d="M298 896v-103h-84v103h84zM475 896v-103h-84v103h84zM612 710v-484q0 -117 -67.5 -179t-200.5 -62q-132 0 -199.5 62t-67.5 179v484h92v-479q0 -81 44.5 -123t130.5 -42t130.5 42t44.5 123v479h93z" />
    <glyph glyph-name="Yacute" unicode="&#xdd;" horiz-adv-x="631" 
d="M447 920l-92 -144h-76l72 144h96zM516 710h100l-252 -407v-303h-92v304l-250 406h102l196 -325z" />
    <glyph glyph-name="Thorn" unicode="&#xde;" horiz-adv-x="651" 
d="M387 581q105 0 168 -56t63 -156t-63 -156t-168 -56h-213v-157h-93v710h93v-129h213zM373 233q71 0 112 35t41 101t-41 100.5t-112 34.5h-199v-271h199z" />
    <glyph glyph-name="germandbls" unicode="&#xdf;" horiz-adv-x="581" 
d="M395 406q69 -21 108 -71t39 -124q0 -93 -59.5 -156t-157.5 -63q-52 0 -116 17l14 69q58 -14 96 -14q59 0 97.5 40.5t38.5 107.5q0 71 -46.5 109.5t-133.5 38.5h-25v68h25q59 0 89.5 31t30.5 85q0 49 -33.5 78.5t-84.5 29.5q-59 0 -91.5 -35.5t-32.5 -104.5v-512h-86v519
q0 98 58.5 151.5t152.5 53.5q88 0 144.5 -51.5t56.5 -125.5q0 -100 -84 -141z" />
    <glyph glyph-name="agrave" unicode="&#xe0;" horiz-adv-x="532" 
d="M308 572h-76l-92 144h96zM266 506q95 0 147.5 -45t52.5 -119v-342h-78v60q-51 -76 -167 -76q-78 0 -127 34t-49 104q0 41 17.5 71.5t52 49.5t71 30t88.5 20l110 20v25q0 46 -31.5 71.5t-83.5 25.5q-46 0 -81.5 -19t-80.5 -64l-55 49q89 105 214 105zM230 55q66 0 110 35
t44 94v65l-90 -18q-43 -9 -67.5 -16t-50 -19t-36.5 -29t-11 -42q0 -34 26.5 -52t74.5 -18z" />
    <glyph glyph-name="aacute" unicode="&#xe1;" horiz-adv-x="532" 
d="M396 716l-92 -144h-76l72 144h96zM266 506q95 0 147.5 -45t52.5 -119v-342h-78v60q-51 -76 -167 -76q-78 0 -127 34t-49 104q0 41 17.5 71.5t52 49.5t71 30t88.5 20l110 20v25q0 46 -31.5 71.5t-83.5 25.5q-46 0 -81.5 -19t-80.5 -64l-55 49q89 105 214 105zM230 55
q66 0 110 35t44 94v65l-90 -18q-43 -9 -67.5 -16t-50 -19t-36.5 -29t-11 -42q0 -34 26.5 -52t74.5 -18z" />
    <glyph glyph-name="acircumflex" unicode="&#xe2;" horiz-adv-x="532" 
d="M268 673l-80 -101h-74l100 144h108l100 -144h-74zM266 506q95 0 147.5 -45t52.5 -119v-342h-78v60q-51 -76 -167 -76q-78 0 -127 34t-49 104q0 41 17.5 71.5t52 49.5t71 30t88.5 20l110 20v25q0 46 -31.5 71.5t-83.5 25.5q-46 0 -81.5 -19t-80.5 -64l-55 49
q89 105 214 105zM230 55q66 0 110 35t44 94v65l-90 -18q-43 -9 -67.5 -16t-50 -19t-36.5 -29t-11 -42q0 -34 26.5 -52t74.5 -18z" />
    <glyph glyph-name="atilde" unicode="&#xe3;" horiz-adv-x="532" 
d="M201 637q-34 0 -34 -51h-55q0 51 24.5 80.5t64.5 29.5q31 0 75 -26.5t62 -26.5q32 0 32 53h54q0 -51 -22 -81t-59 -30q-27 0 -74 26t-68 26zM266 506q95 0 147.5 -45t52.5 -119v-342h-78v60q-51 -76 -167 -76q-78 0 -127 34t-49 104q0 41 17.5 71.5t52 49.5t71 30
t88.5 20l110 20v25q0 46 -31.5 71.5t-83.5 25.5q-46 0 -81.5 -19t-80.5 -64l-55 49q89 105 214 105zM230 55q66 0 110 35t44 94v65l-90 -18q-43 -9 -67.5 -16t-50 -19t-36.5 -29t-11 -42q0 -34 26.5 -52t74.5 -18z" />
    <glyph glyph-name="adieresis" unicode="&#xe4;" horiz-adv-x="532" 
d="M222 692v-103h-84v103h84zM399 692v-103h-84v103h84zM266 506q95 0 147.5 -45t52.5 -119v-342h-78v60q-51 -76 -167 -76q-78 0 -127 34t-49 104q0 41 17.5 71.5t52 49.5t71 30t88.5 20l110 20v25q0 46 -31.5 71.5t-83.5 25.5q-46 0 -81.5 -19t-80.5 -64l-55 49
q89 105 214 105zM230 55q66 0 110 35t44 94v65l-90 -18q-43 -9 -67.5 -16t-50 -19t-36.5 -29t-11 -42q0 -34 26.5 -52t74.5 -18z" />
    <glyph glyph-name="aring" unicode="&#xe5;" horiz-adv-x="532" 
d="M268 559q-45 0 -76 30.5t-31 73.5q0 44 31 74t76 30q44 0 75.5 -30.5t31.5 -73.5t-31.5 -73.5t-75.5 -30.5zM268 724q-26 0 -43 -17t-17 -44t17 -44t43 -17t42.5 17t16.5 44t-16.5 44t-42.5 17zM266 506q95 0 147.5 -45t52.5 -119v-342h-78v60q-51 -76 -167 -76
q-78 0 -127 34t-49 104q0 41 17.5 71.5t52 49.5t71 30t88.5 20l110 20v25q0 46 -31.5 71.5t-83.5 25.5q-46 0 -81.5 -19t-80.5 -64l-55 49q89 105 214 105zM230 55q66 0 110 35t44 94v65l-90 -18q-43 -9 -67.5 -16t-50 -19t-36.5 -29t-11 -42q0 -34 26.5 -52t74.5 -18z" />
    <glyph glyph-name="ae" unicode="&#xe6;" horiz-adv-x="881" 
d="M791 140l51 -52q-53 -56 -103.5 -79t-111.5 -23q-127 0 -193 90q-84 -92 -211 -92q-80 0 -129 34t-49 102q0 67 46 104.5t146 57.5l147 28v22q0 103 -112 103q-79 0 -161 -79l-53 52q95 98 218 98q124 0 168 -79q63 79 175 79q105 0 163.5 -63.5t58.5 -173.5
q0 -15 -2 -39h-369q4 -74 43.5 -123t114.5 -49q46 0 80 18t83 64zM618 438q-60 0 -98 -38t-48 -107h285q-3 67 -39 106t-100 39zM231 55q105 0 170 82q-16 44 -17 109l-125 -26q-68 -14 -98.5 -36t-30.5 -58q0 -35 27.5 -53t73.5 -18z" />
    <glyph glyph-name="ccedilla" unicode="&#xe7;" horiz-adv-x="500" 
d="M479 93q-45 -56 -88 -80t-99 -27l-25 -53q47 2 77.5 -19.5t30.5 -58.5q0 -40 -29.5 -65t-76.5 -25q-52 0 -108 36l25 41q51 -27 82 -27q23 0 38 10t15 29q0 17 -16.5 27t-41.5 10q-16 0 -28 -3l-28 27l34 73q-94 11 -149 80.5t-55 177.5q0 117 66 188.5t173 71.5
q61 0 107 -21.5t90 -72.5l-56 -52q-39 42 -72 58t-71 16q-72 0 -110.5 -55t-38.5 -133t39 -132.5t112 -54.5q40 0 72 17.5t75 64.5z" />
    <glyph glyph-name="egrave" unicode="&#xe8;" horiz-adv-x="534" 
d="M316 572h-76l-92 144h96zM444 140l51 -52q-53 -56 -102.5 -79t-112.5 -23q-112 0 -177.5 70.5t-65.5 186.5q0 117 64 190t171 73q105 0 163.5 -63.5t58.5 -173.5q0 -20 -2 -38h-370q4 -75 44 -124t115 -49q46 0 80 18t83 64zM271 437q-60 0 -98 -37t-48 -105h284
q-3 65 -39 103.5t-99 38.5z" />
    <glyph glyph-name="eacute" unicode="&#xe9;" horiz-adv-x="534" 
d="M404 716l-92 -144h-76l72 144h96zM444 140l51 -52q-53 -56 -102.5 -79t-112.5 -23q-112 0 -177.5 70.5t-65.5 186.5q0 117 64 190t171 73q105 0 163.5 -63.5t58.5 -173.5q0 -20 -2 -38h-370q4 -75 44 -124t115 -49q46 0 80 18t83 64zM271 437q-60 0 -98 -37t-48 -105h284
q-3 65 -39 103.5t-99 38.5z" />
    <glyph glyph-name="ecircumflex" unicode="&#xea;" horiz-adv-x="534" 
d="M276 673l-80 -101h-74l100 144h108l100 -144h-74zM444 140l51 -52q-53 -56 -102.5 -79t-112.5 -23q-112 0 -177.5 70.5t-65.5 186.5q0 117 64 190t171 73q105 0 163.5 -63.5t58.5 -173.5q0 -20 -2 -38h-370q4 -75 44 -124t115 -49q46 0 80 18t83 64zM271 437
q-60 0 -98 -37t-48 -105h284q-3 65 -39 103.5t-99 38.5z" />
    <glyph glyph-name="edieresis" unicode="&#xeb;" horiz-adv-x="534" 
d="M230 692v-103h-84v103h84zM407 692v-103h-84v103h84zM444 140l51 -52q-53 -56 -102.5 -79t-112.5 -23q-112 0 -177.5 70.5t-65.5 186.5q0 117 64 190t171 73q105 0 163.5 -63.5t58.5 -173.5q0 -20 -2 -38h-370q4 -75 44 -124t115 -49q46 0 80 18t83 64zM271 437
q-60 0 -98 -37t-48 -105h284q-3 65 -39 103.5t-99 38.5z" />
    <glyph glyph-name="igrave" unicode="&#xec;" horiz-adv-x="220" 
d="M-18 716h96l72 -144h-76zM153 492v-492h-86v492h86z" />
    <glyph glyph-name="iacute" unicode="&#xed;" horiz-adv-x="220" 
d="M239 716l-92 -144h-76l72 144h96zM153 492v-492h-86v492h86z" />
    <glyph glyph-name="icircumflex" unicode="&#xee;" horiz-adv-x="220" 
d="M190 572l-80 101l-80 -101h-74l100 144h108l100 -144h-74zM153 492v-492h-86v492h86z" />
    <glyph glyph-name="idieresis" unicode="&#xef;" horiz-adv-x="220" 
d="M64 692v-103h-84v103h84zM241 692v-103h-84v103h84zM153 492v-492h-86v492h86z" />
    <glyph glyph-name="eth" unicode="&#xf0;" horiz-adv-x="569" 
d="M379 621q140 -109 140 -328q0 -143 -65 -226t-179 -83q-108 0 -173 73t-65 175q0 101 60 172.5t159 71.5q60 0 106.5 -27t73.5 -73q-19 128 -126 200l-104 -67l-30 44l83 53q-37 19 -72 32l-46 18l32 67l43 -16q66 -23 116 -54l86 56l30 -44zM275 59q67 0 108.5 49.5
t41.5 122.5q0 71 -44.5 121t-111.5 50q-66 0 -105.5 -49t-39.5 -122t41 -122.5t110 -49.5z" />
    <glyph glyph-name="ntilde" unicode="&#xf1;" horiz-adv-x="545" 
d="M206 637q-34 0 -34 -51h-55q0 51 24.5 80.5t64.5 29.5q31 0 75 -26.5t62 -26.5q32 0 32 53h54q0 -51 -22 -81t-59 -30q-27 0 -74 26t-68 26zM303 506q86 0 131 -48t45 -121v-337h-86v310q0 123 -113 123q-54 0 -90.5 -36.5t-36.5 -91.5v-305h-86v492h81v-64q48 78 155 78
z" />
    <glyph glyph-name="ograve" unicode="&#xf2;" horiz-adv-x="561" 
d="M150 716h96l72 -144h-76zM280 506q108 0 176 -72.5t68 -187.5t-68 -187.5t-176 -72.5q-107 0 -175 72.5t-68 187.5t68 187.5t175 72.5zM280 434q-71 0 -113 -52t-42 -136t42 -136t113 -52t113.5 52t42.5 136t-42.5 136t-113.5 52z" />
    <glyph glyph-name="oacute" unicode="&#xf3;" horiz-adv-x="561" 
d="M407 716l-92 -144h-76l72 144h96zM280 506q108 0 176 -72.5t68 -187.5t-68 -187.5t-176 -72.5q-107 0 -175 72.5t-68 187.5t68 187.5t175 72.5zM280 434q-71 0 -113 -52t-42 -136t42 -136t113 -52t113.5 52t42.5 136t-42.5 136t-113.5 52z" />
    <glyph glyph-name="ocircumflex" unicode="&#xf4;" horiz-adv-x="561" 
d="M358 572l-80 101l-80 -101h-74l100 144h108l100 -144h-74zM280 506q108 0 176 -72.5t68 -187.5t-68 -187.5t-176 -72.5q-107 0 -175 72.5t-68 187.5t68 187.5t175 72.5zM280 434q-71 0 -113 -52t-42 -136t42 -136t113 -52t113.5 52t42.5 136t-42.5 136t-113.5 52z" />
    <glyph glyph-name="otilde" unicode="&#xf5;" horiz-adv-x="561" 
d="M211 696q31 0 75 -26.5t62 -26.5q32 0 32 53h54q0 -51 -22 -81t-59 -30q-27 0 -74 26t-68 26q-34 0 -34 -51h-55q0 51 24.5 80.5t64.5 29.5zM280 506q108 0 176 -72.5t68 -187.5t-68 -187.5t-176 -72.5q-107 0 -175 72.5t-68 187.5t68 187.5t175 72.5zM280 434
q-71 0 -113 -52t-42 -136t42 -136t113 -52t113.5 52t42.5 136t-42.5 136t-113.5 52z" />
    <glyph glyph-name="odieresis" unicode="&#xf6;" horiz-adv-x="561" 
d="M232 692v-103h-84v103h84zM409 692v-103h-84v103h84zM280 506q108 0 176 -72.5t68 -187.5t-68 -187.5t-176 -72.5q-107 0 -175 72.5t-68 187.5t68 187.5t175 72.5zM280 434q-71 0 -113 -52t-42 -136t42 -136t113 -52t113.5 52t42.5 136t-42.5 136t-113.5 52z" />
    <glyph glyph-name="divide" unicode="&#xf7;" horiz-adv-x="600" 
d="M351 543v-109h-102v109h102zM560 347v-74h-520v74h520zM351 186v-109h-102v109h102z" />
    <glyph glyph-name="oslash" unicode="&#xf8;" horiz-adv-x="561" 
d="M450 440q74 -72 74 -194q0 -115 -68 -187.5t-176 -72.5q-70 0 -125 32l-28 -40l-48 35l29 42q-71 73 -71 191q0 115 68 187.5t175 72.5q68 0 123 -30l29 41l48 -34zM125 246q0 -73 32 -122l202 289q-33 21 -79 21q-71 0 -113 -52t-42 -136zM280 58q71 0 113.5 52
t42.5 136q0 76 -34 125l-203 -290q35 -23 81 -23z" />
    <glyph glyph-name="ugrave" unicode="&#xf9;" horiz-adv-x="537" 
d="M300 572h-76l-92 144h96zM384 492h86v-492h-80v61q-45 -75 -149 -75q-89 0 -132 44.5t-43 116.5v345h86v-324q0 -53 26.5 -80.5t76.5 -27.5q57 0 93 34t36 98v300z" />
    <glyph glyph-name="uacute" unicode="&#xfa;" horiz-adv-x="537" 
d="M389 716l-92 -144h-76l72 144h96zM384 492h86v-492h-80v61q-45 -75 -149 -75q-89 0 -132 44.5t-43 116.5v345h86v-324q0 -53 26.5 -80.5t76.5 -27.5q57 0 93 34t36 98v300z" />
    <glyph glyph-name="ucircumflex" unicode="&#xfb;" horiz-adv-x="537" 
d="M260 673l-80 -101h-74l100 144h108l100 -144h-74zM384 492h86v-492h-80v61q-45 -75 -149 -75q-89 0 -132 44.5t-43 116.5v345h86v-324q0 -53 26.5 -80.5t76.5 -27.5q57 0 93 34t36 98v300z" />
    <glyph glyph-name="udieresis" unicode="&#xfc;" horiz-adv-x="537" 
d="M214 692v-103h-84v103h84zM391 692v-103h-84v103h84zM384 492h86v-492h-80v61q-45 -75 -149 -75q-89 0 -132 44.5t-43 116.5v345h86v-324q0 -53 26.5 -80.5t76.5 -27.5q57 0 93 34t36 98v300z" />
    <glyph glyph-name="yacute" unicode="&#xfd;" horiz-adv-x="484" 
d="M369 716l-92 -144h-76l72 144h96zM379 492h87l-197 -560q-24 -68 -55 -96.5t-93 -28.5q-41 0 -76 10l15 66q27 -6 53 -6q30 0 49 16.5t34 61.5l6 18l-185 519h91l55 -163l81 -241l80 243z" />
    <glyph glyph-name="thorn" unicode="&#xfe;" horiz-adv-x="572" 
d="M316 505q95 0 156 -71.5t61 -186.5q0 -117 -61 -188.5t-156 -71.5q-110 0 -163 78v-245h-86v890h86v-286q56 81 163 81zM303 61q64 0 103 51t39 135q0 83 -38.5 134t-103.5 51q-68 0 -110.5 -49.5t-42.5 -135.5q0 -87 42.5 -136.5t110.5 -49.5z" />
    <glyph glyph-name="ydieresis" unicode="&#xff;" horiz-adv-x="484" 
d="M194 692v-103h-84v103h84zM371 692v-103h-84v103h84zM379 492h87l-197 -560q-24 -68 -55 -96.5t-93 -28.5q-41 0 -76 10l15 66q27 -6 53 -6q30 0 49 16.5t34 61.5l6 18l-185 519h91l55 -163l81 -241l80 243z" />
    <glyph glyph-name="Amacron" unicode="&#x100;" horiz-adv-x="669" 
d="M473 864v-66h-279v66h279zM558 0l-65 181h-318l-65 -181h-93l257 710h121l258 -710h-95zM202 259h264l-33 93q-73 203 -100 289q-19 -62 -98 -290z" />
    <glyph glyph-name="amacron" unicode="&#x101;" horiz-adv-x="532" 
d="M408 660v-66h-279v66h279zM266 506q95 0 147.5 -45t52.5 -119v-342h-78v60q-51 -76 -167 -76q-78 0 -127 34t-49 104q0 41 17.5 71.5t52 49.5t71 30t88.5 20l110 20v25q0 46 -31.5 71.5t-83.5 25.5q-46 0 -81.5 -19t-80.5 -64l-55 49q89 105 214 105zM230 55q66 0 110 35
t44 94v65l-90 -18q-43 -9 -67.5 -16t-50 -19t-36.5 -29t-11 -42q0 -34 26.5 -52t74.5 -18z" />
    <glyph glyph-name="Abreve" unicode="&#x102;" horiz-adv-x="669" 
d="M334 775q-65 0 -104.5 35.5t-39.5 95.5h68q0 -34 19 -56t57 -22t56.5 22t18.5 56h68q0 -60 -39.5 -95.5t-103.5 -35.5zM558 0l-65 181h-318l-65 -181h-93l257 710h121l258 -710h-95zM202 259h264l-33 93q-73 203 -100 289q-19 -62 -98 -290z" />
    <glyph glyph-name="abreve" unicode="&#x103;" horiz-adv-x="532" 
d="M268 571q-65 0 -104.5 35.5t-39.5 95.5h68q0 -34 19 -56t57 -22t56.5 22t18.5 56h68q0 -60 -39.5 -95.5t-103.5 -35.5zM266 506q95 0 147.5 -45t52.5 -119v-342h-78v60q-51 -76 -167 -76q-78 0 -127 34t-49 104q0 41 17.5 71.5t52 49.5t71 30t88.5 20l110 20v25
q0 46 -31.5 71.5t-83.5 25.5q-46 0 -81.5 -19t-80.5 -64l-55 49q89 105 214 105zM230 55q66 0 110 35t44 94v65l-90 -18q-43 -9 -67.5 -16t-50 -19t-36.5 -29t-11 -42q0 -34 26.5 -52t74.5 -18z" />
    <glyph glyph-name="Aogonek" unicode="&#x104;" horiz-adv-x="669" 
d="M573 -110q0 -42 51 -42q16 0 26 3v-54q-13 -6 -38 -6q-47 0 -74.5 22t-27.5 62q0 67 72 125h-24l-65 181h-318l-65 -181h-93l257 710h121l258 -710q-80 -54 -80 -110zM202 259h264l-33 93q-73 203 -100 289q-19 -62 -98 -290z" />
    <glyph glyph-name="aogonek" unicode="&#x105;" horiz-adv-x="532" 
d="M466 0q-79 -54 -79 -110q0 -42 51 -42q16 0 26 3v-54q-13 -6 -38 -6q-47 0 -74.5 22t-27.5 62q0 67 72 125h-8v60q-51 -76 -167 -76q-78 0 -127 34t-49 104q0 41 17.5 71.5t52 49.5t71 30t88.5 20l110 20v25q0 46 -31.5 71.5t-83.5 25.5q-46 0 -81.5 -19t-80.5 -64
l-55 49q89 105 214 105q95 0 147.5 -45t52.5 -119v-342zM230 55q66 0 110 35t44 94v65l-90 -18q-43 -9 -67.5 -16t-50 -19t-36.5 -29t-11 -42q0 -34 26.5 -52t74.5 -18z" />
    <glyph glyph-name="Cacute" unicode="&#x106;" horiz-adv-x="666" 
d="M511 920l-92 -144h-76l72 144h96zM383 726q69 0 127 -23.5t122 -78.5l-53 -63q-57 48 -102.5 66t-94.5 18q-114 0 -180.5 -80.5t-66.5 -209.5t66 -209.5t175 -80.5q60 0 106.5 24.5t106.5 79.5l56 -62q-68 -67 -129 -95t-138 -28q-156 0 -246.5 104t-90.5 268t90.5 267
t251.5 103z" />
    <glyph glyph-name="cacute" unicode="&#x107;" horiz-adv-x="500" 
d="M401 716l-92 -144h-76l72 144h96zM417 360q-39 42 -72 58t-71 16q-72 0 -110.5 -55t-38.5 -133t39 -132.5t112 -54.5q40 0 72 17.5t75 64.5l56 -48q-48 -59 -94.5 -83t-108.5 -24q-109 0 -174 71t-65 189q0 117 66 188.5t173 71.5q61 0 107 -21.5t90 -72.5z" />
    <glyph glyph-name="Cdotaccent" unicode="&#x10a;" horiz-adv-x="666" 
d="M425 896v-103h-86v103h86zM383 726q69 0 127 -23.5t122 -78.5l-53 -63q-57 48 -102.5 66t-94.5 18q-114 0 -180.5 -80.5t-66.5 -209.5t66 -209.5t175 -80.5q60 0 106.5 24.5t106.5 79.5l56 -62q-68 -67 -129 -95t-138 -28q-156 0 -246.5 104t-90.5 268t90.5 267
t251.5 103z" />
    <glyph glyph-name="cdotaccent" unicode="&#x10b;" horiz-adv-x="500" 
d="M316 692v-103h-86v103h86zM417 360q-39 42 -72 58t-71 16q-72 0 -110.5 -55t-38.5 -133t39 -132.5t112 -54.5q40 0 72 17.5t75 64.5l56 -48q-48 -59 -94.5 -83t-108.5 -24q-109 0 -174 71t-65 189q0 117 66 188.5t173 71.5q61 0 107 -21.5t90 -72.5z" />
    <glyph glyph-name="Ccaron" unicode="&#x10c;" horiz-adv-x="666" 
d="M536 920l-100 -144h-108l-100 144h74l80 -102l80 102h74zM383 726q69 0 127 -23.5t122 -78.5l-53 -63q-57 48 -102.5 66t-94.5 18q-114 0 -180.5 -80.5t-66.5 -209.5t66 -209.5t175 -80.5q60 0 106.5 24.5t106.5 79.5l56 -62q-68 -67 -129 -95t-138 -28
q-156 0 -246.5 104t-90.5 268t90.5 267t251.5 103z" />
    <glyph glyph-name="ccaron" unicode="&#x10d;" horiz-adv-x="500" 
d="M427 716l-100 -144h-108l-100 144h74l80 -102l80 102h74zM417 360q-39 42 -72 58t-71 16q-72 0 -110.5 -55t-38.5 -133t39 -132.5t112 -54.5q40 0 72 17.5t75 64.5l56 -48q-48 -59 -94.5 -83t-108.5 -24q-109 0 -174 71t-65 189q0 117 66 188.5t173 71.5q61 0 107 -21.5
t90 -72.5z" />
    <glyph glyph-name="Dcaron" unicode="&#x10e;" horiz-adv-x="702" 
d="M499 920l-100 -144h-108l-100 144h74l80 -102l80 102h74zM347 710q149 0 231.5 -97.5t82.5 -257.5t-82.5 -257.5t-231.5 -97.5h-266v710h266zM332 633h-158v-556h158q112 0 173.5 73.5t61.5 204.5q0 130 -61.5 204t-173.5 74z" />
    <glyph glyph-name="dcaron" unicode="&#x10f;" horiz-adv-x="716" 
d="M417 426v284h86v-710h-81v76q-54 -89 -168 -89q-95 0 -156 71.5t-61 187.5t61.5 187.5t157.5 71.5q107 0 161 -79zM618 710h86l-61 -198h-55zM267 60q68 0 110.5 50t42.5 136t-42.5 135.5t-110.5 49.5q-64 0 -103 -51t-39 -134q0 -84 38.5 -135t103.5 -51z" />
    <glyph glyph-name="Dcroat" unicode="&#x110;" horiz-adv-x="730" 
d="M375 710q149 0 231.5 -97.5t82.5 -257.5t-82.5 -257.5t-231.5 -97.5h-266v328h-83v77h83v305h266zM360 77q112 0 173.5 73.5t61.5 204.5q0 130 -61.5 204t-173.5 74h-158v-228h187v-77h-187v-251h158z" />
    <glyph glyph-name="dcroat" unicode="&#x111;" horiz-adv-x="598" 
d="M581 628v-62h-77v-566h-79v77q-54 -90 -169 -90q-95 0 -156 71t-61 186t61.5 186t157.5 71q107 0 160 -77v142h-128v62h128v82h86v-82h77zM269 60q68 0 110.5 49.5t42.5 134.5t-42.5 134.5t-110.5 49.5q-64 0 -103 -50.5t-39 -133.5q0 -82 38.5 -133t103.5 -51z" />
    <glyph glyph-name="Emacron" unicode="&#x112;" horiz-adv-x="609" 
d="M459 864v-66h-279v66h279zM554 710v-77h-380v-229h354v-77h-354v-250h389v-77h-482v710h473z" />
    <glyph glyph-name="emacron" unicode="&#x113;" horiz-adv-x="534" 
d="M416 660v-66h-279v66h279zM444 140l51 -52q-53 -56 -102.5 -79t-112.5 -23q-112 0 -177.5 70.5t-65.5 186.5q0 117 64 190t171 73q105 0 163.5 -63.5t58.5 -173.5q0 -20 -2 -38h-370q4 -75 44 -124t115 -49q46 0 80 18t83 64zM271 437q-60 0 -98 -37t-48 -105h284
q-3 65 -39 103.5t-99 38.5z" />
    <glyph glyph-name="Edotaccent" unicode="&#x116;" horiz-adv-x="609" 
d="M362 896v-103h-86v103h86zM554 710v-77h-380v-229h354v-77h-354v-250h389v-77h-482v710h473z" />
    <glyph glyph-name="edotaccent" unicode="&#x117;" horiz-adv-x="534" 
d="M319 692v-103h-86v103h86zM444 140l51 -52q-53 -56 -102.5 -79t-112.5 -23q-112 0 -177.5 70.5t-65.5 186.5q0 117 64 190t171 73q105 0 163.5 -63.5t58.5 -173.5q0 -20 -2 -38h-370q4 -75 44 -124t115 -49q46 0 80 18t83 64zM271 437q-60 0 -98 -37t-48 -105h284
q-3 65 -39 103.5t-99 38.5z" />
    <glyph glyph-name="Eogonek" unicode="&#x118;" horiz-adv-x="609" 
d="M563 0q-80 -55 -80 -110q0 -42 51 -42q16 0 26 3v-54q-13 -6 -38 -6q-46 0 -73.5 22t-27.5 62q0 67 71 125h-411v710h473v-77h-380v-229h354v-77h-354v-250h389v-77z" />
    <glyph glyph-name="eogonek" unicode="&#x119;" horiz-adv-x="534" 
d="M404 -209q-48 0 -77.5 23t-29.5 67q0 58 47 112q-28 -7 -64 -7q-112 0 -177.5 70.5t-65.5 186.5q0 117 64 190t171 73q105 0 163.5 -63.5t58.5 -173.5q0 -20 -2 -38h-370q5 -74 44.5 -123.5t114.5 -49.5q46 0 80 18t83 64l51 -52q-15 -17 -45 -43q-89 -81 -89 -150
q0 -47 54 -47q17 0 27 3v-55q-13 -5 -38 -5zM125 295h283q-2 65 -38 103.5t-99 38.5q-60 0 -98 -36.5t-48 -105.5z" />
    <glyph glyph-name="Ecaron" unicode="&#x11a;" horiz-adv-x="609" 
d="M473 920l-100 -144h-108l-100 144h74l80 -102l80 102h74zM554 710v-77h-380v-229h354v-77h-354v-250h389v-77h-482v710h473z" />
    <glyph glyph-name="ecaron" unicode="&#x11b;" horiz-adv-x="534" 
d="M330 572h-108l-100 144h74l80 -102l80 102h74zM444 140l51 -52q-53 -56 -102.5 -79t-112.5 -23q-112 0 -177.5 70.5t-65.5 186.5q0 117 64 190t171 73q105 0 163.5 -63.5t58.5 -173.5q0 -20 -2 -38h-370q4 -75 44 -124t115 -49q46 0 80 18t83 64zM271 437q-60 0 -98 -37
t-48 -105h284q-3 65 -39 103.5t-99 38.5z" />
    <glyph glyph-name="Gbreve" unicode="&#x11e;" horiz-adv-x="741" 
d="M384 775q-65 0 -104.5 35.5t-39.5 95.5h68q0 -34 19 -56t57 -22t56.5 22t18.5 56h68q0 -60 -39.5 -95.5t-103.5 -35.5zM362 294v78h313v-372h-72l-7 91q-66 -106 -222 -106t-244.5 102.5t-88.5 267.5q0 163 92.5 266.5t251.5 103.5q87 0 155.5 -32.5t135.5 -102.5
l-59 -60q-62 61 -114 87.5t-119 26.5q-112 0 -180.5 -79t-68.5 -210q0 -133 65.5 -211.5t178.5 -78.5q94 0 152 54t58 147v28h-227z" />
    <glyph glyph-name="gbreve" unicode="&#x11f;" horiz-adv-x="565" 
d="M283 571q-65 0 -104.5 35.5t-39.5 95.5h68q0 -34 19 -56t57 -22t56.5 22t18.5 56h68q0 -60 -39.5 -95.5t-103.5 -35.5zM418 492h80v-481q0 -96 -60.5 -150t-162.5 -54q-120 0 -223 73l43 63q100 -63 179 -63q62 0 100.5 33.5t38.5 104.5v68q-51 -80 -157 -80
q-96 0 -156 70t-60 180t60 180t156 70q111 0 162 -86v72zM270 79q65 0 105 49.5t40 127.5t-40 127.5t-105 49.5q-66 0 -104 -49t-38 -128t38 -128t104 -49z" />
    <glyph glyph-name="Gdotaccent" unicode="&#x120;" horiz-adv-x="741" 
d="M427 896v-103h-86v103h86zM362 294v78h313v-372h-72l-7 91q-66 -106 -222 -106t-244.5 102.5t-88.5 267.5q0 163 92.5 266.5t251.5 103.5q87 0 155.5 -32.5t135.5 -102.5l-59 -60q-62 61 -114 87.5t-119 26.5q-112 0 -180.5 -79t-68.5 -210q0 -133 65.5 -211.5
t178.5 -78.5q94 0 152 54t58 147v28h-227z" />
    <glyph glyph-name="gdotaccent" unicode="&#x121;" horiz-adv-x="565" 
d="M326 692v-103h-86v103h86zM418 492h80v-481q0 -96 -60.5 -150t-162.5 -54q-120 0 -223 73l43 63q100 -63 179 -63q62 0 100.5 33.5t38.5 104.5v68q-51 -80 -157 -80q-96 0 -156 70t-60 180t60 180t156 70q111 0 162 -86v72zM270 79q65 0 105 49.5t40 127.5t-40 127.5
t-105 49.5q-66 0 -104 -49t-38 -128t38 -128t104 -49z" />
    <glyph glyph-name="Gcommaaccent" unicode="&#x122;" horiz-adv-x="741" 
d="M362 294v78h313v-372h-72l-7 91q-66 -106 -222 -106t-244.5 102.5t-88.5 267.5q0 163 92.5 266.5t251.5 103.5q87 0 155.5 -32.5t135.5 -102.5l-59 -60q-62 61 -114 87.5t-119 26.5q-112 0 -180.5 -79t-68.5 -210q0 -133 65.5 -211.5t178.5 -78.5q94 0 152 54t58 147v28
h-227zM327 -159v86h100v-86l-57 -94h-48l52 94h-47z" />
    <glyph glyph-name="gcommaaccent" unicode="&#x123;" horiz-adv-x="565" 
d="M331 675v-88h-101v88l57 100h48l-51 -100h47zM418 492h80v-481q0 -96 -60.5 -150t-162.5 -54q-120 0 -223 73l43 63q100 -63 179 -63q62 0 100.5 33.5t38.5 104.5v68q-51 -80 -157 -80q-96 0 -156 70t-60 180t60 180t156 70q111 0 162 -86v72zM270 79q65 0 105 49.5
t40 127.5t-40 127.5t-105 49.5q-66 0 -104 -49t-38 -128t38 -128t104 -49z" />
    <glyph glyph-name="Hbar" unicode="&#x126;" horiz-adv-x="780" 
d="M750 599v-66h-77v-533h-92v330h-382v-330h-92v533h-77v66h77v111h92v-111h382v111h92v-111h77zM581 407v126h-382v-126h382z" />
    <glyph glyph-name="hbar" unicode="&#x127;" horiz-adv-x="571" 
d="M330 503q86 0 131 -48t45 -121v-334h-86v306q0 60 -29.5 91.5t-84.5 31.5q-52 0 -89 -37t-37 -91v-301h-86v566h-77v62h77v82h86v-82h127v-62h-127v-139q48 76 150 76z" />
    <glyph glyph-name="Imacron" unicode="&#x12a;" horiz-adv-x="270" 
d="M274 864v-66h-279v66h279zM181 710v-710h-93v710h93z" />
    <glyph glyph-name="imacron" unicode="&#x12b;" horiz-adv-x="220" 
d="M250 660v-66h-279v66h279zM153 492v-492h-86v492h86z" />
    <glyph glyph-name="Iogonek" unicode="&#x12e;" horiz-adv-x="270" 
d="M181 0q-80 -55 -80 -110q0 -42 51 -42q16 0 27 3v-54q-13 -6 -39 -6q-46 0 -73.5 22t-27.5 62q0 67 71 125h-22v710h93v-710z" />
    <glyph glyph-name="iogonek" unicode="&#x12f;" horiz-adv-x="220" 
d="M67 692h86v-103h-86v103zM67 0v492h86v-492q-80 -55 -80 -110q0 -42 51 -42q16 0 27 3v-54q-13 -6 -39 -6q-46 0 -73.5 22t-27.5 62q0 67 71 125h-15z" />
    <glyph glyph-name="Idotaccent" unicode="&#x130;" horiz-adv-x="270" 
d="M177 896v-103h-86v103h86zM181 710v-710h-93v710h93z" />
    <glyph glyph-name="dotlessi" unicode="&#x131;" horiz-adv-x="220" 
d="M153 492v-492h-86v492h86z" />
    <glyph glyph-name="IJ" unicode="&#x132;" horiz-adv-x="732" 
d="M181 710v-710h-93v710h93zM655 710v-527q0 -195 -192 -195q-92 0 -181 47l32 72q89 -38 146 -38q103 0 103 122v519h92z" />
    <glyph glyph-name="ij" unicode="&#x133;" horiz-adv-x="444" 
d="M153 692v-103h-86v103h86zM376 692v-103h-86v103h86zM153 492v-492h-86v492h86zM159 -111q37 -10 68 -10q35 0 49 20t14 63v530h86v-530q0 -154 -139 -154q-47 0 -95 15z" />
    <glyph glyph-name="Kcommaaccent" unicode="&#x136;" horiz-adv-x="656" 
d="M363 431l286 -431h-105l-243 366l-127 -130v-236h-93v710h93v-363l346 363h114zM296 -159v86h100v-86l-57 -94h-48l52 94h-47z" />
    <glyph glyph-name="kcommaaccent" unicode="&#x137;" horiz-adv-x="508" 
d="M301 303l201 -303h-95l-165 247l-89 -90v-157h-86v710h86v-456l228 238h101zM222 -159v86h100v-86l-57 -94h-48l52 94h-47z" />
    <glyph glyph-name="Lacute" unicode="&#x139;" horiz-adv-x="533" 
d="M257 920l-92 -144h-76l72 144h96zM174 710v-632h332v-78h-425v710h93z" />
    <glyph glyph-name="lacute" unicode="&#x13a;" horiz-adv-x="226" 
d="M240 910l-92 -144h-76l72 144h96zM156 710v-710h-86v710h86z" />
    <glyph glyph-name="Lcommaaccent" unicode="&#x13b;" horiz-adv-x="533" 
d="M174 710v-632h332v-78h-425v710h93zM349 -73v-86l-57 -94h-48l52 94h-47v86h100z" />
    <glyph glyph-name="lcommaaccent" unicode="&#x13c;" horiz-adv-x="226" 
d="M156 710v-710h-86v710h86zM164 -73v-86l-57 -94h-48l52 94h-47v86h100z" />
    <glyph glyph-name="Lcaron" unicode="&#x13d;" horiz-adv-x="533" 
d="M174 710v-632h332v-78h-425v710h93zM380 710l-61 -198h-55l30 198h86z" />
    <glyph glyph-name="lcaron" unicode="&#x13e;" horiz-adv-x="370" 
d="M156 710v-710h-86v710h86zM359 710l-61 -198h-55l30 198h86z" />
    <glyph glyph-name="Ldot" unicode="&#x13f;" horiz-adv-x="533" 
d="M174 710v-632h332v-78h-425v710h93zM434 422v-108h-102v108h102z" />
    <glyph glyph-name="ldot" unicode="&#x140;" horiz-adv-x="396" 
d="M156 710v-710h-86v710h86zM357 367v-108h-102v108h102z" />
    <glyph glyph-name="Lslash" unicode="&#x141;" horiz-adv-x="566" 
d="M204 78h334v-78h-427v291l-84 -47v80l84 47v339h93v-292l153 85v-79l-153 -86v-260z" />
    <glyph glyph-name="lslash" unicode="&#x142;" horiz-adv-x="342" 
d="M305 496v-75l-88 -52v-369h-86v319l-94 -55v75l94 55v316h86v-266z" />
    <glyph glyph-name="Nacute" unicode="&#x143;" horiz-adv-x="731" 
d="M502 920l-92 -144h-76l72 144h96zM560 710h90v-710h-102l-211 323q-142 223 -171 272q5 -110 5 -276v-319h-90v710h104l213 -328q125 -194 166 -265q-4 113 -4 269v324z" />
    <glyph glyph-name="nacute" unicode="&#x144;" horiz-adv-x="545" 
d="M401 716l-92 -144h-76l72 144h96zM303 506q86 0 131 -48t45 -121v-337h-86v310q0 123 -113 123q-54 0 -90.5 -36.5t-36.5 -91.5v-305h-86v492h81v-64q48 78 155 78z" />
    <glyph glyph-name="Ncommaaccent" unicode="&#x145;" horiz-adv-x="731" 
d="M560 710h90v-710h-102l-211 323q-142 223 -171 272q5 -110 5 -276v-319h-90v710h104l213 -328q125 -194 166 -265q-4 113 -4 269v324zM317 -159v86h100v-86l-57 -94h-48l52 94h-47z" />
    <glyph glyph-name="ncommaaccent" unicode="&#x146;" horiz-adv-x="545" 
d="M303 506q86 0 131 -48t45 -121v-337h-86v310q0 123 -113 123q-54 0 -90.5 -36.5t-36.5 -91.5v-305h-86v492h81v-64q48 78 155 78zM220 -159v86h100v-86l-57 -94h-48l52 94h-47z" />
    <glyph glyph-name="Ncaron" unicode="&#x147;" horiz-adv-x="731" 
d="M427 776h-108l-100 144h74l80 -102l80 102h74zM560 710h90v-710h-102l-211 323q-142 223 -171 272q5 -110 5 -276v-319h-90v710h104l213 -328q125 -194 166 -265q-4 113 -4 269v324z" />
    <glyph glyph-name="ncaron" unicode="&#x148;" horiz-adv-x="545" 
d="M327 572h-108l-100 144h74l80 -102l80 102h74zM303 506q86 0 131 -48t45 -121v-337h-86v310q0 123 -113 123q-54 0 -90.5 -36.5t-36.5 -91.5v-305h-86v492h81v-64q48 78 155 78z" />
    <glyph glyph-name="Eng" unicode="&#x14a;" horiz-adv-x="731" 
d="M560 710h90v-754q0 -153 -144 -153q-48 0 -107 18l19 72q47 -14 77 -14q37 0 53 20t16 62v13l-227 349q-125 194 -170 270q4 -87 4 -274v-319h-90v710h103l214 -328q124 -193 166 -266q-4 113 -4 270v324z" />
    <glyph glyph-name="eng" unicode="&#x14b;" horiz-adv-x="546" 
d="M303 506q86 0 131 -48t45 -121v-375q0 -154 -139 -154q-46 0 -96 15l18 66q37 -10 68 -10q35 0 49 20t14 63v348q0 123 -113 123q-54 0 -90.5 -36.5t-36.5 -91.5v-305h-86v492h81v-64q48 78 155 78z" />
    <glyph glyph-name="Omacron" unicode="&#x14c;" horiz-adv-x="757" 
d="M518 864v-66h-279v66h279zM379 726q154 0 245.5 -104.5t91.5 -266.5t-91.5 -266.5t-245.5 -104.5q-155 0 -246.5 104.5t-91.5 266.5t91.5 266.5t246.5 104.5zM379 645q-110 0 -177 -81t-67 -209q0 -129 67 -209.5t177 -80.5t176.5 80.5t66.5 209.5q0 128 -67 209t-176 81
z" />
    <glyph glyph-name="omacron" unicode="&#x14d;" horiz-adv-x="561" 
d="M418 660v-66h-279v66h279zM280 506q108 0 176 -72.5t68 -187.5t-68 -187.5t-176 -72.5q-107 0 -175 72.5t-68 187.5t68 187.5t175 72.5zM280 434q-71 0 -113 -52t-42 -136t42 -136t113 -52t113.5 52t42.5 136t-42.5 136t-113.5 52z" />
    <glyph glyph-name="Ohungarumlaut" unicode="&#x150;" horiz-adv-x="757" 
d="M429 920l-93 -145h-66l72 145h87zM584 920l-94 -145h-67l74 145h87zM379 726q154 0 245.5 -104.5t91.5 -266.5t-91.5 -266.5t-245.5 -104.5q-155 0 -246.5 104.5t-91.5 266.5t91.5 266.5t246.5 104.5zM379 645q-110 0 -177 -81t-67 -209q0 -129 67 -209.5t177 -80.5
t176.5 80.5t66.5 209.5q0 128 -67 209t-176 81z" />
    <glyph glyph-name="ohungarumlaut" unicode="&#x151;" horiz-adv-x="561" 
d="M328 716l-93 -145h-66l72 145h87zM483 716l-94 -145h-67l74 145h87zM280 506q108 0 176 -72.5t68 -187.5t-68 -187.5t-176 -72.5q-107 0 -175 72.5t-68 187.5t68 187.5t175 72.5zM280 434q-71 0 -113 -52t-42 -136t42 -136t113 -52t113.5 52t42.5 136t-42.5 136
t-113.5 52z" />
    <glyph glyph-name="OE" unicode="&#x152;" horiz-adv-x="1150" 
d="M715 77h389v-77h-482v107q-86 -123 -245 -123q-154 0 -245 104t-91 267t91 267t245 104q159 0 245 -123v107h473v-77h-380v-229h353v-77h-353v-250zM379 65q110 0 176.5 80.5t66.5 209.5q0 128 -67 209t-176 81q-110 0 -177 -81t-67 -209q0 -129 67 -209.5t177 -80.5z
" />
    <glyph glyph-name="oe" unicode="&#x153;" horiz-adv-x="935" 
d="M845 140l51 -52q-52 -56 -102.5 -79t-112.5 -23q-138 0 -202 105q-65 -105 -199 -105q-107 0 -175 72.5t-68 187.5t68 187.5t175 72.5q134 0 200 -106q63 106 193 106q105 0 163.5 -63.5t58.5 -173.5q0 -15 -2 -39h-369q4 -74 43.5 -123t114.5 -49q47 0 80.5 18t82.5 64z
M673 438q-60 0 -98 -38t-48 -107h284q-2 66 -38.5 105.5t-99.5 39.5zM280 58q71 0 113.5 52t42.5 136t-42.5 136t-113.5 52t-113 -52t-42 -136t42 -136t113 -52z" />
    <glyph glyph-name="Racute" unicode="&#x154;" horiz-adv-x="667" 
d="M459 920l-92 -144h-76l72 144h96zM634 0h-104l-190 285h-166v-285h-93v710h299q101 0 165.5 -57t64.5 -155q0 -83 -46.5 -137.5t-124.5 -69.5zM174 633v-271h191q71 0 112 35t41 101q0 65 -41.5 100t-112.5 35h-190z" />
    <glyph glyph-name="racute" unicode="&#x155;" horiz-adv-x="358" 
d="M333 716l-92 -144h-76l72 144h96zM270 497q36 0 78 -14l-16 -72q-36 10 -64 10q-51 0 -83 -42t-32 -115v-264h-86v492h81v-75q37 80 122 80z" />
    <glyph glyph-name="Rcommaaccent" unicode="&#x156;" horiz-adv-x="667" 
d="M439 291l195 -291h-104l-190 285h-166v-285h-93v710h299q101 0 165.5 -57t64.5 -155q0 -83 -46.5 -137.5t-124.5 -69.5zM174 633v-271h191q71 0 112 35t41 101q0 65 -41.5 100t-112.5 35h-190zM286 -159v86h100v-86l-57 -94h-48l52 94h-47z" />
    <glyph glyph-name="rcommaaccent" unicode="&#x157;" horiz-adv-x="358" 
d="M270 497q36 0 78 -14l-16 -72q-36 10 -64 10q-51 0 -83 -42t-32 -115v-264h-86v492h81v-75q37 80 122 80zM59 -159v86h100v-86l-57 -94h-48l52 94h-47z" />
    <glyph glyph-name="Rcaron" unicode="&#x158;" horiz-adv-x="667" 
d="M384 776h-108l-100 144h74l80 -102l80 102h74zM634 0h-104l-190 285h-166v-285h-93v710h299q101 0 165.5 -57t64.5 -155q0 -83 -46.5 -137.5t-124.5 -69.5zM174 633v-271h191q71 0 112 35t41 101q0 65 -41.5 100t-112.5 35h-190z" />
    <glyph glyph-name="rcaron" unicode="&#x159;" horiz-adv-x="358" 
d="M258 572h-108l-100 144h74l80 -102l80 102h74zM148 417q37 80 122 80q36 0 78 -14l-16 -72q-36 10 -64 10q-51 0 -83 -42t-32 -115v-264h-86v492h81v-75z" />
    <glyph glyph-name="Sacute" unicode="&#x15a;" horiz-adv-x="629" 
d="M442 920l-92 -144h-76l72 144h96zM308 725q80 0 142 -24.5t126 -79.5l-54 -64q-57 50 -105.5 69.5t-108.5 19.5q-73 0 -118 -32.5t-45 -83.5q0 -52 42 -74.5t153 -47.5q135 -32 190.5 -76t55.5 -128q0 -99 -73 -159.5t-189 -60.5q-86 0 -154 28.5t-145 94.5l55 65
q75 -63 129.5 -85.5t115.5 -22.5q74 0 121.5 36.5t47.5 98.5q0 25 -10 44t-23.5 31t-44 23.5t-52.5 17l-68 16.5q-136 31 -188.5 73t-52.5 124q0 87 73 142t180 55z" />
    <glyph glyph-name="sacute" unicode="&#x15b;" horiz-adv-x="479" 
d="M360 716l-92 -144h-76l72 144h96zM235 506q61 0 107 -16.5t95 -55.5l-47 -58q-46 35 -79.5 47.5t-75.5 12.5q-49 0 -78.5 -20.5t-29.5 -52.5q0 -30 27.5 -43t104.5 -30q100 -23 143 -55.5t43 -95.5q0 -69 -54 -111t-143 -42q-66 0 -117.5 20.5t-109.5 71.5l51 56
q53 -44 92 -60.5t85 -16.5q49 0 80.5 21t31.5 57q0 37 -33 53.5t-105 32.5q-101 22 -140 50.5t-39 88.5q0 65 53 105.5t138 40.5z" />
    <glyph glyph-name="Scedilla" unicode="&#x15e;" horiz-adv-x="629" 
d="M586 204q0 -97 -70.5 -157.5t-183.5 -62.5l-24 -51q47 2 77 -19.5t30 -58.5q0 -40 -29.5 -65t-75.5 -25q-54 0 -108 35l25 42q47 -27 81 -27q24 0 39 10t15 29q0 17 -16.5 27t-41.5 10q-17 0 -29 -3l-27 27l33 71q-70 6 -129.5 34.5t-126.5 86.5l55 65
q75 -63 129.5 -85.5t115.5 -22.5q74 0 121.5 36t47.5 96q0 26 -10 45.5t-23.5 32t-44 24t-52.5 17l-68 16.5q-136 31 -188.5 73t-52.5 124q0 87 73 142.5t180 55.5q79 0 141.5 -25t126.5 -80l-54 -64q-57 50 -105.5 69.5t-108.5 19.5q-73 0 -118 -32.5t-45 -83.5
q0 -52 42 -74.5t153 -47.5q135 -32 190.5 -76t55.5 -128z" />
    <glyph glyph-name="scedilla" unicode="&#x15f;" horiz-adv-x="479" 
d="M445 139q0 -68 -53 -110t-140 -43l-25 -53q47 2 77.5 -19.5t30.5 -58.5q0 -40 -29.5 -65t-76.5 -25q-54 0 -108 35l25 42q48 -27 82 -27q23 0 38 10t15 29q0 17 -16.5 27t-41.5 10q-16 0 -28 -3l-28 27l34 74q-89 10 -180 89l51 56q53 -44 92 -60.5t85 -16.5
q49 0 80.5 21t31.5 57q0 37 -33 53.5t-105 32.5q-101 22 -140 50.5t-39 88.5q0 65 53 105.5t138 40.5q61 0 107 -16.5t95 -55.5l-47 -58q-46 35 -79.5 47.5t-75.5 12.5q-49 0 -78.5 -20.5t-29.5 -52.5q0 -30 27.5 -43t104.5 -30q100 -23 143 -55.5t43 -95.5z" />
    <glyph glyph-name="Scaron" unicode="&#x160;" horiz-adv-x="629" 
d="M468 920l-100 -144h-108l-100 144h74l80 -102l80 102h74zM308 725q80 0 142 -24.5t126 -79.5l-54 -64q-57 50 -105.5 69.5t-108.5 19.5q-73 0 -118 -32.5t-45 -83.5q0 -52 42 -74.5t153 -47.5q135 -32 190.5 -76t55.5 -128q0 -99 -73 -159.5t-189 -60.5q-86 0 -154 28.5
t-145 94.5l55 65q75 -63 129.5 -85.5t115.5 -22.5q74 0 121.5 36.5t47.5 98.5q0 25 -10 44t-23.5 31t-44 23.5t-52.5 17l-68 16.5q-136 31 -188.5 73t-52.5 124q0 87 73 142t180 55z" />
    <glyph glyph-name="scaron" unicode="&#x161;" horiz-adv-x="479" 
d="M386 716l-100 -144h-108l-100 144h74l80 -102l80 102h74zM235 506q61 0 107 -16.5t95 -55.5l-47 -58q-46 35 -79.5 47.5t-75.5 12.5q-49 0 -78.5 -20.5t-29.5 -52.5q0 -30 27.5 -43t104.5 -30q100 -23 143 -55.5t43 -95.5q0 -69 -54 -111t-143 -42q-66 0 -117.5 20.5
t-109.5 71.5l51 56q53 -44 92 -60.5t85 -16.5q49 0 80.5 21t31.5 57q0 37 -33 53.5t-105 32.5q-101 22 -140 50.5t-39 88.5q0 65 53 105.5t138 40.5z" />
    <glyph glyph-name="uni0162" unicode="&#x162;" horiz-adv-x="599" 
d="M346 0h-20l-31 -67q47 2 77 -19.5t30 -58.5q0 -40 -29.5 -65t-76.5 -25q-54 0 -108 35l26 42q46 -27 81 -27q23 0 38 10t15 29q0 17 -16.5 27t-40.5 10q-17 0 -29 -3l-28 27l40 85h-21v632h-223v78h539v-78h-223v-632z" />
    <glyph glyph-name="uni0163" unicode="&#x163;" horiz-adv-x="356" 
d="M209 -67q47 2 77 -19.5t30 -58.5q0 -40 -29.5 -65t-76.5 -25q-54 0 -107 35l25 42q46 -27 81 -27q23 0 38 10t15 29q0 17 -16 27t-41 10q-17 0 -29 -3l-28 27l38 81q-76 21 -76 118v313h-92v65h92v165h86v-165h133v-65h-133v-303q0 -33 13.5 -46.5t44.5 -13.5q27 0 71 12
l13 -68q-47 -17 -101 -17h-1z" />
    <glyph glyph-name="Tcaron" unicode="&#x164;" horiz-adv-x="598" 
d="M453 920l-100 -144h-108l-100 144h74l80 -102l80 102h74zM568 710v-78h-223v-632h-92v632h-223v78h538z" />
    <glyph glyph-name="tcaron" unicode="&#x165;" horiz-adv-x="381" 
d="M391 773l-62 -198h-54l30 198h86zM254 64q27 0 71 12l13 -68q-47 -17 -101 -17q-68 0 -97.5 31t-29.5 92v313h-92v65h92v165h86v-165h133v-65h-133v-303q0 -33 13.5 -46.5t44.5 -13.5z" />
    <glyph glyph-name="Tbar" unicode="&#x166;" horiz-adv-x="599" 
d="M569 632h-223v-216h128v-66h-128v-350h-93v350h-126v66h126v216h-223v78h539v-78z" />
    <glyph glyph-name="tbar" unicode="&#x167;" horiz-adv-x="356" 
d="M325 76l13 -68q-47 -17 -101 -17q-68 0 -97.5 31t-29.5 92v114h-92v67h92v132h-92v65h92v165h86v-165h133v-65h-133v-132h133v-67h-133v-104q0 -33 13.5 -46.5t44.5 -13.5q27 0 71 12z" />
    <glyph glyph-name="Umacron" unicode="&#x16a;" horiz-adv-x="688" 
d="M484 864v-66h-279v66h279zM612 710v-484q0 -117 -67.5 -179t-200.5 -62q-132 0 -199.5 62t-67.5 179v484h92v-479q0 -81 44.5 -123t130.5 -42t130.5 42t44.5 123v479h93z" />
    <glyph glyph-name="umacron" unicode="&#x16b;" horiz-adv-x="537" 
d="M400 660v-66h-279v66h279zM384 492h86v-492h-80v61q-45 -75 -149 -75q-89 0 -132 44.5t-43 116.5v345h86v-324q0 -53 26.5 -80.5t76.5 -27.5q57 0 93 34t36 98v300z" />
    <glyph glyph-name="Uring" unicode="&#x16e;" horiz-adv-x="686" 
d="M343 939q45 0 76 -30.5t31 -73.5q0 -44 -31 -74t-76 -30q-44 0 -75.5 30.5t-31.5 73.5t31.5 73.5t75.5 30.5zM343 895q-26 0 -42.5 -17t-16.5 -43q0 -27 16.5 -44t42.5 -17t43 17t17 44q0 26 -17 43t-43 17zM612 710v-484q0 -117 -67.5 -179t-200.5 -62q-132 0 -199.5 62
t-67.5 179v484h92v-479q0 -81 44.5 -123t130.5 -42t130.5 42t44.5 123v479h93z" />
    <glyph glyph-name="uring" unicode="&#x16f;" horiz-adv-x="537" 
d="M261 559q-45 0 -76 30.5t-31 73.5q0 44 31 74t76 30q44 0 75.5 -30.5t31.5 -73.5t-31.5 -73.5t-75.5 -30.5zM261 724q-26 0 -43 -17t-17 -44t17 -44t43 -17t42.5 17t16.5 44t-16.5 44t-42.5 17zM384 492h86v-492h-80v61q-45 -75 -149 -75q-89 0 -132 44.5t-43 116.5v345
h86v-324q0 -53 26.5 -80.5t76.5 -27.5q57 0 93 34t36 98v300z" />
    <glyph glyph-name="Uhungarumlaut" unicode="&#x170;" horiz-adv-x="688" 
d="M394 920l-93 -145h-66l72 145h87zM549 920l-94 -145h-67l74 145h87zM612 710v-484q0 -117 -67.5 -179t-200.5 -62q-132 0 -199.5 62t-67.5 179v484h92v-479q0 -81 44.5 -123t130.5 -42t130.5 42t44.5 123v479h93z" />
    <glyph glyph-name="uhungarumlaut" unicode="&#x171;" horiz-adv-x="537" 
d="M310 716l-93 -145h-66l72 145h87zM371 571h-67l74 145h87zM384 492h86v-492h-80v61q-45 -75 -149 -75q-89 0 -132 44.5t-43 116.5v345h86v-324q0 -53 26.5 -80.5t76.5 -27.5q57 0 93 34t36 98v300z" />
    <glyph glyph-name="Uogonek" unicode="&#x172;" horiz-adv-x="688" 
d="M519 710h93v-483q0 -77 -24.5 -123.5t-84.5 -89.5q-91 -65 -91 -122q0 -21 14 -32.5t37 -11.5q16 0 27 3v-54q-13 -6 -38 -6q-47 0 -75 23t-28 64q0 59 54 111q-24 -4 -59 -4q-132 0 -199.5 62t-67.5 179v484h92v-479q0 -81 44.5 -123t130.5 -42t130.5 42t44.5 123v479z
" />
    <glyph glyph-name="uogonek" unicode="&#x173;" horiz-adv-x="537" 
d="M470 0q-80 -55 -80 -110q0 -42 51 -42q15 0 26 3v-54q-13 -6 -38 -6q-46 0 -73.5 22t-27.5 62q0 67 71 125h-9v61q-45 -75 -149 -75q-89 0 -132 44.5t-43 116.5v345h86v-324q0 -53 26.5 -80.5t76.5 -27.5q57 0 93 34t36 98v300h86v-492z" />
    <glyph glyph-name="Wcircumflex" unicode="&#x174;" horiz-adv-x="939" 
d="M469 877l-80 -101h-74l100 144h108l100 -144h-74zM816 710h91l-171 -710h-113l-87 326q-43 163 -66 265q-28 -126 -65 -266l-88 -325h-114l-172 710h94l81 -342q28 -125 58 -274q35 155 69 274l93 342h93l91 -342q27 -98 67 -273q43 207 59 273z" />
    <glyph glyph-name="wcircumflex" unicode="&#x175;" horiz-adv-x="735" 
d="M367 673l-80 -101h-74l100 144h108l100 -144h-74zM626 493h88l-138 -493h-104l-46 158q-35 121 -60 230q-28 -117 -60 -231l-43 -157h-104l-138 493h89l49 -184q23 -84 56 -234q31 128 60 234l52 184h81l52 -184q30 -104 61 -235q23 109 56 235z" />
    <glyph glyph-name="Ycircumflex" unicode="&#x176;" horiz-adv-x="631" 
d="M319 877l-80 -101h-74l100 144h108l100 -144h-74zM516 710h100l-252 -407v-303h-92v304l-250 406h102l196 -325z" />
    <glyph glyph-name="ycircumflex" unicode="&#x177;" horiz-adv-x="484" 
d="M240 673l-80 -101h-74l100 144h108l100 -144h-74zM379 492h87l-197 -560q-24 -68 -55 -96.5t-93 -28.5q-41 0 -76 10l15 66q27 -6 53 -6q30 0 49 16.5t34 61.5l6 18l-185 519h91l55 -163l81 -241l80 243z" />
    <glyph glyph-name="Ydieresis" unicode="&#x178;" horiz-adv-x="631" 
d="M273 896v-103h-84v103h84zM450 896v-103h-84v103h84zM516 710h100l-252 -407v-303h-92v304l-250 406h102l196 -325z" />
    <glyph glyph-name="Zacute" unicode="&#x179;" horiz-adv-x="623" 
d="M453 920l-92 -144h-76l72 144h96zM581 710v-74l-430 -559h429v-77h-539v74l430 559h-411v77h521z" />
    <glyph glyph-name="zacute" unicode="&#x17a;" horiz-adv-x="478" 
d="M369 716l-92 -144h-76l72 144h96zM434 492v-63l-290 -358h290v-71h-396v64l290 358h-272v70h378z" />
    <glyph glyph-name="Zdotaccent" unicode="&#x17b;" horiz-adv-x="623" 
d="M367 896v-103h-86v103h86zM581 710v-74l-430 -559h429v-77h-539v74l430 559h-411v77h521z" />
    <glyph glyph-name="zdotaccent" unicode="&#x17c;" horiz-adv-x="478" 
d="M284 692v-103h-86v103h86zM434 492v-63l-290 -358h290v-71h-396v64l290 358h-272v70h378z" />
    <glyph glyph-name="Zcaron" unicode="&#x17d;" horiz-adv-x="623" 
d="M378 776h-108l-100 144h74l80 -102l80 102h74zM581 710v-74l-430 -559h429v-77h-539v74l430 559h-411v77h521z" />
    <glyph glyph-name="zcaron" unicode="&#x17e;" horiz-adv-x="478" 
d="M295 572h-108l-100 144h74l80 -102l80 102h74zM434 492v-63l-290 -358h290v-71h-396v64l290 358h-272v70h378z" />
    <glyph glyph-name="florin" unicode="&#x192;" 
d="M320 462h129v-65h-129v-438q0 -153 -139 -153q-51 0 -96 15l18 65q43 -10 68 -10q35 0 49 20t14 64v437h-112v65h112v82q0 73 38 112t110 39q51 0 100 -17l-18 -66q-40 12 -68 12q-41 0 -58.5 -21t-17.5 -69v-72z" />
    <glyph glyph-name="Scommaaccent" unicode="&#x218;" horiz-adv-x="629" 
d="M308 725q80 0 142 -24.5t126 -79.5l-54 -64q-57 50 -105.5 69.5t-108.5 19.5q-73 0 -118 -32.5t-45 -83.5q0 -52 42 -74.5t153 -47.5q135 -32 190.5 -76t55.5 -128q0 -99 -73 -159.5t-189 -60.5q-86 0 -154 28.5t-145 94.5l55 65q75 -63 129.5 -85.5t115.5 -22.5
q74 0 121.5 36.5t47.5 98.5q0 25 -10 44t-23.5 31t-44 23.5t-52.5 17l-68 16.5q-136 31 -188.5 73t-52.5 124q0 87 73 142t180 55zM362 -73v-86l-57 -94h-48l52 94h-47v86h100z" />
    <glyph glyph-name="scommaaccent" unicode="&#x219;" horiz-adv-x="479" 
d="M235 506q61 0 107 -16.5t95 -55.5l-47 -58q-46 35 -79.5 47.5t-75.5 12.5q-49 0 -78.5 -20.5t-29.5 -52.5q0 -30 27.5 -43t104.5 -30q100 -23 143 -55.5t43 -95.5q0 -69 -54 -111t-143 -42q-66 0 -117.5 20.5t-109.5 71.5l51 56q53 -44 92 -60.5t85 -16.5q49 0 80.5 21
t31.5 57q0 37 -33 53.5t-105 32.5q-101 22 -140 50.5t-39 88.5q0 65 53 105.5t138 40.5zM283 -73v-86l-57 -94h-48l52 94h-47v86h100z" />
    <glyph glyph-name="uni021A" unicode="&#x21a;" horiz-adv-x="598" 
d="M568 710v-78h-223v-632h-92v632h-223v78h538zM349 -73v-86l-57 -94h-48l52 94h-47v86h100z" />
    <glyph glyph-name="uni021B" unicode="&#x21b;" horiz-adv-x="356" 
d="M338 8q-47 -17 -101 -17q-68 0 -97.5 31t-29.5 92v313h-92v65h92v165h86v-165h133v-65h-133v-303q0 -33 13.5 -46.5t44.5 -13.5q27 0 71 12zM173 -159v86h100v-86l-57 -94h-48l52 94h-47z" />
    <glyph glyph-name="uni0237" unicode="&#x237;" horiz-adv-x="224" 
d="M-61 -111q37 -10 68 -10q35 0 49 20t14 63v530h86v-530q0 -154 -139 -154q-47 0 -95 15z" />
    <glyph glyph-name="circumflex" unicode="&#x2c6;" horiz-adv-x="467" 
d="M315 572l-80 101l-80 -101h-74l100 144h108l100 -144h-74z" />
    <glyph glyph-name="caron" unicode="&#x2c7;" horiz-adv-x="488" 
d="M398 716l-100 -144h-108l-100 144h74l80 -102l80 102h74z" />
    <glyph glyph-name="breve" unicode="&#x2d8;" horiz-adv-x="490" 
d="M245 571q64 0 103.5 35.5t39.5 95.5h-68q0 -34 -18.5 -56t-56.5 -22t-57 22t-19 56h-68q0 -60 39.5 -95.5t104.5 -35.5z" />
    <glyph glyph-name="dotaccent" unicode="&#x2d9;" horiz-adv-x="286" 
d="M186 692v-103h-86v103h86z" />
    <glyph glyph-name="ring" unicode="&#x2da;" horiz-adv-x="426" 
d="M213 767q44 0 75.5 -30.5t31.5 -73.5t-31.5 -73.5t-75.5 -30.5q-45 0 -76 30.5t-31 73.5q0 44 31 74t76 30zM213 724q-26 0 -43 -17t-17 -44t17 -44t43 -17t42.5 17t16.5 44t-16.5 44t-42.5 17z" />
    <glyph glyph-name="ogonek" unicode="&#x2db;" horiz-adv-x="358" 
d="M231 23l39 -23q-80 -55 -80 -110q0 -42 51 -42q15 0 26 3v-54q-13 -6 -38 -6q-46 0 -73.5 22t-27.5 62q0 80 103 148z" />
    <glyph glyph-name="tilde" unicode="&#x2dc;" horiz-adv-x="520" 
d="M193 696q31 0 75 -26.5t62 -26.5q32 0 32 53h54q0 -51 -22 -81t-59 -30q-27 0 -74 26t-68 26q-34 0 -34 -51h-55q0 51 24.5 80.5t64.5 29.5z" />
    <glyph glyph-name="hungarumlaut" unicode="&#x2dd;" horiz-adv-x="507" 
d="M257 716l-93 -145h-66l72 145h87zM412 716l-94 -145h-67l74 145h87z" />
    <glyph glyph-name="uni0326" unicode="&#x326;" horiz-adv-x="0" 
d="M-100 -73v-86l-57 -94h-48l52 94h-47v86h100z" />
    <glyph glyph-name="uni0394" unicode="&#x394;" horiz-adv-x="669" 
d="M395 710l258 -710h-636l257 710h121zM138 77h392l-97 274q-71 198 -100 292q-26 -88 -99 -293z" />
    <glyph glyph-name="uni03A9" unicode="&#x3a9;" horiz-adv-x="781" 
d="M515 78h219v-78h-307v121q90 16 146.5 86.5t56.5 177.5q0 116 -66.5 188t-176.5 72q-109 0 -176 -72.5t-67 -187.5q0 -106 57 -177t146 -87v-121h-300v78h212q-97 34 -153 115.5t-56 191.5q0 150 91.5 245.5t245.5 95.5q155 0 246 -95.5t91 -245.5q0 -110 -56 -191.5
t-153 -115.5z" />
    <glyph glyph-name="uni03BC" unicode="&#x3bc;" horiz-adv-x="537" 
d="M384 492h86v-492h-78v68q-43 -82 -139 -82q-67 0 -101 34v-203h-86v675h86v-324q0 -108 108 -108q53 0 88.5 34.5t35.5 97.5v300z" />
    <glyph glyph-name="pi" unicode="&#x3c0;" horiz-adv-x="604" 
d="M575 73l10 -67q-44 -16 -85 -16q-66 0 -91.5 30.5t-25.5 94.5v311h-187v-426h-86v426h-92v66h539v-66h-88v-296q0 -38 10.5 -52.5t38.5 -14.5q24 0 57 10z" />
    <glyph glyph-name="Wgrave" unicode="&#x1e80;" horiz-adv-x="939" 
d="M509 776h-76l-92 144h96zM816 710h91l-171 -710h-113l-87 326q-43 163 -66 265q-28 -126 -65 -266l-88 -325h-114l-172 710h94l81 -342q28 -125 58 -274q35 155 69 274l93 342h93l91 -342q27 -98 67 -273q43 207 59 273z" />
    <glyph glyph-name="wgrave" unicode="&#x1e81;" horiz-adv-x="735" 
d="M407 572h-76l-92 144h96zM626 493h88l-138 -493h-104l-46 158q-35 121 -60 230q-28 -117 -60 -231l-43 -157h-104l-138 493h89l49 -184q23 -84 56 -234q31 128 60 234l52 184h81l52 -184q30 -104 61 -235q23 109 56 235z" />
    <glyph glyph-name="Wacute" unicode="&#x1e82;" horiz-adv-x="939" 
d="M598 920l-92 -144h-76l72 144h96zM816 710h91l-171 -710h-113l-87 326q-43 163 -66 265q-28 -126 -65 -266l-88 -325h-114l-172 710h94l81 -342q28 -125 58 -274q35 155 69 274l93 342h93l91 -342q27 -98 67 -273q43 207 59 273z" />
    <glyph glyph-name="wacute" unicode="&#x1e83;" horiz-adv-x="735" 
d="M496 716l-92 -144h-76l72 144h96zM626 493h88l-138 -493h-104l-46 158q-35 121 -60 230q-28 -117 -60 -231l-43 -157h-104l-138 493h89l49 -184q23 -84 56 -234q31 128 60 234l52 184h81l52 -184q30 -104 61 -235q23 109 56 235z" />
    <glyph glyph-name="Wdieresis" unicode="&#x1e84;" horiz-adv-x="939" 
d="M424 896v-103h-84v103h84zM601 896v-103h-84v103h84zM816 710h91l-171 -710h-113l-87 326q-43 163 -66 265q-28 -126 -65 -266l-88 -325h-114l-172 710h94l81 -342q28 -125 58 -274q35 155 69 274l93 342h93l91 -342q27 -98 67 -273q43 207 59 273z" />
    <glyph glyph-name="wdieresis" unicode="&#x1e85;" horiz-adv-x="735" 
d="M321 692v-103h-84v103h84zM498 692v-103h-84v103h84zM626 493h88l-138 -493h-104l-46 158q-35 121 -60 230q-28 -117 -60 -231l-43 -157h-104l-138 493h89l49 -184q23 -84 56 -234q31 128 60 234l52 184h81l52 -184q30 -104 61 -235q23 109 56 235z" />
    <glyph glyph-name="Ygrave" unicode="&#x1ef2;" horiz-adv-x="631" 
d="M359 776h-76l-92 144h96zM516 710h100l-252 -407v-303h-92v304l-250 406h102l196 -325z" />
    <glyph glyph-name="ygrave" unicode="&#x1ef3;" horiz-adv-x="484" 
d="M280 572h-76l-92 144h96zM379 492h87l-197 -560q-24 -68 -55 -96.5t-93 -28.5q-41 0 -76 10l15 66q27 -6 53 -6q30 0 49 16.5t34 61.5l6 18l-185 519h91l55 -163l81 -241l80 243z" />
    <glyph glyph-name="endash" unicode="&#x2013;" horiz-adv-x="723" 
d="M655 324v-73h-587v73h587z" />
    <glyph glyph-name="emdash" unicode="&#x2014;" horiz-adv-x="966" 
d="M886 324v-73h-807v73h807z" />
    <glyph glyph-name="quoteleft" unicode="&#x2018;" horiz-adv-x="200" 
d="M47 489v102l58 119h51l-53 -119h48v-102h-104z" />
    <glyph glyph-name="quoteright" unicode="&#x2019;" horiz-adv-x="200" 
d="M153 710v-102l-59 -119h-50l53 119h-48v102h104z" />
    <glyph glyph-name="quotesinglbase" unicode="&#x201a;" horiz-adv-x="197" 
d="M150 104v-104l-58 -114h-48l49 114h-47v104h104z" />
    <glyph glyph-name="quotedblleft" unicode="&#x201c;" horiz-adv-x="381" 
d="M47 489v102l58 119h51l-53 -119h48v-102h-104zM228 489v102l58 119h51l-53 -119h48v-102h-104z" />
    <glyph glyph-name="quotedblright" unicode="&#x201d;" horiz-adv-x="381" 
d="M153 710v-102l-59 -119h-50l53 119h-48v102h104zM334 710v-102l-59 -119h-50l53 119h-48v102h104z" />
    <glyph glyph-name="quotedblbase" unicode="&#x201e;" horiz-adv-x="378" 
d="M150 104v-104l-58 -114h-48l49 114h-47v104h104zM331 104v-104l-58 -114h-48l49 114h-47v104h104z" />
    <glyph glyph-name="dagger" unicode="&#x2020;" 
d="M550 442v-77h-210v-562h-87v562h-210v77h210v268h87v-268h210z" />
    <glyph glyph-name="daggerdbl" unicode="&#x2021;" 
d="M550 415h-210v-230h210v-77h-210v-305h-87v305h-210v77h210v230h-210v77h210v218h87v-218h210v-77z" />
    <glyph glyph-name="bullet" unicode="&#x2022;" horiz-adv-x="500" 
d="M250 475q72 0 124 -51.5t52 -124.5q0 -72 -52 -124.5t-124 -52.5q-73 0 -125 52.5t-52 124.5q0 73 51.5 124.5t125.5 51.5z" />
    <glyph glyph-name="ellipsis" unicode="&#x2026;" horiz-adv-x="630" 
d="M159 108v-108h-102v108h102zM366 108v-108h-102v108h102zM574 108v-108h-102v108h102z" />
    <glyph glyph-name="perthousand" unicode="&#x2030;" horiz-adv-x="1238" 
d="M642 695l54 -33l-477 -677l-52 34zM212 691q66 0 110.5 -44.5t44.5 -114.5t-44.5 -115t-110.5 -45t-110.5 45t-44.5 115t44.5 114.5t110.5 44.5zM212 633q-40 0 -64.5 -28.5t-24.5 -72.5q0 -45 24 -73.5t65 -28.5t65 28.5t24 73.5q0 44 -24.5 72.5t-64.5 28.5zM646 308
q66 0 111 -44.5t45 -113.5q0 -71 -45 -115.5t-111 -44.5t-110.5 44.5t-44.5 115.5q0 69 44.5 113.5t110.5 44.5zM1012 308q66 0 111 -44.5t45 -113.5q0 -71 -45 -115.5t-111 -44.5t-110.5 44.5t-44.5 115.5q0 69 44.5 113.5t110.5 44.5zM646 251q-40 0 -64 -28.5t-24 -72.5
q0 -45 23.5 -73.5t64.5 -28.5t65 28.5t24 73.5q0 44 -24.5 72.5t-64.5 28.5zM1012 251q-40 0 -64 -28.5t-24 -72.5q0 -45 23.5 -73.5t64.5 -28.5t65 28.5t24 73.5q0 44 -24.5 72.5t-64.5 28.5z" />
    <glyph glyph-name="guilsinglleft" unicode="&#x2039;" horiz-adv-x="354" 
d="M287 471l-141 -218l141 -218h-86l-139 218l139 218h86z" />
    <glyph glyph-name="guilsinglright" unicode="&#x203a;" horiz-adv-x="354" 
d="M67 471h85l140 -218l-140 -218h-85l139 218z" />
    <glyph glyph-name="fraction" unicode="&#x2044;" horiz-adv-x="195" 
d="M308 695l54 -33l-476 -677l-53 34z" />
    <glyph glyph-name="Euro" unicode="&#x20ac;" horiz-adv-x="610" 
d="M393 60q42 0 74 11t73 41l48 -62q-50 -36 -93 -51t-102 -15q-106 0 -174.5 69.5t-90.5 185.5h-73v63h65q0 6 -0.5 19t-0.5 19q0 28 3 55h-67v64h77q24 109 91.5 173t169.5 64q59 0 102.5 -15t92.5 -51l-48 -62q-41 30 -73 41t-74 11q-62 0 -106 -42.5t-64 -118.5h258v-64
h-269q-3 -26 -3 -55q0 -12 2 -38h270v-63h-262q18 -84 63 -131.5t111 -47.5z" />
    <glyph glyph-name="uni20B9" unicode="&#x20b9;" 
d="M545 617h-115q42 -42 51 -105h64v-62h-63q-10 -78 -69.5 -123.5t-148.5 -45.5h-68l297 -281h-121l-291 281v68h173q59 0 96 26t45 75h-314v62h313q-21 93 -140 93h-173v75h464v-63z" />
    <glyph glyph-name="uni20BA" unicode="&#x20ba;" 
d="M468 299l80 -13l-12 -61q-23 -126 -90 -175.5t-196 -49.5h-111v257l-93 -41v66l93 41v105l-93 -41v66l93 41v186h88v-147l165 74v-66l-165 -74v-105l165 74v-66l-165 -74v-220h12q104 0 151.5 33t66.5 133z" />
    <glyph glyph-name="uni20BD" unicode="&#x20bd;" horiz-adv-x="610" 
d="M340 283h-120v-92h215v-62h-215v-129h-88v129h-94v62h94v92h-94v67h94v330h208q97 0 158 -55t61 -146q0 -90 -61 -143t-158 -53zM220 605v-255h111q65 0 103.5 34t38.5 94t-38.5 93.5t-103.5 33.5h-111z" />
    <glyph glyph-name="uni2116" unicode="&#x2116;" horiz-adv-x="1098" 
d="M897 332q-82 0 -133.5 52.5t-51.5 139.5t51.5 139.5t133.5 52.5q81 0 132.5 -52.5t51.5 -139.5q0 -88 -51 -140t-133 -52zM533 386v324h90v-710h-101l-197 323q-119 196 -158 266q4 -85 4 -270v-319h-90v710h102l200 -328q130 -218 154 -263q-4 113 -4 267zM897 650
q-48 0 -78.5 -34t-30.5 -92t30.5 -92t78.5 -34t78.5 34t30.5 92t-30.5 92t-78.5 34zM731 202v68h332v-68h-332z" />
    <glyph glyph-name="uni2117" unicode="&#x2117;" horiz-adv-x="856" 
d="M428 723q156 0 262 -105.5t106 -262.5t-106 -262.5t-262 -105.5t-262 105.5t-106 262.5t106 262.5t262 105.5zM428 670q-133 0 -219.5 -90.5t-86.5 -224.5t86.5 -224.5t219.5 -90.5t219.5 90.5t86.5 224.5t-86.5 224.5t-219.5 90.5zM462 562q59 0 96 -36.5t37 -92.5
q0 -62 -35.5 -92.5t-97.5 -30.5h-102v-162h-65v414h167zM447 504h-87v-140h87q84 0 84 70q0 32 -21 51t-63 19z" />
    <glyph glyph-name="trademark" unicode="&#x2122;" horiz-adv-x="955" 
d="M373 710v-54h-136v-333h-64v333h-136v54h336zM881 710v-387h-59v310l-127 -310h-57l-131 306v-306h-60v387h88l132 -313l125 313h89z" />
    <glyph glyph-name="uni2154" unicode="&#x2154;" horiz-adv-x="1005" 
d="M725 695l54 -33l-476 -677l-53 34zM356 331v-59h-314v28q0 61 33 97.5t97 70.5q7 4 33 17t33.5 18t22.5 16.5t20 23t5 26.5q0 29 -21.5 44.5t-58.5 15.5q-54 0 -118 -55l-40 46q75 70 159 70q69 0 109.5 -34t40.5 -84q0 -21 -7 -39t-13 -29t-26 -26t-27 -19.5t-37 -20.5
t-36 -19q-33 -18 -47 -27t-30 -25.5t-20 -35.5h242zM822 245q60 0 100 -32.5t40 -88.5q0 -54 -41 -94t-114 -40q-82 0 -164 52l35 50q71 -41 128 -41q39 0 62 20.5t23 52.5t-24.5 51t-67.5 19q-36 0 -52 -7l-31 43l145 119h-199v59h285v-58l-129 -105h4z" />
    <glyph glyph-name="oneeighth" unicode="&#x215b;" horiz-adv-x="913" 
d="M626 695l54 -33l-476 -677l-53 34zM218 272h-69v323l-75 -55l-35 48l126 92h53v-408zM797 218q79 -30 79 -106q0 -52 -43.5 -86.5t-119.5 -34.5t-119.5 34.5t-43.5 86.5q0 77 79 106q-62 31 -62 91q0 48 40 79.5t106 31.5t106 -31.5t40 -79.5q0 -60 -62 -91zM713 363
q-37 0 -59 -16.5t-22 -42.5q0 -27 23 -45t58 -18t57.5 18t22.5 45q0 26 -22 42.5t-58 16.5zM713 50q44 0 68 19t24 49q0 31 -24.5 51.5t-67.5 20.5q-44 0 -68.5 -20.5t-24.5 -51.5q0 -30 24.5 -49t68.5 -19z" />
    <glyph glyph-name="threeeighths" unicode="&#x215c;" horiz-adv-x="988" 
d="M701 695l54 -33l-476 -677l-53 34zM349 396q0 -54 -41 -94t-114 -40q-82 0 -164 52l35 50q71 -41 128 -41q39 0 62 20.5t23 52.5t-24.5 51t-67.5 19q-36 0 -52 -7l-31 43l145 119h-199v59h285v-58l-129 -105h4q60 0 100 -32.5t40 -88.5zM872 218q79 -30 79 -106
q0 -52 -43.5 -86.5t-119.5 -34.5t-119.5 34.5t-43.5 86.5q0 77 79 106q-62 31 -62 91q0 48 40 79.5t106 31.5t106 -31.5t40 -79.5q0 -60 -62 -91zM788 363q-37 0 -59 -16.5t-22 -42.5q0 -27 23 -45t58 -18t57.5 18t22.5 45q0 26 -22 42.5t-58 16.5zM788 50q44 0 68 19t24 49
q0 31 -24.5 51.5t-67.5 20.5q-44 0 -68.5 -20.5t-24.5 -51.5q0 -30 24.5 -49t68.5 -19z" />
    <glyph glyph-name="fiveeighths" unicode="&#x215d;" horiz-adv-x="990" 
d="M703 695l54 -33l-476 -677l-53 34zM360 408q0 -64 -44 -105t-117 -41q-78 0 -167 54l35 51q76 -44 130 -44q40 0 65.5 23t25.5 58q0 36 -22 56t-65 20q-48 0 -84 -32l-56 6l17 226h262v-59h-204l-9 -112q37 30 94 30q63 0 101 -38.5t38 -92.5zM875 218q79 -30 79 -106
q0 -52 -43.5 -86.5t-119.5 -34.5t-119.5 34.5t-43.5 86.5q0 77 79 106q-62 31 -62 91q0 48 40 79.5t106 31.5t106 -31.5t40 -79.5q0 -60 -62 -91zM791 363q-37 0 -59 -16.5t-22 -42.5q0 -27 23 -45t58 -18t57.5 18t22.5 45q0 26 -22 42.5t-58 16.5zM791 50q44 0 68 19t24 49
q0 31 -24.5 51.5t-67.5 20.5q-44 0 -68.5 -20.5t-24.5 -51.5q0 -30 24.5 -49t68.5 -19z" />
    <glyph glyph-name="seveneighths" unicode="&#x215e;" horiz-adv-x="908" 
d="M621 695l54 -33l-476 -677l-53 34zM178 272h-75q7 84 54 180.5t112 168.5h-242v59h319v-54q-154 -173 -168 -354zM792 218q79 -30 79 -106q0 -52 -43.5 -86.5t-119.5 -34.5t-119.5 34.5t-43.5 86.5q0 77 79 106q-62 31 -62 91q0 48 40 79.5t106 31.5t106 -31.5t40 -79.5
q0 -60 -62 -91zM708 363q-37 0 -59 -16.5t-22 -42.5q0 -27 23 -45t58 -18t57.5 18t22.5 45q0 26 -22 42.5t-58 16.5zM708 50q44 0 68 19t24 49q0 31 -24.5 51.5t-67.5 20.5q-44 0 -68.5 -20.5t-24.5 -51.5q0 -30 24.5 -49t68.5 -19z" />
    <glyph glyph-name="arrowleft" unicode="&#x2190;" horiz-adv-x="923" 
d="M870 376v-73h-701l256 -252l-54 -53l-341 341l341 341l54 -53l-255 -251h700z" />
    <glyph glyph-name="arrowup" unicode="&#x2191;" horiz-adv-x="728" 
d="M688 441l-51 -52l-232 235v-624h-80v625l-233 -236l-52 52l325 325z" />
    <glyph glyph-name="arrowright" unicode="&#x2192;" horiz-adv-x="923" 
d="M552 680l341 -341l-341 -341l-53 53l255 252h-701v73h700l-254 251z" />
    <glyph glyph-name="arrowdown" unicode="&#x2193;" horiz-adv-x="728" 
d="M637 321l51 -52l-323 -325l-325 325l52 52l233 -236v625h80v-624z" />
    <glyph glyph-name="uni2196" unicode="&#x2196;" horiz-adv-x="731" 
d="M701 131l-53 -52l-504 505v-363h-74v489h489v-72h-364z" />
    <glyph glyph-name="uni2197" unicode="&#x2197;" horiz-adv-x="731" 
d="M172 710h489v-489h-73v363l-505 -505l-53 52l507 507h-365v72z" />
    <glyph glyph-name="uni2198" unicode="&#x2198;" horiz-adv-x="731" 
d="M588 489h73v-489h-489v72h365l-507 507l53 52l505 -505v363z" />
    <glyph glyph-name="uni2199" unicode="&#x2199;" horiz-adv-x="731" 
d="M701 579l-506 -507h364v-72h-489v489h74v-363l504 505z" />
    <glyph glyph-name="partialdiff" unicode="&#x2202;" horiz-adv-x="555" 
d="M153 720q183 -24 274.5 -134.5t91.5 -292.5q0 -143 -65 -226t-179 -83q-108 0 -173 73t-65 175q0 101 60 172.5t159 71.5q59 0 105 -25.5t73 -70.5q-39 229 -300 266zM275 59q67 0 108.5 49.5t41.5 122.5q0 71 -44.5 121t-111.5 50q-66 0 -105.5 -49t-39.5 -122
t41 -122.5t110 -49.5z" />
    <glyph glyph-name="product" unicode="&#x220f;" horiz-adv-x="716" 
d="M635 710v-820h-93v743h-368v-743h-93v820h554z" />
    <glyph glyph-name="summation" unicode="&#x2211;" horiz-adv-x="597" 
d="M540 710v-77h-379l249 -332l-252 -337h409v-77h-517v72l252 342l-249 337v72h487z" />
    <glyph glyph-name="minus" unicode="&#x2212;" horiz-adv-x="600" 
d="M560 347v-74h-520v74h520z" />
    <glyph glyph-name="radical" unicode="&#x221a;" horiz-adv-x="611" 
d="M491 710h94l-254 -710h-121l-183 492h95l150 -412z" />
    <glyph glyph-name="infinity" unicode="&#x221e;" horiz-adv-x="807" 
d="M590 456q73 0 119.5 -47.5t46.5 -118.5q0 -70 -46 -117.5t-114 -47.5q-97 0 -190 108l-4 5q-53 -63 -96 -88t-97 -25q-67 0 -112 47.5t-45 117.5q0 71 47 118.5t120 47.5q52 0 95 -27t89 -83l1 -2q96 112 186 112zM212 192q38 0 71 22t76 73l-2 2q-4 5 -20 23t-20 22
l-16.5 17t-19 16.5l-18 10t-22 8t-23.5 1.5q-42 0 -68 -27.5t-26 -70.5t25 -70t63 -27zM593 192q40 0 65 26.5t25 70.5q0 43 -25.5 70.5t-68.5 27.5q-71 0 -142 -95l4 -5q39 -47 71 -71t71 -24z" />
    <glyph glyph-name="integral" unicode="&#x222b;" horiz-adv-x="600" 
d="M320 -41q0 -153 -139 -153q-51 0 -96 15l18 65q43 -10 68 -10q35 0 49 20t14 64v614q0 73 38 112t110 39q51 0 100 -17l-18 -66q-40 12 -68 12q-41 0 -58.5 -21t-17.5 -69v-605z" />
    <glyph glyph-name="approxequal" unicode="&#x2248;" horiz-adv-x="603" 
d="M201 468q40 0 105.5 -28t95.5 -28q27 0 46 9.5t54 41.5l43 -49q-42 -44 -70.5 -58t-70.5 -14q-35 0 -101.5 27.5t-100.5 27.5q-29 0 -50 -11t-52 -40l-43 49q39 41 71.5 57t72.5 16zM201 268q40 0 105.5 -28t95.5 -28q27 0 46 9.5t54 41.5l43 -49q-42 -44 -70.5 -58
t-70.5 -14q-35 0 -101 27.5t-101 27.5q-29 0 -50 -11t-52 -40l-43 49q39 41 71.5 57t72.5 16z" />
    <glyph glyph-name="notequal" unicode="&#x2260;" horiz-adv-x="600" 
d="M560 373h-202l-46 -126h248v-74h-275l-44 -118h-76l43 118h-168v74h195l46 126h-241v74h268l42 114h77l-42 -114h175v-74z" />
    <glyph glyph-name="lessequal" unicode="&#x2264;" horiz-adv-x="600" 
d="M540 548v-79l-384 -140l384 -139v-79l-480 180v77zM560 74v-74h-520v74h520z" />
    <glyph glyph-name="greaterequal" unicode="&#x2265;" horiz-adv-x="600" 
d="M60 548l480 -180v-77l-480 -180v79l384 139l-384 140v79zM560 74v-74h-520v74h520z" />
    <glyph glyph-name="lozenge" unicode="&#x25ca;" horiz-adv-x="609" 
d="M356 710l216 -356l-216 -354h-103l-216 354l216 356h103zM305 640l-175 -286l175 -284l173 284z" />
    <glyph glyph-name="uni2923" unicode="&#x2923;" horiz-adv-x="632" 
d="M272 670l35 -36l36.5 -38l32.5 -35t33 -38t27 -35.5t27 -40t19 -38.5t17 -43.5t8.5 -42t4.5 -46.5q0 -41 -13.5 -83.5t-29.5 -73.5t-52 -76t-57 -68l-68 -72q-13 -13 -19 -20l-59 56q111 117 145 164q67 91 67 173q0 26 -7 53t-14.5 48t-27 50l-30.5 45t-41 49l-42 45.5
l-48 49.5l-25 26v-241h-71v363h363v-69h-236z" />
    <glyph glyph-name="uni2924" unicode="&#x2924;" horiz-adv-x="632" 
d="M149 765h363v-363h-71v241l-26 -26l-48 -49.5l-42 -45.5t-41 -49l-30.5 -45t-27 -50t-14.5 -48t-7 -53q0 -41 13.5 -79.5t46.5 -83t57.5 -72l77.5 -83.5q12 -12 18 -19l-59 -56q-114 120 -150 167q-89 118 -89 226q0 122 107 251q31 37 133 142l24 26h-235v69z" />
    <glyph glyph-name="uni2925" unicode="&#x2925;" horiz-adv-x="632" 
d="M441 291h71v-363h-363v69h236l-25 26q-111 114 -145 157q-95 120 -95 236q0 41 13.5 83.5t29.5 73.5t52 76t57 68l68 72q13 13 19 20l59 -56q-111 -117 -144 -162q-69 -93 -69 -175q0 -26 7 -53t14.5 -48t27 -50l30.5 -45t41 -49l42 -45.5l48 -49.5l26 -27v242z" />
    <glyph glyph-name="uni2926" unicode="&#x2926;" horiz-adv-x="632" 
d="M272 23l-25 -26h236v-69h-363v363h71v-241l25 26l48 49.5l42 45.5t41 49l30.5 45t27 50t14.5 48t7 53q0 41 -13.5 79.5t-47.5 84.5t-57.5 72.5l-77.5 83.5q-11 11 -16 17l59 56q114 -120 150 -167q89 -118 89 -226q0 -23 -4.5 -46.5t-8.5 -42t-17 -43.5t-19 -38.5
t-27 -40t-27 -35.5t-33 -38l-32.5 -35l-36.5 -38z" />
    <glyph glyph-name="uniE000" unicode="&#xe000;" horiz-adv-x="1792" 
d="M315 0h-265v230h13q38 -101 105.5 -159t144.5 -58q61 0 95.5 38.5t34.5 91.5q0 55 -38 94q-31 30 -86 48.5l-111.5 39t-92.5 56.5q-58 58 -58 144q0 78 48.5 131.5t126.5 53.5h243v-197h-10q-39 69 -76 106q-76 78 -158 78q-26 0 -49.5 -8t-44 -34t-20.5 -67
q0 -54 34 -88q32 -32 91 -50.5t122 -41t104 -63.5q50 -48 50 -135q0 -98 -55.5 -154t-147.5 -56zM503 710h375q144 0 234 -105.5t90 -261.5q0 -50 -11 -97.5t-36.5 -92.5t-63 -78.5t-95 -54t-127.5 -20.5h-365v13h20q56 0 82.5 23.5t26.5 75.5v486q0 51 -26.5 75t-82.5 24
h-21v13zM1149 13h16q57 0 83.5 24t26.5 75v486q0 52 -26.5 75.5t-83.5 23.5h-17v13h384v-13h-27q-56 0 -82 -23.5t-26 -75.5v-486q0 -55 16.5 -77t58.5 -22h66q49 0 86.5 43t105.5 188h12v-244h-593v13zM1654 697v13h-55v-13h20v-54h15v54h20zM1742 643v67h-22l-17 -45
l-16 45h-23v-67h15v49l18 -49h11l19 49v-49h15zM862 13q57 0 99 26t65.5 71.5t34.5 100t11 118.5q0 189 -61.5 278.5t-151.5 89.5h-65q-23 0 -31 -10t-8 -36v-554q0 -84 107 -84z" />
    <glyph glyph-name="uniE001" unicode="&#xe001;" horiz-adv-x="1011" 
d="M313 -39q92 -43 192 -43q131 0 243.5 70.5t169.5 192.5q43 92 43 191q0 130 -70.5 243t-192.5 170q-92 43 -192 43q-131 0 -243.5 -70t-169.5 -193q-43 -92 -43 -191q0 -130 70.5 -243t192.5 -170zM692 773q118 -55 186 -164.5t68 -236.5q0 -98 -41 -186
q-55 -118 -164 -186t-236 -68q-98 0 -186 41q-119 55 -187 164.5t-68 236.5q0 98 41 186q55 118 164.5 186t236.5 68q98 0 186 -41zM535 784l-8 -64l22 -3l3 23l22 -3l2 16l-22 3l1 9l23 -2l2 15zM429 734l1 -11q8 -8 22 -8q28 0 33 16l-2 18q-5 7 -27 8h-2q-5 0 -7 2v4
q0 1 5 3q4 0 6 -2v-4l23 3l-2 11q-6 9 -21 9q-28 0 -34 -16l3 -18q6 -8 27 -8h2q6 0 6 -2l1 -5q-1 -1 -5 -3q-6 0 -6 2l-1 4zM617 723l4 -23l17 -6l4 12l-4 14q4 1 10 5l7 21q-3 12 -16 16l-35 12l-20 -62l22 -7l6 20zM385 720l17 -16l18 6l-4 12l-12 8q3 3 5 11l-7 20
q-5 5 -14 5q-5 0 -8 -1l-35 -12l21 -61l21 7l-6 20zM624 736l-7 3l4 13l7 -3q4 -1 5 -4l-3 -8q-1 -1 -6 -1zM384 736l-8 -3l-4 12l7 3q2 1 5 0h1l3 -9q-3 -3 -4 -3zM282 720l32 -57l41 23l-7 14l-22 -12l-4 8l19 11l-7 14l-20 -11l-4 7l21 12l-8 14zM675 735l-20 -35
q0 -15 18 -26q10 -5 20 -5q8 0 12 4l20 35q0 15 -19 26q-9 5 -19 5q-8 0 -12 -4zM703 714l-15 -26q-2 -2 -7 1q-4 2 -4 4l15 27q1 1 6 -1t5 -5zM244 670l32 -37l17 14l-31 38l11 9l-10 12l-40 -33l10 -12zM753 704l-43 -48l15 -14l22 25l2 -2l-8 -23l7 -7l23 10l1 -1
l-22 -25l16 -14l43 48l-21 19l-20 -11l-2 2l8 22zM371 84q65 -30 134 -30q91 0 170 49t119 135q30 66 30 134q0 92 -49 170.5t-135 119.5q-64 30 -134 30q-91 0 -170 -49t-119 -135q-30 -64 -30 -134q0 -91 49 -170t135 -120zM634 649q82 -39 129.5 -114t47.5 -162
q0 -65 -29 -129q-38 -82 -113.5 -129t-163.5 -47q-65 0 -128 29q-82 38 -129.5 114t-47.5 163q0 65 29 128q38 82 113.5 129t163.5 47q65 0 128 -29zM194 618l38 -32l14 18l-37 31l9 12l-12 10l-33 -40l12 -11zM808 584l-9 -5q-3 -6 -3 -11q0 -7 6 -19q10 -18 25 -18l16 9
q2 4 2 8q0 5 -5 20l-1 2q-1 3 -1 7l4 2q3 0 4 -4q1 -1 1.5 -3t-0.5 -3l-4 -2l12 -19l9 5q3 5 3 11q0 11 -6 19q-11 18 -25 18l-15 -9q-2 -4 -2 -9q0 -8 5 -19l1 -2q2 -5 0 -7l-4 -2q-3 0 -4 4q-3 3 -1 6l4 2zM137 557l56 -32l23 41l-13 8l-12 -22l-8 5l11 20l-14 7l-11 -19
l-7 4l12 21l-14 8zM510 516q5 12 5 21q0 21 -17 21t-28 -23q-5 -12 -5 -21q0 -21 16 -21q17 0 29 23zM874 532l-47 -25l8 -26l24 1l1 -1l-21 -12l7 -26l53 6l12 4l-6 18l-36 -5v1l32 18l-5 16l-37 -3v2l33 14l-6 21zM113 498l61 -23l14 39l-15 5l-6 -17l-46 17zM652 450
q5 12 5 21q0 21 -17 21t-28 -23q-5 -12 -5 -21q0 -21 17 -21t28 23zM140 425q1 2 1 6q0 7 -6 9q-2 1 -6 1q-7 0 -10 -6l-1 -2v-3q0 -8 7 -11q1 0 2.5 -0.5t2.5 -0.5q8 0 10 7zM914 426l-65 -5l4 -47l15 2l-1 24l9 1l1 -23l16 1l-1 23l8 1l2 -25l15 2zM612 271l15 -7
q-21 -37 -57.5 -58t-78.5 -21q-35 0 -66 15q-42 19 -66.5 58t-24.5 84q0 28 10 54l15 -7q-8 -24 -8 -47q0 -40 21.5 -74.5t59.5 -52.5q27 -13 59 -13q36 0 69 18.5t52 50.5zM96 322l65 4l-1 15l-35 -2v1l24 7l-1 8l-24 4v2l35 2l-1 15l-66 -4l2 -20l21 -4l1 -1l-22 -7z
M917 355l-64 7l-4 -33v-3q0 -14 10 -22l40 -4q12 4 15 22zM865 331l1 7l33 -3l-1 -7q0 -5 -2 -5l-29 3q-2 2 -2 5zM106 272l64 14l-7 29l-12 -3l3 -12l-52 -12zM905 274l-61 20l-14 -46l15 -4l7 23l9 -2l-7 -22l15 -5l7 22l8 -2l-7 -24l15 -4zM133 217l45 16q5 5 5 14
q0 1 -2 9q-6 15 -17 15l-44 -16q-5 -3 -5 -14q0 -6 1 -9q6 -15 17 -15zM131 242l33 12q2 0 4 -3l-1 -4l-34 -12q-2 0 -3 2q-1 3 1 5zM883 207l-57 30l-10 -18l25 -13l-1 -2h-32l-11 -21l57 -30l10 18l-25 13l1 2h32zM153 158l58 32l-8 14l-24 -13l-3 7l23 13l-8 14l-57 -31
l8 -15l21 12l4 -6l-22 -12zM188 110l52 39l-10 13l-14 -10l-3 -1l12 18l-8 11l-9 -7l-15 -24l-20 -2l-8 -6l7 -11l19 4v-1l-13 -10zM237 72l33 34v2q1 1 1 2q0 9 -8 18q-10 10 -20 7l-15 -15l11 -11l10 9l4 -1q1 -1 1 -4l-25 -25h-2q-4 1 -3 5l8 9l-11 11l-14 -14
q0 -12 8 -20q10 -11 22 -7zM800 118q1 1 1 4q0 8 -7 11q-2 1 -5 1q-7 0 -10 -7q-1 -1 -1 -4q0 -8 6 -11q2 -1 5 -1q7 0 11 7zM769 55l-39 53l-12 -9l20 -28l-1 -1l-18 16l-6 -4l9 -23l-1 -1l-21 28l-13 -9l39 -53l16 12l-8 20l1 1l17 -14zM285 35l27 38v4q0 9 -10 17
q-14 11 -22 3l-28 -38v-3q0 -11 10 -17q11 -8 23 -4zM269 54l21 29q2 1 4 0l2 -4l-21 -29q-2 -2 -5 0q-2 2 -1 4zM662 46l-9 14l-14 -7l5 -10l32 -45l23 11l-17 53l-4 10l-13 -7l5 -15zM325 17l25 46l-14 8l-25 -47l-9 5l-6 -12l32 -16l6 11zM398 21l4 13q0 10 -15 15
q-6 2 -9 2q-4 0 -12 -4l-7 -20q0 -9 12 -18h1q3 -3 3 -5l-2 -5q-1 -1 -3 -1q-4 0 -4 3l2 6l-15 5l-4 -12q3 -12 15 -16q3 -1 8 -1q7 0 13 3l7 19q0 8 -12 18l-1 1q-3 2 -3 4l2 7q2 2 4 0q3 0 3 -3l-2 -6zM648 -14l-19 63l-24 -8q-12 -4 -12 -13l14 -45q8 -8 18 -4zM674 38
l7 -19l-2 -1l-11 17zM589 -31l-11 65l-30 -5l2 -13l14 3l2 -14l-13 -3l2 -12l13 2l3 -13l-14 -2l2 -13zM474 -38l9 65l-16 2l-4 -32l-1 1l-5 32l-18 2l-8 -65l16 -2l4 31h1l5 -32zM613 30l4 1l12 -38l-4 -1q-2 -1 -4 1l-11 34q0 3 3 3zM512 -39v65l-17 1v-66h17z" />
    <glyph glyph-name="uniE002" unicode="&#xe002;" 
d="M553 191q0 -77 -45 -127t-121 -61v-103h-64v100h-80v-100h-64v100h-110v680h110v100h64v-100h80v100h64v-105q65 -12 104 -55t39 -112q0 -54 -27 -92.5t-73 -55.5q57 -18 90 -62t33 -107zM159 607v-215h156q60 0 94 29.5t34 81.5q0 104 -128 104h-156zM320 73
q71 0 107.5 32.5t36.5 90.5q0 57 -37.5 90t-105.5 33h-162v-246h161z" />
    <glyph glyph-name="Adieresis.ss02" horiz-adv-x="669" 
d="M246 792q-23 0 -39 16t-16 39q0 22 16 38t39 16q22 0 38.5 -16t16.5 -38q0 -23 -16.5 -39t-38.5 -16zM424 792q-22 0 -38.5 16t-16.5 39q0 22 16.5 38t38.5 16q23 0 39 -16t16 -38q0 -23 -16 -39t-39 -16zM558 0l-65 181h-318l-65 -181h-93l257 710h121l258 -710h-95z
M202 259h264l-33 93q-73 203 -100 289q-19 -62 -98 -290z" />
    <glyph glyph-name="Cdotaccent.ss02" horiz-adv-x="666" 
d="M382 789q-24 0 -40.5 16.5t-16.5 39.5t16.5 39.5t40.5 16.5t40 -16.5t16 -39.5t-16 -39.5t-40 -16.5zM383 726q69 0 127 -23.5t122 -78.5l-53 -63q-57 48 -102.5 66t-94.5 18q-114 0 -180.5 -80.5t-66.5 -209.5t66 -209.5t175 -80.5q60 0 106.5 24.5t106.5 79.5l56 -62
q-68 -67 -129 -95t-138 -28q-156 0 -246.5 104t-90.5 268t90.5 267t251.5 103z" />
    <glyph glyph-name="Edieresis.ss02" horiz-adv-x="609" 
d="M231 792q-23 0 -39 16t-16 39q0 22 16 38t39 16q22 0 38.5 -16t16.5 -38q0 -23 -16 -39t-39 -16zM409 792q-23 0 -39 16t-16 39q0 22 16.5 38t38.5 16q23 0 39 -16t16 -38q0 -23 -16 -39t-39 -16zM554 710v-77h-380v-229h354v-77h-354v-250h389v-77h-482v710h473z" />
    <glyph glyph-name="Edotaccent.ss02" horiz-adv-x="609" 
d="M319 789q-25 0 -41 16.5t-16 39.5t16 39.5t41 16.5q24 0 40 -16.5t16 -39.5t-16 -39.5t-40 -16.5zM554 710v-77h-380v-229h354v-77h-354v-250h389v-77h-482v710h473z" />
    <glyph glyph-name="Gcommaaccent.ss02" horiz-adv-x="741" 
d="M362 294v78h313v-372h-72l-7 91q-66 -106 -222 -106t-244.5 102.5t-88.5 267.5q0 163 92.5 266.5t251.5 103.5q87 0 155.5 -32.5t135.5 -102.5l-59 -60q-62 61 -114 87.5t-119 26.5q-112 0 -180.5 -79t-68.5 -210q0 -133 65.5 -211.5t178.5 -78.5q94 0 152 54t58 147v28
h-227zM373 -69q28 0 46.5 -18.5t18.5 -52.5q0 -47 -31.5 -80t-81.5 -33v36q21 2 40 15t25 37q-10 -2 -17 -2q-25 0 -39.5 13t-14.5 35t16 36t38 14z" />
    <glyph glyph-name="Gdotaccent.ss02" horiz-adv-x="741" 
d="M384 789q-24 0 -40.5 16.5t-16.5 39.5t16.5 39.5t40.5 16.5t40 -16.5t16 -39.5t-16 -39.5t-40 -16.5zM362 294v78h313v-372h-72l-7 91q-66 -106 -222 -106t-244.5 102.5t-88.5 267.5q0 163 92.5 266.5t251.5 103.5q87 0 155.5 -32.5t135.5 -102.5l-59 -60
q-62 61 -114 87.5t-119 26.5q-112 0 -180.5 -79t-68.5 -210q0 -133 65.5 -211.5t178.5 -78.5q94 0 152 54t58 147v28h-227z" />
    <glyph glyph-name="Idieresis.ss02" horiz-adv-x="270" 
d="M47 792q-23 0 -39 16t-16 39q0 22 16 38t39 16q22 0 38.5 -16t16.5 -38q0 -23 -16 -39t-39 -16zM225 792q-23 0 -39 16t-16 39q0 22 16.5 38t38.5 16q23 0 39 -16t16 -38q0 -23 -16 -39t-39 -16zM181 710v-710h-93v710h93z" />
    <glyph glyph-name="Idotaccent.ss02" horiz-adv-x="270" 
d="M134 789q-24 0 -40.5 16.5t-16.5 39.5t16.5 39.5t40.5 16.5t40 -16.5t16 -39.5t-16 -39.5t-40 -16.5zM181 710v-710h-93v710h93z" />
    <glyph glyph-name="K.ss01" horiz-adv-x="656" 
d="M544 0l-241 364l-129 -124v-240h-93v710h93v-360l385 374l59 -57l-252 -242l283 -425h-105z" />
    <glyph glyph-name="Kcommaaccent.ss01" horiz-adv-x="656" 
d="M366 425l283 -425h-105l-241 364l-129 -124v-240h-93v710h93v-360l385 374l59 -57zM306 -159v86h100v-86l-57 -94h-48l52 94h-47z" />
    <glyph glyph-name="Kcommaaccent.ss01.ss02" horiz-adv-x="656" 
d="M366 425l283 -425h-105l-241 364l-129 -124v-240h-93v710h93v-360l385 374l59 -57zM352 -69q28 0 46.5 -18.5t18.5 -52.5q0 -47 -31.5 -80t-81.5 -33v36q21 2 40 15t25 37q-10 -2 -17 -2q-25 0 -39.5 13t-14.5 35t16 36t38 14z" />
    <glyph glyph-name="Kcommaaccent.ss02" horiz-adv-x="656" 
d="M363 431l286 -431h-105l-243 366l-127 -130v-236h-93v710h93v-363l346 363h114zM342 -69q28 0 46.5 -18.5t18.5 -52.5q0 -47 -31.5 -80t-81.5 -33v36q21 2 40 15t25 37q-10 -2 -17 -2q-25 0 -39.5 13t-14.5 35t16 36t38 14z" />
    <glyph glyph-name="Lcommaaccent.ss02" horiz-adv-x="533" 
d="M174 78h332v-78h-425v710h93v-632zM295 -69q28 0 46.5 -18.5t18.5 -52.5q0 -47 -31.5 -80t-81.5 -33v36q21 2 40 15t25 37q-10 -2 -17 -2q-25 0 -39.5 13t-14.5 35t16 36t38 14z" />
    <glyph glyph-name="Ldot.ss02" horiz-adv-x="533" 
d="M174 710v-632h332v-78h-425v710h93zM375 305q-25 0 -43.5 18.5t-18.5 44.5q0 25 18.5 43.5t43.5 18.5t43.5 -18.5t18.5 -43.5q0 -26 -18.5 -44.5t-43.5 -18.5z" />
    <glyph glyph-name="Ncommaaccent.ss02" horiz-adv-x="731" 
d="M560 710h90v-710h-102l-211 323q-142 223 -171 272q5 -110 5 -276v-319h-90v710h104l213 -328q125 -194 166 -265q-4 113 -4 269v324zM363 -69q28 0 46.5 -18.5t18.5 -52.5q0 -47 -31.5 -80t-81.5 -33v36q21 2 40 15t25 37q-10 -2 -17 -2q-25 0 -39.5 13t-14.5 35t16 36
t38 14z" />
    <glyph glyph-name="Odieresis.ss02" horiz-adv-x="757" 
d="M291 792q-23 0 -39 16t-16 39q0 22 16 38t39 16q22 0 38.5 -16t16.5 -38q0 -23 -16 -39t-39 -16zM469 792q-23 0 -39 16t-16 39q0 22 16.5 38t38.5 16q23 0 39 -16t16 -38q0 -23 -16 -39t-39 -16zM379 726q154 0 245.5 -104.5t91.5 -266.5t-91.5 -266.5t-245.5 -104.5
q-155 0 -246.5 104.5t-91.5 266.5t91.5 266.5t246.5 104.5zM379 645q-110 0 -177 -81t-67 -209q0 -129 67 -209.5t177 -80.5t176.5 80.5t66.5 209.5q0 128 -67 209t-176 81z" />
    <glyph glyph-name="Rcommaaccent.ss02" horiz-adv-x="667" 
d="M439 291l195 -291h-104l-190 285h-166v-285h-93v710h299q101 0 165.5 -57t64.5 -155q0 -83 -46.5 -137.5t-124.5 -69.5zM174 633v-271h191q71 0 112 35t41 101q0 65 -41.5 100t-112.5 35h-190zM332 -69q28 0 46.5 -18.5t18.5 -52.5q0 -47 -31.5 -80t-81.5 -33v36
q21 2 40 15t25 37q-10 -2 -17 -2q-25 0 -39.5 13t-14.5 35t16 36t38 14z" />
    <glyph glyph-name="Scommaaccent.ss02" horiz-adv-x="629" 
d="M340 408q135 -32 190.5 -76t55.5 -128q0 -99 -73 -159.5t-189 -60.5q-86 0 -154 28.5t-145 94.5l55 65q75 -63 129.5 -85.5t115.5 -22.5q74 0 121.5 36.5t47.5 98.5q0 25 -10 44t-23.5 31t-44 23.5t-52.5 17l-68 16.5q-136 31 -188.5 73t-52.5 124q0 87 73 142t180 55
q80 0 142 -24.5t126 -79.5l-54 -64q-57 50 -105.5 69.5t-108.5 19.5q-73 0 -118 -32.5t-45 -83.5q0 -52 42 -74.5t153 -47.5zM308 -69q28 0 46.5 -18.5t18.5 -52.5q0 -47 -31.5 -80t-81.5 -33v36q21 2 40 15t25 37q-10 -2 -17 -2q-25 0 -39.5 13t-14.5 35t16 36t38 14z" />
    <glyph glyph-name="uni021A.ss02" horiz-adv-x="598" 
d="M30 710h538v-78h-223v-632h-92v632h-223v78zM295 -69q28 0 46.5 -18.5t18.5 -52.5q0 -47 -31.5 -80t-81.5 -33v36q21 2 40 15t25 37q-10 -2 -17 -2q-25 0 -39.5 13t-14.5 35t16 36t38 14z" />
    <glyph glyph-name="Udieresis.ss02" horiz-adv-x="688" 
d="M256 792q-23 0 -39 16t-16 39q0 22 16 38t39 16q22 0 38.5 -16t16.5 -38q0 -23 -16.5 -39t-38.5 -16zM434 792q-22 0 -38.5 16t-16.5 39q0 22 16.5 38t38.5 16q23 0 39 -16t16 -38q0 -23 -16 -39t-39 -16zM612 710v-484q0 -117 -67.5 -179t-200.5 -62q-132 0 -199.5 62
t-67.5 179v484h92v-479q0 -81 44.5 -123t130.5 -42t130.5 42t44.5 123v479h93z" />
    <glyph glyph-name="Wdieresis.ss02" horiz-adv-x="939" 
d="M382 792q-23 0 -39 16t-16 39q0 22 16 38t39 16q22 0 38.5 -16t16.5 -38q0 -23 -16.5 -39t-38.5 -16zM560 792q-22 0 -38.5 16t-16.5 39q0 22 16.5 38t38.5 16q23 0 39 -16t16 -38q0 -23 -16 -39t-39 -16zM816 710h91l-171 -710h-113l-87 326q-43 163 -66 265
q-28 -126 -65 -266l-88 -325h-114l-172 710h94l81 -342q28 -125 58 -274q35 155 69 274l93 342h93l91 -342q27 -98 67 -273q43 207 59 273z" />
    <glyph glyph-name="Ydieresis.ss02" horiz-adv-x="631" 
d="M231 792q-23 0 -39 16t-16 39q0 22 16 38t39 16q22 0 38.5 -16t16.5 -38q0 -23 -16 -39t-39 -16zM409 792q-23 0 -39 16t-16 39q0 22 16.5 38t38.5 16q23 0 39 -16t16 -38q0 -23 -16 -39t-39 -16zM516 710h100l-252 -407v-303h-92v304l-250 406h102l196 -325z" />
    <glyph glyph-name="Zdotaccent.ss02" horiz-adv-x="623" 
d="M324 789q-24 0 -40.5 16.5t-16.5 39.5t16.5 39.5t40.5 16.5t40 -16.5t16 -39.5t-16 -39.5t-40 -16.5zM581 710v-74l-430 -559h429v-77h-539v74l430 559h-411v77h521z" />
    <glyph glyph-name="adieresis.ss02" horiz-adv-x="532" 
d="M180 588q-23 0 -39 16t-16 39q0 22 16 38t39 16q22 0 38.5 -16t16.5 -38q0 -23 -16.5 -39t-38.5 -16zM358 588q-22 0 -38.5 16t-16.5 39q0 22 16.5 38t38.5 16q23 0 39 -16t16 -38q0 -23 -16 -39t-39 -16zM266 506q95 0 147.5 -45t52.5 -119v-342h-78v60
q-51 -76 -167 -76q-78 0 -127 34t-49 104q0 41 17.5 71.5t52 49.5t71 30t88.5 20l110 20v25q0 46 -31.5 71.5t-83.5 25.5q-46 0 -81.5 -19t-80.5 -64l-55 49q89 105 214 105zM230 55q66 0 110 35t44 94v65l-90 -18q-43 -9 -67.5 -16t-50 -19t-36.5 -29t-11 -42
q0 -34 26.5 -52t74.5 -18z" />
    <glyph glyph-name="cdotaccent.ss02" horiz-adv-x="500" 
d="M273 585q-25 0 -41 16.5t-16 39.5t16 39.5t41 16.5q24 0 40 -16.5t16 -39.5t-16 -39.5t-40 -16.5zM417 360q-39 42 -72 58t-71 16q-72 0 -110.5 -55t-38.5 -133t39 -132.5t112 -54.5q40 0 72 17.5t75 64.5l56 -48q-48 -59 -94.5 -83t-108.5 -24q-109 0 -174 71t-65 189
q0 117 66 188.5t173 71.5q61 0 107 -21.5t90 -72.5z" />
    <glyph glyph-name="edieresis.ss02" horiz-adv-x="534" 
d="M188 588q-23 0 -39 16t-16 39q0 22 16 38t39 16q22 0 38.5 -16t16.5 -38q0 -23 -16.5 -39t-38.5 -16zM366 588q-22 0 -38.5 16t-16.5 39q0 22 16.5 38t38.5 16q23 0 39 -16t16 -38q0 -23 -16 -39t-39 -16zM444 140l51 -52q-53 -56 -102.5 -79t-112.5 -23
q-112 0 -177.5 70.5t-65.5 186.5q0 117 64 190t171 73q105 0 163.5 -63.5t58.5 -173.5q0 -20 -2 -38h-370q4 -75 44 -124t115 -49q46 0 80 18t83 64zM271 437q-60 0 -98 -37t-48 -105h284q-3 65 -39 103.5t-99 38.5z" />
    <glyph glyph-name="edotaccent.ss02" horiz-adv-x="534" 
d="M276 585q-24 0 -40.5 16.5t-16.5 39.5t16.5 39.5t40.5 16.5t40 -16.5t16 -39.5t-16 -39.5t-40 -16.5zM444 140l51 -52q-53 -56 -102.5 -79t-112.5 -23q-112 0 -177.5 70.5t-65.5 186.5q0 117 64 190t171 73q105 0 163.5 -63.5t58.5 -173.5q0 -20 -2 -38h-370
q4 -75 44 -124t115 -49q46 0 80 18t83 64zM271 437q-60 0 -98 -37t-48 -105h284q-3 65 -39 103.5t-99 38.5z" />
    <glyph glyph-name="gcommaaccent.ss02" horiz-adv-x="565" 
d="M287 586q-27 0 -45.5 19t-18.5 53q0 47 31.5 80t81.5 32v-35q-21 -2 -41 -15.5t-25 -37.5q8 3 18 3q25 0 39.5 -13t14.5 -35t-16 -36.5t-39 -14.5zM418 492h80v-481q0 -96 -60.5 -150t-162.5 -54q-120 0 -223 73l43 63q100 -63 179 -63q62 0 100.5 33.5t38.5 104.5v68
q-51 -80 -157 -80q-96 0 -156 70t-60 180t60 180t156 70q111 0 162 -86v72zM270 79q65 0 105 49.5t40 127.5t-40 127.5t-105 49.5q-66 0 -104 -49t-38 -128t38 -128t104 -49z" />
    <glyph glyph-name="gdotaccent.ss02" horiz-adv-x="565" 
d="M283 585q-25 0 -41 16.5t-16 39.5t16 39.5t41 16.5q24 0 40 -16.5t16 -39.5t-16 -39.5t-40 -16.5zM418 492h80v-481q0 -96 -60.5 -150t-162.5 -54q-120 0 -223 73l43 63q100 -63 179 -63q62 0 100.5 33.5t38.5 104.5v68q-51 -80 -157 -80q-96 0 -156 70t-60 180t60 180
t156 70q111 0 162 -86v72zM270 79q65 0 105 49.5t40 127.5t-40 127.5t-105 49.5q-66 0 -104 -49t-38 -128t38 -128t104 -49z" />
    <glyph glyph-name="i.ss02" horiz-adv-x="220" 
d="M110 585q-24 0 -40.5 16.5t-16.5 39.5t16.5 39.5t40.5 16.5t40 -16.5t16 -39.5t-16 -39.5t-40 -16.5zM153 492v-492h-86v492h86z" />
    <glyph glyph-name="idieresis.ss02" horiz-adv-x="220" 
d="M22 588q-23 0 -39 16t-16 39q0 22 16 38t39 16q22 0 38.5 -16t16.5 -38q0 -23 -16.5 -39t-38.5 -16zM200 588q-22 0 -38.5 16t-16.5 39q0 22 16.5 38t38.5 16q23 0 39 -16t16 -38q0 -23 -16 -39t-39 -16zM153 492v-492h-86v492h86z" />
    <glyph glyph-name="i.loclTRK" horiz-adv-x="220" 
d="M153 692v-103h-86v103h86zM153 492v-492h-86v492h86z" />
    <glyph glyph-name="i.loclTRK.ss02" horiz-adv-x="220" 
d="M110 585q-24 0 -40.5 16.5t-16.5 39.5t16.5 39.5t40.5 16.5t40 -16.5t16 -39.5t-16 -39.5t-40 -16.5zM153 492v-492h-86v492h86z" />
    <glyph glyph-name="ij.ss02" horiz-adv-x="444" 
d="M110 585q-24 0 -40.5 16.5t-16.5 39.5t16.5 39.5t40.5 16.5t40 -16.5t16 -39.5t-16 -39.5t-40 -16.5zM333 585q-25 0 -41 16.5t-16 39.5t16 39.5t41 16.5q24 0 40 -16.5t16 -39.5t-16 -39.5t-40 -16.5zM153 492v-492h-86v492h86zM159 -111q37 -10 68 -10q35 0 49 20
t14 63v530h86v-530q0 -154 -139 -154q-47 0 -95 15z" />
    <glyph glyph-name="iogonek.ss02" horiz-adv-x="220" 
d="M110 584q-24 0 -40.5 16.5t-16.5 40.5q0 23 16.5 39t40.5 16t40.5 -16t16.5 -39q0 -24 -16.5 -40.5t-40.5 -16.5zM67 0v492h86v-492q-80 -55 -80 -110q0 -42 51 -42q16 0 27 3v-54q-13 -6 -39 -6q-46 0 -73.5 22t-27.5 62q0 67 71 125h-15z" />
    <glyph glyph-name="j.calt" horiz-adv-x="222" 
d="M155 692v-103h-86v103h86zM-8 -120q14 -2 29 -2q28 0 38 15t10 47v552h86v-556q0 -66 -27.5 -97t-91.5 -31q-26 0 -53 5z" />
    <glyph glyph-name="j.calt.ss02" horiz-adv-x="224" 
d="M113 585q-24 0 -40.5 16.5t-16.5 39.5t16.5 39.5t40.5 16.5t40.5 -16.5t16.5 -39.5t-16.5 -39.5t-40.5 -16.5zM-8 -120q14 -2 29 -2q28 0 38 15t10 47v552h86v-556q0 -66 -27.5 -97t-91.5 -31q-26 0 -53 5z" />
    <glyph glyph-name="j.ss02" horiz-adv-x="224" 
d="M113 585q-25 0 -41 16.5t-16 39.5t16 39.5t41 16.5q24 0 40 -16.5t16 -39.5t-16 -39.5t-40 -16.5zM-61 -111q37 -10 68 -10q35 0 49 20t14 63v530h86v-530q0 -154 -139 -154q-47 0 -95 15z" />
    <glyph glyph-name="k.ss01" horiz-adv-x="508" 
d="M407 0l-154 231l-98 -93v-138h-88v710h88v-473l274 265l53 -53l-171 -162l191 -287h-95z" />
    <glyph glyph-name="kcommaaccent.ss01" horiz-adv-x="508" 
d="M311 287l191 -287h-95l-154 231l-98 -93v-138h-88v710h88v-473l274 265l53 -53zM226 -159v86h100v-86l-57 -94h-48l52 94h-47z" />
    <glyph glyph-name="kcommaaccent.ss01.ss02" horiz-adv-x="508" 
d="M311 287l191 -287h-95l-154 231l-98 -93v-138h-88v710h88v-473l274 265l53 -53zM272 -69q28 0 46.5 -18.5t18.5 -52.5q0 -47 -31.5 -80t-81.5 -33v36q21 2 40 15t25 37q-10 -2 -17 -2q-25 0 -39.5 13t-14.5 35t16 36t38 14z" />
    <glyph glyph-name="kcommaaccent.ss02" horiz-adv-x="508" 
d="M301 303l201 -303h-95l-165 247l-89 -90v-157h-86v710h86v-456l228 238h101zM268 -69q28 0 46.5 -18.5t18.5 -52.5q0 -47 -31.5 -80t-81.5 -33v36q21 2 40 15t25 37q-10 -2 -17 -2q-25 0 -39.5 13t-14.5 35t16 36t38 14z" />
    <glyph glyph-name="lcommaaccent.ss02" horiz-adv-x="226" 
d="M156 710v-710h-86v710h86zM110 -69q28 0 46.5 -18.5t18.5 -52.5q0 -47 -31.5 -80t-81.5 -33v36q21 2 40 15t25 37q-10 -2 -17 -2q-25 0 -39.5 13t-14.5 35t16 36t38 14z" />
    <glyph glyph-name="ldot.ss02" horiz-adv-x="418" 
d="M156 710v-710h-86v710h86zM317 246q-25 0 -43.5 18.5t-18.5 44.5q0 25 18.5 43.5t43.5 18.5t43.5 -18.5t18.5 -43.5q0 -26 -18.5 -44.5t-43.5 -18.5z" />
    <glyph glyph-name="ncommaaccent.ss02" horiz-adv-x="545" 
d="M303 506q86 0 131 -48t45 -121v-337h-86v310q0 123 -113 123q-54 0 -90.5 -36.5t-36.5 -91.5v-305h-86v492h81v-64q48 78 155 78zM266 -69q28 0 46.5 -18.5t18.5 -52.5q0 -47 -31.5 -80t-81.5 -33v36q21 2 40 15t25 37q-10 -2 -17 -2q-25 0 -39.5 13t-14.5 35t16 36
t38 14z" />
    <glyph glyph-name="odieresis.ss02" horiz-adv-x="561" 
d="M190 588q-23 0 -39 16t-16 39q0 22 16 38t39 16q22 0 38.5 -16t16.5 -38q0 -23 -16.5 -39t-38.5 -16zM368 588q-22 0 -38.5 16t-16.5 39q0 22 16.5 38t38.5 16q23 0 39 -16t16 -38q0 -23 -16 -39t-39 -16zM280 506q108 0 176 -72.5t68 -187.5t-68 -187.5t-176 -72.5
q-107 0 -175 72.5t-68 187.5t68 187.5t175 72.5zM280 434q-71 0 -113 -52t-42 -136t42 -136t113 -52t113.5 52t42.5 136t-42.5 136t-113.5 52z" />
    <glyph glyph-name="rcommaaccent.ss02" horiz-adv-x="358" 
d="M270 497q36 0 78 -14l-16 -72q-36 10 -64 10q-51 0 -83 -42t-32 -115v-264h-86v492h81v-75q37 80 122 80zM105 -69q28 0 46.5 -18.5t18.5 -52.5q0 -47 -31.5 -80t-81.5 -33v36q21 2 40 15t25 37q-10 -2 -17 -2q-25 0 -39.5 13t-14.5 35t16 36t38 14z" />
    <glyph glyph-name="scommaaccent.ss02" horiz-adv-x="479" 
d="M259 290q100 -23 143 -55.5t43 -95.5q0 -69 -54 -111t-143 -42q-66 0 -117.5 20.5t-109.5 71.5l51 56q53 -44 92 -60.5t85 -16.5q49 0 80.5 21t31.5 57q0 37 -33 53.5t-105 32.5q-101 22 -140 50.5t-39 88.5q0 65 53 105.5t138 40.5q61 0 107 -16.5t95 -55.5l-47 -58
q-46 35 -79.5 47.5t-75.5 12.5q-49 0 -78.5 -20.5t-29.5 -52.5q0 -30 27.5 -43t104.5 -30zM229 -69q28 0 46.5 -18.5t18.5 -52.5q0 -47 -31.5 -80t-81.5 -33v36q21 2 40 15t25 37q-10 -2 -17 -2q-25 0 -39.5 13t-14.5 35t16 36t38 14z" />
    <glyph glyph-name="uni021B.ss02" horiz-adv-x="356" 
d="M338 8q-47 -17 -101 -17q-68 0 -97.5 31t-29.5 92v313h-92v65h92v165h86v-165h133v-65h-133v-303q0 -33 13.5 -46.5t44.5 -13.5q27 0 71 12zM219 -69q28 0 46.5 -18.5t18.5 -52.5q0 -47 -31.5 -80t-81.5 -33v36q21 2 40 15t25 37q-10 -2 -17 -2q-25 0 -39.5 13t-14.5 35
t16 36t38 14z" />
    <glyph glyph-name="udieresis.ss02" horiz-adv-x="537" 
d="M172 588q-23 0 -39 16t-16 39q0 22 16 38t39 16q22 0 38.5 -16t16.5 -38q0 -23 -16.5 -39t-38.5 -16zM350 588q-22 0 -38.5 16t-16.5 39q0 22 16.5 38t38.5 16q23 0 39 -16t16 -38q0 -23 -16 -39t-39 -16zM384 492h86v-492h-80v61q-45 -75 -149 -75q-89 0 -132 44.5
t-43 116.5v345h86v-324q0 -53 26.5 -80.5t76.5 -27.5q57 0 93 34t36 98v300z" />
    <glyph glyph-name="wdieresis.ss02" horiz-adv-x="735" 
d="M279 588q-23 0 -39 16t-16 39q0 22 16 38t39 16q22 0 38.5 -16t16.5 -38q0 -23 -16 -39t-39 -16zM457 588q-23 0 -39 16t-16 39q0 22 16.5 38t38.5 16q23 0 39 -16t16 -38q0 -23 -16 -39t-39 -16zM626 493h88l-138 -493h-104l-46 158q-35 121 -60 230q-28 -117 -60 -231
l-43 -157h-104l-138 493h89l49 -184q23 -84 56 -234q31 128 60 234l52 184h81l52 -184q30 -104 61 -235q23 109 56 235z" />
    <glyph glyph-name="ydieresis.ss02" horiz-adv-x="484" 
d="M152 588q-23 0 -39 16t-16 39q0 22 16 38t39 16q22 0 38.5 -16t16.5 -38q0 -23 -16.5 -39t-38.5 -16zM330 588q-22 0 -38.5 16t-16.5 39q0 22 16.5 38t38.5 16q23 0 39 -16t16 -38q0 -23 -16 -39t-39 -16zM379 492h87l-197 -560q-24 -68 -55 -96.5t-93 -28.5
q-41 0 -76 10l15 66q27 -6 53 -6q30 0 49 16.5t34 61.5l6 18l-185 519h91l55 -163l81 -241l80 243z" />
    <glyph glyph-name="zdotaccent.ss02" horiz-adv-x="478" 
d="M241 585q-25 0 -41 16.5t-16 39.5t16 39.5t41 16.5q24 0 40 -16.5t16 -39.5t-16 -39.5t-40 -16.5zM434 492v-63l-290 -358h290v-71h-396v64l290 358h-272v70h378z" />
    <glyph glyph-name="f_f_i.liga.ss02" horiz-adv-x="872" 
d="M271 650q-41 0 -58.5 -20.5t-17.5 -68.5v-69h102v-65h-102v-427h-86v427h-91v65h91v78q0 73 38 112.5t110 39.5q48 0 99 -17l-17 -66q-38 11 -68 11zM428 570q0 73 37.5 112.5t107.5 39.5q35 0 80 -12l-13 -66q-35 6 -52 6q-41 0 -57.5 -20.5t-16.5 -69.5v-68h123v-65
h-123v-427h-86v427h-82v65h82v78zM762 584q-24 0 -40.5 16.5t-16.5 40.5q0 23 16.5 39t40.5 16t40.5 -16t16.5 -39q0 -24 -16.5 -40.5t-40.5 -16.5zM719 0v492h86v-492h-86z" />
    <glyph glyph-name="f_f_j.liga.ss02" horiz-adv-x="872" 
d="M271 650q-41 0 -58.5 -20.5t-17.5 -68.5v-69h102v-65h-102v-427h-86v427h-91v65h91v78q0 73 38 112.5t110 39.5q48 0 99 -17l-17 -66q-38 11 -68 11zM637 427h-123v-427h-86v427h-82v65h82v78q0 73 37.5 112.5t107.5 39.5q35 0 80 -12l-13 -66q-35 6 -52 6
q-41 0 -57.5 -20.5t-16.5 -69.5v-68h123v-65zM762 584q-24 0 -40.5 16.5t-16.5 40.5q0 23 16.5 39t40.5 16t40.5 -16t16.5 -39q0 -24 -16.5 -40.5t-40.5 -16.5zM719 -38v530h86v-530q0 -154 -139 -154q-46 0 -96 15l18 66q37 -10 68 -10q35 0 49 20t14 63z" />
    <glyph glyph-name="f_j.liga.ss02" horiz-adv-x="553" 
d="M318 427h-123v-427h-86v427h-91v65h91v78q0 73 37.5 112.5t108.5 39.5q34 0 79 -12l-13 -66q-34 6 -52 6q-41 0 -57.5 -20.5t-16.5 -69.5v-68h123v-65zM443 584q-24 0 -40.5 16.5t-16.5 40.5q0 23 16.5 39t40.5 16t40 -16t16 -39q0 -24 -16 -40.5t-40 -16.5zM400 -38v530
h86v-530q0 -154 -139 -154q-48 0 -96 15l18 66q37 -10 68 -10q35 0 49 20t14 63z" />
    <glyph glyph-name="fi.ss02" horiz-adv-x="554" 
d="M109 570q0 73 37.5 112.5t108.5 39.5q34 0 79 -12l-13 -66q-34 6 -52 6q-41 0 -57.5 -20.5t-16.5 -69.5v-68h123v-65h-123v-427h-86v427h-91v65h91v78zM443 584q-24 0 -40.5 16.5t-16.5 40.5q0 23 16.5 39t40.5 16t40.5 -16t16.5 -39q0 -24 -16.5 -40.5t-40.5 -16.5z
M400 0v492h86v-492h-86z" />
    <glyph glyph-name="zero.case" horiz-adv-x="600" 
d="M300 726q145 0 211 -131q49 -97 49 -240q0 -142 -49 -239q-67 -132 -211 -132t-211 132q-49 97 -49 239q0 143 49 240q66 131 211 131zM300 650q-90 0 -133 -93q-37 -77 -37 -202q0 -124 37 -201q44 -94 133 -94t133 94q37 77 37 201q0 125 -37 202q-43 93 -133 93z" />
    <glyph glyph-name="one.case" horiz-adv-x="468" 
d="M253 710h67v-710h-88v598l-154 -109l-44 61z" />
    <glyph glyph-name="two.case" horiz-adv-x="582" 
d="M132 75h407v-75h-496v33q0 56 14.5 99t47.5 78t61.5 56.5t82.5 54.5q17 11 48 28.5l48 27.5t39.5 27.5t34.5 32.5t20.5 37.5t8.5 48.5q0 61 -40.5 93.5t-99.5 32.5q-60 0 -101.5 -29t-99.5 -100l-65 46q57 81 119.5 120t144.5 39q104 0 167 -56.5t63 -142.5
q0 -36 -10.5 -67.5t-23.5 -52t-42 -44t-46 -35t-57 -35l-56 -33.5q-91 -57 -118 -83q-44 -43 -51 -101z" />
    <glyph glyph-name="three.case" horiz-adv-x="585" 
d="M298 425q104 0 170 -55t66 -154q0 -91 -65.5 -161.5t-181.5 -70.5q-129 0 -260 88l45 65q65 -42 112.5 -59.5t99.5 -17.5q73 0 117 44t44 111q0 66 -43.5 103.5t-126.5 37.5q-50 0 -83 -13l-41 56l255 236h-343v75h451v-73l-230 -213q2 0 7 0.5t7 0.5z" />
    <glyph glyph-name="four.case" 
d="M469 240h106v-73h-106v-167h-86v167h-356v80l292 463h99l-297 -470h262v164h86v-164z" />
    <glyph glyph-name="five.case" horiz-adv-x="597" 
d="M315 459q104 0 167.5 -63t63.5 -164t-68.5 -174t-179.5 -73q-76 0 -133 21t-132 72l45 65q69 -47 113.5 -65t98.5 -18q76 0 121.5 49t45.5 121t-41.5 113t-116.5 41q-86 0 -145 -57l-77 8l31 375h406v-75h-330l-19 -224q58 48 150 48z" />
    <glyph glyph-name="six.case" horiz-adv-x="600" 
d="M325 466q107 0 172 -69.5t65 -169.5q0 -99 -69 -170.5t-185 -71.5q-121 0 -189.5 77.5t-68.5 198.5q0 114 56 208t160 192l51 49h117v-1l-98 -91q-138 -127 -181 -225q60 73 170 73zM308 60q76 0 120.5 47t44.5 119t-43 118.5t-118 46.5q-77 0 -124 -47t-47 -118
t46 -118.5t121 -47.5z" />
    <glyph glyph-name="seven.case" horiz-adv-x="542" 
d="M21 710h501v-64q-102 -127 -182 -300.5t-104 -345.5h-97q23 162 102.5 333.5t179.5 302.5h-400v74z" />
    <glyph glyph-name="eight.case" horiz-adv-x="599" 
d="M426 384q65 -25 100.5 -74.5t35.5 -115.5q0 -92 -70.5 -151.5t-192.5 -59.5q-121 0 -191.5 59.5t-70.5 151.5q0 66 35.5 115.5t100.5 74.5q-100 47 -100 154q0 83 62.5 135t163.5 52q102 0 164.5 -52t62.5 -135q0 -106 -100 -154zM299 654q-64 0 -102.5 -32.5
t-38.5 -84.5q0 -54 39 -87.5t102 -33.5t102.5 33.5t39.5 87.5q0 52 -38.5 84.5t-103.5 32.5zM299 58q80 0 126.5 39.5t46.5 101.5q0 65 -46.5 105.5t-126.5 40.5q-79 0 -125.5 -40.5t-46.5 -105.5q0 -62 46 -101.5t126 -39.5z" />
    <glyph glyph-name="nine.case" horiz-adv-x="599" 
d="M291 725q122 0 190 -77t68 -198q0 -113 -55.5 -206t-160.5 -194l-51 -50h-117v1l99 91q138 129 180 226q-60 -73 -170 -73q-107 0 -172 69.5t-65 168.5q0 100 69 171t185 71zM287 319q77 0 124 47t47 118q0 72 -46 119t-121 47q-76 0 -120.5 -47t-44.5 -119
q0 -71 43 -118t118 -47z" />
    <glyph glyph-name="zero.tf" 
d="M295 696q142 0 207 -126q48 -93 48 -230t-48 -230q-65 -126 -207 -126t-207 126q-48 93 -48 230t48 230q65 126 207 126zM295 620q-87 0 -129 -88q-36 -73 -36 -192q0 -118 36 -192q42 -88 129 -88t129 88q36 74 36 192q0 119 -36 192q-42 88 -129 88z" />
    <glyph glyph-name="one.tf" 
d="M371 69h165v-69h-429v69h175v500l-152 -109l-44 61l218 159h67v-611z" />
    <glyph glyph-name="two.tf" 
d="M138 75h396v-75h-485v33q0 44 12 80.5t27 61t47 52t53 41.5l64 41l46.5 27l46 26.5t38.5 26t33 31t19.5 36t8.5 45.5q0 57 -38 88t-94 31q-59 0 -102 -28t-96 -94l-64 46q52 75 114.5 113.5t144.5 38.5q101 0 162 -54.5t61 -137.5q0 -35 -10.5 -65t-22.5 -49.5t-40.5 -43
t-44.5 -33.5l-56 -33.5t-54 -32.5q-6 -4 -24.5 -15l-25 -15t-22 -14.5t-21.5 -15t-18 -14.5t-17 -16.5l-13 -17t-12 -19.5t-7.5 -21t-5.5 -24z" />
    <glyph glyph-name="three.tf" 
d="M296 407q99 0 162.5 -53t63.5 -148q0 -87 -63.5 -154.5t-175.5 -67.5q-126 0 -252 84l45 65q63 -40 108 -56.5t96 -16.5q70 0 111.5 40.5t41.5 104.5q0 62 -42.5 98t-120.5 36q-48 0 -80 -13l-41 56l244 223h-328v75h438v-73l-220 -200h13z" />
    <glyph glyph-name="four.tf" 
d="M470 232h102v-73h-102v-159h-87v159h-344v80l281 441h99l-287 -448h251v155h87v-155z" />
    <glyph glyph-name="five.tf" 
d="M312 439q101 0 163 -61t62 -156q0 -97 -67.5 -167.5t-174.5 -70.5q-74 0 -129 20t-128 70l44 65q67 -45 110 -62t95 -17q72 0 116.5 45.5t44.5 112.5t-40.5 107t-112.5 40q-82 0 -138 -54l-77 8l30 361h395v-75h-320l-17 -211q57 45 144 45z" />
    <glyph glyph-name="six.tf" 
d="M323 445q102 0 164.5 -66.5t62.5 -161.5t-67 -163.5t-179 -68.5q-118 0 -184.5 74t-66.5 191q0 108 54.5 199.5t154.5 184.5l49 46h117v-1l-108 -99q-114 -104 -157 -196q58 61 160 61zM304 60q72 0 114.5 44t42.5 112q0 67 -41.5 111t-112.5 44q-74 0 -118.5 -44
t-44.5 -111t44 -111.5t116 -44.5z" />
    <glyph glyph-name="seven.tf" 
d="M44 680h489v-64q-99 -123 -176.5 -287.5t-100.5 -328.5h-97q22 152 98.5 315t173.5 291h-387v74z" />
    <glyph glyph-name="eight.tf" 
d="M419 369q63 -24 97 -71.5t34 -110.5q0 -88 -69 -145.5t-187 -57.5t-186.5 57.5t-68.5 145.5q0 63 34 110.5t97 71.5q-96 46 -96 148q0 80 60.5 129.5t159.5 49.5t160 -49.5t61 -129.5q0 -102 -96 -148zM294 625q-61 0 -98 -30.5t-37 -79.5q0 -51 37.5 -82.5t97.5 -31.5
q61 0 98.5 32t37.5 82q0 49 -37 79.5t-99 30.5zM294 58q77 0 121.5 38t44.5 96q0 62 -44.5 100.5t-121.5 38.5q-76 0 -120.5 -38.5t-44.5 -100.5q0 -58 44.5 -96t120.5 -38z" />
    <glyph glyph-name="nine.tf" 
d="M286 695q118 0 184.5 -74t66.5 -191q0 -108 -54.5 -199.5t-154.5 -184.5l-49 -46h-117v1l108 99q115 105 158 197q-59 -62 -161 -62t-164.5 66.5t-62.5 161.5t67 163.5t179 68.5zM283 309q74 0 118.5 44t44.5 111t-44 111.5t-116 44.5t-114.5 -44t-42.5 -112
q0 -67 41.5 -111t112.5 -44z" />
    <glyph glyph-name="zero.zero" 
d="M502 570q48 -93 48 -230t-48 -230q-65 -126 -207 -126t-207 126q-48 93 -48 230t48 230q65 126 207 126t207 -126zM166 532q-36 -73 -36 -192q0 -101 27 -170l239 405q-38 45 -101 45q-87 0 -129 -88zM424 148q36 74 36 192q0 102 -28 174l-241 -407q39 -47 104 -47
q87 0 129 88z" />
    <glyph glyph-name="zero.dnom" horiz-adv-x="399" 
d="M199 418q79 0 121.5 -59.5t42.5 -154.5t-42.5 -154.5t-121.5 -59.5q-80 0 -122.5 59.5t-42.5 154.5t42.5 154.5t122.5 59.5zM199 357q-44 0 -68.5 -41t-24.5 -112t24.5 -112t68.5 -41t68 41t24 112t-24 112t-68 41z" />
    <glyph glyph-name="one.dnom" horiz-adv-x="318" 
d="M165 408h53v-408h-69v323l-75 -55l-35 48z" />
    <glyph glyph-name="two.dnom" horiz-adv-x="397" 
d="M211 147q-35 -19 -48 -27.5t-29 -25t-20 -35.5h242v-59h-314v28q0 61 33 97.5t97 70.5q7 4 33 17t33.5 18t22.5 16.5t20 23t5 26.5q0 29 -21.5 44.5t-58.5 15.5q-54 0 -118 -55l-40 46q75 70 159 70q69 0 109.5 -34t40.5 -84q0 -21 -7 -39t-13 -29t-26 -26t-27 -19.5
t-37 -20.5t-36 -19z" />
    <glyph glyph-name="three.dnom" horiz-adv-x="393" 
d="M209 245q60 0 100 -32.5t40 -88.5q0 -54 -41 -94t-114 -40q-82 0 -164 52l35 50q71 -41 128 -41q39 0 62 20.5t23 52.5t-24.5 51t-67.5 19q-36 0 -52 -7l-31 43l145 119h-199v59h285v-58l-129 -105h4z" />
    <glyph glyph-name="four.dnom" horiz-adv-x="396" 
d="M309 149h57v-57h-57v-92h-69v92h-207v65l168 251h76l-173 -259h136v86h69v-86z" />
    <glyph glyph-name="five.dnom" horiz-adv-x="395" 
d="M221 267q63 0 101 -38.5t38 -92.5q0 -64 -44 -105t-117 -41q-78 0 -167 54l35 51q76 -44 130 -44q40 0 65.5 23t25.5 58q0 36 -22 56t-65 20q-48 0 -84 -32l-56 6l17 226h262v-59h-205l-8 -111q38 29 94 29z" />
    <glyph glyph-name="six.dnom" horiz-adv-x="398" 
d="M219 274q65 0 104.5 -40.5t39.5 -98.5t-44 -101.5t-118 -43.5q-78 0 -121.5 46t-43.5 122q0 141 155 250h98v-1q-134 -86 -171 -171q36 38 101 38zM201 51q43 0 68.5 23t25.5 59q0 35 -24.5 58.5t-65.5 23.5q-42 0 -69.5 -23.5t-27.5 -58.5t25.5 -58.5t67.5 -23.5z" />
    <glyph glyph-name="seven.dnom" horiz-adv-x="370" 
d="M27 408h319v-54q-154 -173 -168 -354h-75q7 85 54 181t112 168h-242v59z" />
    <glyph glyph-name="eight.dnom" horiz-adv-x="400" 
d="M284 218q79 -30 79 -106q0 -52 -43.5 -86.5t-119.5 -34.5t-119.5 34.5t-43.5 86.5q0 77 79 106q-62 31 -62 91q0 48 40 79.5t106 31.5t106 -31.5t40 -79.5q0 -60 -62 -91zM200 363q-37 0 -59 -16.5t-22 -42.5q0 -27 23 -45t58 -18t57.5 18t22.5 45q0 26 -22 42.5
t-58 16.5zM200 50q44 0 68 19t24 49q0 31 -24.5 51.5t-67.5 20.5q-44 0 -68.5 -20.5t-24.5 -51.5q0 -30 24.5 -49t68.5 -19z" />
    <glyph glyph-name="nine.dnom" horiz-adv-x="397" 
d="M195 418q79 0 122 -46t43 -122q0 -140 -154 -250h-98v1q131 85 168 168q-37 -35 -98 -35q-65 0 -105 40.5t-40 98.5t44 101.5t118 43.5zM192 193q42 0 69 23.5t27 58.5t-25.5 58.5t-67.5 23.5t-67.5 -23t-25.5 -59q0 -35 24.5 -58.5t65.5 -23.5z" />
    <glyph glyph-name="zero.numr" horiz-adv-x="399" 
d="M199 690q79 0 121.5 -59.5t42.5 -154.5t-42.5 -154.5t-121.5 -59.5q-80 0 -122.5 59.5t-42.5 154.5t42.5 154.5t122.5 59.5zM199 629q-44 0 -68.5 -41t-24.5 -112t24.5 -112t68.5 -41t68 41t24 112t-24 112t-68 41z" />
    <glyph glyph-name="one.numr" horiz-adv-x="318" 
d="M165 680h53v-408h-69v323l-75 -55l-35 48z" />
    <glyph glyph-name="two.numr" horiz-adv-x="397" 
d="M211 419q-33 -18 -47 -27t-30 -25.5t-20 -35.5h242v-59h-314v28q0 61 33 97.5t97 70.5q7 4 33 17t33.5 18t22.5 16.5t20 23t5 26.5q0 29 -21.5 44.5t-58.5 15.5q-54 0 -118 -55l-40 46q75 70 159 70q69 0 109.5 -34t40.5 -84q0 -21 -7 -39t-13 -29t-26 -26t-27 -19.5
t-37 -20.5t-36 -19z" />
    <glyph glyph-name="three.numr" horiz-adv-x="393" 
d="M209 517q60 0 100 -32.5t40 -88.5q0 -54 -41 -94t-114 -40q-82 0 -164 52l35 50q71 -41 128 -41q39 0 62 20.5t23 52.5t-24.5 51t-67.5 19q-36 0 -52 -7l-31 43l145 119h-199v59h285v-58l-129 -105h4z" />
    <glyph glyph-name="four.numr" horiz-adv-x="396" 
d="M309 421h57v-57h-57v-92h-69v92h-207v65l168 251h76l-172 -259h135v86h69v-86z" />
    <glyph glyph-name="five.numr" horiz-adv-x="395" 
d="M221 539q63 0 101 -38.5t38 -92.5q0 -64 -44 -105t-117 -41q-78 0 -167 54l35 51q76 -44 130 -44q40 0 65.5 23t25.5 58q0 36 -22 56t-65 20q-48 0 -84 -32l-56 6l17 226h262v-59h-204l-9 -112q37 30 94 30z" />
    <glyph glyph-name="six.numr" horiz-adv-x="398" 
d="M219 546q65 0 104.5 -40.5t39.5 -98.5t-44 -101.5t-118 -43.5q-78 0 -121.5 46t-43.5 122q0 141 155 250h98v-1q-133 -87 -170 -170q37 37 100 37zM201 323q43 0 68.5 23t25.5 59q0 35 -24.5 58.5t-65.5 23.5q-42 0 -69.5 -23.5t-27.5 -58.5t25.5 -58.5t67.5 -23.5z" />
    <glyph glyph-name="seven.numr" horiz-adv-x="370" 
d="M27 680h319v-54q-154 -173 -168 -354h-75q7 84 54 180.5t112 168.5h-242v59z" />
    <glyph glyph-name="eight.numr" horiz-adv-x="400" 
d="M284 493q79 -30 79 -106q0 -52 -43.5 -86.5t-119.5 -34.5t-119.5 34.5t-43.5 86.5q0 77 79 106q-62 30 -62 91q0 48 40 79.5t106 31.5t106 -31.5t40 -79.5q0 -60 -62 -91zM200 638q-37 0 -59 -16.5t-22 -42.5q0 -27 23 -45t58 -18t57.5 18t22.5 45q0 26 -22 42.5
t-58 16.5zM200 325q44 0 68 19t24 49q0 31 -24.5 51.5t-67.5 20.5q-44 0 -68.5 -20.5t-24.5 -51.5q0 -30 24.5 -49t68.5 -19z" />
    <glyph glyph-name="nine.numr" horiz-adv-x="397" 
d="M195 690q79 0 122 -46t43 -122q0 -140 -154 -250h-98v1q129 84 167 168q-35 -35 -97 -35q-65 0 -105 40.5t-40 98.5t44 101.5t118 43.5zM192 465q42 0 69 23.5t27 58.5t-25.5 58.5t-67.5 23.5t-67.5 -23t-25.5 -59q0 -35 24.5 -58.5t65.5 -23.5z" />
    <glyph glyph-name="exclamdown.case" horiz-adv-x="265" 
d="M82 602v108h103v-108h-103zM87 0v213l20 296h53l20 -296v-213h-93z" />
    <glyph glyph-name="questiondown.case" horiz-adv-x="485" 
d="M210 602v108h102v-108h-102zM226 -16q-91 0 -153 48t-62 132q0 23 6.5 45t13.5 36.5t25 35t25.5 28t33 29.5t29.5 26q43 38 59.5 61t20.5 60l3 29h71v-36q0 -56 -17 -87.5t-76 -82.5q-5 -5 -24.5 -21.5t-25.5 -22.5l-19.5 -20t-18.5 -24t-10 -24.5t-5 -29.5
q0 -47 34.5 -74.5t91.5 -27.5q45 0 84.5 18.5t93.5 63.5l53 -59q-114 -103 -233 -103z" />
    <glyph glyph-name="periodcentered.ss02" horiz-adv-x="238" 
d="M119 250q-25 0 -43.5 18.5t-18.5 44.5q0 25 18.5 43.5t43.5 18.5t43.5 -18.5t18.5 -43.5q0 -26 -18.5 -44.5t-43.5 -18.5z" />
    <glyph glyph-name="exclamdown.case.ss02" horiz-adv-x="265" 
d="M134 719q25 0 43.5 -18.5t18.5 -44.5q0 -25 -18.5 -43.5t-43.5 -18.5t-43.5 18.5t-18.5 43.5q0 26 18.5 44.5t43.5 18.5zM86 0v213l21 296h53l20 -296v-213h-94z" />
    <glyph glyph-name="questiondown.case.ss02" horiz-adv-x="485" 
d="M264 726q25 0 43.5 -18.5t18.5 -44.5q0 -25 -18.5 -43.5t-43.5 -18.5t-43.5 18.5t-18.5 43.5q0 26 18.5 44.5t43.5 18.5zM226 -9q-91 0 -153 48t-62 133q0 23 6.5 45t13.5 36t25 34.5t25.5 28t32.5 29.5t30 26q43 38 59.5 61t20.5 60l3 29h71v-35q0 -57 -17 -88.5
t-76 -82.5q-5 -5 -24.5 -21.5t-25.5 -22.5l-19.5 -20t-18.5 -24t-10 -24.5t-5 -29.5q0 -47 34.5 -74.5t91.5 -27.5q45 0 84.5 19t93.5 64l53 -60q-114 -103 -233 -103z" />
    <glyph glyph-name="colon.ss02" horiz-adv-x="258" 
d="M129 373q-25 0 -43.5 18.5t-18.5 44.5q0 25 18.5 43.5t43.5 18.5t43.5 -18.5t18.5 -43.5q0 -26 -18.5 -44.5t-43.5 -18.5zM129 -9q-25 0 -43.5 18.5t-18.5 44.5q0 25 18.5 43.5t43.5 18.5t43.5 -18.5t18.5 -43.5q0 -26 -18.5 -44.5t-43.5 -18.5z" />
    <glyph glyph-name="comma.ss02" horiz-adv-x="218" 
d="M110 115q31 0 51.5 -24t20.5 -68q0 -57 -34.5 -104t-94.5 -50v42q25 3 47.5 26t27.5 58q-9 -3 -19 -3q-27 0 -44.5 17t-17.5 44q0 26 18.5 44t44.5 18z" />
    <glyph glyph-name="ellipsis.ss02" horiz-adv-x="653" 
d="M119 -9q-25 0 -43.5 18.5t-18.5 44.5q0 25 18.5 43.5t43.5 18.5t43.5 -18.5t18.5 -43.5q0 -26 -18.5 -44.5t-43.5 -18.5zM327 -9q-26 0 -44.5 18.5t-18.5 44.5q0 25 18.5 43.5t44.5 18.5q25 0 43 -18.5t18 -43.5q0 -26 -18 -44.5t-43 -18.5zM534 -9q-25 0 -43.5 18.5
t-18.5 44.5q0 25 18.5 43.5t43.5 18.5t43.5 -18.5t18.5 -43.5q0 -26 -18.5 -44.5t-43.5 -18.5z" />
    <glyph glyph-name="exclam.ss02" horiz-adv-x="273" 
d="M188 710v-213l-20 -296h-53l-20 296v213h93zM141 -9q-25 0 -43.5 18.5t-18.5 44.5q0 25 18.5 43.5t43.5 18.5t43.5 -18.5t18.5 -43.5q0 -26 -18.5 -44.5t-43.5 -18.5z" />
    <glyph glyph-name="exclamdown.ss02" horiz-adv-x="225" 
d="M137 502q25 0 43 -18.5t18 -44.5q0 -25 -18 -43.5t-43 -18.5q-26 0 -44.5 18.5t-18.5 43.5q0 26 18.5 44.5t44.5 18.5zM89 -217v213l20 296h53l20 -296v-213h-93z" />
    <glyph glyph-name="period.ss02" horiz-adv-x="218" 
d="M109 -9q-25 0 -43.5 18.5t-18.5 44.5q0 25 18.5 43.5t43.5 18.5t43.5 -18.5t18.5 -43.5q0 -26 -18.5 -44.5t-43.5 -18.5z" />
    <glyph glyph-name="question.ss02" horiz-adv-x="491" 
d="M260 726q91 0 152.5 -48t61.5 -132q0 -23 -6.5 -45t-13.5 -36.5t-24.5 -35t-26 -28.5l-32 -29t-29.5 -26q-43 -38 -60 -61t-20 -60l-3 -29h-71v36q0 56 17 87.5t75 82.5l21.5 18t22 19.5l18 17.5t17.5 19.5t12 19.5t9.5 23.5t2.5 24.5q0 47 -34.5 74.5t-90.5 27.5
q-45 0 -84.5 -18.5t-94.5 -63.5l-52 59q114 103 233 103zM222 -9q-25 0 -43.5 18.5t-18.5 44.5q0 25 18.5 43.5t43.5 18.5t43.5 -18.5t18.5 -43.5q0 -26 -18.5 -44.5t-43.5 -18.5z" />
    <glyph glyph-name="questiondown.ss02" horiz-adv-x="464" 
d="M259 501q26 0 44 -18.5t18 -44.5q0 -25 -18.5 -43t-43.5 -18t-43.5 18t-18.5 43q0 26 18 44.5t44 18.5zM221 -233q-91 0 -153 47.5t-62 132.5q0 23 6.5 45t13.5 36.5t25 34.5t26 28t32 29l30 26q31 28 43 40.5t23 33.5t14 47l3 29h71v-35q0 -56 -17 -87.5t-76 -82.5
q-4 -3 -24.5 -21t-25.5 -23l-19.5 -20.5t-19 -25t-9.5 -24t-5 -29.5q0 -46 34.5 -74t91.5 -28q45 0 84 19t94 64l53 -59q-114 -103 -233 -103z" />
    <glyph glyph-name="semicolon.ss02" horiz-adv-x="258" 
d="M129 373q-25 0 -43.5 18.5t-18.5 44.5q0 25 18.5 43.5t43.5 18.5t43.5 -18.5t18.5 -43.5q0 -26 -18.5 -44.5t-43.5 -18.5zM130 115q31 0 51.5 -24t20.5 -68q0 -57 -34.5 -104t-94.5 -50v42q25 3 47.5 26t27.5 58q-9 -3 -19 -3q-27 0 -44.5 17t-17.5 44q0 26 18.5 44
t44.5 18z" />
    <glyph glyph-name="emdash.case" horiz-adv-x="966" 
d="M886 384v-74h-807v74h807z" />
    <glyph glyph-name="endash.case" horiz-adv-x="723" 
d="M655 384v-74h-587v74h587z" />
    <glyph glyph-name="hyphen.case" horiz-adv-x="405" 
d="M348 385v-77h-291v77h291z" />
    <glyph glyph-name="guillemotleft.case" horiz-adv-x="571" 
d="M287 551l-141 -218l141 -218h-86l-139 218l139 218h86zM505 551l-141 -218l141 -218h-86l-139 218l139 218h86z" />
    <glyph glyph-name="guillemotright.case" horiz-adv-x="571" 
d="M67 551h85l140 -218l-140 -218h-85l139 218zM285 551h85l140 -218l-140 -218h-85l139 218z" />
    <glyph glyph-name="guilsinglleft.case" horiz-adv-x="354" 
d="M287 551l-141 -218l141 -218h-86l-139 218l139 218h86z" />
    <glyph glyph-name="guilsinglright.case" horiz-adv-x="354" 
d="M67 551h85l140 -218l-140 -218h-85l139 218z" />
    <glyph glyph-name="quotedblbase.ss02" horiz-adv-x="400" 
d="M104 109q30 0 49.5 -22.5t19.5 -64.5q0 -54 -33 -98.5t-90 -47.5v39q24 3 45.5 25t25.5 55q-7 -3 -17 -3q-26 0 -43 16.5t-17 41.5q0 24 18 41.5t42 17.5zM284 109q30 0 49.5 -22.5t19.5 -64.5q0 -54 -33 -98.5t-90 -47.5v39q24 3 45.5 25t26.5 55q-9 -3 -18 -3
q-26 0 -43 16.5t-17 41.5q0 24 18 41.5t42 17.5z" />
    <glyph glyph-name="quotedblleft.ss02" horiz-adv-x="403" 
d="M116 598q26 0 43 -16.5t17 -41.5q0 -24 -18 -41t-42 -17q-30 0 -49.5 22t-19.5 65q0 54 33 98.5t90 47.5v-40q-24 -3 -45.5 -25t-25.5 -55q9 3 17 3zM300 598q25 0 42 -16.5t17 -41.5q0 -24 -18 -41t-42 -17q-30 0 -49.5 22t-19.5 65q0 54 33 98.5t91 47.5v-40
q-25 -3 -46.5 -25t-25.5 -55q9 3 18 3z" />
    <glyph glyph-name="quotedblright.ss02" horiz-adv-x="400" 
d="M104 714q30 0 49.5 -22.5t19.5 -64.5q0 -54 -33 -98.5t-90 -47.5v39q24 3 45.5 25t25.5 55q-7 -3 -17 -3q-26 0 -43 16.5t-17 41.5q0 24 18 41.5t42 17.5zM284 714q30 0 49.5 -22.5t19.5 -64.5q0 -54 -33 -98.5t-90 -47.5v39q24 3 45.5 25t26.5 55q-9 -3 -18 -3
q-26 0 -43 16.5t-17 41.5q0 24 18 41.5t42 17.5z" />
    <glyph glyph-name="quoteleft.ss02" horiz-adv-x="220" 
d="M116 598q26 0 43 -16.5t17 -41.5q0 -24 -18 -41t-42 -17q-30 0 -49.5 22t-19.5 65q0 54 33 98.5t90 47.5v-40q-24 -3 -45.5 -25t-25.5 -55q9 3 17 3z" />
    <glyph glyph-name="quoteright.ss02" horiz-adv-x="220" 
d="M104 714q30 0 49.5 -22.5t19.5 -64.5q0 -54 -33 -98.5t-90 -47.5v39q24 3 45.5 25t25.5 55q-7 -3 -17 -3q-26 0 -43 16.5t-17 41.5q0 24 18 41.5t42 17.5z" />
    <glyph glyph-name="quotesinglbase.ss02" horiz-adv-x="220" 
d="M104 109q30 0 49.5 -22.5t19.5 -64.5q0 -54 -33 -98.5t-90 -47.5v39q24 3 45.5 25t25.5 55q-7 -3 -17 -3q-26 0 -43 16.5t-17 41.5q0 24 18 41.5t42 17.5z" />
    <glyph glyph-name="divide.ss02" horiz-adv-x="600" 
d="M301 434q-26 0 -44.5 18.5t-18.5 44.5q0 25 18.5 43t44.5 18q25 0 43.5 -18t18.5 -43q0 -26 -18.5 -44.5t-43.5 -18.5zM560 347v-74h-520v74h520zM301 62q-26 0 -44.5 18.5t-18.5 43.5t18.5 43.5t44.5 18.5q25 0 43.5 -18.5t18.5 -43.5t-18.5 -43.5t-43.5 -18.5z" />
    <glyph glyph-name="registered.ss03" horiz-adv-x="856" 
d="M428 723q156 0 262 -105.5t106 -262.5t-106 -262.5t-262 -105.5t-262 105.5t-106 262.5t106 262.5t262 105.5zM428 670q-133 0 -219.5 -90.5t-86.5 -224.5t86.5 -224.5t219.5 -90.5t219.5 90.5t86.5 224.5t-86.5 224.5t-219.5 90.5zM452 567q59 0 96 -36.5t37 -92.5
q0 -84 -81 -114l106 -171h-73l-98 162h-89v-162h-65v414h167zM437 509h-87v-140h87q84 0 84 70q0 32 -21 51t-63 19z" />
    <glyph glyph-name="uni0326.alt" horiz-adv-x="0" 
d="M-205 587v88l57 100h48l-51 -100h47v-88h-101z" />
    <glyph glyph-name="uni0326.alt.ss02" horiz-adv-x="0" 
d="M-150 685q25 0 39.5 -13t14.5 -35t-16 -36.5t-39 -14.5q-27 0 -45.5 19t-18.5 53q0 47 31.5 80t81.5 32v-35q-21 -2 -40.5 -15.5t-25.5 -37.5q9 3 18 3z" />
    <glyph glyph-name="uni0326.ss02" horiz-adv-x="0" 
d="M-154 -69q28 0 46.5 -18.5t18.5 -52.5q0 -47 -31.5 -80t-81.5 -33v36q21 2 40.5 15t24.5 38q-7 -3 -17 -3q-25 0 -39.5 13t-14.5 35t16 36t38 14z" />
    <glyph glyph-name="caron.alt" horiz-adv-x="296" 
d="M209 710l-61 -198h-55l30 198h86z" />
    <glyph glyph-name="dieresis.ss02" horiz-adv-x="461" 
d="M142 588q-23 0 -39 16t-16 39q0 22 16 38t39 16q22 0 38.5 -16t16.5 -38q0 -23 -16.5 -39t-38.5 -16zM320 588q-22 0 -38.5 16t-16.5 39q0 22 16.5 38t38.5 16q23 0 39 -16t16 -38q0 -23 -16 -39t-39 -16z" />
    <glyph glyph-name="dotaccent.ss02" horiz-adv-x="286" 
d="M143 585q-25 0 -41 16.5t-16 39.5t16 39.5t41 16.5q24 0 40 -16.5t16 -39.5t-16 -39.5t-40 -16.5z" />
    </font>
</defs>
</svg>
