<?xml version="1.0" standalone="no"?>
<!DOCTYPE svg PUBLIC "-//W3C//DTD SVG 1.1//EN" "http://www.w3.org/Graphics/SVG/1.1/DTD/svg11.dtd" >
<svg>
<metadata>
Created by FontForge 20090622 at Thu Jul 14 01:36:10 2016
 By deploy user
Copyright &#194;&#169; 2015 by Letters from Sweden &#38; Stockholm Design Lab. All rights reserved.
</metadata>
<defs>
<font id="LabGrotesque-Italic" horiz-adv-x="590" >
  <font-face 
    font-family="Lab Grotesque Italic"
    font-weight="400"
    font-style="italic"
    font-stretch="normal"
    units-per-em="1000"
    panose-1="0 0 5 0 0 0 0 0 0 0"
    ascent="750"
    descent="-250"
    x-height="492"
    cap-height="710"
    bbox="-308 -253 1742 938"
    underline-thickness="59"
    underline-position="-102"
    slope="-12"
    unicode-range="U+0020-U+FB02"
  />
<missing-glyph horiz-adv-x="579" 
d="M479 810v-910h-379v910h379z" />
    <glyph glyph-name="fi" unicode="fi" horiz-adv-x="557" 
d="M358 428h-122l-90 -428h-86l91 428h-95l13 64h95l17 82q33 151 165 151q42 0 88 -14l-25 -65q-32 8 -58 8q-35 0 -55.5 -22.5t-31.5 -74.5l-14 -65h121zM495 692h86l-22 -103h-86zM348 0l104 492h86l-104 -492h-86z" />
    <glyph glyph-name="fl" unicode="fl" horiz-adv-x="561" 
d="M356 428h-120l-91 -428h-86l91 428h-94l13 64h95l17 82q31 151 165 151q42 0 88 -14l-25 -65q-32 8 -58 8q-36 0 -56 -22t-32 -75l-13 -65h119zM502 710h86l-151 -710h-86z" />
    <glyph glyph-name="f_f.liga" unicode="ff" horiz-adv-x="666" 
d="M355 654q-39 0 -59.5 -22t-31.5 -75l-14 -65h102l-14 -64h-102l-90 -428h-86l91 428h-95l13 64h95l17 82q33 151 165 151q54 0 104 -20l-25 -63q-41 12 -70 12zM670 654q-37 0 -57.5 -22t-31.5 -75l-13 -65h118l-13 -64h-119l-91 -428h-86l91 428h-83l14 64h83l17 82
q31 151 165 151q55 0 102 -21l-25 -63q-35 13 -71 13z" />
    <glyph glyph-name="f_f_i.liga" unicode="ffi" horiz-adv-x="875" 
d="M355 654q-39 0 -59.5 -22t-31.5 -75l-14 -65h102l-14 -64h-102l-90 -428h-86l91 428h-95l13 64h95l17 82q33 151 165 151q54 0 104 -20l-25 -63q-41 12 -70 12zM675 428h-121l-91 -428h-86l91 428h-83l14 64h83l17 82q31 151 165 151q42 0 88 -14l-26 -65q-30 8 -57 8
q-36 0 -56.5 -22.5t-31.5 -74.5l-13 -65h120zM813 692h86l-22 -103h-86zM666 0l104 492h86l-104 -492h-86z" />
    <glyph glyph-name="f_f_j.liga" unicode="ffj" horiz-adv-x="864" 
d="M350 654q-39 0 -59.5 -22t-31.5 -75l-14 -65h102l-13 -64h-102l-91 -428h-86l91 428h-90l13 64h90l18 82q31 151 164 151q53 0 105 -20l-26 -63q-41 12 -70 12zM670 428h-121l-90 -428h-86l90 428h-83l14 64h83l17 82q33 151 165 151q43 0 88 -14l-25 -65q-32 8 -58 8
q-36 0 -56 -22t-31 -75l-14 -65h121zM808 692h86l-22 -103h-86zM655 -30l110 522h86l-113 -536q-16 -79 -52 -114.5t-105 -35.5q-52 0 -95 16l25 63q40 -9 62 -9q37 0 54 22t28 72z" />
    <glyph glyph-name="f_j.liga" unicode="fj" horiz-adv-x="552" 
d="M358 428h-122l-90 -428h-86l91 428h-95l13 64h95l17 82q33 151 165 151q42 0 88 -14l-25 -65q-32 8 -58 8q-35 0 -55.5 -22.5t-31.5 -74.5l-14 -65h121zM495 692h86l-22 -103h-86zM342 -30l110 522h86l-113 -536q-16 -79 -51.5 -114.5t-104.5 -35.5q-53 0 -96 16l25 63
q40 -9 63 -9q37 0 53.5 22t27.5 72z" />
    <glyph glyph-name=".notdef" horiz-adv-x="579" 
d="M479 810v-910h-379v910h379z" />
    <glyph glyph-name=".null" horiz-adv-x="0" 
 />
    <glyph glyph-name="nonmarkingreturn" horiz-adv-x="333" 
 />
    <glyph glyph-name="space" unicode=" " horiz-adv-x="227" 
 />
    <glyph glyph-name="exclam" unicode="!" horiz-adv-x="273" 
d="M287 710l-46 -214l-83 -295h-53l44 296l45 213h93zM163 108l-22 -108h-103l23 108h102z" />
    <glyph glyph-name="quotedbl" unicode="&#x22;" horiz-adv-x="375" 
d="M238 710l-59 -234h-64l41 234h82zM417 710l-60 -234h-64l41 234h83z" />
    <glyph glyph-name="numbersign" unicode="#" 
d="M571 436h-98l-40 -190h97l-13 -61h-97l-39 -185h-70l39 185h-156l-39 -185h-70l39 185h-100l13 61h100l40 190h-99l14 61h98l39 183h70l-39 -183h156l39 183h70l-39 -183h99zM363 246l40 190h-155l-41 -190h156z" />
    <glyph glyph-name="dollar" unicode="$" horiz-adv-x="610" 
d="M558 538q-71 66 -140 80l-49 -235q90 -33 132.5 -73t42.5 -102q0 -89 -67 -156.5t-190 -67.5h-3l-18 -84h-64l19 90q-105 18 -208 118l57 54q87 -84 167 -98l56 261q-94 35 -134 72.5t-40 95.5q0 83 67 143t185 60l18 84h64l-19 -88q97 -17 181 -101zM202 500
q0 -32 25 -53t82 -43l47 219q-67 -3 -110.5 -36.5t-43.5 -86.5zM460 199q0 39 -27 61.5t-81 43.5l-52 -245q73 3 116.5 43.5t43.5 96.5z" />
    <glyph glyph-name="percent" unicode="%" horiz-adv-x="858" 
d="M733 695l47 -38l-620 -672l-45 39zM261 691q58 0 95.5 -37t37.5 -95q0 -71 -43.5 -129t-124.5 -58q-60 0 -97.5 37t-37.5 99q0 41 17 81.5t57.5 71t95.5 30.5zM255 636q-46 0 -72 -39.5t-26 -85.5q0 -38 19 -60.5t54 -22.5q48 0 73 40.5t25 87.5q0 80 -73 80zM657 308
q59 0 96 -36.5t37 -94.5q0 -71 -43.5 -129t-124.5 -58q-60 0 -97.5 37t-37.5 99q0 67 44.5 124.5t125.5 57.5zM651 253q-46 0 -72 -39t-26 -85q0 -38 19 -61t54 -23q48 0 73 41t25 88q0 79 -73 79z" />
    <glyph glyph-name="ampersand" unicode="&#x26;" horiz-adv-x="692" 
d="M668 297l-146 -147l86 -150h-95l-52 92q-62 -55 -116 -80.5t-118 -25.5q-93 0 -147.5 49t-54.5 116q0 79 53 138t196 128q-42 79 -42 136q0 66 48 117t139 51q68 0 110 -35.5t42 -91.5q0 -59 -37 -105t-149 -102l98 -170l131 132zM415 658q-48 0 -75 -30.5t-27 -68.5
q0 -43 37 -111q87 41 114.5 73t27.5 71q0 30 -21 48t-56 18zM230 58q51 0 94.5 24t98.5 76l-114 199q-119 -61 -158 -101t-39 -97q0 -40 33.5 -70.5t84.5 -30.5z" />
    <glyph glyph-name="quotesingle" unicode="'" horiz-adv-x="196" 
d="M238 710l-59 -234h-64l41 234h82z" />
    <glyph glyph-name="parenleft" unicode="(" horiz-adv-x="337" 
d="M372 785l44 -52q-269 -217 -269 -524q0 -159 92 -337l-64 -34q-112 190 -112 370q0 170 76.5 318t232.5 259z" />
    <glyph glyph-name="parenright" unicode=")" horiz-adv-x="337" 
d="M-11 -167l-44 53q271 219 271 530q0 152 -91 328l63 36q112 -190 112 -368q0 -169 -77.5 -318t-233.5 -261z" />
    <glyph glyph-name="asterisk" unicode="*" horiz-adv-x="436" 
d="M311 710v-134l124 42l18 -51l-129 -41l85 -108l-45 -34l-84 111l-80 -109l-46 35l85 105l-128 42l17 51l123 -43v134h60z" />
    <glyph glyph-name="plus" unicode="+" horiz-adv-x="600" 
d="M338 570v-223h222v-74h-222v-223h-76v223h-222v74h222v223h76z" />
    <glyph glyph-name="comma" unicode="," horiz-adv-x="216" 
d="M136 108l-22 -108l-89 -125h-54l83 125h-49l23 108h108z" />
    <glyph glyph-name="hyphen" unicode="-" horiz-adv-x="405" 
d="M365 326l-17 -77h-291l17 77h291z" />
    <glyph glyph-name="period" unicode="." horiz-adv-x="216" 
d="M130 108l-23 -108h-102l23 108h102z" />
    <glyph glyph-name="slash" unicode="/" horiz-adv-x="438" 
d="M515 710l-455 -710h-90l455 710h90z" />
    <glyph glyph-name="zero" unicode="0" 
d="M375 696q105 0 156 -64.5t51 -171.5q0 -50 -9.5 -108t-33.5 -124.5t-59.5 -119.5t-94 -88.5t-130.5 -35.5q-104 0 -155 64.5t-51 171.5q0 50 10 109t34.5 125t60.5 119t93.5 88t127.5 35zM373 620q-60 0 -108 -43.5t-74.5 -109t-40 -130.5t-13.5 -118q0 -159 122 -159
q60 0 108 44.5t74 110.5t39.5 130.5t13.5 115.5q0 159 -121 159z" />
    <glyph glyph-name="one" unicode="1" horiz-adv-x="460" 
d="M336 680h67l-144 -680h-88l120 564l-161 -99l-35 62z" />
    <glyph glyph-name="two" unicode="2" horiz-adv-x="572" 
d="M299 247q-63 -34 -91 -51t-60 -49.5t-46 -71.5h389l-16 -75h-482l8 39q12 53 34 93.5t61.5 74t70 53t90.5 52.5l49 27l45.5 25l37 21.5t33.5 21.5l25.5 20t22 22l13 22t10 26.5t2.5 29.5q0 44 -32.5 68.5t-81.5 24.5q-59 0 -107.5 -29t-110.5 -94l-61 50q69 77 135.5 113
t146.5 36q89 0 144 -46t55 -119q0 -32 -6.5 -58t-25 -50.5t-36 -42t-57 -42.5t-69.5 -42z" />
    <glyph glyph-name="three" unicode="3" horiz-adv-x="575" 
d="M592 680l-16 -73l-261 -206h8q84 0 138.5 -48.5t54.5 -125.5q0 -42 -15.5 -83.5t-46 -78t-83 -59t-118.5 -22.5q-137 0 -254 90l52 61q57 -39 103 -57t99 -18q84 0 129.5 49t45.5 113q0 54 -36.5 85.5t-107.5 31.5q-46 0 -78 -13l-29 53l287 226h-324l16 75h436z" />
    <glyph glyph-name="four" unicode="4" horiz-adv-x="580" 
d="M457 232h102l-14 -73h-103l-34 -159h-86l33 159h-343l17 80l375 441h102l-381 -448h245l33 155h87z" />
    <glyph glyph-name="five" unicode="5" horiz-adv-x="587" 
d="M579 605h-321l-62 -210q58 39 138 39q85 0 140.5 -53t55.5 -134q0 -45 -15.5 -89.5t-46.5 -84.5t-85 -64.5t-124 -24.5q-127 0 -255 94l54 61q58 -42 104 -60.5t102 -18.5q84 0 131.5 54.5t47.5 127.5q0 54 -35.5 87t-97.5 33q-76 0 -141 -51l-75 8l106 361h396z" />
    <glyph glyph-name="six" unicode="6" horiz-adv-x="589" 
d="M348 444q88 0 141 -54t53 -132q0 -45 -16 -91t-47 -88t-85 -68t-122 -26q-98 0 -158.5 56t-60.5 144q0 116 69 224t218 225l58 46h126v-1l-129 -100q-122 -93 -185 -179q55 44 138 44zM276 60q60 0 102 31.5t59.5 73t17.5 85.5q0 57 -35.5 89.5t-96.5 32.5
q-90 0 -137.5 -55t-47.5 -130q0 -56 37.5 -91.5t100.5 -35.5z" />
    <glyph glyph-name="seven" unicode="7" horiz-adv-x="532" 
d="M116 680h486l-13 -64q-128 -112 -242.5 -282t-163.5 -334h-99q44 155 153.5 319.5t237.5 286.5h-375z" />
    <glyph glyph-name="eight" unicode="8" horiz-adv-x="589" 
d="M444 361q98 -50 98 -150q0 -38 -14.5 -76t-44 -73t-84 -56.5t-126.5 -21.5q-108 0 -173 52.5t-65 130.5q0 68 41 127.5t130 83.5q-71 42 -71 121q0 74 60 135.5t180 61.5q86 0 143.5 -45t57.5 -115q0 -55 -33 -103.5t-99 -71.5zM367 625q-67 0 -108 -34.5t-41 -90.5
q0 -43 33.5 -71t86.5 -28q75 0 115 38t40 92q0 43 -33.5 68.5t-92.5 25.5zM281 58q86 0 130.5 45.5t44.5 109.5q0 52 -40.5 85t-109.5 33q-93 0 -139 -46.5t-46 -108.5q0 -51 42 -84.5t118 -33.5z" />
    <glyph glyph-name="nine" unicode="9" horiz-adv-x="589" 
d="M357 695q98 0 158.5 -56t60.5 -144q0 -116 -69 -224t-218 -225l-58 -46h-126v1l129 100q120 92 185 178q-56 -43 -138 -43q-88 0 -141 54t-53 132q0 45 16 91t47 88t85 68t122 26zM174 430q0 -57 35.5 -89.5t96.5 -32.5q90 0 137.5 55t47.5 130q0 56 -37.5 91.5
t-100.5 35.5q-60 0 -102 -31.5t-59.5 -73t-17.5 -85.5z" />
    <glyph glyph-name="colon" unicode=":" horiz-adv-x="256" 
d="M234 492l-23 -108h-102l23 108h102zM153 108l-23 -108h-102l23 108h102z" />
    <glyph glyph-name="semicolon" unicode=";" horiz-adv-x="256" 
d="M236 492l-23 -108h-102l23 108h102zM159 108l-22 -108l-89 -125h-54l83 125h-49l23 108h108z" />
    <glyph glyph-name="less" unicode="&#x3c;" horiz-adv-x="600" 
d="M540 529v-80l-384 -139l384 -139v-80l-480 180v78z" />
    <glyph glyph-name="equal" unicode="=" horiz-adv-x="600" 
d="M560 447v-74h-520v74h520zM560 247v-74h-520v74h520z" />
    <glyph glyph-name="greater" unicode="&#x3e;" horiz-adv-x="600" 
d="M60 529l480 -180v-78l-480 -180v80l384 139l-384 139v80z" />
    <glyph glyph-name="question" unicode="?" horiz-adv-x="491" 
d="M354 726q80 0 132.5 -40t52.5 -111q0 -18 -2 -34t-10 -32t-12.5 -26.5t-21 -27l-23.5 -24t-31.5 -27t-34 -26.5l-41.5 -31q-49 -37 -70.5 -60.5t-34.5 -61.5l-9 -29h-73l8 36q12 58 34.5 90t89.5 81q90 66 110 87q31 34 31 76q0 37 -28.5 58.5t-78.5 21.5q-90 0 -195 -82
l-44 63q125 99 251 99zM247 108l-23 -108h-102l23 108h102z" />
    <glyph glyph-name="at" unicode="@" horiz-adv-x="947" 
d="M529 681q170 0 274 -92t104 -250q0 -51 -11.5 -103.5t-35.5 -103.5t-69 -83.5t-103 -32.5q-109 0 -116 100q-60 -100 -166 -100q-71 0 -109.5 41.5t-38.5 114.5q0 70 28 137t83.5 113t124.5 46q53 0 84 -23.5t37 -63.5l14 79h71l-55 -262q-32 -125 46 -125q38 0 68 27
t46.5 68.5t24.5 84.5t8 81q0 140 -87 212.5t-225 72.5q-89 0 -161 -30.5t-116.5 -77.5t-74.5 -107t-42 -115.5t-12 -105.5q0 -148 88 -230.5t267 -82.5h207l-13 -60h-198q-208 0 -315.5 98.5t-107.5 270.5q0 60 14.5 124t50.5 133t88.5 122.5t137.5 88t190 34.5zM416 79
q56 0 96 44t55.5 94.5t15.5 93.5q0 47 -19.5 71t-64.5 24q-71 0 -117.5 -72t-46.5 -156q0 -99 81 -99z" />
    <glyph glyph-name="A" unicode="A" horiz-adv-x="670" 
d="M510 0l-26 181h-319l-102 -181h-98l408 710h121l107 -710h-91zM209 259h264l-13 93q-38 277 -39 290q-41 -80 -159 -291z" />
    <glyph glyph-name="B" unicode="B" horiz-adv-x="673" 
d="M523 367q44 -18 71.5 -55t27.5 -90q0 -91 -65 -156.5t-187 -65.5h-340l151 710h291q85 0 138 -43.5t53 -116.5q0 -64 -37.5 -114.5t-102.5 -68.5zM257 636l-48 -227h195q90 0 130 37.5t40 96.5q0 44 -32 68.5t-92 24.5h-193zM344 74q99 0 142.5 43t43.5 108
q0 52 -35.5 81t-105.5 29h-196l-55 -261h206z" />
    <glyph glyph-name="C" unicode="C" horiz-adv-x="667" 
d="M454 726q144 0 238 -118l-65 -54q-76 91 -180 91q-74 0 -133.5 -35.5t-94 -91.5t-52.5 -118t-18 -122q0 -98 50.5 -155.5t140.5 -57.5q60 0 108.5 26t113.5 84l57 -57q-130 -134 -278 -134q-136 0 -210.5 80t-74.5 205q0 58 13 118t43.5 121.5t74.5 109.5t113.5 78
t153.5 30z" />
    <glyph glyph-name="D" unicode="D" horiz-adv-x="709" 
d="M401 710q135 0 209.5 -75.5t74.5 -199.5q0 -58 -12 -116t-41 -116.5t-71 -102.5t-107.5 -72t-145.5 -28h-278l151 710h220zM390 633h-134l-118 -556h157q65 0 117.5 23t85.5 59.5t54.5 84.5t30.5 94t9 92q0 98 -51 150.5t-151 52.5z" />
    <glyph glyph-name="E" unicode="E" horiz-adv-x="611" 
d="M653 710l-17 -77h-380l-49 -229h354l-16 -77h-354l-53 -250h389l-16 -77h-481l151 710h472z" />
    <glyph glyph-name="F" unicode="F" horiz-adv-x="597" 
d="M653 710l-17 -77h-380l-51 -244h353l-17 -77h-353l-66 -312h-92l151 710h472z" />
    <glyph glyph-name="G" unicode="G" horiz-adv-x="742" 
d="M370 294l16 78h313l-78 -372h-72l12 92q-82 -107 -228 -107q-129 0 -203 80t-74 204q0 60 13.5 120.5t44.5 121.5t76.5 108t116 76.5t156.5 29.5q166 0 276 -135l-68 -54q-51 58 -99.5 83t-115.5 25q-61 0 -113 -23t-87 -60.5t-59.5 -86t-35.5 -99t-11 -100.5
q0 -95 50.5 -152t148.5 -57q86 0 154.5 54.5t87.5 145.5l6 28h-227z" />
    <glyph glyph-name="H" unicode="H" horiz-adv-x="734" 
d="M747 710l-151 -710h-93l70 330h-381l-70 -330h-92l151 710h92l-64 -303h381l64 303h93z" />
    <glyph glyph-name="I" unicode="I" horiz-adv-x="274" 
d="M280 710l-151 -710h-92l151 710h92z" />
    <glyph glyph-name="J" unicode="J" horiz-adv-x="466" 
d="M485 710l-113 -527q-21 -101 -73 -148t-139 -47q-100 0 -186 50l39 70q76 -39 141 -39q52 0 83 31t47 101l108 509h93z" />
    <glyph glyph-name="K" unicode="K" horiz-adv-x="659" 
d="M727 710l-328 -277l199 -433h-97l-172 374l-155 -132l-52 -242h-92l151 710h92l-74 -348l406 348h122z" />
    <glyph glyph-name="L" unicode="L" horiz-adv-x="533" 
d="M273 710l-135 -632h332l-16 -78h-424l151 710h92z" />
    <glyph glyph-name="M" unicode="M" horiz-adv-x="873" 
d="M735 710h152l-151 -710h-90l74 355l64 289l-161 -289l-199 -355h-82l-51 355q-31 214 -40 287q-26 -134 -59 -288l-75 -354h-87l151 710h142l45 -313q26 -178 35 -286q61 121 155 286z" />
    <glyph glyph-name="N" unicode="N" horiz-adv-x="736" 
d="M659 710h90l-151 -710h-100l-142 324q-83 192 -115 275q-23 -138 -54 -280l-68 -319h-89l151 710h100l144 -329q77 -177 111 -269q23 135 54 274z" />
    <glyph glyph-name="O" unicode="O" horiz-adv-x="749" 
d="M445 726q131 0 206 -79t75 -214q0 -59 -14 -120.5t-45 -120.5t-75 -105t-109 -74.5t-142 -28.5q-132 0 -208 78.5t-76 214.5q0 58 14 119t45.5 120.5t75.5 106t110 75t143 28.5zM443 645q-72 0 -130 -35t-92.5 -90t-52.5 -117t-18 -122q0 -103 51 -159.5t141 -56.5
q71 0 129 35t92 90t52 117.5t18 122.5q0 102 -50 158.5t-140 56.5z" />
    <glyph glyph-name="P" unicode="P" horiz-adv-x="654" 
d="M472 710q93 0 147.5 -50t54.5 -131q0 -46 -15.5 -88t-46.5 -78t-84.5 -57t-123.5 -21h-221l-61 -285h-92l151 710h291zM453 633h-197l-57 -271h192q102 0 147.5 45.5t45.5 115.5q0 55 -34 82.5t-97 27.5z" />
    <glyph glyph-name="Q" unicode="Q" horiz-adv-x="750" 
d="M726 433q0 -105 -44.5 -210.5t-128.5 -169.5l43 -79l-71 -38l-42 77q-66 -29 -141 -29q-132 0 -208.5 79t-76.5 215q0 58 14 118.5t45.5 120t75.5 106t109.5 75t142.5 28.5q131 0 206.5 -79t75.5 -214zM341 65q53 0 103 21l-69 126l71 38l65 -120q59 53 90.5 136
t31.5 164q0 102 -50 158.5t-140 56.5q-71 0 -129.5 -35t-92.5 -90t-52.5 -117t-18.5 -122q0 -103 51 -159.5t140 -56.5z" />
    <glyph glyph-name="R" unicode="R" horiz-adv-x="672" 
d="M667 529q0 -89 -55.5 -158t-165.5 -83l137 -288h-97l-134 285h-169l-61 -285h-92l151 710h283q93 0 148 -50t55 -131zM384 362q101 0 147 45.5t46 115.5q0 54 -35 82t-97 28h-189l-57 -271h185z" />
    <glyph glyph-name="S" unicode="S" horiz-adv-x="639" 
d="M376 725q147 0 264 -112l-57 -62q-101 95 -212 95q-73 0 -122.5 -37t-49.5 -93q0 -18 7.5 -32t18 -24t36 -21t47 -18.5t64.5 -20.5q118 -37 163.5 -79t45.5 -114q0 -87 -69 -155t-193 -68q-89 0 -159 30.5t-142 92.5l56 66q73 -60 128 -84.5t120 -24.5q76 0 122.5 40
t46.5 99q0 49 -37 72.5t-135 53.5q-117 36 -163 74t-46 107q0 85 71.5 150t194.5 65z" />
    <glyph glyph-name="T" unicode="T" horiz-adv-x="595" 
d="M664 710l-18 -78h-222l-133 -632h-93l134 632h-222l17 78h537z" />
    <glyph glyph-name="U" unicode="U" horiz-adv-x="695" 
d="M714 710l-104 -485q-51 -240 -295 -240q-120 0 -182.5 46.5t-62.5 136.5q0 32 9 74l100 468h92l-102 -476q-5 -28 -5 -50q0 -58 39.5 -88t114.5 -30q165 0 201 165l102 479h93z" />
    <glyph glyph-name="V" unicode="V" horiz-adv-x="638" 
d="M616 710h100l-392 -710h-118l-90 710h92l43 -352q23 -192 30 -274q63 127 143 273z" />
    <glyph glyph-name="W" unicode="W" horiz-adv-x="943" 
d="M911 710h96l-322 -710h-113l-19 326q-8 173 -9 266q-52 -119 -123 -267l-156 -325h-114l-20 710h90l7 -342q3 -122 1 -274q58 134 126 274l166 342h93l18 -342q8 -187 9 -274l117 274z" />
    <glyph glyph-name="X" unicode="X" horiz-adv-x="646" 
d="M703 710l-301 -340l175 -370h-96l-145 309l-269 -309h-108l336 380l-158 330h96l127 -271l236 271h107z" />
    <glyph glyph-name="Y" unicode="Y" horiz-adv-x="631" 
d="M607 710h108l-339 -407l-64 -303h-92l64 304l-163 406h94l127 -325z" />
    <glyph glyph-name="Z" unicode="Z" horiz-adv-x="623" 
d="M680 710l-16 -74l-542 -559h422l-16 -77h-539l16 74l541 559h-404l17 77h521z" />
    <glyph glyph-name="bracketleft" unicode="[" horiz-adv-x="328" 
d="M400 759l-14 -64h-111l-165 -774h112l-14 -63h-194l192 901h194z" />
    <glyph glyph-name="backslash" unicode="\" horiz-adv-x="417" 
d="M201 710l142 -710h-79l-143 710h80z" />
    <glyph glyph-name="bracketright" unicode="]" horiz-adv-x="328" 
d="M146 759h194l-192 -901h-194l13 63h112l165 774h-112z" />
    <glyph glyph-name="asciicircum" unicode="^" 
d="M335 710l199 -430h-76l-163 353l-162 -353h-77l200 430h79z" />
    <glyph glyph-name="underscore" unicode="_" horiz-adv-x="600" 
d="M525 -130v-60h-610v60h610z" />
    <glyph glyph-name="grave" unicode="`" horiz-adv-x="341" 
d="M178 716h91l42 -144h-69z" />
    <glyph glyph-name="a" unicode="a" horiz-adv-x="563" 
d="M460 492h80l-105 -492h-78l18 86q-65 -97 -173 -97q-81 0 -125.5 49t-44.5 135q0 57 17 114t49 106t84.5 80t116.5 31q116 0 144 -93zM221 61q81 0 135 80.5t54 176.5q0 114 -104 114q-61 0 -106 -43t-63.5 -97.5t-18.5 -108.5q0 -122 103 -122z" />
    <glyph glyph-name="b" unicode="b" horiz-adv-x="561" 
d="M360 503q79 0 123.5 -49t44.5 -134q0 -57 -16.5 -114t-47.5 -106.5t-83.5 -80.5t-116.5 -31q-58 0 -96.5 26t-54.5 70l-17 -84h-81l151 710h86l-63 -294q68 87 171 87zM257 60q62 0 106 43t61.5 97.5t17.5 109.5q0 121 -103 121q-84 0 -140 -79.5t-56 -174.5
q0 -52 31 -84.5t83 -32.5z" />
    <glyph glyph-name="c" unicode="c" horiz-adv-x="494" 
d="M428 361q-29 41 -56.5 57t-67.5 16q-45 0 -82 -24t-59 -61t-33.5 -77.5t-11.5 -78.5q0 -63 29.5 -98.5t86.5 -35.5q40 0 77 19t87 66l52 -52q-105 -106 -220 -106q-91 0 -145 55t-54 148q0 41 10.5 84t33 85t54 74.5t78.5 53t102 20.5q116 0 182 -97z" />
    <glyph glyph-name="d" unicode="d" horiz-adv-x="560" 
d="M502 710h86l-151 -710h-78l19 91q-69 -102 -179 -102q-82 0 -126 49t-44 135q0 57 17 114t49 106t84.5 80t116.5 31q110 0 144 -84zM218 61q82 0 138 79.5t56 174.5q0 54 -27 85.5t-80 31.5q-62 0 -107 -43t-64 -97.5t-19 -108.5q0 -62 25 -92t78 -30z" />
    <glyph glyph-name="e" unicode="e" horiz-adv-x="536" 
d="M483 232h-364q-3 -20 -3 -39q0 -61 30 -98t95 -37q83 0 172 94l56 -48q-102 -118 -232 -118q-96 0 -151 55.5t-55 150.5q0 52 17.5 105t50.5 101t89.5 78t126.5 30q81 0 132.5 -47.5t51.5 -123.5q0 -57 -16 -103zM310 437q-64 0 -109 -40t-67 -102h284q2 22 2 35
q0 49 -28.5 78t-81.5 29z" />
    <glyph glyph-name="f" unicode="f" horiz-adv-x="348" 
d="M352 654q-37 0 -57 -22t-31 -75l-14 -65h121l-13 -64h-122l-90 -428h-86l91 428h-95l13 64h95l17 82q33 151 165 151q57 0 102 -21l-24 -63q-35 13 -72 13z" />
    <glyph glyph-name="g" unicode="g" horiz-adv-x="554" 
d="M457 492h79l-102 -482q-22 -101 -78.5 -151t-153.5 -50q-113 0 -215 76l46 59q94 -64 170 -64q118 0 148 137l15 72q-64 -83 -163 -83q-79 0 -125.5 49.5t-46.5 131.5q0 51 16.5 105t47 102t82.5 79t115 31q114 0 147 -96zM221 78q85 0 136.5 76.5t51.5 158.5
q0 56 -28.5 87.5t-82.5 31.5q-58 0 -101.5 -39.5t-61.5 -90.5t-18 -101q0 -123 104 -123z" />
    <glyph glyph-name="h" unicode="h" horiz-adv-x="547" 
d="M351 506q72 0 111.5 -36t39.5 -94q0 -25 -9 -65l-65 -311h-86l65 310q6 27 6 49q0 75 -87 75q-57 0 -103.5 -40.5t-61.5 -114.5l-59 -279h-86l150 710h86l-59 -279q59 75 158 75z" />
    <glyph glyph-name="i" unicode="i" horiz-adv-x="224" 
d="M248 692l-22 -103h-86l22 103h86zM205 492l-104 -492h-86l104 492h86z" />
    <glyph glyph-name="j" unicode="j" horiz-adv-x="219" 
d="M248 692l-22 -103h-86l22 103h86zM-134 -115q40 -9 62 -9q37 0 53.5 21.5t28.5 72.5l110 522h86l-113 -536q-16 -78 -52 -114t-105 -36q-52 0 -95 16z" />
    <glyph glyph-name="k" unicode="k" horiz-adv-x="494" 
d="M519 492l-212 -190l139 -302h-87l-115 251l-109 -92l-34 -159h-86l151 710h86l-95 -448l257 230h105z" />
    <glyph glyph-name="l" unicode="l" horiz-adv-x="228" 
d="M255 710l-151 -710h-86l151 710h86z" />
    <glyph glyph-name="m" unicode="m" horiz-adv-x="816" 
d="M628 506q67 0 105 -34.5t38 -90.5q0 -17 -9 -67l-66 -314h-86l65 313q5 21 7 48q-2 72 -79 72q-51 0 -90.5 -40t-54.5 -115l-59 -278h-86l63 304q8 33 8 61q0 68 -76 68q-52 0 -91 -39.5t-55 -114.5l-59 -279h-86l104 492h79l-14 -66q55 80 151 80q53 0 86 -25t41 -66
q64 91 164 91z" />
    <glyph glyph-name="n" unicode="n" horiz-adv-x="549" 
d="M352 506q72 0 111.5 -35.5t39.5 -93.5q0 -31 -8 -66l-66 -311h-86l65 310q6 27 6 50q0 74 -87 74q-57 0 -103 -41t-62 -115l-59 -278h-86l104 492h80l-16 -72q60 86 167 86z" />
    <glyph glyph-name="o" unicode="o" horiz-adv-x="545" 
d="M308 506q93 0 147.5 -54.5t54.5 -152.5q0 -38 -9.5 -79.5t-31 -83.5t-52.5 -75t-78 -54t-104 -21q-95 0 -149 54.5t-54 154.5q0 48 16 99.5t47 100t87 80t126 31.5zM304 434q-59 0 -103.5 -40.5t-63.5 -93.5t-19 -105q0 -65 31 -101t89 -36q45 0 82 23.5t59 60.5t33.5 78
t11.5 79q0 65 -30.5 100t-89.5 35z" />
    <glyph glyph-name="p" unicode="p" horiz-adv-x="560" 
d="M359 503q79 0 123.5 -49t44.5 -134q0 -57 -16.5 -114t-47.5 -106.5t-83.5 -80.5t-116.5 -31q-109 0 -146 87l-55 -255h-86l143 672h81l-19 -86q68 97 178 97zM256 60q62 0 106 43t61.5 97.5t17.5 109.5q0 121 -103 121q-84 0 -140 -79.5t-56 -174.5q0 -52 31 -84.5
t83 -32.5z" />
    <glyph glyph-name="q" unicode="q" horiz-adv-x="562" 
d="M463 492h80l-143 -672h-86l55 258q-67 -89 -170 -89q-82 0 -126 49t-44 135q0 77 28.5 150.5t91 127t146.5 53.5q121 0 150 -98zM218 61q82 0 138 80t56 175q0 54 -28 85t-81 31q-62 0 -106.5 -43t-63 -97.5t-18.5 -108.5q0 -62 25 -92t78 -30z" />
    <glyph glyph-name="r" unicode="r" horiz-adv-x="364" 
d="M319 497q38 0 80 -19l-30 -72q-33 14 -63 14q-53 0 -92.5 -43.5t-57.5 -126.5l-53 -250h-86l104 492h81l-17 -77q52 82 134 82z" />
    <glyph glyph-name="s" unicode="s" horiz-adv-x="477" 
d="M256 506q112 0 199 -82l-50 -56q-75 69 -155 69q-46 0 -76 -22.5t-30 -52.5q0 -27 22 -40t88 -33q93 -28 130 -56t37 -85q0 -71 -55.5 -116.5t-150.5 -45.5q-115 0 -216 93l52 55q90 -78 170 -78q54 0 85 24t31 62q0 13 -6.5 23.5t-13.5 17t-26 14t-30.5 11.5t-38.5 12
q-7 2 -10 3q-88 24 -119.5 53t-31.5 76q0 61 52.5 107.5t142.5 46.5z" />
    <glyph glyph-name="t" unicode="t" horiz-adv-x="355" 
d="M234 428l-62 -289q-8 -42 1 -59t43 -17q30 0 69 13l7 -68q-42 -19 -98 -19q-72 0 -98.5 36t-9.5 112l62 291h-92l13 64h92l35 164h86l-35 -164h127l-14 -64h-126z" />
    <glyph glyph-name="u" unicode="u" horiz-adv-x="541" 
d="M432 492h86l-104 -492h-79l16 74q-60 -88 -163 -88q-72 0 -109.5 35t-37.5 93q0 32 8 67l65 311h86l-64 -304q-7 -38 -7 -57q0 -71 80 -71q58 0 104 42.5t63 124.5z" />
    <glyph glyph-name="v" unicode="v" horiz-adv-x="483" 
d="M423 492h92l-274 -492h-112l-64 492h86l21 -181q19 -170 26 -245q42 87 126 244z" />
    <glyph glyph-name="w" unicode="w" horiz-adv-x="740" 
d="M674 493h89l-242 -493h-108l-10 159q-9 128 -11 226l-107 -228l-75 -157h-108l-30 493h85l9 -184q5 -102 7 -235l109 234l91 185h82l13 -185q8 -111 10 -235q49 115 107 234z" />
    <glyph glyph-name="x" unicode="x" horiz-adv-x="480" 
d="M508 492l-215 -236l121 -256h-88l-91 199l-177 -199h-99l238 262l-112 230h88l82 -176l155 176h98z" />
    <glyph glyph-name="y" unicode="y" horiz-adv-x="483" 
d="M427 492h89l-311 -564q-37 -67 -73 -94.5t-95 -27.5q-41 0 -77 12l23 65q28 -6 48 -6q34 0 55.5 17t47.5 64l9 15l-76 519h86l22 -169q16 -121 30 -248l126 241z" />
    <glyph glyph-name="z" unicode="z" horiz-adv-x="478" 
d="M486 492l-13 -63l-361 -358h285l-15 -71h-396l14 64l360 358h-266l14 70h378z" />
    <glyph glyph-name="braceleft" unicode="{" horiz-adv-x="366" 
d="M437 759l-14 -64h-35q-48 0 -62 -18t-25 -73q-2 -9 -3 -14l-33 -153q-11 -54 -37.5 -85t-82.5 -40l-1 -2q73 -13 73 -77q0 -23 -6 -48l-33 -159q-12 -58 -12 -69q0 -19 12.5 -27.5t44.5 -8.5h35l-13 -63h-53q-59 0 -84 17.5t-25 63.5q0 29 9 71l34 162q5 20 5 41
q0 31 -18.5 44t-59.5 13l17 82q52 0 78 21.5t37 76.5l34 157q20 91 55 121.5t110 30.5h53z" />
    <glyph glyph-name="bar" unicode="|" horiz-adv-x="383" 
d="M256 800v-940h-76v940h76z" />
    <glyph glyph-name="braceright" unicode="}" horiz-adv-x="366" 
d="M146 759h53q58 0 83.5 -17t25.5 -63q0 -29 -9 -72l-34 -157q-5 -25 -5 -40q0 -31 19 -44.5t60 -13.5l-17 -82q-52 0 -78 -21.5t-38 -76.5l-34 -162q-19 -90 -54.5 -121t-110.5 -31h-53l13 63h35q47 0 62 18.5t26 71.5l3 15l33 159q12 54 38 85t83 40l1 2q-74 13 -74 78
q0 13 6 47l33 153q12 58 12 68q0 20 -12.5 28.5t-45.5 8.5h-35z" />
    <glyph glyph-name="asciitilde" unicode="~" horiz-adv-x="600" 
d="M195 403q46 0 116 -29.5t102 -29.5q53 0 58 55h72q-2 -56 -33.5 -90t-88.5 -34q-43 0 -116 30t-107 30q-30 0 -48 -15.5t-21 -39.5h-72q2 55 39 89t99 34z" />
    <glyph glyph-name="exclamdown" unicode="&#xa1;" horiz-adv-x="234" 
d="M99 385l23 108h102l-23 -108h-102zM-25 -217l46 214l83 295h53l-44 -296l-45 -213h-93z" />
    <glyph glyph-name="cent" unicode="&#xa2;" 
d="M435 141l53 -53q-55 -53 -101.5 -76t-99.5 -26l-18 -86h-67l20 90q-74 12 -114.5 60.5t-40.5 124.5q0 54 16 108.5t46.5 104t83.5 82t119 36.5l19 89h66l-20 -93q82 -14 140 -94l-60 -48q-46 60 -95 70l-79 -368q58 9 132 79zM154 184q0 -101 83 -121l79 369
q-53 -9 -91.5 -52.5t-54.5 -94.5t-16 -101z" />
    <glyph glyph-name="sterling" unicode="&#xa3;" 
d="M406 617q-148 0 -148 -183q0 -32 2 -84h214l-13 -67h-200q-6 -128 -94 -189q38 -3 99.5 -17.5t102.5 -14.5q54 0 129 38l23 -69q-79 -44 -152 -44q-48 0 -124.5 18.5t-114.5 18.5q-51 0 -118 -29l-12 70q92 33 131.5 82t41.5 136h-97l13 67h82q-2 48 -2 88q0 51 12 94
t38 80.5t75 59t116 21.5q119 0 210 -83l-56 -58q-76 65 -158 65z" />
    <glyph glyph-name="currency" unicode="&#xa4;" 
d="M486 575l44 -43l-66 -66q41 -54 41 -126t-41 -126l65 -65l-44 -43l-66 66q-53 -34 -122 -34q-71 0 -124 36l-69 -69l-43 43l68 68q-40 52 -40 124q0 70 39 123l-68 68l44 43l68 -69q52 37 125 37q68 0 121 -34zM297 477q-61 0 -100 -37.5t-39 -99.5t39 -99.5t100 -37.5
t100 37.5t39 99.5t-39 99.5t-100 37.5z" />
    <glyph glyph-name="yen" unicode="&#xa5;" 
d="M649 680l-212 -268h120l-14 -64h-157l-36 -45l-10 -47h184l-14 -64h-183l-41 -192h-88l41 192h-183l14 64h182l10 48l-16 44h-157l14 64h120l-97 268h90l102 -297l229 297h102z" />
    <glyph glyph-name="brokenbar" unicode="&#xa6;" horiz-adv-x="383" 
d="M250 800v-400h-76v400h76zM250 260v-400h-76v400h76z" />
    <glyph glyph-name="section" unicode="&#xa7;" 
d="M441 194q67 -34 67 -110q0 -70 -59 -114.5t-152 -44.5q-68 0 -119.5 18t-106.5 61l46 59q53 -40 91.5 -53.5t88.5 -13.5q58 0 93.5 24t35.5 61q0 34 -32.5 49.5t-122.5 35.5q-115 25 -167 61t-52 103q0 86 97 125q-67 34 -67 110q0 70 59 114.5t152 44.5q68 0 119.5 -18
t106.5 -61l-46 -59q-53 39 -92 53t-88 14q-58 0 -93.5 -24.5t-35.5 -61.5q0 -34 33 -49.5t122 -35.5q115 -25 167 -60.5t52 -102.5q0 -88 -97 -125zM136 334q0 -15 5.5 -27.5t19 -22t25.5 -16.5t36.5 -13.5t39 -10l45.5 -10.5q7 -1 18.5 -3.5t14.5 -3.5q114 20 114 88
q0 22 -12 38t-40.5 27.5t-51.5 17.5t-67 15l-36 9q-111 -21 -111 -88z" />
    <glyph glyph-name="dieresis" unicode="&#xa8;" horiz-adv-x="465" 
d="M281 692l-21 -103h-85l22 103h84zM457 692l-22 -103h-84l22 103h84z" />
    <glyph glyph-name="copyright" unicode="&#xa9;" horiz-adv-x="856" 
d="M449 723q156 0 262 -105.5t106 -262.5t-106 -262.5t-262 -105.5t-262 105.5t-106 262.5t106 262.5t262 105.5zM449 670q-133 0 -219.5 -90.5t-86.5 -224.5t86.5 -224.5t219.5 -90.5t220 90.5t87 224.5t-87 224.5t-220 90.5zM453 576q122 0 176 -107l-60 -28
q-42 74 -115 74q-62 0 -99 -45t-37 -115q0 -69 37.5 -114t98.5 -45q42 0 68.5 18t50.5 65l59 -30q-31 -60 -72 -87.5t-107 -27.5q-93 0 -150.5 63t-57.5 158t57.5 158t150.5 63z" />
    <glyph glyph-name="ordfeminine" unicode="&#xaa;" horiz-adv-x="416" 
d="M302 715q82 0 114 -39t20 -92l-55 -256h-63l11 49q-50 -61 -138 -61q-54 0 -85.5 24t-31.5 65q0 62 47 96t153 51l91 15l3 14q12 77 -73 77q-63 0 -135 -62l-38 43q84 76 180 76zM207 373q51 0 89.5 26.5t49.5 75.5l8 41l-76 -15q-71 -14 -103 -33t-32 -52q0 -43 64 -43z
" />
    <glyph glyph-name="guillemotleft" unicode="&#xab;" horiz-adv-x="571" 
d="M339 471l-193 -225l92 -211h-81l-94 218l186 218h90zM557 471l-194 -225l93 -211h-81l-94 218l186 218h90z" />
    <glyph glyph-name="logicalnot" unicode="&#xac;" horiz-adv-x="600" 
d="M40 347h520v-273h-75v199h-445v74z" />
    <glyph glyph-name="registered" unicode="&#xae;" horiz-adv-x="556" 
d="M336 722q94 0 157.5 -63.5t63.5 -157.5t-63.5 -157.5t-157.5 -63.5t-157.5 63.5t-63.5 157.5t63.5 157.5t157.5 63.5zM336 684q-78 0 -128 -52t-50 -131t50 -131t128 -52q77 0 127.5 52.5t50.5 130.5t-50.5 130.5t-127.5 52.5zM353 629q35 0 57.5 -22.5t22.5 -55.5
q0 -52 -49 -71l62 -100h-50l-57 95h-43v-95h-45v249h102zM344 588h-48v-75h48q45 0 45 38q0 16 -11.5 26.5t-33.5 10.5z" />
    <glyph glyph-name="macron" unicode="&#xaf;" horiz-adv-x="468" 
d="M458 659l-14 -64h-271l13 64h272z" />
    <glyph glyph-name="degree" unicode="&#xb0;" horiz-adv-x="409" 
d="M272 722q61 0 103 -40.5t42 -100.5q0 -61 -42 -101.5t-103 -40.5q-60 0 -102 40.5t-42 101.5q0 60 42 100.5t102 40.5zM272 664q-36 0 -59 -23.5t-23 -59.5q0 -37 23 -60.5t59 -23.5q37 0 60 23.5t23 60.5q0 36 -23 59.5t-60 23.5z" />
    <glyph glyph-name="plusminus" unicode="&#xb1;" horiz-adv-x="600" 
d="M338 662v-223h222v-74h-222v-223h-76v223h-222v74h222v223h76zM560 74v-74h-520v74h520z" />
    <glyph glyph-name="uni00B2" unicode="&#xb2;" horiz-adv-x="408" 
d="M251 449q-49 -23 -75.5 -41.5t-38.5 -46.5h244l-14 -59h-316l6 28q14 62 56.5 101.5t110.5 70.5q12 6 35 16t32 14.5l24.5 12.5t21.5 13.5t13.5 13.5t10 16.5t2.5 19.5q0 25 -19.5 38t-51.5 13q-56 0 -129 -51l-32 50q82 62 165 62q62 0 99 -29t37 -74q0 -57 -37.5 -89.5
t-143.5 -78.5z" />
    <glyph glyph-name="uni00B3" unicode="&#xb3;" horiz-adv-x="407" 
d="M432 710l-12 -58l-152 -106q57 0 88.5 -29.5t31.5 -75.5q0 -60 -45 -104.5t-124 -44.5q-90 0 -167 52l40 50q70 -41 127 -41q45 0 71.5 22.5t26.5 57.5q0 29 -20 46t-61 17q-37 0 -51 -7l-26 43l170 119h-197l12 59h288z" />
    <glyph glyph-name="acute" unicode="&#xb4;" horiz-adv-x="341" 
d="M369 716l-125 -144h-79l101 144h103z" />
    <glyph glyph-name="paragraph" unicode="&#xb6;" horiz-adv-x="726" 
d="M412 710v-810h-71v372h-77q-102 0 -164.5 59.5t-62.5 159.5t62.5 159.5t164.5 59.5h148zM567 710v-810h-72v810h72z" />
    <glyph glyph-name="periodcentered" unicode="&#xb7;" horiz-adv-x="216" 
d="M185 367l-23 -108h-102l23 108h102z" />
    <glyph glyph-name="cedilla" unicode="&#xb8;" horiz-adv-x="413" 
d="M153 -67q36 0 62 -19.5t26 -53.5q0 -39 -29 -66.5t-84 -27.5q-58 0 -113 34l30 42q46 -26 81 -26q30 0 45.5 11.5t15.5 30.5q0 15 -15 24.5t-38 9.5q-17 0 -29 -3l-22 26l69 104l40 -19l-46 -67h7z" />
    <glyph glyph-name="uni00B9" unicode="&#xb9;" horiz-adv-x="325" 
d="M253 710h54l-87 -408h-69l66 317l-84 -53l-26 52z" />
    <glyph glyph-name="ordmasculine" unicode="&#xba;" horiz-adv-x="452" 
d="M319 717q69 0 111 -42t42 -109q0 -56 -22.5 -110.5t-75.5 -96t-125 -41.5q-69 0 -111 42t-42 110q0 55 22.5 109.5t75.5 96t125 41.5zM314 659q-69 0 -109 -60t-40 -125q0 -45 23.5 -71t65.5 -26q69 0 108.5 59.5t39.5 124.5q0 45 -23 71.5t-65 26.5z" />
    <glyph glyph-name="guillemotright" unicode="&#xbb;" horiz-adv-x="571" 
d="M198 471l95 -218l-186 -218h-90l193 225l-93 211h81zM416 471l95 -218l-187 -218h-90l194 225l-93 211h81z" />
    <glyph glyph-name="onequarter" unicode="&#xbc;" horiz-adv-x="870" 
d="M712 695l47 -38l-620 -672l-45 39zM218 589l-85 -53l-26 52l146 92h54l-87 -408h-69zM761 149h56l-12 -57h-56l-19 -92h-70l20 92h-208l14 65l214 251h82l-221 -259h131l18 86h70z" />
    <glyph glyph-name="onehalf" unicode="&#xbd;" horiz-adv-x="933" 
d="M712 695l47 -38l-620 -672l-45 39zM218 589l-85 -53l-26 52l146 92h54l-87 -408h-69zM714 147q-49 -23 -75.5 -41.5t-38.5 -46.5h244l-14 -59h-316l6 28q14 62 56.5 101.5t110.5 70.5q12 6 35 16t32 14.5l24.5 12.5t21.5 13.5t13.5 13.5t10 16.5t2.5 19.5q0 25 -19 38
t-52 13q-56 0 -129 -51l-32 50q82 62 165 62q62 0 99 -29t37 -74q0 -57 -37.5 -89.5t-143.5 -78.5z" />
    <glyph glyph-name="threequarters" unicode="&#xbe;" horiz-adv-x="967" 
d="M809 695l47 -38l-620 -672l-45 39zM389 411q0 -60 -45 -104.5t-124 -44.5q-90 0 -167 52l40 50q70 -41 127 -41q45 0 71.5 22.5t26.5 57.5q0 29 -20 46t-61 17q-37 0 -51 -7l-26 43l170 119h-197l12 59h288l-12 -58l-153 -106q57 0 89 -29.5t32 -75.5zM859 149h56
l-12 -57h-56l-19 -92h-70l20 92h-208l14 65l214 251h82l-221 -259h131l18 86h70z" />
    <glyph glyph-name="questiondown" unicode="&#xbf;" horiz-adv-x="464" 
d="M232 385l22 108h103l-23 -108h-102zM124 -233q-80 0 -132.5 40t-52.5 111q0 18 2 34t10 32t12.5 26.5t21 27l23.5 24t31.5 27t34 26.5l41.5 31q50 37 71.5 60.5t34.5 61.5l9 29h73l-8 -35q-12 -59 -34.5 -91t-90.5 -81q-89 -66 -108 -86q-33 -35 -33 -77
q0 -37 28.5 -58.5t78.5 -21.5q92 0 195 83l44 -64q-125 -99 -251 -99z" />
    <glyph glyph-name="Agrave" unicode="&#xc0;" horiz-adv-x="670" 
d="M480 776h-69l-64 144h91zM510 0l-26 181h-319l-102 -181h-98l408 710h121l107 -710h-91zM209 259h264l-13 93q-38 277 -39 290q-41 -80 -159 -291z" />
    <glyph glyph-name="Aacute" unicode="&#xc1;" horiz-adv-x="670" 
d="M610 920l-125 -144h-79l101 144h103zM373 710h121l107 -710h-91l-26 181h-319l-102 -181h-98zM209 259h264l-13 93q-38 277 -39 290q-41 -80 -159 -291z" />
    <glyph glyph-name="Acircumflex" unicode="&#xc2;" horiz-adv-x="670" 
d="M474 877l-102 -101h-79l131 144h108l69 -144h-68zM373 710h121l107 -710h-91l-26 181h-319l-102 -181h-98zM209 259h264l-13 93q-38 277 -39 290q-41 -80 -159 -291z" />
    <glyph glyph-name="Atilde" unicode="&#xc3;" horiz-adv-x="670" 
d="M400 836q-33 0 -46 -49h-56q11 51 39.5 80t66.5 29q30 0 69 -25.5t54 -25.5q32 0 42 50h56q-10 -51 -35.5 -80t-59.5 -29q-28 0 -68 25t-62 25zM373 710h121l107 -710h-91l-26 181h-319l-102 -181h-98zM209 259h264l-13 93q-38 277 -39 290q-41 -80 -159 -291z" />
    <glyph glyph-name="Adieresis" unicode="&#xc4;" horiz-adv-x="670" 
d="M427 896l-21 -103h-85l22 103h84zM603 896l-22 -103h-84l22 103h84zM373 710h121l107 -710h-91l-26 181h-319l-102 -181h-98zM209 259h264l-13 93q-38 277 -39 290q-41 -80 -159 -291z" />
    <glyph glyph-name="Aring" unicode="&#xc5;" horiz-adv-x="675" 
d="M516 0l-26 181h-325l-103 -181h-97l405 705q-39 31 -39 84t38 90t92 37q51 0 82 -31.5t31 -78.5q0 -36 -19.5 -66.5t-52.5 -46.5l104 -693h-90zM459 870q-31 0 -53.5 -24t-22.5 -57q0 -27 17.5 -45t43.5 -18q33 0 55.5 22.5t22.5 56.5q0 29 -17 47t-46 18zM209 259h270
l-14 92q-31 215 -39 301q-52 -103 -165 -301z" />
    <glyph glyph-name="AE" unicode="&#xc6;" horiz-adv-x="964" 
d="M989 633h-380l-49 -229h354l-17 -77h-353l-53 -250h389l-16 -77h-482l39 181h-235l-132 -181h-99l518 710h533zM242 259h195l81 380z" />
    <glyph glyph-name="Ccedilla" unicode="&#xc7;" horiz-adv-x="667" 
d="M447 645q-74 0 -133.5 -35.5t-94 -91.5t-52.5 -118t-18 -122q0 -98 50.5 -155.5t140.5 -57.5q60 0 108.5 26t113.5 84l57 -57q-130 -134 -278 -134h-10l-36 -51h7q36 0 62 -19.5t26 -53.5q0 -39 -29 -66.5t-84 -27.5q-58 0 -113 34l30 42q46 -26 81 -26q30 0 45.5 11.5
t15.5 30.5q0 15 -15 24.5t-38 9.5q-17 0 -29 -3l-22 26l49 74q-109 17 -167 93.5t-58 186.5q0 58 13 118t43.5 121.5t74.5 109.5t113.5 78t153.5 30q144 0 238 -118l-65 -54q-76 91 -180 91z" />
    <glyph glyph-name="Egrave" unicode="&#xc8;" horiz-adv-x="611" 
d="M330 920h91l42 -144h-69zM653 710l-17 -77h-380l-49 -229h354l-16 -77h-354l-53 -250h389l-16 -77h-481l151 710h472z" />
    <glyph glyph-name="Eacute" unicode="&#xc9;" horiz-adv-x="611" 
d="M593 920l-125 -144h-79l101 144h103zM653 710l-17 -77h-380l-49 -229h354l-16 -77h-354l-53 -250h389l-16 -77h-481l151 710h472z" />
    <glyph glyph-name="Ecircumflex" unicode="&#xca;" horiz-adv-x="611" 
d="M516 776l-59 101l-102 -101h-79l131 144h108l69 -144h-68zM653 710l-17 -77h-380l-49 -229h354l-16 -77h-354l-53 -250h389l-16 -77h-481l151 710h472z" />
    <glyph glyph-name="Edieresis" unicode="&#xcb;" horiz-adv-x="611" 
d="M410 896l-21 -103h-85l22 103h84zM586 896l-22 -103h-84l22 103h84zM653 710l-17 -77h-380l-49 -229h354l-16 -77h-354l-53 -250h389l-16 -77h-481l151 710h472z" />
    <glyph glyph-name="Igrave" unicode="&#xcc;" horiz-adv-x="274" 
d="M147 920h91l42 -144h-69zM280 710l-151 -710h-92l151 710h92z" />
    <glyph glyph-name="Iacute" unicode="&#xcd;" horiz-adv-x="274" 
d="M410 920l-125 -144h-79l101 144h103zM280 710l-151 -710h-92l151 710h92z" />
    <glyph glyph-name="Icircumflex" unicode="&#xce;" horiz-adv-x="274" 
d="M333 776l-59 101l-102 -101h-79l131 144h108l69 -144h-68zM280 710l-151 -710h-92l151 710h92z" />
    <glyph glyph-name="Idieresis" unicode="&#xcf;" horiz-adv-x="274" 
d="M227 896l-21 -103h-85l22 103h84zM403 896l-22 -103h-84l22 103h84zM280 710l-151 -710h-92l151 710h92z" />
    <glyph glyph-name="Eth" unicode="&#xd0;" horiz-adv-x="738" 
d="M429 710q136 0 210.5 -75.5t74.5 -199.5q0 -74 -20.5 -146.5t-63 -139t-119 -108t-175.5 -41.5h-278l70 328h-85l17 77h84l65 305h220zM323 77q65 0 118 23t85.5 59.5t54.5 84.5t31 94t9 92q0 98 -51 150.5t-152 52.5h-133l-49 -228h187l-17 -77h-186l-53 -251h156z" />
    <glyph glyph-name="Ntilde" unicode="&#xd1;" horiz-adv-x="736" 
d="M431 836q-33 0 -46 -49h-56q11 51 39.5 80t66.5 29q31 0 69 -25.5t54 -25.5q32 0 42 50h56q-10 -51 -35.5 -80t-59.5 -29q-27 0 -68 25t-62 25zM659 710h90l-151 -710h-100l-142 324q-83 192 -115 275q-23 -138 -54 -280l-68 -319h-89l151 710h100l144 -329
q77 -177 111 -269q23 135 54 274z" />
    <glyph glyph-name="Ograve" unicode="&#xd2;" horiz-adv-x="749" 
d="M384 920h91l42 -144h-69zM445 726q131 0 206 -79t75 -214q0 -59 -14 -120.5t-45 -120.5t-75 -105t-109 -74.5t-142 -28.5q-132 0 -208 78.5t-76 214.5q0 58 14 119t45.5 120.5t75.5 106t110 75t143 28.5zM443 645q-72 0 -130 -35t-92.5 -90t-52.5 -117t-18 -122
q0 -103 51 -159.5t141 -56.5q71 0 129 35t92 90t52 117.5t18 122.5q0 102 -50 158.5t-140 56.5z" />
    <glyph glyph-name="Oacute" unicode="&#xd3;" horiz-adv-x="749" 
d="M647 920l-125 -144h-79l101 144h103zM445 726q131 0 206 -79t75 -214q0 -59 -14 -120.5t-45 -120.5t-75 -105t-109 -74.5t-142 -28.5q-132 0 -208 78.5t-76 214.5q0 58 14 119t45.5 120.5t75.5 106t110 75t143 28.5zM443 645q-72 0 -130 -35t-92.5 -90t-52.5 -117
t-18 -122q0 -103 51 -159.5t141 -56.5q71 0 129 35t92 90t52 117.5t18 122.5q0 102 -50 158.5t-140 56.5z" />
    <glyph glyph-name="Ocircumflex" unicode="&#xd4;" horiz-adv-x="749" 
d="M570 776l-59 101l-102 -101h-79l131 144h108l69 -144h-68zM445 726q131 0 206 -79t75 -214q0 -59 -14 -120.5t-45 -120.5t-75 -105t-109 -74.5t-142 -28.5q-132 0 -208 78.5t-76 214.5q0 58 14 119t45.5 120.5t75.5 106t110 75t143 28.5zM443 645q-72 0 -130 -35
t-92.5 -90t-52.5 -117t-18 -122q0 -103 51 -159.5t141 -56.5q71 0 129 35t92 90t52 117.5t18 122.5q0 102 -50 158.5t-140 56.5z" />
    <glyph glyph-name="Otilde" unicode="&#xd5;" horiz-adv-x="749" 
d="M441 896q31 0 69 -25.5t54 -25.5q32 0 42 50h56q-10 -51 -35.5 -80t-59.5 -29q-27 0 -68 25t-62 25q-33 0 -46 -49h-56q11 51 39.5 80t66.5 29zM445 726q131 0 206 -79t75 -214q0 -59 -14 -120.5t-45 -120.5t-75 -105t-109 -74.5t-142 -28.5q-132 0 -208 78.5t-76 214.5
q0 58 14 119t45.5 120.5t75.5 106t110 75t143 28.5zM443 645q-72 0 -130 -35t-92.5 -90t-52.5 -117t-18 -122q0 -103 51 -159.5t141 -56.5q71 0 129 35t92 90t52 117.5t18 122.5q0 102 -50 158.5t-140 56.5z" />
    <glyph glyph-name="Odieresis" unicode="&#xd6;" horiz-adv-x="749" 
d="M465 896l-21 -103h-85l22 103h84zM641 896l-22 -103h-84l22 103h84zM445 726q131 0 206 -79t75 -214q0 -59 -14 -120.5t-45 -120.5t-75 -105t-109 -74.5t-142 -28.5q-132 0 -208 78.5t-76 214.5q0 58 14 119t45.5 120.5t75.5 106t110 75t143 28.5zM443 645
q-72 0 -130 -35t-92.5 -90t-52.5 -117t-18 -122q0 -103 51 -159.5t141 -56.5q71 0 129 35t92 90t52 117.5t18 122.5q0 102 -50 158.5t-140 56.5z" />
    <glyph glyph-name="multiply" unicode="&#xd7;" horiz-adv-x="600" 
d="M529 488l-177 -178l177 -178l-51 -51l-178 177l-178 -177l-52 51l178 178l-178 178l52 52l178 -178l178 178z" />
    <glyph glyph-name="Oslash" unicode="&#xd8;" horiz-adv-x="750" 
d="M764 669l-76 -74q38 -68 38 -162q0 -59 -14 -120.5t-45 -120.5t-75 -105t-109 -74.5t-141 -28.5q-126 0 -203 74l-62 -61l-48 44l70 68q-42 68 -42 169q0 58 14 118.5t45.5 120t75.5 106t109.5 75t142.5 28.5q129 0 206 -79l67 66zM150 281q0 -60 18 -105l418 409
q-49 60 -143 60q-71 0 -129.5 -35t-92.5 -90t-52.5 -117t-18.5 -122zM633 430q0 55 -15 97l-416 -407q50 -55 139 -55q58 0 107.5 23t82.5 61t56.5 86t34.5 97.5t11 97.5z" />
    <glyph glyph-name="Ugrave" unicode="&#xd9;" horiz-adv-x="695" 
d="M349 920h91l42 -144h-69zM714 710l-104 -485q-51 -240 -295 -240q-120 0 -182.5 46.5t-62.5 136.5q0 32 9 74l100 468h92l-102 -476q-5 -28 -5 -50q0 -58 39.5 -88t114.5 -30q165 0 201 165l102 479h93z" />
    <glyph glyph-name="Uacute" unicode="&#xda;" horiz-adv-x="695" 
d="M612 920l-125 -144h-79l101 144h103zM714 710l-104 -485q-51 -240 -295 -240q-120 0 -182.5 46.5t-62.5 136.5q0 32 9 74l100 468h92l-102 -476q-5 -28 -5 -50q0 -58 39.5 -88t114.5 -30q165 0 201 165l102 479h93z" />
    <glyph glyph-name="Ucircumflex" unicode="&#xdb;" horiz-adv-x="695" 
d="M535 776l-59 101l-102 -101h-79l131 144h108l69 -144h-68zM714 710l-104 -485q-51 -240 -295 -240q-120 0 -182.5 46.5t-62.5 136.5q0 32 9 74l100 468h92l-102 -476q-5 -28 -5 -50q0 -58 39.5 -88t114.5 -30q165 0 201 165l102 479h93z" />
    <glyph glyph-name="Udieresis" unicode="&#xdc;" horiz-adv-x="695" 
d="M430 896l-21 -103h-85l22 103h84zM606 896l-22 -103h-84l22 103h84zM714 710l-104 -485q-51 -240 -295 -240q-120 0 -182.5 46.5t-62.5 136.5q0 32 9 74l100 468h92l-102 -476q-5 -28 -5 -50q0 -58 39.5 -88t114.5 -30q165 0 201 165l102 479h93z" />
    <glyph glyph-name="Yacute" unicode="&#xdd;" horiz-adv-x="631" 
d="M581 920l-125 -144h-79l101 144h103zM607 710h108l-339 -407l-64 -303h-92l64 304l-163 406h94l127 -325z" />
    <glyph glyph-name="Thorn" unicode="&#xde;" horiz-adv-x="655" 
d="M441 581q97 0 151 -50t54 -131q0 -46 -15.5 -88t-46.5 -77.5t-84.5 -56.5t-123.5 -21h-221l-33 -157h-92l151 710h92l-27 -129h195zM364 233q101 0 147 45.5t46 115.5q0 110 -135 110h-193l-57 -271h192z" />
    <glyph glyph-name="germandbls" unicode="&#xdf;" horiz-adv-x="576" 
d="M428 395q51 -21 79.5 -64t28.5 -103q0 -97 -62.5 -166.5t-181.5 -69.5q-71 0 -131 22l27 67q52 -16 102 -16q77 0 120 48t43 116q0 60 -40.5 95.5t-113.5 35.5h-24l14 68h24q76 0 112 41t36 92q0 40 -27.5 65.5t-75.5 25.5q-119 0 -149 -144l-108 -508h-86l110 519
q44 205 238 205q86 0 133 -46t47 -112q0 -54 -30 -101t-85 -70z" />
    <glyph glyph-name="agrave" unicode="&#xe0;" horiz-adv-x="563" 
d="M382 572h-69l-64 144h91zM460 492h80l-105 -492h-78l18 86q-65 -97 -173 -97q-81 0 -125.5 49t-44.5 135q0 57 17 114t49 106t84.5 80t116.5 31q116 0 144 -93zM221 61q81 0 135 80.5t54 176.5q0 114 -104 114q-61 0 -106 -43t-63.5 -97.5t-18.5 -108.5q0 -122 103 -122z
" />
    <glyph glyph-name="aacute" unicode="&#xe1;" horiz-adv-x="563" 
d="M512 716l-125 -144h-79l101 144h103zM460 492h80l-105 -492h-78l18 86q-65 -97 -173 -97q-81 0 -125.5 49t-44.5 135q0 57 17 114t49 106t84.5 80t116.5 31q116 0 144 -93zM221 61q81 0 135 80.5t54 176.5q0 114 -104 114q-61 0 -106 -43t-63.5 -97.5t-18.5 -108.5
q0 -122 103 -122z" />
    <glyph glyph-name="acircumflex" unicode="&#xe2;" horiz-adv-x="563" 
d="M376 673l-102 -101h-79l131 144h108l69 -144h-68zM460 492h80l-105 -492h-78l18 86q-65 -97 -173 -97q-81 0 -125.5 49t-44.5 135q0 57 17 114t49 106t84.5 80t116.5 31q116 0 144 -93zM221 61q81 0 135 80.5t54 176.5q0 114 -104 114q-61 0 -106 -43t-63.5 -97.5
t-18.5 -108.5q0 -122 103 -122z" />
    <glyph glyph-name="atilde" unicode="&#xe3;" horiz-adv-x="563" 
d="M302 632q-33 0 -46 -49h-56q11 51 39.5 80t66.5 29q30 0 69 -25.5t54 -25.5q32 0 42 50h56q-10 -51 -35.5 -80t-59.5 -29q-28 0 -68 25t-62 25zM460 492h80l-105 -492h-78l18 86q-65 -97 -173 -97q-81 0 -125.5 49t-44.5 135q0 57 17 114t49 106t84.5 80t116.5 31
q116 0 144 -93zM221 61q81 0 135 80.5t54 176.5q0 114 -104 114q-61 0 -106 -43t-63.5 -97.5t-18.5 -108.5q0 -122 103 -122z" />
    <glyph glyph-name="adieresis" unicode="&#xe4;" horiz-adv-x="563" 
d="M329 692l-21 -103h-85l22 103h84zM505 692l-22 -103h-84l22 103h84zM460 492h80l-105 -492h-78l18 86q-65 -97 -173 -97q-81 0 -125.5 49t-44.5 135q0 57 17 114t49 106t84.5 80t116.5 31q116 0 144 -93zM221 61q81 0 135 80.5t54 176.5q0 114 -104 114q-61 0 -106 -43
t-63.5 -97.5t-18.5 -108.5q0 -122 103 -122z" />
    <glyph glyph-name="aring" unicode="&#xe5;" horiz-adv-x="563" 
d="M359 558q-44 0 -71 26.5t-27 66.5q0 48 33.5 81.5t81.5 33.5q45 0 71.5 -26.5t26.5 -67.5q0 -48 -32.5 -81t-82.5 -33zM373 723q-27 0 -45.5 -21t-18.5 -51q0 -24 14 -37t37 -13q29 0 47.5 20.5t18.5 50.5q0 51 -53 51zM460 492h80l-105 -492h-78l18 86q-65 -97 -173 -97
q-81 0 -125.5 49t-44.5 135q0 57 17 114t49 106t84.5 80t116.5 31q116 0 144 -93zM221 61q81 0 135 80.5t54 176.5q0 114 -104 114q-61 0 -106 -43t-63.5 -97.5t-18.5 -108.5q0 -122 103 -122z" />
    <glyph glyph-name="ae" unicode="&#xe6;" horiz-adv-x="870" 
d="M817 232h-364q-3 -21 -3 -41q0 -59 30.5 -96t94.5 -37q48 0 87.5 22t86.5 71l55 -47q-100 -118 -233 -118q-118 0 -173 84q-93 -86 -213 -86q-76 0 -124 35.5t-48 94.5q0 147 233 170l136 13l6 25q26 113 -93 113q-84 0 -172 -80l-49 54q108 97 227 97q126 0 159 -77
q74 77 191 77q81 0 131.5 -49t50.5 -126q0 -49 -16 -99zM645 437q-66 0 -110 -40t-66 -102h282q3 20 3 35q0 50 -28.5 78.5t-80.5 28.5zM195 55q99 0 175 84q-5 27 -5 49q0 21 3 45l-113 -13q-83 -10 -119.5 -33t-36.5 -65q0 -29 26 -48t70 -19z" />
    <glyph glyph-name="ccedilla" unicode="&#xe7;" horiz-adv-x="494" 
d="M234 59q40 0 77 19t87 66l52 -52q-103 -105 -218 -106l-36 -53h6q36 0 62 -19.5t26 -53.5q0 -39 -28.5 -66.5t-83.5 -27.5q-58 0 -113 34l30 42q46 -26 81 -26q29 0 44.5 11.5t15.5 30.5q0 16 -14.5 25t-37.5 9q-17 0 -29 -3l-23 26l51 75q-71 14 -111.5 66.5
t-40.5 132.5q0 41 10.5 84t33 85t54 74.5t78.5 53t102 20.5q116 0 182 -97l-63 -48q-29 41 -56.5 57t-67.5 16q-45 0 -82 -24t-59 -61t-33.5 -77.5t-11.5 -78.5q0 -63 29.5 -98.5t86.5 -35.5z" />
    <glyph glyph-name="egrave" unicode="&#xe8;" horiz-adv-x="536" 
d="M377 572h-69l-64 144h91zM483 232h-364q-3 -20 -3 -39q0 -61 30 -98t95 -37q83 0 172 94l56 -48q-102 -118 -232 -118q-96 0 -151 55.5t-55 150.5q0 52 17.5 105t50.5 101t89.5 78t126.5 30q81 0 132.5 -47.5t51.5 -123.5q0 -57 -16 -103zM310 437q-64 0 -109 -40
t-67 -102h284q2 22 2 35q0 49 -28.5 78t-81.5 29z" />
    <glyph glyph-name="eacute" unicode="&#xe9;" horiz-adv-x="536" 
d="M507 716l-125 -144h-79l101 144h103zM315 506q81 0 132.5 -47.5t51.5 -123.5q0 -57 -16 -103h-364q-3 -20 -3 -39q0 -61 30 -98t95 -37q83 0 172 94l56 -48q-102 -118 -232 -118q-96 0 -151 55.5t-55 150.5q0 52 17.5 105t50.5 101t89.5 78t126.5 30zM310 437
q-64 0 -109 -40t-67 -102h284q2 22 2 35q0 49 -28.5 78t-81.5 29z" />
    <glyph glyph-name="ecircumflex" unicode="&#xea;" horiz-adv-x="536" 
d="M371 673l-102 -101h-79l131 144h108l69 -144h-68zM483 232h-364q-3 -20 -3 -39q0 -61 30 -98t95 -37q83 0 172 94l56 -48q-102 -118 -232 -118q-96 0 -151 55.5t-55 150.5q0 52 17.5 105t50.5 101t89.5 78t126.5 30q81 0 132.5 -47.5t51.5 -123.5q0 -57 -16 -103z
M310 437q-64 0 -109 -40t-67 -102h284q2 22 2 35q0 49 -28.5 78t-81.5 29z" />
    <glyph glyph-name="edieresis" unicode="&#xeb;" horiz-adv-x="536" 
d="M324 692l-21 -103h-85l22 103h84zM500 692l-22 -103h-84l22 103h84zM315 506q81 0 132.5 -47.5t51.5 -123.5q0 -57 -16 -103h-364q-3 -20 -3 -39q0 -61 30 -98t95 -37q83 0 172 94l56 -48q-102 -118 -232 -118q-96 0 -151 55.5t-55 150.5q0 52 17.5 105t50.5 101t89.5 78
t126.5 30zM310 437q-64 0 -109 -40t-67 -102h284q2 22 2 35q0 49 -28.5 78t-81.5 29z" />
    <glyph glyph-name="igrave" unicode="&#xec;" horiz-adv-x="224" 
d="M79 716h91l42 -144h-69zM205 492l-104 -492h-86l104 492h86z" />
    <glyph glyph-name="iacute" unicode="&#xed;" horiz-adv-x="224" 
d="M342 716l-125 -144h-79l101 144h103zM205 492l-104 -492h-86l104 492h86z" />
    <glyph glyph-name="icircumflex" unicode="&#xee;" horiz-adv-x="224" 
d="M265 572l-59 101l-102 -101h-79l131 144h108l69 -144h-68zM205 492l-104 -492h-86l104 492h86z" />
    <glyph glyph-name="idieresis" unicode="&#xef;" horiz-adv-x="224" 
d="M160 692l-21 -103h-85l22 103h84zM336 692l-22 -103h-84l22 103h84zM205 492l-104 -492h-86l104 492h86z" />
    <glyph glyph-name="eth" unicode="&#xf0;" horiz-adv-x="547" 
d="M440 618q79 -79 79 -210q0 -70 -15.5 -140t-48 -135.5t-93.5 -106.5t-141 -41q-94 0 -143.5 54t-49.5 137q0 49 15 99.5t44.5 96t80 74t114.5 28.5q63 0 102.5 -27.5t55.5 -72.5q1 13 1 39q0 103 -72 164l-118 -67l-28 43l101 57q-30 18 -69 36l-41 18l40 59l40 -16
q62 -25 105 -55l100 57l27 -43zM228 59q83 0 131 70.5t48 145.5q0 59 -31.5 93t-90.5 34q-45 0 -80 -21.5t-54 -55.5t-28.5 -70t-9.5 -71q0 -125 115 -125z" />
    <glyph glyph-name="ntilde" unicode="&#xf1;" horiz-adv-x="549" 
d="M297 632q-33 0 -46 -49h-56q11 51 39.5 80t66.5 29q31 0 69 -25.5t54 -25.5q32 0 42 50h56q-10 -51 -35.5 -80t-59.5 -29q-27 0 -68 25t-62 25zM352 506q72 0 111.5 -35.5t39.5 -93.5q0 -31 -8 -66l-66 -311h-86l65 310q6 27 6 50q0 74 -87 74q-57 0 -103 -41t-62 -115
l-59 -278h-86l104 492h80l-16 -72q60 86 167 86z" />
    <glyph glyph-name="ograve" unicode="&#xf2;" horiz-adv-x="545" 
d="M240 716h91l42 -144h-69zM308 506q93 0 147.5 -54.5t54.5 -152.5q0 -38 -9.5 -79.5t-31 -83.5t-52.5 -75t-78 -54t-104 -21q-95 0 -149 54.5t-54 154.5q0 48 16 99.5t47 100t87 80t126 31.5zM304 434q-59 0 -103.5 -40.5t-63.5 -93.5t-19 -105q0 -65 31 -101t89 -36
q45 0 82 23.5t59 60.5t33.5 78t11.5 79q0 65 -30.5 100t-89.5 35z" />
    <glyph glyph-name="oacute" unicode="&#xf3;" horiz-adv-x="545" 
d="M504 716l-125 -144h-79l101 144h103zM308 506q93 0 147.5 -54.5t54.5 -152.5q0 -38 -9.5 -79.5t-31 -83.5t-52.5 -75t-78 -54t-104 -21q-95 0 -149 54.5t-54 154.5q0 48 16 99.5t47 100t87 80t126 31.5zM304 434q-59 0 -103.5 -40.5t-63.5 -93.5t-19 -105q0 -65 31 -101
t89 -36q45 0 82 23.5t59 60.5t33.5 78t11.5 79q0 65 -30.5 100t-89.5 35z" />
    <glyph glyph-name="ocircumflex" unicode="&#xf4;" horiz-adv-x="545" 
d="M426 572l-59 101l-102 -101h-79l131 144h108l69 -144h-68zM308 506q93 0 147.5 -54.5t54.5 -152.5q0 -38 -9.5 -79.5t-31 -83.5t-52.5 -75t-78 -54t-104 -21q-95 0 -149 54.5t-54 154.5q0 48 16 99.5t47 100t87 80t126 31.5zM304 434q-59 0 -103.5 -40.5t-63.5 -93.5
t-19 -105q0 -65 31 -101t89 -36q45 0 82 23.5t59 60.5t33.5 78t11.5 79q0 65 -30.5 100t-89.5 35z" />
    <glyph glyph-name="otilde" unicode="&#xf5;" horiz-adv-x="545" 
d="M297 692q31 0 69 -25.5t54 -25.5q32 0 42 50h56q-10 -51 -35.5 -80t-59.5 -29q-27 0 -68 25t-62 25q-33 0 -46 -49h-56q11 51 39.5 80t66.5 29zM308 506q93 0 147.5 -54.5t54.5 -152.5q0 -38 -9.5 -79.5t-31 -83.5t-52.5 -75t-78 -54t-104 -21q-95 0 -149 54.5t-54 154.5
q0 48 16 99.5t47 100t87 80t126 31.5zM304 434q-59 0 -103.5 -40.5t-63.5 -93.5t-19 -105q0 -65 31 -101t89 -36q45 0 82 23.5t59 60.5t33.5 78t11.5 79q0 65 -30.5 100t-89.5 35z" />
    <glyph glyph-name="odieresis" unicode="&#xf6;" horiz-adv-x="545" 
d="M321 692l-21 -103h-85l22 103h84zM497 692l-22 -103h-84l22 103h84zM308 506q93 0 147.5 -54.5t54.5 -152.5q0 -38 -9.5 -79.5t-31 -83.5t-52.5 -75t-78 -54t-104 -21q-95 0 -149 54.5t-54 154.5q0 48 16 99.5t47 100t87 80t126 31.5zM304 434q-59 0 -103.5 -40.5
t-63.5 -93.5t-19 -105q0 -65 31 -101t89 -36q45 0 82 23.5t59 60.5t33.5 78t11.5 79q0 65 -30.5 100t-89.5 35z" />
    <glyph glyph-name="divide" unicode="&#xf7;" horiz-adv-x="600" 
d="M351 543v-109h-102v109h102zM560 347v-74h-520v74h520zM351 186v-109h-102v109h102z" />
    <glyph glyph-name="oslash" unicode="&#xf8;" horiz-adv-x="544" 
d="M517 483l-45 -51q37 -52 37 -133q0 -49 -16 -101t-47.5 -100.5t-86.5 -80t-124 -31.5q-77 0 -127 36l-39 -44l-41 35l42 47q-39 53 -39 135q0 37 9.5 78t31.5 83t53 75t78.5 54t103.5 21q77 0 127 -36l42 47zM117 195q0 -41 12 -69l252 285q-29 23 -77 23
q-59 0 -103.5 -40.5t-64 -93.5t-19.5 -105zM423 299q0 40 -10 66l-252 -283q29 -24 76 -24q59 0 103 40.5t63.5 94t19.5 106.5z" />
    <glyph glyph-name="ugrave" unicode="&#xf9;" horiz-adv-x="541" 
d="M359 572h-69l-64 144h91zM432 492h86l-104 -492h-79l16 74q-60 -88 -163 -88q-72 0 -109.5 35t-37.5 93q0 32 8 67l65 311h86l-64 -304q-7 -38 -7 -57q0 -71 80 -71q58 0 104 42.5t63 124.5z" />
    <glyph glyph-name="uacute" unicode="&#xfa;" horiz-adv-x="541" 
d="M490 716l-125 -144h-79l101 144h103zM432 492h86l-104 -492h-79l16 74q-60 -88 -163 -88q-72 0 -109.5 35t-37.5 93q0 32 8 67l65 311h86l-64 -304q-7 -38 -7 -57q0 -71 80 -71q58 0 104 42.5t63 124.5z" />
    <glyph glyph-name="ucircumflex" unicode="&#xfb;" horiz-adv-x="541" 
d="M353 673l-102 -101h-79l131 144h108l69 -144h-68zM432 492h86l-104 -492h-79l16 74q-60 -88 -163 -88q-72 0 -109.5 35t-37.5 93q0 32 8 67l65 311h86l-64 -304q-7 -38 -7 -57q0 -71 80 -71q58 0 104 42.5t63 124.5z" />
    <glyph glyph-name="udieresis" unicode="&#xfc;" horiz-adv-x="541" 
d="M307 692l-21 -103h-85l22 103h84zM483 692l-22 -103h-84l22 103h84zM432 492h86l-104 -492h-79l16 74q-60 -88 -163 -88q-72 0 -109.5 35t-37.5 93q0 32 8 67l65 311h86l-64 -304q-7 -38 -7 -57q0 -71 80 -71q58 0 104 42.5t63 124.5z" />
    <glyph glyph-name="yacute" unicode="&#xfd;" horiz-adv-x="483" 
d="M463 716l-125 -144h-79l101 144h103zM427 492h89l-311 -564q-37 -67 -73 -94.5t-95 -27.5q-41 0 -77 12l23 65q28 -6 48 -6q34 0 55.5 17t47.5 64l9 15l-76 519h86l22 -169q16 -121 30 -248l126 241z" />
    <glyph glyph-name="thorn" unicode="&#xfe;" horiz-adv-x="560" 
d="M359 503q79 0 123.5 -49t44.5 -134q0 -57 -16.5 -114t-47.5 -106.5t-83.5 -80.5t-116.5 -31q-109 0 -146 87l-55 -255h-86l190 890h86l-63 -293q67 86 170 86zM256 60q62 0 106 43t61.5 97.5t17.5 109.5q0 121 -103 121q-84 0 -140 -79.5t-56 -174.5q0 -52 31 -84.5
t83 -32.5z" />
    <glyph glyph-name="ydieresis" unicode="&#xff;" horiz-adv-x="483" 
d="M280 692l-21 -103h-85l22 103h84zM456 692l-22 -103h-84l22 103h84zM427 492h89l-311 -564q-37 -67 -73 -94.5t-95 -27.5q-41 0 -77 12l23 65q28 -6 48 -6q34 0 55.5 17t47.5 64l9 15l-76 519h86l22 -169q16 -121 30 -248l126 241z" />
    <glyph glyph-name="Amacron" unicode="&#x100;" horiz-adv-x="670" 
d="M602 863l-14 -64h-271l13 64h272zM373 710h121l107 -710h-91l-26 181h-319l-102 -181h-98zM209 259h264l-13 93q-38 277 -39 290q-41 -80 -159 -291z" />
    <glyph glyph-name="amacron" unicode="&#x101;" horiz-adv-x="563" 
d="M504 659l-14 -64h-271l13 64h272zM460 492h80l-105 -492h-78l18 86q-65 -97 -173 -97q-81 0 -125.5 49t-44.5 135q0 57 17 114t49 106t84.5 80t116.5 31q116 0 144 -93zM221 61q81 0 135 80.5t54 176.5q0 114 -104 114q-61 0 -106 -43t-63.5 -97.5t-18.5 -108.5
q0 -122 103 -122z" />
    <glyph glyph-name="Abreve" unicode="&#x102;" horiz-adv-x="670" 
d="M461 775q-73 0 -106.5 38.5t-23.5 92.5h67q-5 -32 9 -55t57 -23q72 0 86 78h68q-11 -64 -51.5 -97.5t-105.5 -33.5zM373 710h121l107 -710h-91l-26 181h-319l-102 -181h-98zM209 259h264l-13 93q-38 277 -39 290q-41 -80 -159 -291z" />
    <glyph glyph-name="abreve" unicode="&#x103;" horiz-adv-x="563" 
d="M363 571q-73 0 -106.5 38.5t-23.5 92.5h67q-5 -32 9 -55t57 -23q72 0 86 78h68q-11 -64 -51.5 -97.5t-105.5 -33.5zM460 492h80l-105 -492h-78l18 86q-65 -97 -173 -97q-81 0 -125.5 49t-44.5 135q0 57 17 114t49 106t84.5 80t116.5 31q116 0 144 -93zM221 61
q81 0 135 80.5t54 176.5q0 114 -104 114q-61 0 -106 -43t-63.5 -97.5t-18.5 -108.5q0 -122 103 -122z" />
    <glyph glyph-name="Aogonek" unicode="&#x104;" horiz-adv-x="671" 
d="M500 -115q0 -37 43 -37q14 0 26 3l-12 -54q-12 -5 -34 -5q-40 0 -62.5 20t-22.5 54q0 76 95 134h-23l-26 181h-319l-102 -181h-98l408 710h121l107 -710q-101 -61 -101 -115zM209 259h264l-13 93q-38 277 -39 290q-41 -80 -159 -291z" />
    <glyph glyph-name="aogonek" unicode="&#x105;" horiz-adv-x="563" 
d="M435 0q-100 -61 -100 -115q0 -37 42 -37q14 0 26 3l-12 -54q-12 -5 -34 -5q-39 0 -61.5 20t-22.5 54q0 77 97 134h-13l18 86q-65 -97 -173 -97q-81 0 -125.5 49t-44.5 135q0 57 17 114t49 106t84.5 80t116.5 31q116 0 144 -93l17 81h80zM221 61q81 0 135 80.5t54 176.5
q0 114 -104 114q-61 0 -106 -43t-63.5 -97.5t-18.5 -108.5q0 -122 103 -122z" />
    <glyph glyph-name="Cacute" unicode="&#x106;" horiz-adv-x="667" 
d="M635 920l-125 -144h-79l101 144h103zM454 726q144 0 238 -118l-65 -54q-76 91 -180 91q-74 0 -133.5 -35.5t-94 -91.5t-52.5 -118t-18 -122q0 -98 50.5 -155.5t140.5 -57.5q60 0 108.5 26t113.5 84l57 -57q-130 -134 -278 -134q-136 0 -210.5 80t-74.5 205q0 58 13 118
t43.5 121.5t74.5 109.5t113.5 78t153.5 30z" />
    <glyph glyph-name="cacute" unicode="&#x107;" horiz-adv-x="494" 
d="M503 716l-125 -144h-79l101 144h103zM428 361q-29 41 -56.5 57t-67.5 16q-45 0 -82 -24t-59 -61t-33.5 -77.5t-11.5 -78.5q0 -63 29.5 -98.5t86.5 -35.5q40 0 77 19t87 66l52 -52q-105 -106 -220 -106q-91 0 -145 55t-54 148q0 41 10.5 84t33 85t54 74.5t78.5 53
t102 20.5q116 0 182 -97z" />
    <glyph glyph-name="Cdotaccent" unicode="&#x10a;" horiz-adv-x="667" 
d="M541 896l-22 -103h-86l22 103h86zM454 726q144 0 238 -118l-65 -54q-76 91 -180 91q-74 0 -133.5 -35.5t-94 -91.5t-52.5 -118t-18 -122q0 -98 50.5 -155.5t140.5 -57.5q60 0 108.5 26t113.5 84l57 -57q-130 -134 -278 -134q-136 0 -210.5 80t-74.5 205q0 58 13 118
t43.5 121.5t74.5 109.5t113.5 78t153.5 30z" />
    <glyph glyph-name="cdotaccent" unicode="&#x10b;" horiz-adv-x="494" 
d="M409 692l-22 -103h-86l22 103h86zM428 361q-29 41 -56.5 57t-67.5 16q-45 0 -82 -24t-59 -61t-33.5 -77.5t-11.5 -78.5q0 -63 29.5 -98.5t86.5 -35.5q40 0 77 19t87 66l52 -52q-105 -106 -220 -106q-91 0 -145 55t-54 148q0 41 10.5 84t33 85t54 74.5t78.5 53t102 20.5
q116 0 182 -97z" />
    <glyph glyph-name="Ccaron" unicode="&#x10c;" horiz-adv-x="667" 
d="M657 920l-131 -144h-108l-69 144h69l58 -102l102 102h79zM454 726q144 0 238 -118l-65 -54q-76 91 -180 91q-74 0 -133.5 -35.5t-94 -91.5t-52.5 -118t-18 -122q0 -98 50.5 -155.5t140.5 -57.5q60 0 108.5 26t113.5 84l57 -57q-130 -134 -278 -134q-136 0 -210.5 80
t-74.5 205q0 58 13 118t43.5 121.5t74.5 109.5t113.5 78t153.5 30z" />
    <glyph glyph-name="ccaron" unicode="&#x10d;" horiz-adv-x="494" 
d="M525 716l-131 -144h-108l-69 144h69l58 -102l102 102h79zM428 361q-29 41 -56.5 57t-67.5 16q-45 0 -82 -24t-59 -61t-33.5 -77.5t-11.5 -78.5q0 -63 29.5 -98.5t86.5 -35.5q40 0 77 19t87 66l52 -52q-105 -106 -220 -106q-91 0 -145 55t-54 148q0 41 10.5 84t33 85
t54 74.5t78.5 53t102 20.5q116 0 182 -97z" />
    <glyph glyph-name="Dcaron" unicode="&#x10e;" horiz-adv-x="709" 
d="M608 920l-131 -144h-108l-69 144h69l58 -102l102 102h79zM401 710q135 0 209.5 -75.5t74.5 -199.5q0 -58 -12 -116t-41 -116.5t-71 -102.5t-107.5 -72t-145.5 -28h-278l151 710h220zM390 633h-134l-118 -556h157q65 0 117.5 23t85.5 59.5t54.5 84.5t30.5 94t9 92
q0 98 -51 150.5t-151 52.5z" />
    <glyph glyph-name="dcaron" unicode="&#x10f;" horiz-adv-x="697" 
d="M440 420l62 290h86l-151 -710h-78l19 91q-69 -102 -179 -102q-82 0 -126 49t-44 135q0 57 17 114t49 106t84.5 80t116.5 31q110 0 144 -84zM711 710h85l-109 -198h-57zM218 61q82 0 138 79.5t56 174.5q0 54 -27 85.5t-80 31.5q-62 0 -107 -43t-64 -97.5t-19 -108.5
q0 -62 25 -92t78 -30z" />
    <glyph glyph-name="Dcroat" unicode="&#x110;" horiz-adv-x="738" 
d="M429 710q136 0 210.5 -75.5t74.5 -199.5q0 -74 -20.5 -146.5t-63 -139t-119 -108t-175.5 -41.5h-278l70 328h-85l17 77h84l65 305h220zM323 77q65 0 118 23t85.5 59.5t54.5 84.5t31 94t9 92q0 98 -51 150.5t-152 52.5h-133l-49 -228h187l-17 -77h-186l-53 -251h156z" />
    <glyph glyph-name="dcroat" unicode="&#x111;" horiz-adv-x="585" 
d="M648 628l-14 -63h-77l-120 -565h-78l19 91q-69 -102 -179 -102q-82 0 -126 49t-44 135q0 57 17 114t49 106t84.5 80t116.5 31q110 0 144 -84l31 145h-127l13 63h128l17 82h86l-17 -82h77zM218 61q82 0 138 79.5t56 174.5q0 54 -27 85.5t-80 31.5q-62 0 -107 -43
t-64 -97.5t-19 -108.5q0 -62 25 -92t78 -30z" />
    <glyph glyph-name="Emacron" unicode="&#x112;" horiz-adv-x="611" 
d="M584 863l-14 -64h-271l13 64h272zM653 710l-17 -77h-380l-49 -229h354l-16 -77h-354l-53 -250h389l-16 -77h-481l151 710h472z" />
    <glyph glyph-name="emacron" unicode="&#x113;" horiz-adv-x="536" 
d="M499 659l-14 -64h-271l13 64h272zM315 506q81 0 132.5 -47.5t51.5 -123.5q0 -57 -16 -103h-364q-3 -20 -3 -39q0 -61 30 -98t95 -37q83 0 172 94l56 -48q-102 -118 -232 -118q-96 0 -151 55.5t-55 150.5q0 52 17.5 105t50.5 101t89.5 78t126.5 30zM310 437
q-64 0 -109 -40t-67 -102h284q2 22 2 35q0 49 -28.5 78t-81.5 29z" />
    <glyph glyph-name="Edotaccent" unicode="&#x116;" horiz-adv-x="611" 
d="M499 896l-22 -103h-86l22 103h86zM653 710l-17 -77h-380l-49 -229h354l-16 -77h-354l-53 -250h389l-16 -77h-481l151 710h472z" />
    <glyph glyph-name="edotaccent" unicode="&#x117;" horiz-adv-x="536" 
d="M413 692l-22 -103h-86l22 103h86zM483 232h-364q-3 -20 -3 -39q0 -61 30 -98t95 -37q83 0 172 94l56 -48q-102 -118 -232 -118q-96 0 -151 55.5t-55 150.5q0 52 17.5 105t50.5 101t89.5 78t126.5 30q81 0 132.5 -47.5t51.5 -123.5q0 -57 -16 -103zM310 437
q-64 0 -109 -40t-67 -102h284q2 22 2 35q0 49 -28.5 78t-81.5 29z" />
    <glyph glyph-name="Eogonek" unicode="&#x118;" horiz-adv-x="611" 
d="M636 633h-380l-49 -229h354l-16 -77h-354l-53 -250h389l-16 -77q-100 -61 -100 -115q0 -37 42 -37q14 0 26 3l-12 -54q-12 -5 -34 -5q-39 0 -61.5 20t-22.5 54q0 77 93 134h-412l151 710h472z" />
    <glyph glyph-name="eogonek" unicode="&#x119;" horiz-adv-x="536" 
d="M291 -208q-40 0 -63 20t-23 55q0 64 69 122q-20 -3 -37 -3q-96 0 -151 55.5t-55 150.5q0 52 17.5 105t50.5 101t89.5 78t126.5 30q81 0 132.5 -47.5t51.5 -123.5q0 -57 -16 -103h-364q-3 -20 -3 -39q0 -61 30 -98t95 -37q83 0 172 94l56 -48q-29 -35 -94 -83
q-107 -76 -107 -136q0 -37 44 -37q15 0 27 3l-12 -54q-15 -5 -36 -5zM134 295h284q2 22 2 35q0 49 -28.5 78t-81.5 29q-64 0 -108.5 -39.5t-67.5 -102.5z" />
    <glyph glyph-name="Ecaron" unicode="&#x11a;" horiz-adv-x="611" 
d="M615 920l-131 -144h-108l-69 144h69l58 -102l102 102h79zM653 710l-17 -77h-380l-49 -229h354l-16 -77h-354l-53 -250h389l-16 -77h-481l151 710h472z" />
    <glyph glyph-name="ecaron" unicode="&#x11b;" horiz-adv-x="536" 
d="M398 572h-108l-69 144h69l58 -102l102 102h79zM315 506q81 0 132.5 -47.5t51.5 -123.5q0 -57 -16 -103h-364q-3 -20 -3 -39q0 -61 30 -98t95 -37q83 0 172 94l56 -48q-102 -118 -232 -118q-96 0 -151 55.5t-55 150.5q0 52 17.5 105t50.5 101t89.5 78t126.5 30zM310 437
q-64 0 -109 -40t-67 -102h284q2 22 2 35q0 49 -28.5 78t-81.5 29z" />
    <glyph glyph-name="Gbreve" unicode="&#x11e;" horiz-adv-x="742" 
d="M509 775q-73 0 -106.5 38.5t-23.5 92.5h67q-5 -32 9 -55t57 -23q72 0 86 78h68q-11 -64 -51.5 -97.5t-105.5 -33.5zM370 294l16 78h313l-78 -372h-72l12 92q-82 -107 -228 -107q-129 0 -203 80t-74 204q0 60 13.5 120.5t44.5 121.5t76.5 108t116 76.5t156.5 29.5
q166 0 276 -135l-68 -54q-51 58 -99.5 83t-115.5 25q-61 0 -113 -23t-87 -60.5t-59.5 -86t-35.5 -99t-11 -100.5q0 -95 50.5 -152t148.5 -57q86 0 154.5 54.5t87.5 145.5l6 28h-227z" />
    <glyph glyph-name="gbreve" unicode="&#x11f;" horiz-adv-x="554" 
d="M355 571q-73 0 -106.5 38.5t-23.5 92.5h67q-5 -32 9 -55t57 -23q72 0 86 78h68q-11 -64 -51.5 -97.5t-105.5 -33.5zM457 492h79l-102 -482q-22 -101 -78.5 -151t-153.5 -50q-113 0 -215 76l46 59q94 -64 170 -64q118 0 148 137l15 72q-64 -83 -163 -83q-79 0 -125.5 49.5
t-46.5 131.5q0 51 16.5 105t47 102t82.5 79t115 31q114 0 147 -96zM221 78q85 0 136.5 76.5t51.5 158.5q0 56 -28.5 87.5t-82.5 31.5q-58 0 -101.5 -39.5t-61.5 -90.5t-18 -101q0 -123 104 -123z" />
    <glyph glyph-name="Gdotaccent" unicode="&#x120;" horiz-adv-x="742" 
d="M564 896l-22 -103h-86l22 103h86zM370 294l16 78h313l-78 -372h-72l12 92q-82 -107 -228 -107q-129 0 -203 80t-74 204q0 60 13.5 120.5t44.5 121.5t76.5 108t116 76.5t156.5 29.5q166 0 276 -135l-68 -54q-51 58 -99.5 83t-115.5 25q-61 0 -113 -23t-87 -60.5t-59.5 -86
t-35.5 -99t-11 -100.5q0 -95 50.5 -152t148.5 -57q86 0 154.5 54.5t87.5 145.5l6 28h-227z" />
    <glyph glyph-name="gdotaccent" unicode="&#x121;" horiz-adv-x="554" 
d="M410 692l-22 -103h-86l22 103h86zM457 492h79l-102 -482q-22 -101 -78.5 -151t-153.5 -50q-113 0 -215 76l46 59q94 -64 170 -64q118 0 148 137l15 72q-64 -83 -163 -83q-79 0 -125.5 49.5t-46.5 131.5q0 51 16.5 105t47 102t82.5 79t115 31q114 0 147 -96zM221 78
q85 0 136.5 76.5t51.5 158.5q0 56 -28.5 87.5t-82.5 31.5q-58 0 -101.5 -39.5t-61.5 -90.5t-18 -101q0 -123 104 -123z" />
    <glyph glyph-name="Gcommaaccent" unicode="&#x122;" horiz-adv-x="742" 
d="M370 294l16 78h313l-78 -372h-72l12 92q-82 -107 -228 -107q-129 0 -203 80t-74 204q0 60 13.5 120.5t44.5 121.5t76.5 108t116 76.5t156.5 29.5q166 0 276 -135l-68 -54q-51 58 -99.5 83t-115.5 25q-61 0 -113 -23t-87 -60.5t-59.5 -86t-35.5 -99t-11 -100.5
q0 -95 50.5 -152t148.5 -57q86 0 154.5 54.5t87.5 145.5l6 28h-227zM247 -160l19 88h101l-19 -88l-77 -92h-48l71 92h-47z" />
    <glyph glyph-name="gcommaaccent" unicode="&#x123;" horiz-adv-x="554" 
d="M406 675l-18 -88h-101l19 88l78 100h48l-73 -100h47zM457 492h79l-102 -482q-22 -101 -78.5 -151t-153.5 -50q-113 0 -215 76l46 59q94 -64 170 -64q118 0 148 137l15 72q-64 -83 -163 -83q-79 0 -125.5 49.5t-46.5 131.5q0 51 16.5 105t47 102t82.5 79t115 31
q114 0 147 -96zM221 78q85 0 136.5 76.5t51.5 158.5q0 56 -28.5 87.5t-82.5 31.5q-58 0 -101.5 -39.5t-61.5 -90.5t-18 -101q0 -123 104 -123z" />
    <glyph glyph-name="Hbar" unicode="&#x126;" horiz-adv-x="783" 
d="M825 599l-14 -66h-76l-114 -533h-92l69 330h-381l-70 -330h-92l113 533h-77l14 66h77l24 111h92l-23 -111h381l24 111h92l-23 -111h76zM615 407l27 126h-381l-27 -126h381z" />
    <glyph glyph-name="hbar" unicode="&#x127;" horiz-adv-x="571" 
d="M380 506q73 0 110.5 -36t37.5 -95q0 -24 -4 -44l-70 -331h-86l65 310q6 27 6 48q0 74 -86 74q-56 0 -103.5 -39.5t-61.5 -106.5l-60 -286h-86l120 565h-77l13 63h77l18 82h86l-18 -82h128l-14 -63h-127l-27 -126q66 67 159 67z" />
    <glyph glyph-name="Imacron" unicode="&#x12a;" horiz-adv-x="274" 
d="M402 863l-14 -64h-271l13 64h272zM280 710l-151 -710h-92l151 710h92z" />
    <glyph glyph-name="imacron" unicode="&#x12b;" horiz-adv-x="224" 
d="M334 659l-14 -64h-271l13 64h272zM205 492l-104 -492h-86l104 492h86z" />
    <glyph glyph-name="Iogonek" unicode="&#x12e;" horiz-adv-x="274" 
d="M129 0q-100 -61 -100 -115q0 -37 42 -37q14 0 26 3l-11 -54q-13 -5 -35 -5q-39 0 -61.5 20t-22.5 54q0 77 94 134h-24l151 710h92z" />
    <glyph glyph-name="iogonek" unicode="&#x12f;" horiz-adv-x="224" 
d="M162 692h86l-22 -103h-86zM15 0l104 492h86l-104 -492q-100 -61 -100 -115q0 -37 42 -37q13 0 27 3l-12 -54q-13 -5 -35 -5q-39 0 -61.5 20t-22.5 54q0 77 94 134h-18z" />
    <glyph glyph-name="Idotaccent" unicode="&#x130;" horiz-adv-x="274" 
d="M316 896l-22 -103h-86l22 103h86zM280 710l-151 -710h-92l151 710h92z" />
    <glyph glyph-name="dotlessi" unicode="&#x131;" horiz-adv-x="224" 
d="M205 492l-104 -492h-86l104 492h86z" />
    <glyph glyph-name="IJ" unicode="&#x132;" horiz-adv-x="740" 
d="M280 710l-151 -710h-92l151 710h92zM759 710l-113 -527q-21 -101 -73 -148t-139 -47q-100 0 -186 50l39 70q76 -39 141 -39q52 0 83 31t47 101l108 509h93z" />
    <glyph glyph-name="ij" unicode="&#x133;" horiz-adv-x="443" 
d="M248 692l-22 -103h-86l22 103h86zM472 692l-22 -103h-86l22 103h86zM205 492l-104 -492h-86l104 492h86zM90 -115q40 -9 62 -9q37 0 53.5 21.5t28.5 72.5l110 522h86l-113 -536q-16 -78 -52 -114t-105 -36q-52 0 -95 16z" />
    <glyph glyph-name="Kcommaaccent" unicode="&#x136;" horiz-adv-x="659" 
d="M727 710l-328 -277l199 -433h-97l-172 374l-155 -132l-52 -242h-92l151 710h92l-74 -348l406 348h122zM219 -160l19 88h101l-19 -88l-77 -92h-48l71 92h-47z" />
    <glyph glyph-name="kcommaaccent" unicode="&#x137;" horiz-adv-x="494" 
d="M519 492l-212 -190l139 -302h-87l-115 251l-109 -92l-34 -159h-86l151 710h86l-95 -448l257 230h105zM133 -160l19 88h101l-19 -88l-77 -92h-48l71 92h-47z" />
    <glyph glyph-name="Lacute" unicode="&#x139;" horiz-adv-x="533" 
d="M404 920l-125 -144h-79l101 144h103zM273 710l-135 -632h332l-16 -78h-424l151 710h92z" />
    <glyph glyph-name="lacute" unicode="&#x13a;" horiz-adv-x="228" 
d="M385 910l-125 -144h-79l101 144h103zM255 710l-151 -710h-86l151 710h86z" />
    <glyph glyph-name="Lcommaaccent" unicode="&#x13b;" horiz-adv-x="533" 
d="M273 710l-135 -632h332l-16 -78h-424l151 710h92zM282 -72l-19 -88l-77 -92h-48l71 92h-47l19 88h101z" />
    <glyph glyph-name="lcommaaccent" unicode="&#x13c;" horiz-adv-x="228" 
d="M255 710l-151 -710h-86l151 710h86zM96 -72l-19 -88l-77 -92h-48l71 92h-47l19 88h101z" />
    <glyph glyph-name="Lcaron" unicode="&#x13d;" horiz-adv-x="533" 
d="M273 710l-135 -632h332l-16 -78h-424l151 710h92zM488 710l-109 -198h-57l81 198h85z" />
    <glyph glyph-name="lcaron" unicode="&#x13e;" horiz-adv-x="373" 
d="M255 710l-151 -710h-86l151 710h86zM471 710l-109 -198h-57l81 198h85z" />
    <glyph glyph-name="Ldot" unicode="&#x13f;" horiz-adv-x="533" 
d="M273 710l-135 -632h332l-16 -78h-424l151 710h92zM456 425l-23 -108h-102l23 108h102z" />
    <glyph glyph-name="ldot" unicode="&#x140;" horiz-adv-x="396" 
d="M255 710l-151 -710h-86l151 710h86zM382 367l-23 -108h-102l23 108h102z" />
    <glyph glyph-name="Lslash" unicode="&#x141;" horiz-adv-x="566" 
d="M168 78h335l-17 -78h-426l61 291l-94 -47l16 80l95 47l73 339h92l-63 -294l171 85l-17 -79l-171 -86z" />
    <glyph glyph-name="lslash" unicode="&#x142;" horiz-adv-x="342" 
d="M360 496l-17 -75l-100 -53l-78 -368h-86l67 318l-103 -54l15 75l104 54l68 317h86l-57 -267z" />
    <glyph glyph-name="Nacute" unicode="&#x143;" horiz-adv-x="736" 
d="M641 920l-125 -144h-79l101 144h103zM659 710h90l-151 -710h-100l-142 324q-83 192 -115 275q-23 -138 -54 -280l-68 -319h-89l151 710h100l144 -329q77 -177 111 -269q23 135 54 274z" />
    <glyph glyph-name="nacute" unicode="&#x144;" horiz-adv-x="549" 
d="M507 716l-125 -144h-79l101 144h103zM352 506q72 0 111.5 -35.5t39.5 -93.5q0 -31 -8 -66l-66 -311h-86l65 310q6 27 6 50q0 74 -87 74q-57 0 -103 -41t-62 -115l-59 -278h-86l104 492h80l-16 -72q60 86 167 86z" />
    <glyph glyph-name="Ncommaaccent" unicode="&#x145;" horiz-adv-x="736" 
d="M659 710h90l-151 -710h-100l-142 324q-83 192 -115 275q-23 -138 -54 -280l-68 -319h-89l151 710h100l144 -329q77 -177 111 -269q23 135 54 274zM230 -160l19 88h101l-19 -88l-77 -92h-48l71 92h-47z" />
    <glyph glyph-name="ncommaaccent" unicode="&#x146;" horiz-adv-x="549" 
d="M352 506q72 0 111.5 -35.5t39.5 -93.5q0 -31 -8 -66l-66 -311h-86l65 310q6 27 6 50q0 74 -87 74q-57 0 -103 -41t-62 -115l-59 -278h-86l104 492h80l-16 -72q60 86 167 86zM135 -160l19 88h101l-19 -88l-77 -92h-48l71 92h-47z" />
    <glyph glyph-name="Ncaron" unicode="&#x147;" horiz-adv-x="736" 
d="M532 776h-108l-69 144h69l58 -102l102 102h79zM659 710h90l-151 -710h-100l-142 324q-83 192 -115 275q-23 -138 -54 -280l-68 -319h-89l151 710h100l144 -329q77 -177 111 -269q23 135 54 274z" />
    <glyph glyph-name="ncaron" unicode="&#x148;" horiz-adv-x="549" 
d="M398 572h-108l-69 144h69l58 -102l102 102h79zM352 506q72 0 111.5 -35.5t39.5 -93.5q0 -31 -8 -66l-66 -311h-86l65 310q6 27 6 50q0 74 -87 74q-57 0 -103 -41t-62 -115l-59 -278h-86l104 492h80l-16 -72q60 86 167 86z" />
    <glyph glyph-name="Eng" unicode="&#x14a;" horiz-adv-x="736" 
d="M749 710l-151 -710l-10 -45q-17 -78 -54 -115t-110 -37q-57 0 -112 20l28 69q44 -14 79 -14q36 0 55.5 19t28.5 60l5 22l-152 345q-83 190 -115 275q-23 -138 -54 -280l-68 -319h-89l151 710h100l144 -329q77 -177 111 -269q23 135 54 274l69 324h90z" />
    <glyph glyph-name="eng" unicode="&#x14b;" horiz-adv-x="547" 
d="M352 506q72 0 111.5 -35.5t39.5 -93.5q0 -31 -8 -66l-66 -311h-2l-8 -38q-17 -80 -49.5 -117t-100.5 -37q-52 0 -107 19l31 63q41 -11 67 -11q33 0 48 19.5t25 63.5l25 123h3l47 225q6 27 6 50q0 74 -87 74q-57 0 -103 -41t-62 -115l-59 -278h-86l104 492h80l-16 -72
q60 86 167 86z" />
    <glyph glyph-name="Omacron" unicode="&#x14c;" horiz-adv-x="749" 
d="M639 863l-14 -64h-271l13 64h272zM445 726q131 0 206 -79t75 -214q0 -59 -14 -120.5t-45 -120.5t-75 -105t-109 -74.5t-142 -28.5q-132 0 -208 78.5t-76 214.5q0 58 14 119t45.5 120.5t75.5 106t110 75t143 28.5zM443 645q-72 0 -130 -35t-92.5 -90t-52.5 -117t-18 -122
q0 -103 51 -159.5t141 -56.5q71 0 129 35t92 90t52 117.5t18 122.5q0 102 -50 158.5t-140 56.5z" />
    <glyph glyph-name="omacron" unicode="&#x14d;" horiz-adv-x="545" 
d="M495 659l-14 -64h-271l13 64h272zM308 506q93 0 147.5 -54.5t54.5 -152.5q0 -38 -9.5 -79.5t-31 -83.5t-52.5 -75t-78 -54t-104 -21q-95 0 -149 54.5t-54 154.5q0 48 16 99.5t47 100t87 80t126 31.5zM304 434q-59 0 -103.5 -40.5t-63.5 -93.5t-19 -105q0 -65 31 -101
t89 -36q45 0 82 23.5t59 60.5t33.5 78t11.5 79q0 65 -30.5 100t-89.5 35z" />
    <glyph glyph-name="Ohungarumlaut" unicode="&#x150;" horiz-adv-x="749" 
d="M566 920l-124 -145h-69l103 145h90zM724 920l-125 -145h-70l105 145h90zM445 726q131 0 206 -79t75 -214q0 -59 -14 -120.5t-45 -120.5t-75 -105t-109 -74.5t-142 -28.5q-132 0 -208 78.5t-76 214.5q0 58 14 119t45.5 120.5t75.5 106t110 75t143 28.5zM443 645
q-72 0 -130 -35t-92.5 -90t-52.5 -117t-18 -122q0 -103 51 -159.5t141 -56.5q71 0 129 35t92 90t52 117.5t18 122.5q0 102 -50 158.5t-140 56.5z" />
    <glyph glyph-name="ohungarumlaut" unicode="&#x151;" horiz-adv-x="545" 
d="M422 716l-124 -145h-69l103 145h90zM580 716l-125 -145h-70l105 145h90zM308 506q93 0 147.5 -54.5t54.5 -152.5q0 -38 -9.5 -79.5t-31 -83.5t-52.5 -75t-78 -54t-104 -21q-95 0 -149 54.5t-54 154.5q0 48 16 99.5t47 100t87 80t126 31.5zM304 434q-59 0 -103.5 -40.5
t-63.5 -93.5t-19 -105q0 -65 31 -101t89 -36q45 0 82 23.5t59 60.5t33.5 78t11.5 79q0 65 -30.5 100t-89.5 35z" />
    <glyph glyph-name="OE" unicode="&#x152;" horiz-adv-x="1148" 
d="M1174 633h-380l-49 -229h353l-16 -77h-354l-52 -250h389l-17 -77h-481l21 99q-103 -115 -256 -115q-133 0 -206 74.5t-73 203.5q0 59 15.5 121.5t48.5 124t80 110t117 78.5t151 30q170 0 228 -130l25 114h472zM336 65q62 0 115 24.5t89 64t61.5 90t37 101.5t11.5 99
q0 96 -47.5 148.5t-139.5 52.5q-77 0 -139.5 -37t-100 -94.5t-57.5 -122t-20 -125.5q0 -97 49 -149t141 -52z" />
    <glyph glyph-name="oe" unicode="&#x153;" horiz-adv-x="920" 
d="M867 232h-364q-2 -26 -2 -39q0 -61 30 -98t95 -37q86 0 173 93l56 -47q-101 -118 -233 -118q-139 0 -185 110q-73 -110 -202 -110q-95 0 -149.5 55t-54.5 154q0 37 9.5 78t31.5 83t53 75t78.5 54t103.5 21q134 0 175 -113q78 113 217 113q82 0 133 -47.5t51 -123.5
q0 -57 -16 -103zM694 437q-64 0 -108.5 -40t-66.5 -102h283q3 16 3 35q0 49 -28.5 78t-82.5 29zM237 58q59 0 103 40.5t63.5 94t19.5 106.5q0 66 -30.5 100.5t-88.5 34.5q-59 0 -103.5 -40.5t-64 -93.5t-19.5 -105q0 -65 31 -101t89 -36z" />
    <glyph glyph-name="Racute" unicode="&#x154;" horiz-adv-x="672" 
d="M583 920l-125 -144h-79l101 144h103zM667 529q0 -89 -55.5 -158t-165.5 -83l137 -288h-97l-134 285h-169l-61 -285h-92l151 710h283q93 0 148 -50t55 -131zM384 362q101 0 147 45.5t46 115.5q0 54 -35 82t-97 28h-189l-57 -271h185z" />
    <glyph glyph-name="racute" unicode="&#x155;" horiz-adv-x="364" 
d="M438 716l-125 -144h-79l101 144h103zM185 415q52 82 134 82q38 0 80 -19l-30 -72q-33 14 -63 14q-53 0 -92.5 -43.5t-57.5 -126.5l-53 -250h-86l104 492h81z" />
    <glyph glyph-name="Rcommaaccent" unicode="&#x156;" horiz-adv-x="672" 
d="M667 529q0 -89 -55.5 -158t-165.5 -83l137 -288h-97l-134 285h-169l-61 -285h-92l151 710h283q93 0 148 -50t55 -131zM384 362q101 0 147 45.5t46 115.5q0 54 -35 82t-97 28h-189l-57 -271h185zM199 -160l19 88h101l-19 -88l-77 -92h-48l71 92h-47z" />
    <glyph glyph-name="rcommaaccent" unicode="&#x157;" horiz-adv-x="364" 
d="M319 497q38 0 80 -19l-30 -72q-33 14 -63 14q-53 0 -92.5 -43.5t-57.5 -126.5l-53 -250h-86l104 492h81l-17 -77q52 82 134 82zM-25 -160l19 88h101l-19 -88l-77 -92h-48l71 92h-47z" />
    <glyph glyph-name="Rcaron" unicode="&#x158;" horiz-adv-x="672" 
d="M474 776h-108l-69 144h69l58 -102l102 102h79zM667 529q0 -89 -55.5 -158t-165.5 -83l137 -288h-97l-134 285h-169l-61 -285h-92l151 710h283q93 0 148 -50t55 -131zM384 362q101 0 147 45.5t46 115.5q0 54 -35 82t-97 28h-189l-57 -271h185z" />
    <glyph glyph-name="rcaron" unicode="&#x159;" horiz-adv-x="364" 
d="M329 572h-108l-69 144h69l58 -102l102 102h79zM185 415q52 82 134 82q38 0 80 -19l-30 -72q-33 14 -63 14q-53 0 -92.5 -43.5t-57.5 -126.5l-53 -250h-86l104 492h81z" />
    <glyph glyph-name="Sacute" unicode="&#x15a;" horiz-adv-x="639" 
d="M564 920l-125 -144h-79l101 144h103zM376 725q147 0 264 -112l-57 -62q-101 95 -212 95q-73 0 -122.5 -37t-49.5 -93q0 -18 7.5 -32t18 -24t36 -21t47 -18.5t64.5 -20.5q118 -37 163.5 -79t45.5 -114q0 -87 -69 -155t-193 -68q-89 0 -159 30.5t-142 92.5l56 66
q73 -60 128 -84.5t120 -24.5q76 0 122.5 40t46.5 99q0 49 -37 72.5t-135 53.5q-117 36 -163 74t-46 107q0 85 71.5 150t194.5 65z" />
    <glyph glyph-name="sacute" unicode="&#x15b;" horiz-adv-x="477" 
d="M437 716l-125 -144h-79l101 144h103zM256 506q112 0 199 -82l-50 -56q-75 69 -155 69q-46 0 -76 -22.5t-30 -52.5q0 -27 22 -40t88 -33q93 -28 130 -56t37 -85q0 -71 -55.5 -116.5t-150.5 -45.5q-115 0 -216 93l52 55q90 -78 170 -78q54 0 85 24t31 62q0 13 -6.5 23.5
t-13.5 17t-26 14t-30.5 11.5t-38.5 12q-7 2 -10 3q-88 24 -119.5 53t-31.5 76q0 61 52.5 107.5t142.5 46.5z" />
    <glyph glyph-name="Scedilla" unicode="&#x15e;" horiz-adv-x="639" 
d="M371 646q-73 0 -122.5 -37t-49.5 -93q0 -18 7.5 -32t18 -24t36 -21t47 -18.5t64.5 -20.5q118 -37 163.5 -79t45.5 -114q0 -87 -69 -155t-193 -68q-4 0 -12.5 0.5t-11.5 0.5l-36 -52h7q36 0 62 -19.5t26 -53.5q0 -39 -29 -66.5t-84 -27.5q-59 0 -113 35l30 41
q46 -26 81 -26q30 0 45.5 11.5t15.5 30.5q0 16 -15 25t-38 9q-17 0 -29 -3l-22 26l50 75q-112 19 -228 117l56 66q73 -60 128 -84.5t120 -24.5q76 0 122.5 40t46.5 99q0 49 -37 72.5t-135 53.5q-117 36 -163 74t-46 107q0 85 71.5 150t194.5 65q147 0 264 -112l-57 -62
q-101 95 -212 95z" />
    <glyph glyph-name="scedilla" unicode="&#x15f;" horiz-adv-x="475" 
d="M254 289q93 -27 130 -55.5t37 -85.5q0 -70 -53.5 -115.5t-146.5 -46.5l-36 -53h7q35 0 61.5 -19.5t26.5 -53.5q0 -39 -29 -66.5t-84 -27.5q-58 0 -113 34l30 42q46 -26 81 -26q30 0 45.5 11.5t15.5 30.5q0 15 -15 24.5t-38 9.5q-17 0 -29 -3l-22 26l49 74q-88 14 -171 90
l51 55q91 -78 170 -78q54 0 85.5 24t31.5 62q0 30 -26.5 45t-88.5 33q-7 2 -11 3q-88 24 -119.5 53t-31.5 76q0 61 52.5 107.5t142.5 46.5q111 0 200 -82l-51 -56q-75 69 -155 69q-46 0 -76 -22.5t-30 -52.5q0 -27 22 -40t88 -33z" />
    <glyph glyph-name="Scaron" unicode="&#x160;" horiz-adv-x="639" 
d="M586 920l-131 -144h-108l-69 144h69l58 -102l102 102h79zM376 725q147 0 264 -112l-57 -62q-101 95 -212 95q-73 0 -122.5 -37t-49.5 -93q0 -18 7.5 -32t18 -24t36 -21t47 -18.5t64.5 -20.5q118 -37 163.5 -79t45.5 -114q0 -87 -69 -155t-193 -68q-89 0 -159 30.5
t-142 92.5l56 66q73 -60 128 -84.5t120 -24.5q76 0 122.5 40t46.5 99q0 49 -37 72.5t-135 53.5q-117 36 -163 74t-46 107q0 85 71.5 150t194.5 65z" />
    <glyph glyph-name="scaron" unicode="&#x161;" horiz-adv-x="477" 
d="M459 716l-131 -144h-108l-69 144h69l58 -102l102 102h79zM256 506q112 0 199 -82l-50 -56q-75 69 -155 69q-46 0 -76 -22.5t-30 -52.5q0 -27 22 -40t88 -33q93 -28 130 -56t37 -85q0 -71 -55.5 -116.5t-150.5 -45.5q-115 0 -216 93l52 55q90 -78 170 -78q54 0 85 24
t31 62q0 13 -6.5 23.5t-13.5 17t-26 14t-30.5 11.5t-38.5 12q-7 2 -10 3q-88 24 -119.5 53t-31.5 76q0 61 52.5 107.5t142.5 46.5z" />
    <glyph glyph-name="uni0162" unicode="&#x162;" horiz-adv-x="595" 
d="M127 710h537l-18 -78h-222l-133 -632h-19l-48 -67h6q36 0 62 -19.5t26 -53.5q0 -39 -28.5 -66.5t-83.5 -27.5q-58 0 -113 34l30 42q46 -26 81 -26q29 0 44.5 11.5t15.5 30.5q0 16 -14.5 25t-38.5 9q-17 0 -29 -3l-22 26l59 85h-21l134 632h-222z" />
    <glyph glyph-name="uni0163" unicode="&#x163;" horiz-adv-x="355" 
d="M233 428l-61 -289q-10 -41 -0.5 -58.5t43.5 -17.5q30 0 70 13l7 -68q-44 -19 -98 -19h-2l-38 -56h6q36 0 62 -19.5t26 -53.5q0 -39 -29 -66.5t-83 -27.5q-58 0 -113 34l30 42q46 -26 81 -26q29 0 44.5 11.5t15.5 30.5q0 16 -14.5 25t-38.5 9q-17 0 -29 -3l-22 26l53 80
q-83 22 -58 142l62 291h-92l14 64h92l35 164h86l-35 -164h126l-13 -64h-127z" />
    <glyph glyph-name="Tcaron" unicode="&#x164;" horiz-adv-x="595" 
d="M597 920l-131 -144h-108l-69 144h69l58 -102l102 102h79zM664 710l-18 -78h-222l-133 -632h-93l134 632h-222l17 78h537z" />
    <glyph glyph-name="tcaron" unicode="&#x165;" horiz-adv-x="364" 
d="M421 773h85l-109 -198h-57zM282 656l-35 -164h127l-14 -64h-126l-62 -289q-8 -42 1 -59t43 -17q30 0 69 13l7 -68q-42 -19 -98 -19q-72 0 -98.5 36t-9.5 112l62 291h-92l13 64h92l35 164h86z" />
    <glyph glyph-name="Tbar" unicode="&#x166;" horiz-adv-x="595" 
d="M646 632h-222l-45 -216h129l-15 -66h-128l-74 -350h-93l74 350h-120l15 66h119l46 216h-222l17 78h537z" />
    <glyph glyph-name="tbar" unicode="&#x167;" horiz-adv-x="364" 
d="M370 428h-127l-28 -134h124l-13 -65h-125l-19 -90q-10 -41 -0.5 -58.5t43.5 -17.5t70 13l6 -70q-45 -17 -96 -17q-74 0 -100 36t-10 112l20 92h-90l14 65h90l28 134h-92l14 64h92l35 164h86l-35 -164h126z" />
    <glyph glyph-name="Umacron" unicode="&#x16a;" horiz-adv-x="695" 
d="M604 863l-14 -64h-271l13 64h272zM714 710l-104 -485q-51 -240 -295 -240q-120 0 -182.5 46.5t-62.5 136.5q0 32 9 74l100 468h92l-102 -476q-5 -28 -5 -50q0 -58 39.5 -88t114.5 -30q165 0 201 165l102 479h93z" />
    <glyph glyph-name="umacron" unicode="&#x16b;" horiz-adv-x="541" 
d="M481 659l-14 -64h-271l13 64h272zM432 492h86l-104 -492h-79l16 74q-60 -88 -163 -88q-72 0 -109.5 35t-37.5 93q0 32 8 67l65 311h86l-64 -304q-7 -38 -7 -57q0 -71 80 -71q58 0 104 42.5t63 124.5z" />
    <glyph glyph-name="Uring" unicode="&#x16e;" horiz-adv-x="688" 
d="M468 938q45 0 71.5 -26.5t26.5 -68.5q0 -47 -32.5 -80t-81.5 -33q-45 0 -71.5 26.5t-26.5 66.5q0 47 33 81t81 34zM466 895q-27 0 -45.5 -21.5t-18.5 -51.5q0 -23 14 -36.5t37 -13.5q29 0 47.5 20.5t18.5 50.5q0 25 -14.5 38.5t-38.5 13.5zM714 710l-104 -485
q-51 -240 -295 -240q-120 0 -182.5 46.5t-62.5 136.5q0 32 9 74l100 468h92l-102 -476q-5 -28 -5 -50q0 -58 39.5 -88t114.5 -30q165 0 201 165l102 479h93z" />
    <glyph glyph-name="uring" unicode="&#x16f;" horiz-adv-x="541" 
d="M336 558q-44 0 -71 26.5t-27 66.5q0 48 33.5 81.5t81.5 33.5q45 0 71.5 -26.5t26.5 -67.5q0 -48 -32.5 -81t-82.5 -33zM350 723q-27 0 -45.5 -21t-18.5 -51q0 -24 14 -37t37 -13q29 0 47.5 20.5t18.5 50.5q0 51 -53 51zM432 492h86l-104 -492h-79l16 74q-60 -88 -163 -88
q-72 0 -109.5 35t-37.5 93q0 32 8 67l65 311h86l-64 -304q-7 -38 -7 -57q0 -71 80 -71q58 0 104 42.5t63 124.5z" />
    <glyph glyph-name="Uhungarumlaut" unicode="&#x170;" horiz-adv-x="695" 
d="M531 920l-124 -145h-69l103 145h90zM689 920l-125 -145h-70l105 145h90zM714 710l-104 -485q-51 -240 -295 -240q-120 0 -182.5 46.5t-62.5 136.5q0 32 9 74l100 468h92l-102 -476q-5 -28 -5 -50q0 -58 39.5 -88t114.5 -30q165 0 201 165l102 479h93z" />
    <glyph glyph-name="uhungarumlaut" unicode="&#x171;" horiz-adv-x="541" 
d="M408 716l-124 -145h-69l103 145h90zM441 571h-70l105 145h90zM376 227l56 265h86l-104 -492h-79l16 74q-60 -88 -163 -88q-72 0 -109.5 35t-37.5 93q0 32 8 67l65 311h86l-64 -304q-7 -38 -7 -57q0 -71 80 -71q58 0 104 42.5t63 124.5z" />
    <glyph glyph-name="Uogonek" unicode="&#x172;" horiz-adv-x="695" 
d="M621 710h93l-104 -485q-17 -80 -51.5 -129t-95.5 -83q-120 -65 -120 -128q0 -37 42 -37q14 0 26 3l-12 -54q-12 -5 -34 -5q-40 0 -62 19.5t-22 54.5q0 67 71 121q-22 -2 -37 -2q-120 0 -182.5 46.5t-62.5 136.5q0 32 9 74l100 468h92l-102 -476q-5 -28 -5 -50
q0 -58 39.5 -88t114.5 -30q165 0 201 165z" />
    <glyph glyph-name="uogonek" unicode="&#x173;" horiz-adv-x="541" 
d="M414 0q-100 -61 -100 -115q0 -37 42 -37q14 0 26 3l-11 -54q-13 -5 -35 -5q-39 0 -61.5 20t-22.5 54q0 77 97 134h-14l15 74q-28 -43 -72 -65.5t-91 -22.5q-71 0 -108.5 35t-37.5 93q0 32 8 67l65 311h86l-64 -304q-7 -38 -7 -57q0 -71 79 -71q58 0 104.5 42.5
t63.5 124.5l56 265h86z" />
    <glyph glyph-name="Wcircumflex" unicode="&#x174;" horiz-adv-x="943" 
d="M605 877l-102 -101h-79l131 144h108l69 -144h-68zM911 710h96l-322 -710h-113l-19 326q-8 173 -9 266q-52 -119 -123 -267l-156 -325h-114l-20 710h90l7 -342q3 -122 1 -274q58 134 126 274l166 342h93l18 -342q8 -187 9 -274l117 274z" />
    <glyph glyph-name="wcircumflex" unicode="&#x175;" horiz-adv-x="740" 
d="M454 673l-102 -101h-79l131 144h108l69 -144h-68zM674 493h89l-242 -493h-108l-10 159q-9 128 -11 226l-107 -228l-75 -157h-108l-30 493h85l9 -184q5 -102 7 -235l109 234l91 185h82l13 -185q8 -111 10 -235q49 115 107 234z" />
    <glyph glyph-name="Ycircumflex" unicode="&#x176;" horiz-adv-x="631" 
d="M445 877l-102 -101h-79l131 144h108l69 -144h-68zM607 710h108l-339 -407l-64 -303h-92l64 304l-163 406h94l127 -325z" />
    <glyph glyph-name="ycircumflex" unicode="&#x177;" horiz-adv-x="483" 
d="M327 673l-102 -101h-79l131 144h108l69 -144h-68zM427 492h89l-311 -564q-37 -67 -73 -94.5t-95 -27.5q-41 0 -77 12l23 65q28 -6 48 -6q34 0 55.5 17t47.5 64l9 15l-76 519h86l22 -169q16 -121 30 -248l126 241z" />
    <glyph glyph-name="Ydieresis" unicode="&#x178;" horiz-adv-x="631" 
d="M398 896l-21 -103h-85l22 103h84zM574 896l-22 -103h-84l22 103h84zM607 710h108l-339 -407l-64 -303h-92l64 304l-163 406h94l127 -325z" />
    <glyph glyph-name="Zacute" unicode="&#x179;" horiz-adv-x="623" 
d="M588 920l-125 -144h-79l101 144h103zM680 710l-16 -74l-542 -559h422l-16 -77h-539l16 74l541 559h-404l17 77h521z" />
    <glyph glyph-name="zacute" unicode="&#x17a;" horiz-adv-x="478" 
d="M479 716l-125 -144h-79l101 144h103zM486 492l-13 -63l-361 -358h285l-15 -71h-396l14 64l360 358h-266l14 70h378z" />
    <glyph glyph-name="Zdotaccent" unicode="&#x17b;" horiz-adv-x="623" 
d="M494 896l-22 -103h-86l22 103h86zM680 710l-16 -74l-542 -559h422l-16 -77h-539l16 74l541 559h-404l17 77h521z" />
    <glyph glyph-name="zdotaccent" unicode="&#x17c;" horiz-adv-x="478" 
d="M385 692l-22 -103h-86l22 103h86zM486 492l-13 -63l-361 -358h285l-15 -71h-396l14 64l360 358h-266l14 70h378z" />
    <glyph glyph-name="Zcaron" unicode="&#x17d;" horiz-adv-x="623" 
d="M479 776h-108l-69 144h69l58 -102l102 102h79zM680 710l-16 -74l-542 -559h422l-16 -77h-539l16 74l541 559h-404l17 77h521z" />
    <glyph glyph-name="zcaron" unicode="&#x17e;" horiz-adv-x="478" 
d="M370 572h-108l-69 144h69l58 -102l102 102h79zM94 422l14 70h378l-13 -63l-361 -358h285l-15 -71h-396l14 64l360 358h-266z" />
    <glyph glyph-name="florin" unicode="&#x192;" 
d="M366 462h129l-13 -65h-129l-94 -438q-16 -78 -53 -115.5t-106 -37.5q-64 0 -105 15l31 65q42 -10 67 -10q37 0 54 19.5t27 64.5l93 437h-113l14 65h112l18 82q31 151 169 151q59 0 107 -17l-32 -66q-44 12 -68 12q-40 0 -61 -21t-32 -69z" />
    <glyph glyph-name="Scommaaccent" unicode="&#x218;" horiz-adv-x="639" 
d="M376 725q147 0 264 -112l-57 -62q-101 95 -212 95q-73 0 -122.5 -37t-49.5 -93q0 -18 7.5 -32t18 -24t36 -21t47 -18.5t64.5 -20.5q118 -37 163.5 -79t45.5 -114q0 -87 -69 -155t-193 -68q-89 0 -159 30.5t-142 92.5l56 66q73 -60 128 -84.5t120 -24.5q76 0 122.5 40
t46.5 99q0 49 -37 72.5t-135 53.5q-117 36 -163 74t-46 107q0 85 71.5 150t194.5 65zM298 -72l-19 -88l-77 -92h-48l71 92h-47l19 88h101z" />
    <glyph glyph-name="scommaaccent" unicode="&#x219;" horiz-adv-x="477" 
d="M256 506q112 0 199 -82l-50 -56q-75 69 -155 69q-46 0 -76 -22.5t-30 -52.5q0 -27 22 -40t88 -33q93 -28 130 -56t37 -85q0 -71 -55.5 -116.5t-150.5 -45.5q-115 0 -216 93l52 55q90 -78 170 -78q54 0 85 24t31 62q0 13 -6.5 23.5t-13.5 17t-26 14t-30.5 11.5t-38.5 12
q-7 2 -10 3q-88 24 -119.5 53t-31.5 76q0 61 52.5 107.5t142.5 46.5zM243 -72l-19 -88l-77 -92h-48l71 92h-47l19 88h101z" />
    <glyph glyph-name="uni021A" unicode="&#x21a;" horiz-adv-x="595" 
d="M664 710l-18 -78h-222l-133 -632h-93l134 632h-222l17 78h537zM282 -72l-19 -88l-77 -92h-48l71 92h-47l19 88h101z" />
    <glyph glyph-name="uni021B" unicode="&#x21b;" horiz-adv-x="355" 
d="M234 428l-62 -289q-8 -42 1 -59t43 -17q30 0 69 13l7 -68q-42 -19 -98 -19q-72 0 -98.5 36t-9.5 112l62 291h-92l13 64h92l35 164h86l-35 -164h127l-14 -64h-126zM89 -160l19 88h101l-19 -88l-77 -92h-48l71 92h-47z" />
    <glyph glyph-name="uni0237" unicode="&#x237;" horiz-adv-x="219" 
d="M-134 -115q40 -9 62 -9q37 0 53.5 21.5t28.5 72.5l110 522h86l-113 -536q-16 -78 -52 -114t-105 -36q-52 0 -95 16z" />
    <glyph glyph-name="circumflex" unicode="&#x2c6;" horiz-adv-x="467" 
d="M390 572l-59 101l-102 -101h-79l131 144h108l69 -144h-68z" />
    <glyph glyph-name="caron" unicode="&#x2c7;" horiz-adv-x="488" 
d="M498 716l-131 -144h-108l-69 144h69l58 -102l102 102h79z" />
    <glyph glyph-name="breve" unicode="&#x2d8;" horiz-adv-x="490" 
d="M328 571q65 0 105.5 33.5t51.5 97.5h-68q-14 -78 -86 -78q-43 0 -57 23t-9 55h-67q-10 -54 23.5 -92.5t106.5 -38.5z" />
    <glyph glyph-name="dotaccent" unicode="&#x2d9;" horiz-adv-x="280" 
d="M278 692l-22 -103h-86l22 103h86z" />
    <glyph glyph-name="ring" unicode="&#x2da;" horiz-adv-x="426" 
d="M308 766q45 0 71.5 -26.5t26.5 -67.5q0 -48 -32.5 -81t-82.5 -33q-44 0 -71 26.5t-27 66.5q0 48 33.5 81.5t81.5 33.5zM305 723q-27 0 -45.5 -21t-18.5 -51q0 -24 14 -37t37 -13q29 0 47.5 20.5t18.5 50.5q0 51 -53 51z" />
    <glyph glyph-name="ogonek" unicode="&#x2db;" horiz-adv-x="358" 
d="M184 22l25 -22q-100 -61 -100 -115q0 -37 42 -37q13 0 27 3l-12 -54q-12 -5 -35 -5q-39 0 -61.5 20t-22.5 54q0 93 137 156z" />
    <glyph glyph-name="tilde" unicode="&#x2dc;" horiz-adv-x="520" 
d="M286 692q30 0 69 -25.5t54 -25.5q32 0 42 50h56q-10 -51 -35.5 -80t-59.5 -29q-28 0 -68 25t-62 25q-33 0 -46 -49h-56q11 51 39.5 80t66.5 29z" />
    <glyph glyph-name="hungarumlaut" unicode="&#x2dd;" horiz-adv-x="507" 
d="M357 716l-124 -145h-69l103 145h90zM515 716l-125 -145h-70l105 145h90z" />
    <glyph glyph-name="uni0326" unicode="&#x326;" horiz-adv-x="0" 
d="M-164 -72l-19 -88l-77 -92h-48l71 92h-47l19 88h101z" />
    <glyph glyph-name="uni0394" unicode="&#x394;" horiz-adv-x="669" 
d="M395 710l258 -710h-636l257 710h121zM138 77h392l-97 274q-71 198 -100 292q-26 -88 -99 -293z" />
    <glyph glyph-name="uni03A9" unicode="&#x3a9;" horiz-adv-x="781" 
d="M515 78h219v-78h-307v121q90 16 146.5 86.5t56.5 177.5q0 116 -66.5 188t-176.5 72q-109 0 -176 -72.5t-67 -187.5q0 -106 57 -177t146 -87v-121h-300v78h212q-97 34 -153 115.5t-56 191.5q0 150 91.5 245.5t245.5 95.5q155 0 246 -95.5t91 -245.5q0 -110 -56 -191.5
t-153 -115.5z" />
    <glyph glyph-name="uni03BC" unicode="&#x3bc;" horiz-adv-x="537" 
d="M384 492h86v-492h-78v68q-43 -82 -139 -82q-67 0 -101 34v-203h-86v675h86v-324q0 -108 108 -108q53 0 88.5 34.5t35.5 97.5v300z" />
    <glyph glyph-name="pi" unicode="&#x3c0;" horiz-adv-x="604" 
d="M575 73l10 -67q-44 -16 -85 -16q-66 0 -91.5 30.5t-25.5 94.5v311h-187v-426h-86v426h-92v66h539v-66h-88v-296q0 -38 10.5 -52.5t38.5 -14.5q24 0 57 10z" />
    <glyph glyph-name="Wgrave" unicode="&#x1e80;" horiz-adv-x="943" 
d="M611 776h-69l-64 144h91zM911 710h96l-322 -710h-113l-19 326q-8 173 -9 266q-52 -119 -123 -267l-156 -325h-114l-20 710h90l7 -342q3 -122 1 -274q58 134 126 274l166 342h93l18 -342q8 -187 9 -274l117 274z" />
    <glyph glyph-name="wgrave" unicode="&#x1e81;" horiz-adv-x="740" 
d="M460 572h-69l-64 144h91zM674 493h89l-242 -493h-108l-10 159q-9 128 -11 226l-107 -228l-75 -157h-108l-30 493h85l9 -184q5 -102 7 -235l109 234l91 185h82l13 -185q8 -111 10 -235q49 115 107 234z" />
    <glyph glyph-name="Wacute" unicode="&#x1e82;" horiz-adv-x="943" 
d="M741 920l-125 -144h-79l101 144h103zM911 710h96l-322 -710h-113l-19 326q-8 173 -9 266q-52 -119 -123 -267l-156 -325h-114l-20 710h90l7 -342q3 -122 1 -274q58 134 126 274l166 342h93l18 -342q8 -187 9 -274l117 274z" />
    <glyph glyph-name="wacute" unicode="&#x1e83;" horiz-adv-x="740" 
d="M590 716l-125 -144h-79l101 144h103zM674 493h89l-242 -493h-108l-10 159q-9 128 -11 226l-107 -228l-75 -157h-108l-30 493h85l9 -184q5 -102 7 -235l109 234l91 185h82l13 -185q8 -111 10 -235q49 115 107 234z" />
    <glyph glyph-name="Wdieresis" unicode="&#x1e84;" horiz-adv-x="943" 
d="M558 896l-21 -103h-85l22 103h84zM734 896l-22 -103h-84l22 103h84zM911 710h96l-322 -710h-113l-19 326q-8 173 -9 266q-52 -119 -123 -267l-156 -325h-114l-20 710h90l7 -342q3 -122 1 -274q58 134 126 274l166 342h93l18 -342q8 -187 9 -274l117 274z" />
    <glyph glyph-name="wdieresis" unicode="&#x1e85;" horiz-adv-x="740" 
d="M408 692l-21 -103h-85l22 103h84zM584 692l-22 -103h-84l22 103h84zM674 493h89l-242 -493h-108l-10 159q-9 128 -11 226l-107 -228l-75 -157h-108l-30 493h85l9 -184q5 -102 7 -235l109 234l91 185h82l13 -185q8 -111 10 -235q49 115 107 234z" />
    <glyph glyph-name="Ygrave" unicode="&#x1ef2;" horiz-adv-x="631" 
d="M451 776h-69l-64 144h91zM607 710h108l-339 -407l-64 -303h-92l64 304l-163 406h94l127 -325z" />
    <glyph glyph-name="ygrave" unicode="&#x1ef3;" horiz-adv-x="483" 
d="M333 572h-69l-64 144h91zM427 492h89l-311 -564q-37 -67 -73 -94.5t-95 -27.5q-41 0 -77 12l23 65q28 -6 48 -6q34 0 55.5 17t47.5 64l9 15l-76 519h86l22 -169q16 -121 30 -248l126 241z" />
    <glyph glyph-name="endash" unicode="&#x2013;" horiz-adv-x="723" 
d="M671 324l-15 -73h-586l14 73h587z" />
    <glyph glyph-name="emdash" unicode="&#x2014;" horiz-adv-x="966" 
d="M903 324l-15 -73h-807l15 73h807z" />
    <glyph glyph-name="quoteleft" unicode="&#x2018;" horiz-adv-x="200" 
d="M90 489l22 102l85 119h51l-79 -119h47l-22 -102h-104z" />
    <glyph glyph-name="quoteright" unicode="&#x2019;" horiz-adv-x="200" 
d="M250 710l-22 -102l-84 -119h-52l79 119h-47l22 102h104z" />
    <glyph glyph-name="quotesinglbase" unicode="&#x201a;" horiz-adv-x="197" 
d="M120 104l-21 -104l-83 -114h-49l73 114h-46l22 104h104z" />
    <glyph glyph-name="quotedblleft" unicode="&#x201c;" horiz-adv-x="381" 
d="M90 489l22 102l85 119h51l-79 -119h47l-22 -102h-104zM271 489l22 102l84 119h52l-79 -119h47l-22 -102h-104z" />
    <glyph glyph-name="quotedblright" unicode="&#x201d;" horiz-adv-x="381" 
d="M250 710l-22 -102l-84 -119h-52l79 119h-47l22 102h104zM431 710l-22 -102l-85 -119h-51l79 119h-47l22 102h104z" />
    <glyph glyph-name="quotedblbase" unicode="&#x201e;" horiz-adv-x="378" 
d="M119 104l-22 -104l-83 -114h-48l73 114h-46l22 104h104zM300 104l-22 -104l-83 -114h-49l73 114h-45l21 104h105z" />
    <glyph glyph-name="dagger" unicode="&#x2020;" 
d="M580 442v-77h-210v-562h-87v562h-210v77h210v268h87v-268h210z" />
    <glyph glyph-name="daggerdbl" unicode="&#x2021;" 
d="M560 415h-210v-230h210v-77h-210v-305h-87v305h-210v77h210v230h-210v77h210v218h87v-218h210v-77z" />
    <glyph glyph-name="bullet" unicode="&#x2022;" horiz-adv-x="500" 
d="M254 475q73 0 125 -51.5t52 -124.5q0 -72 -52 -124.5t-125 -52.5q-72 0 -124 52.5t-52 124.5q0 73 51.5 124.5t124.5 51.5z" />
    <glyph glyph-name="ellipsis" unicode="&#x2026;" horiz-adv-x="630" 
d="M130 108l-23 -108h-102l23 108h102zM337 108l-23 -108h-102l23 108h102zM544 108l-22 -108h-102l22 108h102z" />
    <glyph glyph-name="perthousand" unicode="&#x2030;" horiz-adv-x="1238" 
d="M733 695l47 -38l-620 -672l-45 39zM261 691q58 0 95.5 -37t37.5 -95q0 -71 -43.5 -129t-124.5 -58q-60 0 -97.5 37t-37.5 99q0 41 17 81.5t57.5 71t95.5 30.5zM255 636q-46 0 -72 -39.5t-26 -85.5q0 -38 19 -60.5t54 -22.5q48 0 73 40.5t25 87.5q0 80 -73 80zM657 308
q59 0 96 -36.5t37 -94.5q0 -71 -43.5 -129t-124.5 -58q-60 0 -97.5 37t-37.5 99q0 67 44.5 124.5t125.5 57.5zM1028 308q58 0 95 -36.5t37 -94.5q0 -71 -43.5 -129t-124.5 -58q-60 0 -97.5 37t-37.5 99q0 67 45 124.5t126 57.5zM651 253q-46 0 -72 -39t-26 -85q0 -38 19 -61
t54 -23q48 0 73 41t25 88q0 79 -73 79zM1021 253q-46 0 -72 -39t-26 -85q0 -38 19 -61t54 -23q48 0 73 41t25 88q0 79 -73 79z" />
    <glyph glyph-name="guilsinglleft" unicode="&#x2039;" horiz-adv-x="354" 
d="M339 471l-193 -225l92 -211h-81l-94 218l186 218h90z" />
    <glyph glyph-name="guilsinglright" unicode="&#x203a;" horiz-adv-x="354" 
d="M198 471l95 -218l-186 -218h-90l193 225l-93 211h81z" />
    <glyph glyph-name="fraction" unicode="&#x2044;" horiz-adv-x="227" 
d="M407 695l47 -38l-620 -672l-45 39z" />
    <glyph glyph-name="Euro" unicode="&#x20ac;" horiz-adv-x="610" 
d="M473 620q-131 0 -207 -161h259l-14 -64h-269q-15 -47 -21 -93h271l-14 -63h-262v-4q0 -175 141 -175q39 0 71.5 11t80.5 41l37 -64q-96 -64 -193 -64q-109 0 -166 67t-57 179q0 6 1 9h-79l14 63h69q6 50 19 93h-69l14 64h77q42 105 118 171t184 66q109 0 184 -72l-54 -56
q-61 52 -135 52z" />
    <glyph glyph-name="uni20B9" unicode="&#x20b9;" 
d="M624 617h-130q38 -41 41 -105h66l-12 -62h-60q-16 -73 -76.5 -121t-168.5 -48h-92l236 -281h-108l-232 281l15 68h173q140 0 168 101h-320l13 62h312q-9 93 -118 93h-174l16 75h464z" />
    <glyph glyph-name="uni20BA" unicode="&#x20ba;" 
d="M479 299l77 -13l-24 -61q-51 -128 -125 -176.5t-209 -48.5h-111l55 257l-103 -41l15 66l102 41l22 105l-102 -41l14 66l102 41l39 186h89l-32 -147l181 74l-14 -66l-181 -74l-22 -105l181 74l-14 -66l-181 -73l-47 -221h11q101 0 157 33.5t97 132.5z" />
    <glyph glyph-name="uni20BD" unicode="&#x20bd;" horiz-adv-x="610" 
d="M365 283h-137l-19 -92h215l-14 -62h-214l-27 -129h-89l28 129h-95l14 62h94l19 92h-94l15 67h93l70 330h194q86 0 139.5 -46t53.5 -128q0 -97 -62 -160t-184 -63zM297 605l-54 -255h111q90 0 131.5 42t41.5 107q0 52 -32 79t-90 27h-108z" />
    <glyph glyph-name="uni2116" unicode="&#x2116;" horiz-adv-x="1177" 
d="M996 332q-82 0 -133.5 52.5t-51.5 139.5t51.5 139.5t133.5 52.5q81 0 133 -52.5t52 -139.5q0 -88 -51 -140t-134 -52zM632 386v324h90v-710h-101l-197 323q-119 196 -158 266q4 -85 4 -270v-319h-89v710h101l200 -328q130 -218 154 -263q-4 113 -4 267zM996 650
q-48 0 -78.5 -34t-30.5 -92t30.5 -92t78.5 -34t79 34.5t31 91.5t-31 91.5t-79 34.5zM831 202v68h331v-68h-331z" />
    <glyph glyph-name="uni2117" unicode="&#x2117;" horiz-adv-x="856" 
d="M449 723q156 0 262 -105.5t106 -262.5t-106 -262.5t-262 -105.5t-262 105.5t-106 262.5t106 262.5t262 105.5zM449 670q-133 0 -219.5 -90.5t-86.5 -224.5t86.5 -224.5t219.5 -90.5t220 90.5t87 224.5t-87 224.5t-220 90.5zM483 562q59 0 96.5 -36.5t37.5 -92.5
q0 -62 -36 -92.5t-98 -30.5h-102v-162h-64v414h166zM468 504h-87v-140h87q85 0 85 70q0 32 -21.5 51t-63.5 19z" />
    <glyph glyph-name="trademark" unicode="&#x2122;" horiz-adv-x="955" 
d="M433 710v-54h-137v-333h-62v333h-137v54h336zM941 710v-387h-59v310l-127 -310h-57l-131 306v-306h-60v387h88l132 -313l125 313h89z" />
    <glyph glyph-name="uni2154" unicode="&#x2154;" horiz-adv-x="1042" 
d="M815 695l47 -38l-620 -672l-45 39zM379 331l-14 -59h-316l6 28q14 62 56.5 101.5t110.5 70.5q12 6 35 16t32 14.5l24.5 12.5t21.5 13.5t13.5 13.5t10 16.5t2.5 19.5q0 25 -19.5 38t-51.5 13q-56 0 -129 -51l-32 50q82 62 165 62q62 0 99 -29t37 -74q0 -57 -37.5 -89.5
t-143.5 -78.5q-49 -23 -75.5 -41.5t-38.5 -46.5h244zM1008 408l-12 -58l-152 -106q57 0 88.5 -29.5t31.5 -75.5q0 -60 -45 -104.5t-124 -44.5q-90 0 -167 52l40 50q70 -41 127 -41q45 0 71.5 22.5t26.5 57.5q0 29 -20 46t-61 17q-37 0 -51 -7l-26 43l170 119h-197l12 59h288
z" />
    <glyph glyph-name="oneeighth" unicode="&#x215b;" horiz-adv-x="926" 
d="M712 695l47 -38l-620 -672l-45 39zM218 589l-85 -53l-26 52l146 92h54l-87 -408h-69zM801 218q56 -26 56 -85q0 -60 -45 -99.5t-128 -39.5q-75 0 -114 31t-39 78q0 41 24.5 74t75.5 48q-42 26 -42 78q0 53 43 86.5t113 33.5q67 0 101.5 -28.5t34.5 -71.5q0 -75 -80 -105z
M740 367q-44 0 -66 -20.5t-22 -49.5q0 -23 18.5 -38t49.5 -15q41 0 68 19.5t27 52.5q0 23 -20 37t-55 14zM686 53q47 0 75 22.5t28 58.5q0 26 -21 42.5t-60 16.5q-54 0 -81.5 -25t-27.5 -57q0 -25 22.5 -41.5t64.5 -16.5z" />
    <glyph glyph-name="threeeighths" unicode="&#x215c;" horiz-adv-x="1024" 
d="M809 695l47 -38l-620 -672l-45 39zM389 411q0 -60 -45 -104.5t-124 -44.5q-90 0 -167 52l40 50q70 -41 127 -41q45 0 71.5 22.5t26.5 57.5q0 29 -20 46t-61 17q-37 0 -51 -7l-26 43l170 119h-197l12 59h288l-12 -58l-153 -106q57 0 89 -29.5t32 -75.5zM899 218
q56 -26 56 -85q0 -60 -45 -99.5t-128 -39.5q-75 0 -114 31t-39 78q0 41 24.5 74t75.5 48q-42 26 -42 78q0 53 43 86.5t113 33.5q67 0 101.5 -28.5t34.5 -71.5q0 -75 -80 -105zM838 367q-44 0 -66 -20.5t-22 -49.5q0 -23 18.5 -38t49.5 -15q41 0 68 19.5t27 52.5q0 23 -20 37
t-55 14zM784 53q47 0 75 22.5t28 58.5q0 26 -21 42.5t-60 16.5q-54 0 -81.5 -25t-27.5 -57q0 -25 22.5 -41.5t64.5 -16.5z" />
    <glyph glyph-name="fiveeighths" unicode="&#x215d;" horiz-adv-x="1030" 
d="M815 695l47 -38l-620 -672l-45 39zM401 426q0 -62 -45 -113t-136 -51q-86 0 -162 54l39 51q65 -44 124 -44q49 0 79 28t30 68q0 27 -19 44t-55 17q-48 0 -92 -32l-54 6l64 226h264l-13 -59h-206l-30 -106q38 23 90 23q57 0 89.5 -32.5t32.5 -79.5zM905 218q56 -26 56 -85
q0 -60 -45 -99.5t-128 -39.5q-75 0 -114 31t-39 78q0 41 24.5 74t75.5 48q-42 26 -42 78q0 53 43 86.5t113 33.5q67 0 101.5 -28.5t34.5 -71.5q0 -75 -80 -105zM844 367q-44 0 -66 -20.5t-22 -49.5q0 -23 18.5 -38t49.5 -15q41 0 68 19.5t27 52.5q0 23 -20 37t-55 14z
M790 53q47 0 75 22.5t28 58.5q0 26 -21 42.5t-60 16.5q-54 0 -81.5 -25t-27.5 -57q0 -25 22.5 -41.5t64.5 -16.5z" />
    <glyph glyph-name="seveneighths" unicode="&#x215e;" horiz-adv-x="944" 
d="M730 695l47 -38l-620 -672l-45 39zM110 272q22 86 86 183.5t143 165.5h-235l13 59h319l-12 -54q-180 -155 -239 -354h-75zM819 218q56 -26 56 -85q0 -60 -45 -99.5t-128 -39.5q-75 0 -114 31t-39 78q0 41 24.5 74t75.5 48q-42 26 -42 78q0 53 43 86.5t113 33.5
q67 0 101.5 -28.5t34.5 -71.5q0 -75 -80 -105zM758 367q-44 0 -66 -20.5t-22 -49.5q0 -23 18.5 -38t49.5 -15q41 0 68 19.5t27 52.5q0 23 -20 37t-55 14zM704 53q47 0 75 22.5t28 58.5q0 26 -21 42.5t-60 16.5q-54 0 -81.5 -25t-27.5 -57q0 -25 22.5 -41.5t64.5 -16.5z" />
    <glyph glyph-name="arrowleft" unicode="&#x2190;" horiz-adv-x="924" 
d="M910 376v-73h-701l256 -252l-54 -53l-341 341l341 341l54 -53l-255 -251h700z" />
    <glyph glyph-name="arrowup" unicode="&#x2191;" horiz-adv-x="728" 
d="M708 441l-51 -52l-232 235v-624h-80v625l-233 -236l-52 52l325 325z" />
    <glyph glyph-name="arrowright" unicode="&#x2192;" horiz-adv-x="923" 
d="M552 680l341 -341l-341 -341l-53 53l255 252h-701v73h700l-254 251z" />
    <glyph glyph-name="arrowdown" unicode="&#x2193;" horiz-adv-x="728" 
d="M637 321l51 -52l-323 -325l-325 325l52 52l233 -236v625h80v-624z" />
    <glyph glyph-name="uni2196" unicode="&#x2196;" horiz-adv-x="731" 
d="M701 131l-53 -52l-504 505v-363h-74v489h489v-72h-364z" />
    <glyph glyph-name="uni2197" unicode="&#x2197;" horiz-adv-x="731" 
d="M172 710h489v-489h-73v363l-505 -505l-53 52l507 507h-365v72z" />
    <glyph glyph-name="uni2198" unicode="&#x2198;" horiz-adv-x="731" 
d="M588 489h73v-489h-489v72h365l-507 507l53 52l505 -505v363z" />
    <glyph glyph-name="uni2199" unicode="&#x2199;" horiz-adv-x="731" 
d="M701 579l-506 -507h364v-72h-489v489h74v-363l504 505z" />
    <glyph glyph-name="partialdiff" unicode="&#x2202;" horiz-adv-x="555" 
d="M153 720q183 -24 274.5 -134.5t91.5 -292.5q0 -143 -65 -226t-179 -83q-108 0 -173 73t-65 175q0 101 60 172.5t159 71.5q59 0 105 -25.5t73 -70.5q-39 229 -300 266zM275 59q67 0 108.5 49.5t41.5 122.5q0 71 -44.5 121t-111.5 50q-66 0 -105.5 -49t-39.5 -122
t41 -122.5t110 -49.5z" />
    <glyph glyph-name="product" unicode="&#x220f;" horiz-adv-x="716" 
d="M655 710v-820h-93v743h-368v-743h-93v820h554z" />
    <glyph glyph-name="summation" unicode="&#x2211;" horiz-adv-x="597" 
d="M560 710v-77h-379l249 -332l-252 -337h409v-77h-517v72l252 342l-249 337v72h487z" />
    <glyph glyph-name="minus" unicode="&#x2212;" horiz-adv-x="600" 
d="M560 347v-74h-520v74h520z" />
    <glyph glyph-name="radical" unicode="&#x221a;" horiz-adv-x="611" 
d="M541 710h94l-254 -710h-121l-183 492h95l150 -412z" />
    <glyph glyph-name="infinity" unicode="&#x221e;" horiz-adv-x="808" 
d="M590 456q73 0 119.5 -47.5t46.5 -118.5q0 -70 -46 -117.5t-114 -47.5q-97 0 -190 108l-4 5q-53 -63 -96 -88t-97 -25q-67 0 -112 47.5t-45 117.5q0 71 47 118.5t120 47.5q52 0 95 -27t89 -83l1 -2q96 112 186 112zM212 192q38 0 71 22t76 73l-2 2q-4 5 -20 23t-20 22
l-16.5 17t-19 16.5l-18 10t-22 8t-23.5 1.5q-42 0 -68 -27.5t-26 -70.5t25 -70t63 -27zM593 192q40 0 65 26.5t25 70.5q0 43 -25.5 70.5t-68.5 27.5q-71 0 -142 -95l4 -5q39 -47 71 -71t71 -24z" />
    <glyph glyph-name="integral" unicode="&#x222b;" horiz-adv-x="600" 
d="M320 -41q0 -153 -139 -153q-51 0 -96 15l18 65q43 -10 68 -10q35 0 49 20t14 64v614q0 73 38 112t110 39q51 0 100 -17l-18 -66q-40 12 -68 12q-41 0 -58.5 -21t-17.5 -69v-605z" />
    <glyph glyph-name="approxequal" unicode="&#x2248;" horiz-adv-x="661" 
d="M223 468q40 0 105.5 -28t95.5 -28q27 0 46 9.5t54 41.5l43 -49q-42 -44 -70.5 -58t-70.5 -14q-35 0 -101.5 27.5t-100.5 27.5q-29 0 -50 -11t-52 -40l-43 49q39 41 71.5 57t72.5 16zM223 268q40 0 105.5 -28t95.5 -28q27 0 46 9.5t54 41.5l43 -49q-42 -44 -70.5 -58
t-70.5 -14q-35 0 -101 27.5t-101 27.5q-29 0 -50 -11t-52 -40l-43 49q39 41 71.5 57t72.5 16z" />
    <glyph glyph-name="notequal" unicode="&#x2260;" horiz-adv-x="600" 
d="M560 373h-202l-46 -126h248v-74h-275l-44 -118h-76l43 118h-168v74h195l46 126h-241v74h268l42 114h77l-42 -114h175v-74z" />
    <glyph glyph-name="lessequal" unicode="&#x2264;" horiz-adv-x="600" 
d="M540 548v-79l-384 -140l384 -139v-79l-480 180v77zM560 74v-74h-520v74h520z" />
    <glyph glyph-name="greaterequal" unicode="&#x2265;" horiz-adv-x="601" 
d="M60 548l480 -180v-77l-480 -180v79l384 139l-384 140v79zM560 74v-74h-520v74h520z" />
    <glyph glyph-name="lozenge" unicode="&#x25ca;" horiz-adv-x="609" 
d="M375 710l216 -356l-216 -354h-103l-217 354l217 356h103zM323 640l-174 -286l174 -284l174 284z" />
    <glyph glyph-name="uni2923" unicode="&#x2923;" horiz-adv-x="631" 
d="M325 670q111 -114 143 -155q96 -121 96 -238q0 -51 -16.5 -99t-52.5 -98t-65.5 -84t-82.5 -90l-21 -22l-60 56q111 117 144 162q69 93 69 175q0 26 -7 53t-14.5 48t-27 50l-30.5 45t-41 49l-42 45.5l-48 49.5l-25 26v-241h-71v363h362v-69h-235z" />
    <glyph glyph-name="uni2924" unicode="&#x2924;" horiz-adv-x="632" 
d="M189 765h363v-363h-71v241l-26 -26l-48 -49.5l-42 -45.5t-41 -49l-30.5 -45t-27 -50t-14.5 -48t-7 -53q0 -41 13.5 -79.5t46.5 -83t57.5 -72l77.5 -83.5q12 -12 18 -19l-59 -56q-114 120 -150 167q-89 118 -89 226q0 122 107 251q31 37 133 142l24 26h-235v69z" />
    <glyph glyph-name="uni2925" unicode="&#x2925;" horiz-adv-x="632" 
d="M464 291h72v-363h-363v69h235l-25 26q-111 114 -143 155q-96 121 -96 238q0 51 16.5 99t52.5 98t65.5 84t82.5 90l21 22l60 -56q-111 -117 -144 -162q-69 -93 -69 -175q0 -26 7 -53t14.5 -48t27 -50l30.5 -45t41 -49l42 -45.5l48 -49.5l25 -26v241z" />
    <glyph glyph-name="uni2926" unicode="&#x2926;" horiz-adv-x="631" 
d="M247 23l-25 -26h236v-69h-363v363h71v-241l25 26l48 49.5l42 45.5t41 49l30.5 45t27 50t14.5 48t7 53q0 41 -13.5 79.5t-47.5 84.5t-57.5 72.5l-77.5 83.5q-11 11 -16 17l59 56q114 -120 150 -167q89 -118 89 -226q0 -122 -107 -251q-31 -37 -133 -142z" />
    <glyph glyph-name="uniE000" unicode="&#xe000;" horiz-adv-x="1792" 
d="M315 0h-265v230h13q38 -101 105.5 -159t144.5 -58q61 0 95.5 38.5t34.5 91.5q0 55 -38 94q-31 30 -86 48.5l-111.5 39t-92.5 56.5q-58 58 -58 144q0 78 48.5 131.5t126.5 53.5h243v-197h-10q-39 69 -76 106q-76 78 -158 78q-26 0 -49.5 -8t-44 -34t-20.5 -67
q0 -54 34 -88q32 -32 91 -50.5t122 -41t104 -63.5q50 -48 50 -135q0 -98 -55.5 -154t-147.5 -56zM503 710h375q144 0 234 -105.5t90 -261.5q0 -50 -11 -97.5t-36.5 -92.5t-63 -78.5t-95 -54t-127.5 -20.5h-365v13h20q56 0 82.5 23.5t26.5 75.5v486q0 51 -26.5 75t-82.5 24
h-21v13zM1149 13h16q57 0 83.5 24t26.5 75v486q0 52 -26.5 75.5t-83.5 23.5h-17v13h384v-13h-27q-56 0 -82 -23.5t-26 -75.5v-486q0 -55 16.5 -77t58.5 -22h66q49 0 86.5 43t105.5 188h12v-244h-593v13zM1654 697v13h-55v-13h20v-54h15v54h20zM1742 643v67h-22l-17 -45
l-16 45h-23v-67h15v49l18 -49h11l19 49v-49h15zM862 13q57 0 99 26t65.5 71.5t34.5 100t11 118.5q0 189 -61.5 278.5t-151.5 89.5h-65q-23 0 -31 -10t-8 -36v-554q0 -84 107 -84z" />
    <glyph glyph-name="uniE001" unicode="&#xe001;" horiz-adv-x="1011" 
d="M313 -39q92 -43 192 -43q131 0 243.5 70.5t169.5 192.5q43 92 43 191q0 130 -70.5 243t-192.5 170q-92 43 -192 43q-131 0 -243.5 -70t-169.5 -193q-43 -92 -43 -191q0 -130 70.5 -243t192.5 -170zM692 773q118 -55 186 -164.5t68 -236.5q0 -98 -41 -186
q-55 -118 -164 -186t-236 -68q-98 0 -186 41q-119 55 -187 164.5t-68 236.5q0 98 41 186q55 118 164.5 186t236.5 68q98 0 186 -41zM535 784l-8 -64l22 -3l3 23l22 -3l2 16l-22 3l1 9l23 -2l2 15zM429 734l1 -11q8 -8 22 -8q28 0 33 16l-2 18q-5 7 -27 8h-2q-5 0 -7 2v4
q0 1 5 3q4 0 6 -2v-4l23 3l-2 11q-6 9 -21 9q-28 0 -34 -16l3 -18q6 -8 27 -8h2q6 0 6 -2l1 -5q-1 -1 -5 -3q-6 0 -6 2l-1 4zM617 723l4 -23l17 -6l4 12l-4 14q4 1 10 5l7 21q-3 12 -16 16l-35 12l-20 -62l22 -7l6 20zM385 720l17 -16l18 6l-4 12l-12 8q3 3 5 11l-7 20
q-5 5 -14 5q-5 0 -8 -1l-35 -12l21 -61l21 7l-6 20zM624 736l-7 3l4 13l7 -3q4 -1 5 -4l-3 -8q-1 -1 -6 -1zM384 736l-8 -3l-4 12l7 3q2 1 5 0h1l3 -9q-3 -3 -4 -3zM282 720l32 -57l41 23l-7 14l-22 -12l-4 8l19 11l-7 14l-20 -11l-4 7l21 12l-8 14zM675 735l-20 -35
q0 -15 18 -26q10 -5 20 -5q8 0 12 4l20 35q0 15 -19 26q-9 5 -19 5q-8 0 -12 -4zM703 714l-15 -26q-2 -2 -7 1q-4 2 -4 4l15 27q1 1 6 -1t5 -5zM244 670l32 -37l17 14l-31 38l11 9l-10 12l-40 -33l10 -12zM753 704l-43 -48l15 -14l22 25l2 -2l-8 -23l7 -7l23 10l1 -1
l-22 -25l16 -14l43 48l-21 19l-20 -11l-2 2l8 22zM371 84q65 -30 134 -30q91 0 170 49t119 135q30 66 30 134q0 92 -49 170.5t-135 119.5q-64 30 -134 30q-91 0 -170 -49t-119 -135q-30 -64 -30 -134q0 -91 49 -170t135 -120zM634 649q82 -39 129.5 -114t47.5 -162
q0 -65 -29 -129q-38 -82 -113.5 -129t-163.5 -47q-65 0 -128 29q-82 38 -129.5 114t-47.5 163q0 65 29 128q38 82 113.5 129t163.5 47q65 0 128 -29zM194 618l38 -32l14 18l-37 31l9 12l-12 10l-33 -40l12 -11zM808 584l-9 -5q-3 -6 -3 -11q0 -7 6 -19q10 -18 25 -18l16 9
q2 4 2 8q0 5 -5 20l-1 2q-1 3 -1 7l4 2q3 0 4 -4q1 -1 1.5 -3t-0.5 -3l-4 -2l12 -19l9 5q3 5 3 11q0 11 -6 19q-11 18 -25 18l-15 -9q-2 -4 -2 -9q0 -8 5 -19l1 -2q2 -5 0 -7l-4 -2q-3 0 -4 4q-3 3 -1 6l4 2zM137 557l56 -32l23 41l-13 8l-12 -22l-8 5l11 20l-14 7l-11 -19
l-7 4l12 21l-14 8zM510 516q5 12 5 21q0 21 -17 21t-28 -23q-5 -12 -5 -21q0 -21 16 -21q17 0 29 23zM874 532l-47 -25l8 -26l24 1l1 -1l-21 -12l7 -26l53 6l12 4l-6 18l-36 -5v1l32 18l-5 16l-37 -3v2l33 14l-6 21zM113 498l61 -23l14 39l-15 5l-6 -17l-46 17zM652 450
q5 12 5 21q0 21 -17 21t-28 -23q-5 -12 -5 -21q0 -21 17 -21t28 23zM140 425q1 2 1 6q0 7 -6 9q-2 1 -6 1q-7 0 -10 -6l-1 -2v-3q0 -8 7 -11q1 0 2.5 -0.5t2.5 -0.5q8 0 10 7zM914 426l-65 -5l4 -47l15 2l-1 24l9 1l1 -23l16 1l-1 23l8 1l2 -25l15 2zM612 271l15 -7
q-21 -37 -57.5 -58t-78.5 -21q-35 0 -66 15q-42 19 -66.5 58t-24.5 84q0 28 10 54l15 -7q-8 -24 -8 -47q0 -40 21.5 -74.5t59.5 -52.5q27 -13 59 -13q36 0 69 18.5t52 50.5zM96 322l65 4l-1 15l-35 -2v1l24 7l-1 8l-24 4v2l35 2l-1 15l-66 -4l2 -20l21 -4l1 -1l-22 -7z
M917 355l-64 7l-4 -33v-3q0 -14 10 -22l40 -4q12 4 15 22zM865 331l1 7l33 -3l-1 -7q0 -5 -2 -5l-29 3q-2 2 -2 5zM106 272l64 14l-7 29l-12 -3l3 -12l-52 -12zM905 274l-61 20l-14 -46l15 -4l7 23l9 -2l-7 -22l15 -5l7 22l8 -2l-7 -24l15 -4zM133 217l45 16q5 5 5 14
q0 1 -2 9q-6 15 -17 15l-44 -16q-5 -3 -5 -14q0 -6 1 -9q6 -15 17 -15zM131 242l33 12q2 0 4 -3l-1 -4l-34 -12q-2 0 -3 2q-1 3 1 5zM883 207l-57 30l-10 -18l25 -13l-1 -2h-32l-11 -21l57 -30l10 18l-25 13l1 2h32zM153 158l58 32l-8 14l-24 -13l-3 7l23 13l-8 14l-57 -31
l8 -15l21 12l4 -6l-22 -12zM188 110l52 39l-10 13l-14 -10l-3 -1l12 18l-8 11l-9 -7l-15 -24l-20 -2l-8 -6l7 -11l19 4v-1l-13 -10zM237 72l33 34v2q1 1 1 2q0 9 -8 18q-10 10 -20 7l-15 -15l11 -11l10 9l4 -1q1 -1 1 -4l-25 -25h-2q-4 1 -3 5l8 9l-11 11l-14 -14
q0 -12 8 -20q10 -11 22 -7zM800 118q1 1 1 4q0 8 -7 11q-2 1 -5 1q-7 0 -10 -7q-1 -1 -1 -4q0 -8 6 -11q2 -1 5 -1q7 0 11 7zM769 55l-39 53l-12 -9l20 -28l-1 -1l-18 16l-6 -4l9 -23l-1 -1l-21 28l-13 -9l39 -53l16 12l-8 20l1 1l17 -14zM285 35l27 38v4q0 9 -10 17
q-14 11 -22 3l-28 -38v-3q0 -11 10 -17q11 -8 23 -4zM269 54l21 29q2 1 4 0l2 -4l-21 -29q-2 -2 -5 0q-2 2 -1 4zM662 46l-9 14l-14 -7l5 -10l32 -45l23 11l-17 53l-4 10l-13 -7l5 -15zM325 17l25 46l-14 8l-25 -47l-9 5l-6 -12l32 -16l6 11zM398 21l4 13q0 10 -15 15
q-6 2 -9 2q-4 0 -12 -4l-7 -20q0 -9 12 -18h1q3 -3 3 -5l-2 -5q-1 -1 -3 -1q-4 0 -4 3l2 6l-15 5l-4 -12q3 -12 15 -16q3 -1 8 -1q7 0 13 3l7 19q0 8 -12 18l-1 1q-3 2 -3 4l2 7q2 2 4 0q3 0 3 -3l-2 -6zM648 -14l-19 63l-24 -8q-12 -4 -12 -13l14 -45q8 -8 18 -4zM674 38
l7 -19l-2 -1l-11 17zM589 -31l-11 65l-30 -5l2 -13l14 3l2 -14l-13 -3l2 -12l13 2l3 -13l-14 -2l2 -13zM474 -38l9 65l-16 2l-4 -32l-1 1l-5 32l-18 2l-8 -65l16 -2l4 31h1l5 -32zM613 30l4 1l12 -38l-4 -1q-2 -1 -4 1l-11 34q0 3 3 3zM512 -39v65l-17 1v-66h17z" />
    <glyph glyph-name="uniE002" unicode="&#xe002;" 
d="M459 352q37 -18 60 -54t23 -85q0 -83 -54.5 -146.5t-157.5 -66.5l-22 -100h-62l21 100h-75l-22 -100h-62l21 100h-111l144 680h111l22 100h62l-21 -100h76l21 100h62l-23 -107q54 -14 84.5 -52.5t30.5 -93.5q0 -62 -34 -110t-94 -65zM233 609l-45 -218h166q77 0 112 36
t35 92q0 41 -28.5 65.5t-82.5 24.5h-157zM297 72q85 0 122.5 41.5t37.5 100.5q0 50 -29 78t-86 28h-170l-51 -248h176z" />
    <glyph glyph-name="Adieresis.ss02" horiz-adv-x="670" 
d="M363 792q-21 0 -35.5 14t-14.5 35q0 24 18 42t43 18q21 0 35.5 -14t14.5 -34q0 -25 -18 -43t-43 -18zM541 792q-21 0 -35 14.5t-14 34.5q0 24 18 42t43 18q21 0 35 -14t14 -34q0 -25 -18 -43t-43 -18zM373 710h121l107 -710h-91l-26 181h-319l-102 -181h-98zM209 259h264
l-13 93q-38 277 -39 290q-41 -80 -159 -291z" />
    <glyph glyph-name="Cdotaccent.ss02" horiz-adv-x="667" 
d="M477 789q-22 0 -36.5 14.5t-14.5 35.5q0 26 18.5 44t44.5 18q22 0 36 -14t14 -35q0 -26 -18 -44.5t-44 -18.5zM454 726q144 0 238 -118l-65 -54q-76 91 -180 91q-74 0 -133.5 -35.5t-94 -91.5t-52.5 -118t-18 -122q0 -98 50.5 -155.5t140.5 -57.5q60 0 108.5 26t113.5 84
l57 -57q-130 -134 -278 -134q-136 0 -210.5 80t-74.5 205q0 58 13 118t43.5 121.5t74.5 109.5t113.5 78t153.5 30z" />
    <glyph glyph-name="Edieresis.ss02" horiz-adv-x="611" 
d="M346 792q-22 0 -36 14t-14 35q0 24 18 42t43 18q21 0 35.5 -14t14.5 -34q0 -25 -18 -43t-43 -18zM524 792q-21 0 -35 14.5t-14 34.5q0 24 18 42t43 18q21 0 35 -14t14 -34q0 -25 -18 -43t-43 -18zM653 710l-17 -77h-380l-49 -229h354l-16 -77h-354l-53 -250h389l-16 -77
h-481l151 710h472z" />
    <glyph glyph-name="Edotaccent.ss02" horiz-adv-x="611" 
d="M434 789q-22 0 -36.5 14.5t-14.5 35.5q0 26 18.5 44t44.5 18q22 0 36 -14t14 -35q0 -26 -18 -44.5t-44 -18.5zM653 710l-17 -77h-380l-49 -229h354l-16 -77h-354l-53 -250h389l-16 -77h-481l151 710h472z" />
    <glyph glyph-name="Gcommaaccent.ss02" horiz-adv-x="742" 
d="M370 294l16 78h313l-78 -372h-72l12 92q-82 -107 -228 -107q-129 0 -203 80t-74 204q0 60 13.5 120.5t44.5 121.5t76.5 108t116 76.5t156.5 29.5q166 0 276 -135l-68 -54q-51 58 -99.5 83t-115.5 25q-61 0 -113 -23t-87 -60.5t-59.5 -86t-35.5 -99t-11 -100.5
q0 -95 50.5 -152t148.5 -57q86 0 154.5 54.5t87.5 145.5l6 28h-227zM312 -69q25 0 41 -15.5t16 -44.5q0 -50 -35.5 -87t-89.5 -37l4 36q21 2 41.5 15t28.5 37q-10 -2 -17 -2q-23 0 -36 12t-13 32q0 23 17.5 38.5t42.5 15.5z" />
    <glyph glyph-name="Gdotaccent.ss02" horiz-adv-x="742" 
d="M499 789q-22 0 -36.5 14.5t-14.5 35.5q0 26 18.5 44t44.5 18q22 0 36 -14t14 -35q0 -26 -18 -44.5t-44 -18.5zM370 294l16 78h313l-78 -372h-72l12 92q-82 -107 -228 -107q-129 0 -203 80t-74 204q0 60 13.5 120.5t44.5 121.5t76.5 108t116 76.5t156.5 29.5
q166 0 276 -135l-68 -54q-51 58 -99.5 83t-115.5 25q-61 0 -113 -23t-87 -60.5t-59.5 -86t-35.5 -99t-11 -100.5q0 -95 50.5 -152t148.5 -57q86 0 154.5 54.5t87.5 145.5l6 28h-227z" />
    <glyph glyph-name="Idieresis.ss02" horiz-adv-x="274" 
d="M163 792q-21 0 -35.5 14t-14.5 35q0 24 18 42t43 18q21 0 35.5 -14t14.5 -34q0 -25 -18 -43t-43 -18zM341 792q-21 0 -35 14.5t-14 34.5q0 24 18 42t43 18q21 0 35 -14t14 -34q0 -25 -18 -43t-43 -18zM280 710l-151 -710h-92l151 710h92z" />
    <glyph glyph-name="Idotaccent.ss02" horiz-adv-x="274" 
d="M252 789q-22 0 -36.5 14.5t-14.5 35.5q0 26 18.5 44t44.5 18q22 0 36 -14t14 -35q0 -26 -18 -44.5t-44 -18.5zM280 710l-151 -710h-92l151 710h92z" />
    <glyph glyph-name="K.ss01" horiz-adv-x="659" 
d="M704 666l-301 -242l195 -424h-97l-169 368l-159 -127l-51 -241h-92l151 710h92l-75 -353l454 368z" />
    <glyph glyph-name="Kcommaaccent.ss01" horiz-adv-x="659" 
d="M704 666l-301 -242l195 -424h-97l-169 368l-159 -127l-51 -241h-92l151 710h92l-75 -353l454 368zM219 -160l19 88h101l-19 -88l-77 -92h-48l71 92h-47z" />
    <glyph glyph-name="Kcommaaccent.ss01.ss02" horiz-adv-x="659" 
d="M704 666l-301 -242l195 -424h-97l-169 368l-159 -127l-51 -241h-92l151 710h92l-75 -353l454 368zM284 -69q25 0 41 -15.5t16 -44.5q0 -50 -35.5 -87t-89.5 -37l4 36q21 2 41.5 15t28.5 37q-10 -2 -17 -2q-23 0 -36 12t-13 32q0 23 17.5 38.5t42.5 15.5z" />
    <glyph glyph-name="Kcommaaccent.ss02" horiz-adv-x="659" 
d="M727 710l-328 -277l199 -433h-97l-172 374l-155 -132l-52 -242h-92l151 710h92l-74 -348l406 348h122zM284 -69q25 0 41 -15.5t16 -44.5q0 -50 -35.5 -87t-89.5 -37l4 36q21 2 41.5 15t28.5 37q-10 -2 -17 -2q-23 0 -36 12t-13 32q0 23 17.5 38.5t42.5 15.5z" />
    <glyph glyph-name="Lcommaaccent.ss02" horiz-adv-x="533" 
d="M138 78h332l-16 -78h-424l151 710h92zM227 -69q25 0 41 -15.5t16 -44.5q0 -50 -35.5 -87t-89.5 -37l4 36q21 2 41.5 15t28.5 37q-10 -2 -17 -2q-23 0 -36 12t-13 32q0 23 17.5 38.5t42.5 15.5z" />
    <glyph glyph-name="Ldot.ss02" horiz-adv-x="533" 
d="M273 710l-135 -632h332l-16 -78h-424l151 710h92zM382 305q-24 0 -40 16.5t-16 40.5q0 27 20 47.5t49 20.5q23 0 39 -16.5t16 -39.5q0 -28 -20 -48.5t-48 -20.5z" />
    <glyph glyph-name="Ncommaaccent.ss02" horiz-adv-x="736" 
d="M659 710h90l-151 -710h-100l-142 324q-83 192 -115 275q-23 -138 -54 -280l-68 -319h-89l151 710h100l144 -329q77 -177 111 -269q23 135 54 274zM295 -69q25 0 41 -15.5t16 -44.5q0 -50 -35.5 -87t-89.5 -37l4 36q21 2 41.5 15t28.5 37q-10 -2 -17 -2q-23 0 -36 12
t-13 32q0 23 17.5 38.5t42.5 15.5z" />
    <glyph glyph-name="Odieresis.ss02" horiz-adv-x="749" 
d="M400 792q-22 0 -36 14t-14 35q0 24 18 42t43 18q21 0 35.5 -14t14.5 -34q0 -25 -18 -43t-43 -18zM578 792q-21 0 -35 14.5t-14 34.5q0 24 18 42t43 18q21 0 35 -14t14 -34q0 -25 -18 -43t-43 -18zM445 726q131 0 206 -79t75 -214q0 -59 -14 -120.5t-45 -120.5t-75 -105
t-109 -74.5t-142 -28.5q-132 0 -208 78.5t-76 214.5q0 58 14 119t45.5 120.5t75.5 106t110 75t143 28.5zM443 645q-72 0 -130 -35t-92.5 -90t-52.5 -117t-18 -122q0 -103 51 -159.5t141 -56.5q71 0 129 35t92 90t52 117.5t18 122.5q0 102 -50 158.5t-140 56.5z" />
    <glyph glyph-name="Rcommaaccent.ss02" horiz-adv-x="672" 
d="M667 529q0 -89 -55.5 -158t-165.5 -83l137 -288h-97l-134 285h-169l-61 -285h-92l151 710h283q93 0 148 -50t55 -131zM384 362q101 0 147 45.5t46 115.5q0 54 -35 82t-97 28h-189l-57 -271h185zM264 -69q25 0 41 -15.5t16 -44.5q0 -50 -35.5 -87t-89.5 -37l4 36
q21 2 41.5 15t28.5 37q-10 -2 -17 -2q-23 0 -36 12t-13 32q0 23 17.5 38.5t42.5 15.5z" />
    <glyph glyph-name="Scommaaccent.ss02" horiz-adv-x="639" 
d="M371 646q-73 0 -122.5 -37t-49.5 -93q0 -18 7.5 -32t18 -24t36 -21t47 -18.5t64.5 -20.5q118 -37 163.5 -79t45.5 -114q0 -87 -69 -155t-193 -68q-89 0 -159 30.5t-142 92.5l56 66q73 -60 128 -84.5t120 -24.5q76 0 122.5 40t46.5 99q0 49 -37 72.5t-135 53.5
q-117 36 -163 74t-46 107q0 85 71.5 150t194.5 65q147 0 264 -112l-57 -62q-101 95 -212 95zM243 -69q25 0 41 -15.5t16 -44.5q0 -50 -35.5 -87t-89.5 -37l4 36q21 2 41.5 15t28.5 37q-10 -2 -17 -2q-23 0 -36 12t-13 32q0 23 17.5 38.5t42.5 15.5z" />
    <glyph glyph-name="uni021A.ss02" horiz-adv-x="595" 
d="M127 710h537l-18 -78h-222l-133 -632h-93l134 632h-222zM228 -69q25 0 41 -15.5t16 -44.5q0 -50 -35.5 -87t-89.5 -37l4 36q21 2 41.5 15t28.5 37q-10 -2 -17 -2q-23 0 -36 12t-13 32q0 23 17.5 38.5t42.5 15.5z" />
    <glyph glyph-name="Udieresis.ss02" horiz-adv-x="695" 
d="M365 792q-21 0 -35.5 14t-14.5 35q0 24 18 42t43 18q21 0 35.5 -14t14.5 -34q0 -25 -18 -43t-43 -18zM543 792q-21 0 -35 14.5t-14 34.5q0 24 18 42t43 18q21 0 35 -14t14 -34q0 -25 -18 -43t-43 -18zM714 710l-104 -485q-51 -240 -295 -240q-120 0 -182.5 46.5
t-62.5 136.5q0 32 9 74l100 468h92l-102 -476q-5 -28 -5 -50q0 -58 39.5 -88t114.5 -30q165 0 201 165l102 479h93z" />
    <glyph glyph-name="Wdieresis.ss02" horiz-adv-x="943" 
d="M494 792q-22 0 -36 14t-14 35q0 24 18 42t43 18q21 0 35.5 -14t14.5 -34q0 -25 -18 -43t-43 -18zM672 792q-21 0 -35 14.5t-14 34.5q0 24 18 42t43 18q21 0 35 -14t14 -34q0 -25 -18 -43t-43 -18zM911 710h96l-322 -710h-113l-19 326q-8 173 -9 266q-52 -119 -123 -267
l-156 -325h-114l-20 710h90l7 -342q3 -122 1 -274q58 134 126 274l166 342h93l18 -342q8 -187 9 -274l117 274z" />
    <glyph glyph-name="Ydieresis.ss02" horiz-adv-x="631" 
d="M334 792q-22 0 -36 14t-14 35q0 24 18 42t43 18q21 0 35.5 -14t14.5 -34q0 -25 -18 -43t-43 -18zM512 792q-21 0 -35 14.5t-14 34.5q0 24 18 42t43 18q21 0 35 -14t14 -34q0 -25 -18 -43t-43 -18zM607 710h108l-339 -407l-64 -303h-92l64 304l-163 406h94l127 -325z" />
    <glyph glyph-name="Zdotaccent.ss02" horiz-adv-x="623" 
d="M430 789q-22 0 -36.5 14.5t-14.5 35.5q0 26 18.5 44t44.5 18q22 0 36 -14t14 -35q0 -26 -18 -44.5t-44 -18.5zM680 710l-16 -74l-542 -559h422l-16 -77h-539l16 74l541 559h-404l17 77h521z" />
    <glyph glyph-name="adieresis.ss02" horiz-adv-x="563" 
d="M265 588q-21 0 -35.5 14t-14.5 35q0 24 18 42t43 18q21 0 35.5 -14t14.5 -34q0 -25 -18 -43t-43 -18zM443 588q-21 0 -35 14.5t-14 34.5q0 24 18 42t43 18q21 0 35 -14t14 -34q0 -25 -18 -43t-43 -18zM460 492h80l-105 -492h-78l18 86q-65 -97 -173 -97q-81 0 -125.5 49
t-44.5 135q0 57 17 114t49 106t84.5 80t116.5 31q116 0 144 -93zM221 61q81 0 135 80.5t54 176.5q0 114 -104 114q-61 0 -106 -43t-63.5 -97.5t-18.5 -108.5q0 -122 103 -122z" />
    <glyph glyph-name="cdotaccent.ss02" horiz-adv-x="494" 
d="M344 585q-22 0 -36.5 14.5t-14.5 35.5q0 26 18.5 44t44.5 18q22 0 36 -14t14 -35q0 -26 -18 -44.5t-44 -18.5zM428 361q-29 41 -56.5 57t-67.5 16q-45 0 -82 -24t-59 -61t-33.5 -77.5t-11.5 -78.5q0 -63 29.5 -98.5t86.5 -35.5q40 0 77 19t87 66l52 -52
q-105 -106 -220 -106q-91 0 -145 55t-54 148q0 41 10.5 84t33 85t54 74.5t78.5 53t102 20.5q116 0 182 -97z" />
    <glyph glyph-name="edieresis.ss02" horiz-adv-x="536" 
d="M260 588q-22 0 -36 14t-14 35q0 24 18 42t43 18q21 0 35.5 -14t14.5 -34q0 -25 -18 -43t-43 -18zM438 588q-21 0 -35 14.5t-14 34.5q0 24 18 42t43 18q21 0 35 -14t14 -34q0 -25 -18 -43t-43 -18zM315 506q81 0 132.5 -47.5t51.5 -123.5q0 -57 -16 -103h-364
q-3 -20 -3 -39q0 -61 30 -98t95 -37q83 0 172 94l56 -48q-102 -118 -232 -118q-96 0 -151 55.5t-55 150.5q0 52 17.5 105t50.5 101t89.5 78t126.5 30zM310 437q-64 0 -109 -40t-67 -102h284q2 22 2 35q0 49 -28.5 78t-81.5 29z" />
    <glyph glyph-name="edotaccent.ss02" horiz-adv-x="536" 
d="M348 585q-22 0 -36.5 14.5t-14.5 35.5q0 26 18.5 44t44.5 18q22 0 36 -14t14 -35q0 -26 -18 -44.5t-44 -18.5zM483 232h-364q-3 -20 -3 -39q0 -61 30 -98t95 -37q83 0 172 94l56 -48q-102 -118 -232 -118q-96 0 -151 55.5t-55 150.5q0 52 17.5 105t50.5 101t89.5 78
t126.5 30q81 0 132.5 -47.5t51.5 -123.5q0 -57 -16 -103zM310 437q-64 0 -109 -40t-67 -102h284q2 22 2 35q0 49 -28.5 78t-81.5 29z" />
    <glyph glyph-name="gcommaaccent.ss02" horiz-adv-x="554" 
d="M330 586q-25 0 -41 15.5t-16 44.5q0 49 37 86.5t92 37.5l-8 -35q-22 -2 -42 -15.5t-28 -37.5q7 3 18 3q23 0 35.5 -11.5t12.5 -31.5q0 -24 -18 -40t-42 -16zM457 492h79l-102 -482q-22 -101 -78.5 -151t-153.5 -50q-113 0 -215 76l46 59q94 -64 170 -64q118 0 148 137
l15 72q-64 -83 -163 -83q-79 0 -125.5 49.5t-46.5 131.5q0 51 16.5 105t47 102t82.5 79t115 31q114 0 147 -96zM221 78q85 0 136.5 76.5t51.5 158.5q0 56 -28.5 87.5t-82.5 31.5q-58 0 -101.5 -39.5t-61.5 -90.5t-18 -101q0 -123 104 -123z" />
    <glyph glyph-name="gdotaccent.ss02" horiz-adv-x="554" 
d="M345 585q-22 0 -36.5 14.5t-14.5 35.5q0 26 18.5 44t44.5 18q22 0 36 -14t14 -35q0 -26 -18 -44.5t-44 -18.5zM457 492h79l-102 -482q-22 -101 -78.5 -151t-153.5 -50q-113 0 -215 76l46 59q94 -64 170 -64q118 0 148 137l15 72q-64 -83 -163 -83q-79 0 -125.5 49.5
t-46.5 131.5q0 51 16.5 105t47 102t82.5 79t115 31q114 0 147 -96zM221 78q85 0 136.5 76.5t51.5 158.5q0 56 -28.5 87.5t-82.5 31.5q-58 0 -101.5 -39.5t-61.5 -90.5t-18 -101q0 -123 104 -123z" />
    <glyph glyph-name="i.ss02" horiz-adv-x="224" 
d="M184 585q-22 0 -36.5 14.5t-14.5 35.5q0 26 18.5 44t44.5 18q22 0 36 -14t14 -35q0 -26 -18 -44.5t-44 -18.5zM205 492l-104 -492h-86l104 492h86z" />
    <glyph glyph-name="idieresis.ss02" horiz-adv-x="224" 
d="M95 588q-21 0 -35.5 14t-14.5 35q0 24 18 42t43 18q21 0 35.5 -14t14.5 -34q0 -25 -18 -43t-43 -18zM273 588q-21 0 -35 14.5t-14 34.5q0 24 18 42t43 18q21 0 35 -14t14 -34q0 -25 -18 -43t-43 -18zM205 492l-104 -492h-86l104 492h86z" />
    <glyph glyph-name="i.loclTRK" horiz-adv-x="224" 
d="M248 692l-22 -103h-86l22 103h86zM205 492l-104 -492h-86l104 492h86z" />
    <glyph glyph-name="i.loclTRK.ss02" horiz-adv-x="224" 
d="M184 585q-22 0 -36.5 14.5t-14.5 35.5q0 26 18.5 44t44.5 18q22 0 36 -14t14 -35q0 -26 -18 -44.5t-44 -18.5zM205 492l-104 -492h-86l104 492h86z" />
    <glyph glyph-name="ij.ss02" horiz-adv-x="443" 
d="M184 585q-22 0 -36.5 14.5t-14.5 35.5q0 26 18.5 44t44.5 18q22 0 36 -14t14 -35q0 -26 -18 -44.5t-44 -18.5zM408 585q-22 0 -36.5 14.5t-14.5 35.5q0 26 18.5 44t44.5 18q22 0 36 -14t14 -35q0 -26 -18 -44.5t-44 -18.5zM205 492l-104 -492h-86l104 492h86zM90 -115
q40 -9 62 -9q37 0 53.5 21.5t28.5 72.5l110 522h86l-113 -536q-16 -78 -52 -114t-105 -36q-52 0 -95 16z" />
    <glyph glyph-name="iogonek.ss02" horiz-adv-x="224" 
d="M195 696q22 0 36.5 -14t14.5 -35q0 -26 -18 -44.5t-44 -18.5q-22 0 -36.5 14.5t-14.5 35.5q0 26 18 44t44 18zM15 0l104 492h86l-104 -492q-100 -61 -100 -115q0 -37 42 -37q13 0 27 3l-12 -54q-13 -5 -35 -5q-39 0 -61.5 20t-22.5 54q0 77 94 134h-18z" />
    <glyph glyph-name="j.calt" horiz-adv-x="217" 
d="M247 692l-22 -103h-84l22 103h84zM-89 -123q14 -2 25 -2q53 0 68 69l116 548h85l-119 -558q-12 -60 -47 -94t-91 -34q-35 0 -55 4z" />
    <glyph glyph-name="j.calt.ss02" horiz-adv-x="219" 
d="M184 585q-22 0 -36.5 14.5t-14.5 35.5q0 26 18 44t44 18q22 0 36.5 -14t14.5 -35q0 -26 -18 -44.5t-44 -18.5zM-89 -123q14 -2 25 -2q53 0 68 69l116 548h85l-119 -558q-12 -60 -47 -94t-91 -34q-35 0 -55 4z" />
    <glyph glyph-name="j.ss02" horiz-adv-x="219" 
d="M184 585q-22 0 -36.5 14.5t-14.5 35.5q0 26 18.5 44t44.5 18q22 0 36 -14t14 -35q0 -26 -18 -44.5t-44 -18.5zM-134 -115q40 -9 62 -9q37 0 53.5 21.5t28.5 72.5l110 522h86l-113 -536q-16 -78 -52 -114t-105 -36q-52 0 -95 16z" />
    <glyph glyph-name="k.ss01" horiz-adv-x="494" 
d="M504 449l-192 -158l134 -291h-87l-110 239l-117 -96l-31 -143h-86l151 710h86l-97 -459l299 251z" />
    <glyph glyph-name="kcommaaccent.ss01" horiz-adv-x="494" 
d="M504 449l-192 -158l134 -291h-87l-110 239l-117 -96l-31 -143h-86l151 710h86l-97 -459l299 251zM136 -160l19 88h101l-19 -88l-77 -92h-48l71 92h-47z" />
    <glyph glyph-name="kcommaaccent.ss01.ss02" horiz-adv-x="494" 
d="M504 449l-192 -158l134 -291h-87l-110 239l-117 -96l-31 -143h-86l151 710h86l-97 -459l299 251zM201 -69q25 0 41 -15.5t16 -44.5q0 -50 -35.5 -87t-89.5 -37l4 36q21 2 41.5 15t28.5 37q-10 -2 -17 -2q-23 0 -36 12t-13 32q0 23 17.5 38.5t42.5 15.5z" />
    <glyph glyph-name="kcommaaccent.ss02" horiz-adv-x="494" 
d="M519 492l-212 -190l139 -302h-87l-115 251l-109 -92l-34 -159h-86l151 710h86l-95 -448l257 230h105zM199 -69q25 0 41 -15.5t16 -44.5q0 -50 -35.5 -87t-89.5 -37l4 36q21 2 41.5 15t28.5 37q-10 -2 -17 -2q-23 0 -36 12t-13 32q0 23 17.5 38.5t42.5 15.5z" />
    <glyph glyph-name="lcommaaccent.ss02" horiz-adv-x="228" 
d="M169 710h86l-151 -710h-86zM41 -69q25 0 41 -15.5t16 -44.5q0 -50 -35.5 -87t-89.5 -37l4 36q21 2 41.5 15t28.5 37q-10 -2 -17 -2q-23 0 -36 12t-13 32q0 23 17.5 38.5t42.5 15.5z" />
    <glyph glyph-name="ldot.ss02" horiz-adv-x="414" 
d="M255 710l-151 -710h-86l151 710h86zM318 246q-24 0 -40 16.5t-16 40.5q0 27 20 47.5t49 20.5q23 0 39 -16.5t16 -39.5q0 -28 -20 -48.5t-48 -20.5z" />
    <glyph glyph-name="ncommaaccent.ss02" horiz-adv-x="549" 
d="M352 506q72 0 111.5 -35.5t39.5 -93.5q0 -31 -8 -66l-66 -311h-86l65 310q6 27 6 50q0 74 -87 74q-57 0 -103 -41t-62 -115l-59 -278h-86l104 492h80l-16 -72q60 86 167 86zM200 -69q25 0 41 -15.5t16 -44.5q0 -50 -35.5 -87t-89.5 -37l4 36q21 2 41.5 15t28.5 37
q-10 -2 -17 -2q-23 0 -36 12t-13 32q0 23 17.5 38.5t42.5 15.5z" />
    <glyph glyph-name="odieresis.ss02" horiz-adv-x="545" 
d="M257 588q-21 0 -35.5 14t-14.5 35q0 24 18 42t43 18q21 0 35.5 -14t14.5 -34q0 -25 -18 -43t-43 -18zM435 588q-21 0 -35 14.5t-14 34.5q0 24 18 42t43 18q21 0 35 -14t14 -34q0 -25 -18 -43t-43 -18zM308 506q93 0 147.5 -54.5t54.5 -152.5q0 -38 -9.5 -79.5t-31 -83.5
t-52.5 -75t-78 -54t-104 -21q-95 0 -149 54.5t-54 154.5q0 48 16 99.5t47 100t87 80t126 31.5zM304 434q-59 0 -103.5 -40.5t-63.5 -93.5t-19 -105q0 -65 31 -101t89 -36q45 0 82 23.5t59 60.5t33.5 78t11.5 79q0 65 -30.5 100t-89.5 35z" />
    <glyph glyph-name="rcommaaccent.ss02" horiz-adv-x="364" 
d="M319 497q38 0 80 -19l-30 -72q-33 14 -63 14q-53 0 -92.5 -43.5t-57.5 -126.5l-53 -250h-86l104 492h81l-17 -77q52 82 134 82zM40 -69q25 0 41 -15.5t16 -44.5q0 -50 -35.5 -87t-89.5 -37l4 36q21 2 41.5 15t28.5 37q-10 -2 -17 -2q-23 0 -36 12t-13 32q0 23 17.5 38.5
t42.5 15.5z" />
    <glyph glyph-name="scommaaccent.ss02" horiz-adv-x="477" 
d="M254 289q93 -28 130 -56t37 -85q0 -71 -55.5 -116.5t-150.5 -45.5q-115 0 -216 93l52 55q90 -78 170 -78q54 0 85 24t31 62q0 13 -6.5 23.5t-13.5 17t-26 14t-30.5 11.5t-38.5 12q-7 2 -10 3q-88 24 -119.5 53t-31.5 76q0 61 52.5 107.5t142.5 46.5q112 0 199 -82
l-50 -56q-75 69 -155 69q-46 0 -76 -22.5t-30 -52.5q0 -27 22 -40t88 -33zM189 -69q25 0 41 -15.5t16 -44.5q0 -50 -35.5 -87t-89.5 -37l4 36q21 2 41.5 15t28.5 37q-10 -2 -17 -2q-23 0 -36 12t-13 32q0 23 17.5 38.5t42.5 15.5z" />
    <glyph glyph-name="uni021B.ss02" horiz-adv-x="355" 
d="M234 428l-62 -289q-8 -42 1 -59t43 -17q30 0 69 13l7 -68q-42 -19 -98 -19q-72 0 -98.5 36t-9.5 112l62 291h-92l13 64h92l35 164h86l-35 -164h127l-14 -64h-126zM154 -69q25 0 41 -15.5t16 -44.5q0 -50 -35.5 -87t-89.5 -37l4 36q21 2 41.5 15t28.5 37q-10 -2 -17 -2
q-23 0 -36 12t-13 32q0 23 17.5 38.5t42.5 15.5z" />
    <glyph glyph-name="udieresis.ss02" horiz-adv-x="541" 
d="M243 588q-21 0 -35.5 14t-14.5 35q0 24 18 42t43 18q21 0 35.5 -14t14.5 -34q0 -25 -18 -43t-43 -18zM421 588q-21 0 -35 14.5t-14 34.5q0 24 18 42t43 18q21 0 35 -14t14 -34q0 -25 -18 -43t-43 -18zM432 492h86l-104 -492h-79l16 74q-60 -88 -163 -88q-72 0 -109.5 35
t-37.5 93q0 32 8 67l65 311h86l-64 -304q-7 -38 -7 -57q0 -71 80 -71q58 0 104 42.5t63 124.5z" />
    <glyph glyph-name="wdieresis.ss02" horiz-adv-x="740" 
d="M343 588q-21 0 -35.5 14t-14.5 35q0 24 18 42t43 18q21 0 35.5 -14t14.5 -34q0 -25 -18 -43t-43 -18zM521 588q-21 0 -35 14.5t-14 34.5q0 24 18 42t43 18q21 0 35 -14t14 -34q0 -25 -18 -43t-43 -18zM674 493h89l-242 -493h-108l-10 159q-9 128 -11 226l-107 -228
l-75 -157h-108l-30 493h85l9 -184q5 -102 7 -235l109 234l91 185h82l13 -185q8 -111 10 -235q49 115 107 234z" />
    <glyph glyph-name="ydieresis.ss02" horiz-adv-x="483" 
d="M216 588q-22 0 -36 14t-14 35q0 24 18 42t43 18q21 0 35.5 -14t14.5 -34q0 -25 -18 -43t-43 -18zM394 588q-21 0 -35 14.5t-14 34.5q0 24 18 42t43 18q21 0 35 -14t14 -34q0 -25 -18 -43t-43 -18zM427 492h89l-311 -564q-37 -67 -73 -94.5t-95 -27.5q-41 0 -77 12l23 65
q28 -6 48 -6q34 0 55.5 17t47.5 64l9 15l-76 519h86l22 -169q16 -121 30 -248l126 241z" />
    <glyph glyph-name="zdotaccent.ss02" horiz-adv-x="478" 
d="M320 585q-22 0 -36.5 14.5t-14.5 35.5q0 26 18.5 44t44.5 18q22 0 36 -14t14 -35q0 -26 -18 -44.5t-44 -18.5zM486 492l-13 -63l-361 -358h285l-15 -71h-396l14 64l360 358h-266l14 70h378z" />
    <glyph glyph-name="f_f_i.liga.ss02" horiz-adv-x="875" 
d="M355 654q-39 0 -59.5 -22t-31.5 -75l-14 -65h102l-14 -64h-102l-90 -428h-86l91 428h-95l13 64h95l17 82q33 151 165 151q54 0 104 -20l-25 -63q-41 12 -70 12zM675 428h-121l-91 -428h-86l91 428h-83l14 64h83l17 82q31 151 165 151q42 0 88 -14l-26 -65q-30 8 -57 8
q-36 0 -56.5 -22.5t-31.5 -74.5l-13 -65h120zM846 696q22 0 36.5 -14t14.5 -35q0 -26 -18 -44.5t-45 -18.5q-22 0 -36 14.5t-14 35.5q0 26 18 44t44 18zM666 0l104 492h86l-104 -492h-86z" />
    <glyph glyph-name="f_f_j.liga.ss02" horiz-adv-x="871" 
d="M355 654q-39 0 -59.5 -22t-31.5 -75l-14 -65h102l-14 -64h-102l-90 -428h-86l91 428h-95l13 64h95l17 82q33 151 165 151q54 0 104 -20l-25 -63q-41 12 -70 12zM675 428h-121l-91 -428h-86l91 428h-83l14 64h83l17 82q31 151 165 151q42 0 88 -14l-26 -65q-30 8 -57 8
q-36 0 -56.5 -22.5t-31.5 -74.5l-13 -65h120zM847 696q22 0 36.5 -14t14.5 -35q0 -26 -18.5 -44.5t-44.5 -18.5q-22 0 -36.5 14.5t-14.5 35.5q0 26 18.5 44t44.5 18zM660 -30l110 522h86l-113 -536q-16 -79 -51.5 -114.5t-105.5 -35.5q-52 0 -95 16l25 63q40 -9 62 -9
q37 0 54 22t28 72z" />
    <glyph glyph-name="f_j.liga.ss02" horiz-adv-x="553" 
d="M358 428h-122l-90 -428h-86l91 428h-95l13 64h95l17 82q33 151 165 151q42 0 88 -14l-25 -65q-32 8 -58 8q-35 0 -55.5 -22.5t-31.5 -74.5l-14 -65h121zM529 696q22 0 36.5 -14t14.5 -35q0 -26 -18.5 -44.5t-44.5 -18.5q-22 0 -36.5 14.5t-14.5 35.5q0 26 18.5 44
t44.5 18zM342 -30l110 522h86l-113 -536q-16 -79 -51.5 -114.5t-104.5 -35.5q-53 0 -96 16l25 63q40 -9 63 -9q37 0 53.5 22t27.5 72z" />
    <glyph glyph-name="fi.ss02" horiz-adv-x="557" 
d="M358 428h-122l-90 -428h-86l91 428h-95l13 64h95l17 82q33 151 165 151q42 0 88 -14l-25 -65q-32 8 -58 8q-35 0 -55.5 -22.5t-31.5 -74.5l-14 -65h121zM528 696q22 0 36.5 -14t14.5 -35q0 -26 -18 -44.5t-45 -18.5q-22 0 -36 14.5t-14 35.5q0 26 18 44t44 18zM348 0
l104 492h86l-104 -492h-86z" />
    <glyph glyph-name="zero.case" horiz-adv-x="600" 
d="M388 725q103 0 152.5 -66t49.5 -177q0 -42 -7.5 -91.5t-22.5 -107t-41.5 -110t-62 -95.5t-87 -69t-112.5 -26q-103 0 -152 66t-49 176q0 52 10 113.5t35.5 131t62 125.5t95 93t129.5 37zM384 649q-51 0 -93.5 -32t-69 -80.5t-45 -108t-26 -111t-7.5 -92.5
q0 -166 118 -166q51 0 93.5 33t69 82t45 108.5t26 111t7.5 90.5q0 165 -118 165z" />
    <glyph glyph-name="one.case" horiz-adv-x="468" 
d="M352 710h67l-151 -710h-88l127 595l-161 -100l-35 62z" />
    <glyph glyph-name="two.case" horiz-adv-x="582" 
d="M305 258l-70.5 -40.5t-53 -37t-47.5 -48.5t-27 -57h389l-17 -75h-482l9 40q8 37 20 68t34 58t38.5 45t51 41.5t52.5 34l62 36.5l55.5 32l50.5 29t39.5 25t35 25t25 23.5t20 27.5t10 29.5t4.5 35.5q0 48 -31.5 73.5t-79.5 25.5q-60 0 -109.5 -30.5t-111.5 -98.5l-61 50
q135 154 287 154q88 0 141 -46t53 -118q0 -27 -3 -49t-15 -43.5l-20 -36t-33 -35l-37.5 -31t-51.5 -34l-57 -34z" />
    <glyph glyph-name="three.case" horiz-adv-x="585" 
d="M605 710l-17 -73l-265 -220h1q88 0 143.5 -50.5t55.5 -130.5q0 -44 -16.5 -87.5t-48 -81t-84 -61t-118.5 -23.5q-137 0 -251 92l52 61q54 -40 100.5 -58.5t100.5 -18.5q83 0 130.5 52.5t47.5 120.5q0 58 -37 90.5t-111 32.5q-39 0 -64 -10l-37 53l289 237h-325l17 75h437
z" />
    <glyph glyph-name="four.case" 
d="M463 240h102l-15 -73h-102l-36 -167h-86l35 167h-343l17 79l379 464h105l-386 -470h243l35 163h87z" />
    <glyph glyph-name="five.case" horiz-adv-x="597" 
d="M590 635h-319l-64 -220q58 38 135 38q85 0 140 -55.5t55 -138.5q0 -37 -9.5 -74t-30.5 -74t-51.5 -65t-77.5 -45.5t-103 -17.5q-74 0 -133 24.5t-122 73.5l54 61q57 -45 103.5 -64t102.5 -19q84 0 132.5 59.5t48.5 135.5q0 57 -35 92.5t-97 35.5q-76 0 -142 -57l-75 9
l110 376h395z" />
    <glyph glyph-name="six.case" horiz-adv-x="600" 
d="M355 462q90 0 142.5 -54.5t52.5 -135.5q0 -47 -17 -95.5t-49.5 -92.5t-87.5 -72t-123 -28q-97 0 -156 56t-59 146q0 122 71 237.5t222 238.5l58 48h124l-1 -1l-129 -103q-133 -107 -196 -200q61 56 148 56zM277 59q45 0 82 20t59 51t33.5 66t11.5 68q0 60 -35 92.5
t-99 32.5q-87 0 -136 -60.5t-49 -139.5q0 -57 35.5 -93.5t97.5 -36.5z" />
    <glyph glyph-name="seven.case" horiz-adv-x="542" 
d="M120 710h501l-13 -64q-130 -127 -246 -299.5t-177 -346.5h-98q57 165 172 335t243 301h-398z" />
    <glyph glyph-name="eight.case" horiz-adv-x="599" 
d="M445 376q99 -52 99 -155q0 -40 -14.5 -79.5t-44 -76t-84 -59.5t-126.5 -23q-108 0 -173 54.5t-65 133.5q0 72 41.5 134.5t132.5 86.5q-72 46 -72 126q0 34 13.5 69t40 66.5t75.5 51.5t112 20q86 0 143.5 -46.5t57.5 -118.5q0 -59 -34 -110t-102 -74zM373 653
q-68 0 -109.5 -37t-41.5 -96q0 -45 33.5 -74.5t86.5 -29.5q75 0 115.5 40.5t40.5 98.5q0 45 -33 71.5t-92 26.5zM281 58q86 0 131.5 48.5t45.5 115.5q0 55 -40.5 89.5t-108.5 34.5q-94 0 -139.5 -49.5t-45.5 -115.5q0 -53 41 -88t116 -35z" />
    <glyph glyph-name="nine.case" horiz-adv-x="600" 
d="M375 726q97 0 156 -56t59 -146q0 -122 -71 -237.5t-222 -238.5l-58 -48h-124l1 1l129 103q130 104 195 199q-62 -55 -147 -55q-90 0 -142.5 54.5t-52.5 135.5q0 47 17 95.5t49.5 92.5t87.5 72t123 28zM185 446q0 -60 35 -92.5t99 -32.5q87 0 136 60.5t49 139.5
q0 57 -35.5 93.5t-97.5 36.5q-45 0 -82 -20t-59 -51t-33.5 -66t-11.5 -68z" />
    <glyph glyph-name="zero.tf" 
d="M374 696q104 0 155 -64.5t51 -171.5q0 -50 -9.5 -108t-33.5 -124.5t-59.5 -119.5t-93.5 -88.5t-130 -35.5q-104 0 -155 64.5t-51 171.5q0 50 10 109t34.5 125t60.5 119t93.5 88t127.5 35zM371 620q-49 0 -90 -29.5t-67 -74.5t-44.5 -100.5t-26.5 -105.5t-8 -91
q0 -159 122 -159q60 0 108 44.5t74 110.5t39.5 130.5t13.5 115.5q0 159 -121 159z" />
    <glyph glyph-name="one.tf" 
d="M333 69h166l-15 -69h-429l14 69h176l105 496l-170 -106l-36 62l252 159h67z" />
    <glyph glyph-name="two.tf" 
d="M307 247l-55.5 -30.5t-45 -28t-43.5 -33.5t-29.5 -35t-23.5 -45h389l-16 -75h-482l9 39q11 53 33 93.5t61.5 74t70 53t90.5 52.5l45 24.5l42 22.5t35 20t31.5 19.5l25.5 18t22.5 19.5l15.5 19t12.5 21.5t6.5 23.5t3 27q0 44 -32.5 68.5t-82.5 24.5q-58 0 -107 -29
t-111 -94l-60 50q68 77 135 113t146 36q89 0 144 -46t55 -119q0 -32 -6.5 -58t-25 -50.5t-36 -42t-57 -42.5t-69.5 -42z" />
    <glyph glyph-name="three.tf" 
d="M593 680l-16 -73l-261 -206h8q85 0 139.5 -48.5t54.5 -125.5q0 -42 -15.5 -83.5t-46 -78t-83 -59t-118.5 -22.5q-136 0 -255 90l53 61q57 -39 103 -57t98 -18q85 0 130.5 49t45.5 113q0 54 -36.5 85.5t-107.5 31.5q-48 0 -78 -13l-29 53l287 226h-324l16 75h435z" />
    <glyph glyph-name="four.tf" 
d="M468 232h102l-15 -73h-102l-34 -159h-87l34 159h-343l17 80l375 441h101l-380 -448h245l33 155h87z" />
    <glyph glyph-name="five.tf" 
d="M583 605h-322l-62 -210q58 39 138 39q85 0 140.5 -53t55.5 -134q0 -36 -9 -71.5t-30 -70.5t-51.5 -61.5t-77 -43t-102.5 -16.5q-72 0 -132 23.5t-124 70.5l54 61q59 -43 105 -61t101 -18q84 0 132 54.5t48 127.5q0 53 -36 86.5t-97 33.5q-76 0 -142 -51l-75 8l107 361
h395z" />
    <glyph glyph-name="six.tf" 
d="M350 444q88 0 141 -54t53 -132q0 -45 -16 -91t-47 -88t-85 -68t-122 -26q-98 0 -158.5 56t-60.5 144q0 116 69 224t218 225l58 46h126v-1l-129 -100q-120 -92 -185 -178q56 43 138 43zM278 60q60 0 102 31.5t59.5 73t17.5 85.5q0 57 -35.5 89.5t-96.5 32.5
q-90 0 -137.5 -55t-47.5 -130q0 -56 37.5 -91.5t100.5 -35.5z" />
    <glyph glyph-name="seven.tf" 
d="M137 680h487l-14 -64q-127 -113 -242 -283t-163 -333h-100q44 155 153.5 319.5t237.5 286.5h-375z" />
    <glyph glyph-name="eight.tf" 
d="M444 361q99 -50 99 -150q0 -38 -14.5 -76t-44 -73t-84 -56.5t-126.5 -21.5q-108 0 -173 52.5t-65 130.5q0 68 41 127.5t131 83.5q-72 42 -72 121q0 74 60 135.5t180 61.5q86 0 143.5 -45t57.5 -115q0 -56 -33.5 -104t-99.5 -71zM368 625q-67 0 -108 -34.5t-41 -90.5
q0 -43 33.5 -71t86.5 -28q75 0 115 38t40 92q0 43 -33.5 68.5t-92.5 25.5zM282 58q86 0 130.5 45.5t44.5 109.5q0 52 -40.5 85t-109.5 33q-93 0 -139 -46.5t-46 -108.5q0 -51 42 -84.5t118 -33.5z" />
    <glyph glyph-name="nine.tf" 
d="M358 695q98 0 158.5 -56t60.5 -144q0 -116 -69 -224t-218 -225l-58 -46h-126v1l129 100q120 92 185 178q-56 -43 -138 -43q-88 0 -141 54t-53 132q0 45 16 91t47 88t85 68t122 26zM175 430q0 -57 35.5 -89.5t96.5 -32.5q90 0 137.5 55t47.5 130q0 56 -37.5 91.5
t-100.5 35.5q-60 0 -102 -31.5t-59.5 -73t-17.5 -85.5z" />
    <glyph glyph-name="zero.zero" 
d="M375 696q105 0 156 -64.5t51 -171.5q0 -50 -9.5 -108t-33.5 -124.5t-59.5 -119.5t-94 -88.5t-130.5 -35.5q-104 0 -155 64.5t-51 171.5q0 50 10 109t34.5 125t60.5 119t93.5 88t127.5 35zM373 620q-60 0 -108 -43.5t-74.5 -109t-40 -130.5t-13.5 -118q0 -30 4 -51
l323 410q-31 42 -91 42zM259 60q60 0 108 44.5t74 110.5t39.5 130.5t13.5 115.5q0 27 -5 55l-324 -412q31 -44 94 -44z" />
    <glyph glyph-name="zero.dnom" horiz-adv-x="404" 
d="M226 418q65 0 99.5 -41t34.5 -107q0 -45 -11.5 -91.5t-35 -90t-64.5 -71t-94 -27.5q-66 0 -100.5 40.5t-34.5 107.5q0 44 12 91t35 90.5t64.5 71t94.5 27.5zM221 357q-62 0 -96.5 -70.5t-34.5 -145.5q0 -90 68 -90q44 0 75.5 38t44 85t12.5 92q0 91 -69 91z" />
    <glyph glyph-name="one.dnom" horiz-adv-x="325" 
d="M193 408h54l-87 -408h-69l66 317l-84 -53l-26 52z" />
    <glyph glyph-name="two.dnom" horiz-adv-x="408" 
d="M189 147q-49 -23 -75.5 -41.5t-38.5 -46.5h244l-14 -59h-316l6 28q14 62 56.5 101.5t110.5 70.5q12 6 35 16t32 14.5l24.5 12.5t21.5 13.5t13.5 13.5t10 16.5t2.5 19.5q0 25 -19.5 38t-51.5 13q-56 0 -129 -51l-32 50q82 62 165 62q62 0 99 -29t37 -74q0 -57 -37.5 -89.5
t-143.5 -78.5z" />
    <glyph glyph-name="three.dnom" horiz-adv-x="407" 
d="M373 408l-12 -58l-152 -106q57 0 88.5 -29.5t31.5 -75.5q0 -60 -45 -104.5t-124 -44.5q-90 0 -167 52l40 50q70 -41 127 -41q45 0 71.5 22.5t26.5 57.5q0 29 -20 46t-61 17q-37 0 -51 -7l-26 43l170 119h-197l12 59h288z" />
    <glyph glyph-name="four.dnom" horiz-adv-x="399" 
d="M291 149h56l-12 -57h-56l-19 -92h-70l20 92h-208l14 65l214 251h82l-221 -259h131l18 86h70z" />
    <glyph glyph-name="five.dnom" horiz-adv-x="408" 
d="M365 349h-205l-31 -106q39 23 90 23q57 0 89.5 -32.5t32.5 -79.5q0 -62 -45 -113t-136 -51q-86 0 -162 54l39 51q65 -44 124 -44q49 0 79 28t30 68q0 27 -19 44t-55 17q-48 0 -92 -32l-54 6l64 226h264z" />
    <glyph glyph-name="six.dnom" horiz-adv-x="402" 
d="M220 273q57 0 90.5 -33t33.5 -83q0 -63 -44 -115t-132 -52q-70 0 -109 36t-39 98q0 72 52.5 146t155.5 138h102v-1q-138 -80 -196 -156q38 22 86 22zM167 51q51 0 79.5 27.5t28.5 71.5q0 30 -21 48t-58 18q-51 0 -80 -28.5t-29 -70.5q0 -29 21.5 -47.5t58.5 -18.5z" />
    <glyph glyph-name="seven.dnom" horiz-adv-x="379" 
d="M57 408h319l-12 -54q-180 -155 -239 -354h-75q22 86 86.5 183.5t142.5 165.5h-235z" />
    <glyph glyph-name="eight.dnom" horiz-adv-x="405" 
d="M280 218q56 -26 56 -85q0 -60 -45 -99.5t-128 -39.5q-75 0 -114 31t-39 78q0 41 24.5 74t75.5 48q-42 26 -42 78q0 53 43 86.5t113 33.5q67 0 101.5 -28.5t34.5 -71.5q0 -75 -80 -105zM219 367q-44 0 -66 -20.5t-22 -49.5q0 -23 18.5 -38t49.5 -15q41 0 68 19.5t27 52.5
q0 23 -20 37t-55 14zM165 53q47 0 75 22.5t28 58.5q0 26 -21 42.5t-60 16.5q-54 0 -81.5 -25t-27.5 -57q0 -25 22.5 -41.5t64.5 -16.5z" />
    <glyph glyph-name="nine.dnom" horiz-adv-x="404" 
d="M217 418q69 0 106.5 -35.5t37.5 -97.5q0 -73 -52.5 -147.5t-155.5 -137.5h-102v1q138 79 195 155q-38 -22 -85 -22q-57 0 -91.5 33t-34.5 82q0 63 46 116t136 53zM104 256q0 -29 21.5 -46.5t57.5 -17.5q53 0 82 28.5t29 71.5q0 29 -21 47t-59 18q-50 0 -80 -28.5
t-30 -72.5z" />
    <glyph glyph-name="zero.numr" horiz-adv-x="404" 
d="M286 690q65 0 99.5 -41t34.5 -107q0 -45 -11.5 -91.5t-35 -90t-64.5 -71t-94 -27.5q-66 0 -100.5 40.5t-34.5 107.5q0 44 12 91t35 90.5t64.5 71t94.5 27.5zM281 629q-62 0 -96.5 -70.5t-34.5 -145.5q0 -90 68 -90q44 0 75.5 38t44 85t12.5 92q0 91 -69 91z" />
    <glyph glyph-name="one.numr" horiz-adv-x="325" 
d="M253 680h54l-87 -408h-69l67 317l-85 -53l-26 52z" />
    <glyph glyph-name="two.numr" horiz-adv-x="408" 
d="M249 419q-49 -23 -75.5 -41.5t-38.5 -46.5h244l-14 -59h-316l6 28q14 62 56.5 101.5t110.5 70.5q12 6 35 16t32 14.5l24.5 12.5t21.5 13.5t13.5 13.5t10 16.5t2.5 19.5q0 25 -19.5 38t-51.5 13q-56 0 -129 -51l-32 50q82 62 165 62q62 0 99 -29t37 -74q0 -57 -37.5 -89.5
t-143.5 -78.5z" />
    <glyph glyph-name="three.numr" horiz-adv-x="407" 
d="M433 680l-12 -58l-153 -106q57 0 89 -29.5t32 -75.5q0 -60 -45 -104.5t-124 -44.5q-90 0 -167 52l40 50q70 -41 127 -41q45 0 71.5 22.5t26.5 57.5q0 29 -20 46t-61 17q-37 0 -51 -7l-26 43l170 119h-197l12 59h288z" />
    <glyph glyph-name="four.numr" horiz-adv-x="399" 
d="M351 421h56l-12 -57h-56l-19 -92h-70l20 92h-208l14 65l214 251h82l-222 -259h132l18 86h70z" />
    <glyph glyph-name="five.numr" horiz-adv-x="408" 
d="M425 621h-206l-30 -106q38 23 90 23q57 0 89.5 -32.5t32.5 -79.5q0 -62 -45 -113t-136 -51q-86 0 -162 54l39 51q65 -44 124 -44q49 0 79 28t30 68q0 27 -19 44t-55 17q-48 0 -92 -32l-54 6l64 226h264z" />
    <glyph glyph-name="six.numr" horiz-adv-x="402" 
d="M279 545q57 0 90.5 -33t33.5 -83q0 -63 -44 -115t-132 -52q-70 0 -109 36t-39 98q0 72 52.5 146t155.5 138h102v-1q-140 -82 -195 -156q36 22 85 22zM226 323q51 0 79.5 27.5t28.5 71.5q0 30 -21 48t-58 18q-51 0 -80 -28.5t-29 -70.5q0 -29 21.5 -47.5t58.5 -18.5z" />
    <glyph glyph-name="seven.numr" horiz-adv-x="379" 
d="M117 680h319l-12 -54q-180 -155 -239 -354h-75q22 86 86 183.5t143 165.5h-235z" />
    <glyph glyph-name="eight.numr" horiz-adv-x="405" 
d="M341 490q55 -28 55 -85q0 -60 -45 -99.5t-128 -39.5q-75 0 -114 31t-39 78q0 41 24.5 74t74.5 48q-41 27 -41 78q0 53 43 86.5t113 33.5q67 0 101.5 -28.5t34.5 -71.5q0 -76 -79 -105zM279 639q-44 0 -66 -20.5t-22 -49.5q0 -23 18.5 -38t49.5 -15q41 0 68 19.5t27 52.5
q0 23 -20 37t-55 14zM225 325q47 0 75 22.5t28 58.5q0 26 -21 42.5t-60 16.5q-54 0 -81.5 -25t-27.5 -57q0 -25 22.5 -41.5t64.5 -16.5z" />
    <glyph glyph-name="nine.numr" horiz-adv-x="404" 
d="M277 690q69 0 106.5 -35.5t37.5 -97.5q0 -73 -52.5 -147.5t-155.5 -137.5h-102v1q139 80 195 156q-35 -23 -85 -23q-57 0 -91.5 33t-34.5 82q0 63 46 116t136 53zM164 528q0 -29 21.5 -46.5t57.5 -17.5q53 0 82 28.5t29 71.5q0 29 -21 47t-59 18q-50 0 -80 -28.5
t-30 -72.5z" />
    <glyph glyph-name="exclamdown.case" horiz-adv-x="265" 
d="M163 602l22 108h103l-23 -108h-102zM39 0l46 214l83 295h53l-44 -296l-45 -213h-93z" />
    <glyph glyph-name="questiondown.case" horiz-adv-x="485" 
d="M298 602l23 108h102l-23 -108h-102zM190 -16q-80 0 -132.5 40t-52.5 111q0 18 2 34t10 32t12.5 26.5t21 27l23.5 24t31.5 27t34 26.5l41.5 31q50 37 71.5 60.5t34.5 61.5l9 29h73l-8 -36q-12 -59 -35 -90.5t-90 -80.5q-89 -66 -108 -86q-33 -35 -33 -77q0 -37 28.5 -58.5
t78.5 -21.5q91 0 195 82l44 -63q-125 -99 -251 -99z" />
    <glyph glyph-name="periodcentered.ss02" horiz-adv-x="238" 
d="M120 250q-24 0 -40 16.5t-16 40.5q0 27 20 47.5t49 20.5q23 0 39 -16.5t16 -39.5q0 -28 -20 -48.5t-48 -20.5z" />
    <glyph glyph-name="exclamdown.case.ss02" horiz-adv-x="265" 
d="M227 719q24 0 40 -16.5t16 -40.5q0 -27 -20 -47.5t-49 -20.5q-23 0 -39 16.5t-16 39.5q0 28 20 48.5t48 20.5zM38 0l46 214l84 295h52l-43 -296l-45 -213h-94z" />
    <glyph glyph-name="questiondown.case.ss02" horiz-adv-x="485" 
d="M350 726q24 0 40.5 -16.5t16.5 -40.5q0 -27 -20 -47.5t-49 -20.5q-23 0 -39.5 16.5t-16.5 39.5q0 28 20 48.5t48 20.5zM179 -9q-80 0 -132.5 40t-52.5 111q0 18 2 34t10 32t12.5 26.5t21 27l23.5 24t31.5 27t34 26.5l41.5 31q50 37 71.5 60.5t33.5 61.5l9 29h73l-7 -35
q-12 -59 -35 -91t-90 -81q-89 -66 -108 -86q-33 -35 -33 -77q0 -37 28.5 -58.5t78.5 -21.5q92 0 195 83l44 -64q-125 -99 -251 -99z" />
    <glyph glyph-name="colon.ss02" horiz-adv-x="258" 
d="M163 373q-25 0 -41 16.5t-16 40.5q0 27 20 47.5t49 20.5q23 0 39 -16.5t16 -39.5q0 -28 -19.5 -48.5t-47.5 -20.5zM83 -9q-24 0 -40 16.5t-16 40.5q0 27 20 47.5t49 20.5q23 0 39 -16.5t16 -39.5q0 -28 -20 -48.5t-48 -20.5z" />
    <glyph glyph-name="comma.ss02" horiz-adv-x="218" 
d="M76 115q28 0 46 -19.5t18 -56.5q0 -66 -46.5 -116.5t-108.5 -53.5l8 42q28 6 53 27.5t34 55.5q-10 -2 -17 -2q-25 0 -41 15t-16 39q0 28 20.5 48.5t49.5 20.5z" />
    <glyph glyph-name="ellipsis.ss02" horiz-adv-x="664" 
d="M72 -9q-24 0 -40 16.5t-16 40.5q0 27 20 47.5t49 20.5q23 0 39 -16.5t16 -39.5q0 -28 -20 -48.5t-48 -20.5zM285 -9q-24 0 -40 16.5t-16 40.5q0 27 20 47.5t49 20.5q23 0 39 -16.5t16 -39.5q0 -28 -20 -48.5t-48 -20.5zM498 -9q-24 0 -40 16.5t-16 40.5q0 27 20 47.5
t49 20.5q23 0 39 -16.5t16 -39.5q0 -28 -20 -48.5t-48 -20.5z" />
    <glyph glyph-name="exclam.ss02" horiz-adv-x="273" 
d="M287 710l-46 -214l-83 -295h-53l44 296l45 213h93zM99 -9q-24 0 -40 16.5t-16 40.5q0 27 20 47.5t49 20.5q23 0 39 -16.5t16 -39.5q0 -28 -20 -48.5t-48 -20.5z" />
    <glyph glyph-name="exclamdown.ss02" horiz-adv-x="234" 
d="M163 502q24 0 40.5 -16.5t16.5 -40.5q0 -27 -20.5 -47.5t-48.5 -20.5q-24 0 -40 16.5t-16 39.5q0 28 20 48.5t48 20.5zM-25 -217l46 214l83 295h53l-44 -296l-45 -213h-93z" />
    <glyph glyph-name="period.ss02" horiz-adv-x="219" 
d="M63 -9q-24 0 -40 16.5t-16 40.5q0 27 20 47.5t49 20.5q23 0 39 -16.5t16 -39.5q0 -28 -20 -48.5t-48 -20.5z" />
    <glyph glyph-name="question.ss02" horiz-adv-x="491" 
d="M354 726q80 0 132.5 -40t52.5 -111q0 -18 -2 -34t-10 -32t-12.5 -26.5t-21 -27l-23.5 -24t-31.5 -27t-34 -26.5l-41.5 -31q-49 -37 -70.5 -60.5t-34.5 -61.5l-9 -29h-73l8 36q12 58 34.5 90t89.5 81q90 66 110 87q31 34 31 76q0 37 -28.5 58.5t-78.5 21.5q-90 0 -195 -82
l-44 63q125 99 251 99zM183 -9q-24 0 -40 16.5t-16 40.5q0 27 20 47.5t48 20.5q24 0 40 -16.5t16 -39.5q0 -28 -20 -48.5t-48 -20.5z" />
    <glyph glyph-name="questiondown.ss02" horiz-adv-x="464" 
d="M298 501q24 0 40 -16t16 -40q0 -27 -20 -47.5t-49 -20.5q-23 0 -39 16t-16 39q0 28 20 48.5t48 20.5zM126 -233q-79 0 -132 39.5t-53 110.5q0 18 2 34t10 32t12.5 26.5t21 27l23.5 24t31.5 27t34 26.5l41.5 31q51 39 72.5 62t33.5 60l9 29h73l-8 -35q-13 -59 -35.5 -91.5
t-89.5 -80.5q-90 -66 -110 -88q-31 -34 -31 -75q0 -37 29 -58.5t78 -21.5q92 0 195 83l44 -64q-126 -98 -251 -98z" />
    <glyph glyph-name="semicolon.ss02" horiz-adv-x="258" 
d="M176 498q23 0 39 -16.5t16 -39.5q0 -28 -19.5 -48.5t-47.5 -20.5q-25 0 -41 16.5t-16 40.5q0 27 20 47.5t49 20.5zM96 115q28 0 46 -19.5t18 -56.5q0 -66 -46.5 -116.5t-108.5 -53.5l8 42q28 6 53 27.5t34 55.5q-10 -2 -17 -2q-25 0 -41 15t-16 39q0 28 20.5 48.5
t49.5 20.5z" />
    <glyph glyph-name="emdash.case" horiz-adv-x="966" 
d="M915 384l-14 -74h-807l15 74h806z" />
    <glyph glyph-name="endash.case" horiz-adv-x="724" 
d="M684 384l-15 -74h-586l14 74h587z" />
    <glyph glyph-name="hyphen.case" horiz-adv-x="405" 
d="M378 385l-17 -77h-291l17 77h291z" />
    <glyph glyph-name="guillemotleft.case" horiz-adv-x="571" 
d="M356 551l-193 -225l92 -211h-81l-94 218l186 218h90zM574 551l-193 -225l92 -211h-81l-94 218l186 218h90z" />
    <glyph glyph-name="guillemotright.case" horiz-adv-x="571" 
d="M215 551l95 -218l-186 -218h-90l193 225l-93 211h81zM433 551l95 -218l-187 -218h-90l194 225l-93 211h81z" />
    <glyph glyph-name="guilsinglleft.case" horiz-adv-x="354" 
d="M356 551l-193 -225l92 -211h-81l-94 218l186 218h90z" />
    <glyph glyph-name="guilsinglright.case" horiz-adv-x="354" 
d="M215 551l95 -218l-186 -218h-90l193 225l-93 211h81z" />
    <glyph glyph-name="quotedblbase.ss02" horiz-adv-x="400" 
d="M72 109q27 0 44 -18t17 -53q0 -63 -43.5 -111t-103.5 -51l8 39q26 6 49.5 26.5t32.5 52.5q-10 -2 -17 -2q-23 0 -38 14.5t-15 37.5q0 27 19.5 46t46.5 19zM252 109q27 0 44 -18t17 -53q0 -63 -43.5 -111t-103.5 -51l8 39q26 6 49.5 26.5t32.5 52.5q-10 -2 -16 -2
q-23 0 -38.5 14.5t-15.5 37.5q0 27 19.5 46t46.5 19z" />
    <glyph glyph-name="quotedblleft.ss02" horiz-adv-x="407" 
d="M107 553q0 63 44 111t104 51l-8 -39q-26 -7 -50 -27.5t-33 -52.5q6 2 17 2q24 0 39 -14t15 -37q0 -28 -19.5 -46.5t-47.5 -18.5q-27 0 -44 18t-17 53zM430 676q-26 -7 -50 -27.5t-33 -52.5q6 2 17 2q24 0 39 -14t15 -37q0 -28 -19.5 -46.5t-47.5 -18.5q-26 0 -43.5 18.5
t-17.5 52.5q0 63 44 111t104 51z" />
    <glyph glyph-name="quotedblright.ss02" horiz-adv-x="404" 
d="M194 714q27 0 44 -18t17 -53q0 -63 -43.5 -111t-103.5 -51l8 39q26 6 49.5 26.5t32.5 52.5q-10 -2 -16 -2q-23 0 -38.5 14.5t-15.5 37.5q0 27 19.5 46t46.5 19zM374 714q27 0 44 -18t17 -53q0 -63 -43.5 -111t-103.5 -51l8 39q26 6 49.5 26.5t32.5 52.5q-10 -2 -16 -2
q-23 0 -38.5 14.5t-15.5 37.5q0 27 19.5 46t46.5 19z" />
    <glyph glyph-name="quoteleft.ss02" horiz-adv-x="223" 
d="M247 675q-26 -6 -50 -27t-33 -52q12 2 17 2q23 0 38.5 -14.5t15.5 -37.5q0 -27 -19.5 -46t-47.5 -19q-27 0 -44 18t-17 53q0 63 44 111t104 51z" />
    <glyph glyph-name="quoteright.ss02" horiz-adv-x="223" 
d="M194 714q27 0 44 -18t17 -53q0 -63 -43.5 -111t-103.5 -51l8 39q26 6 49.5 26.5t32.5 52.5q-10 -2 -16 -2q-23 0 -38.5 14.5t-15.5 37.5q0 27 19.5 46t46.5 19z" />
    <glyph glyph-name="quotesinglbase.ss02" horiz-adv-x="220" 
d="M72 109q27 0 44 -18t17 -53q0 -63 -43.5 -111t-103.5 -51l8 39q26 6 49.5 26.5t32.5 52.5q-10 -2 -17 -2q-23 0 -38 14.5t-15 37.5q0 27 19.5 46t46.5 19z" />
    <glyph glyph-name="divide.ss02" horiz-adv-x="600" 
d="M301 434q-26 0 -44.5 18.5t-18.5 44.5q0 25 18.5 43t44.5 18q25 0 43.5 -18t18.5 -43q0 -26 -18.5 -44.5t-43.5 -18.5zM560 347v-74h-520v74h520zM301 62q-26 0 -44.5 18.5t-18.5 43.5t18.5 43.5t44.5 18.5q25 0 43.5 -18.5t18.5 -43.5t-18.5 -43.5t-43.5 -18.5z" />
    <glyph glyph-name="registered.ss03" horiz-adv-x="856" 
d="M449 723q156 0 262 -105.5t106 -262.5t-106 -262.5t-262 -105.5t-262 105.5t-106 262.5t106 262.5t262 105.5zM449 670q-133 0 -219.5 -90.5t-86.5 -224.5t86.5 -224.5t219.5 -90.5t220 90.5t87 224.5t-87 224.5t-220 90.5zM473 567q59 0 96.5 -36.5t37.5 -92.5
q0 -83 -82 -114l107 -171h-73l-98 162h-90v-162h-64v414h166zM458 509h-87v-140h87q85 0 85 70q0 32 -21.5 51t-63.5 19z" />
    <glyph glyph-name="uni0326.alt" horiz-adv-x="0" 
d="M-139 587l19 88l78 100h48l-73 -100h47l-18 -88h-101z" />
    <glyph glyph-name="uni0326.alt.ss02" horiz-adv-x="0" 
d="M-44 735q-22 -2 -42 -15.5t-28 -37.5q8 3 18 3q23 0 35.5 -11.5t12.5 -31.5q0 -24 -18 -40t-42 -16q-25 0 -41 15.5t-16 44.5q0 49 37 86.5t92 37.5z" />
    <glyph glyph-name="uni0326.ss02" horiz-adv-x="0" 
d="M-170 -69q25 0 41 -15.5t16 -44.5q0 -50 -35.5 -87t-89.5 -37l4 36q21 2 41.5 15t28.5 37q-5 -2 -17 -2q-23 0 -36 12t-13 32q0 23 17.5 38.5t42.5 15.5z" />
    <glyph glyph-name="caron.alt" horiz-adv-x="296" 
d="M317 710l-109 -198h-57l81 198h85z" />
    <glyph glyph-name="dieresis.ss02" horiz-adv-x="461" 
d="M213 588q-21 0 -35.5 14t-14.5 35q0 24 18 42t43 18q21 0 35.5 -14t14.5 -34q0 -25 -18 -43t-43 -18zM391 588q-21 0 -35 14.5t-14 34.5q0 24 18 42t43 18q21 0 35 -14t14 -34q0 -25 -18 -43t-43 -18z" />
    <glyph glyph-name="dotaccent.ss02" horiz-adv-x="286" 
d="M214 585q-22 0 -36.5 14.5t-14.5 35.5q0 26 18.5 44t44.5 18q22 0 36 -14t14 -35q0 -26 -18 -44.5t-44 -18.5z" />
    </font>
</defs>
</svg>
